<svg width="141" height="129" viewBox="0 0 141 129" fill="none" xmlns="http://www.w3.org/2000/svg">
<path d="M90.6279 91.3059H45.0581V28.2541H57.3658V0H102.345V62.8016L90.536 62.6436L90.6279 91.3059ZM49.8604 86.474H85.8124V62.5778L75.4992 62.4461L75.1843 17.1816H90.6279V57.8117L97.5559 57.9039V4.8319H62.1287V28.3068H72.9537V73.5977H57.3658V33.1124H49.8604V86.474ZM62.1681 68.8053H68.2301V33.1519H62.2206L62.1681 68.8053ZM80.2622 57.68L85.7993 57.759V22.0135H80.0391L80.2622 57.68Z" fill="white"/>
<path d="M73.0061 69.7402H69.4634V73.611H73.0061V69.7402Z" fill="white"/>
<path d="M11.4417 116.624C11.2357 116.628 11.0307 116.592 10.8382 116.518C10.7686 116.495 10.7076 116.451 10.6632 116.392C10.6188 116.334 10.5929 116.263 10.5889 116.189C10.5929 116.107 10.6179 116.028 10.6616 115.959C10.7053 115.89 10.7661 115.833 10.8382 115.794C11.052 115.674 11.2759 115.573 11.5073 115.491C12.0379 115.334 12.5389 115.089 12.99 114.767C13.4897 114.363 13.8706 113.831 14.0922 113.227C14.6302 111.989 15.1419 110.804 15.6012 109.672C16.0604 108.54 16.5196 107.434 16.9133 106.341C17.3069 105.248 17.7793 104.116 18.2254 102.944C18.6715 101.773 19.1176 100.535 19.5375 99.2052C19.6941 98.8237 19.8256 98.4322 19.9311 98.0334C20.0031 97.7565 20.0557 97.475 20.0886 97.1908C20.3335 97.1423 20.5747 97.0763 20.8103 96.9933C21.0657 96.9146 21.3121 96.8087 21.545 96.6773C21.7765 96.5603 21.9683 96.377 22.0961 96.1507C22.1938 95.9723 22.3034 95.8008 22.4242 95.6372H22.5554C22.5554 95.6372 22.6603 95.6372 22.6997 95.7425C22.7568 95.8464 22.8009 95.9569 22.8309 96.0717C22.8309 96.2033 22.8965 96.335 22.9359 96.4798C23.4082 97.9544 23.8806 99.4685 24.3792 100.996C24.8778 102.523 25.3633 104.037 25.8488 105.499C26.3343 106.96 26.7935 108.316 27.1609 109.567C27.5283 110.818 27.9482 111.91 28.25 112.845C28.4139 113.404 28.681 113.926 29.0372 114.386C29.3048 114.712 29.635 114.98 30.0082 115.175C30.3653 115.354 30.7449 115.482 31.1366 115.557C31.3815 115.59 31.6152 115.68 31.8189 115.821C31.8847 115.873 31.9387 115.939 31.9772 116.014C32.0156 116.089 32.0377 116.171 32.042 116.255C32.0379 116.317 32.014 116.376 31.9739 116.424C31.9337 116.471 31.8793 116.504 31.8189 116.518C31.6315 116.542 31.442 116.542 31.2547 116.518H29.9426L28.3024 116.439H26.7541H25.442H24.1299C23.71 116.439 23.3558 116.439 23.054 116.439C22.8517 116.451 22.6496 116.414 22.4635 116.334C22.3061 116.268 22.2273 116.176 22.2273 116.044C22.2324 115.959 22.2609 115.878 22.3095 115.808C22.3582 115.738 22.4251 115.683 22.5029 115.649C22.705 115.546 22.9219 115.475 23.1458 115.439C23.6813 115.377 24.1942 115.187 24.6416 114.886C24.7934 114.779 24.9103 114.629 24.978 114.456C25.0457 114.283 25.061 114.093 25.0221 113.912C24.9919 113.467 24.9216 113.027 24.8122 112.595C24.6941 112.081 24.5498 111.529 24.3923 110.949C24.2349 110.37 24.0774 109.83 23.9331 109.343C23.9233 109.28 23.8993 109.22 23.8629 109.167C23.8265 109.115 23.7787 109.071 23.7231 109.04C23.5493 109.013 23.3722 109.013 23.1983 109.04H17.7924C17.7417 109.038 17.691 109.046 17.6436 109.064C17.5962 109.082 17.553 109.11 17.5168 109.145C17.4098 109.263 17.3292 109.402 17.2807 109.554C17.2151 109.804 17.1232 110.107 16.992 110.488C16.8608 110.87 16.7296 111.252 16.6115 111.673C16.4934 112.095 16.3753 112.476 16.2835 112.832C16.2105 113.086 16.1578 113.346 16.126 113.609C16.0848 113.824 16.098 114.047 16.1645 114.256C16.231 114.466 16.3485 114.655 16.5065 114.807C16.9059 115.156 17.3904 115.392 17.9105 115.491C18.5272 115.663 18.829 115.86 18.829 116.11C18.8276 116.178 18.8036 116.244 18.7608 116.296C18.718 116.349 18.6588 116.385 18.5928 116.4C18.3973 116.432 18.1978 116.432 18.0023 116.4C17.6218 116.4 17.1757 116.4 16.6902 116.4H15.0894C14.4584 116.396 13.8277 116.427 13.2 116.492C12.5702 116.584 11.9928 116.624 11.4417 116.624ZM18.6453 107.816H23.0802C23.3558 107.816 23.5001 107.816 23.5001 107.658C23.5079 107.61 23.5079 107.561 23.5001 107.513C23.496 107.452 23.496 107.39 23.5001 107.329L21.1908 100.061C21.0989 99.7318 21.0071 99.5738 20.9546 99.5738C20.9021 99.5738 20.8365 99.7318 20.7446 100.035L18.1204 107.289C18.1095 107.368 18.1095 107.447 18.1204 107.526C18.1166 107.573 18.1308 107.619 18.1601 107.656C18.1893 107.693 18.2315 107.717 18.2779 107.724C18.3957 107.77 18.5193 107.801 18.6453 107.816Z" fill="white"/>
<path d="M37.5921 116.927C36.7782 116.933 35.9682 116.814 35.1909 116.571C34.4494 116.341 33.7526 115.984 33.1309 115.518C33.0373 115.427 32.9497 115.33 32.8685 115.228C32.7809 115.128 32.714 115.012 32.6717 114.886C32.5126 114.314 32.4158 113.727 32.383 113.135C32.383 112.424 32.3043 111.818 32.278 111.252C32.2757 111.187 32.2918 111.123 32.3243 111.067C32.3568 111.012 32.4045 110.966 32.4617 110.936C32.5906 110.866 32.735 110.83 32.8816 110.831C33.0045 110.826 33.1266 110.853 33.2359 110.91C33.2864 110.942 33.3299 110.985 33.3637 111.035C33.3976 111.084 33.421 111.14 33.4327 111.199C33.7244 112.506 34.3796 113.702 35.3222 114.649C36.0382 115.396 37.0184 115.832 38.0514 115.86C38.6737 115.881 39.2886 115.721 39.8227 115.399C40.3154 115.105 40.7191 114.682 40.9905 114.175C41.2825 113.638 41.4316 113.035 41.4235 112.424C41.4511 111.769 41.3158 111.117 41.0299 110.528C40.7388 110.015 40.3458 109.566 39.8752 109.211C39.2715 108.736 38.6406 108.296 37.9858 107.895C37.1722 107.408 36.385 106.894 35.5977 106.368C34.851 105.867 34.1981 105.239 33.6689 104.511C33.1462 103.735 32.8799 102.814 32.9079 101.878C32.8798 100.848 33.1533 99.8333 33.6943 98.9581C34.2354 98.0829 35.0203 97.3861 35.952 96.9539C37.0707 96.4249 38.2979 96.1678 39.534 96.2035C40.2053 96.1989 40.8748 96.274 41.5285 96.4273C42.0199 96.5516 42.5022 96.71 42.9718 96.9012C43.1415 96.9595 43.2916 97.0644 43.4048 97.2041C43.5255 97.3609 43.6146 97.5397 43.6672 97.7307C43.7722 98.152 43.8772 98.6523 43.9952 99.2185C44.1226 99.7888 44.1842 100.372 44.1789 100.956C44.1789 101.18 44.0215 101.299 43.6935 101.299C43.5142 101.302 43.3374 101.256 43.1817 101.167C43.0455 101.11 42.9371 101.001 42.8799 100.864C42.5806 99.8838 42.0649 98.9838 41.371 98.231C41.0628 97.9515 40.7022 97.7365 40.3101 97.5986C39.9181 97.4607 39.5026 97.4027 39.0879 97.4279C38.5196 97.4165 37.9556 97.5288 37.4347 97.757C36.9414 97.9688 36.5247 98.3272 36.2406 98.784C35.929 99.3606 35.7793 100.011 35.8076 100.667C35.815 101.227 36.009 101.77 36.3587 102.207C36.8015 102.716 37.314 103.159 37.8808 103.524C38.5237 103.958 39.1929 104.406 40.0195 104.84C40.811 105.308 41.5655 105.836 42.2764 106.42C42.9197 106.938 43.4548 107.577 43.8509 108.303C44.2519 109.074 44.4506 109.935 44.4282 110.804C44.4628 111.957 44.1667 113.095 43.5754 114.083C43.0041 114.992 42.1778 115.711 41.2004 116.15C40.0662 116.663 38.8362 116.928 37.5921 116.927Z" fill="white"/>
<path d="M46.6455 116.624C46.4492 116.626 46.254 116.595 46.0682 116.532C46.0214 116.503 45.9832 116.462 45.9578 116.414C45.9324 116.365 45.9206 116.31 45.9239 116.255C45.9239 115.992 46.2125 115.794 46.803 115.676C47.3923 115.582 47.9504 115.347 48.43 114.991C48.6134 114.788 48.7525 114.548 48.8384 114.287C48.9242 114.026 48.955 113.75 48.9286 113.477V99.7056C48.9713 99.1711 48.8224 98.6389 48.5087 98.2047C48.0722 97.831 47.5316 97.6011 46.9604 97.5464C46.7219 97.5129 46.4935 97.4276 46.2913 97.2962C46.2269 97.2577 46.173 97.204 46.1341 97.1397C46.0952 97.0755 46.0726 97.0026 46.0682 96.9276C46.0682 96.8091 46.1469 96.7169 46.2913 96.638C46.4733 96.5596 46.6707 96.5235 46.8686 96.5326H48.6662H50.2538C50.7656 96.5326 51.3298 96.5326 51.9334 96.5326H54.5576C55.4498 96.5326 56.2765 96.5326 56.9981 96.5326C57.7198 96.5326 58.3102 96.5326 58.717 96.5326H59.5174C59.6482 96.5333 59.7776 96.5602 59.8979 96.6116C59.9602 96.6331 60.0153 96.6716 60.0571 96.7227C60.0988 96.7739 60.1255 96.8357 60.1341 96.9013C60.2259 97.5201 60.3309 98.1389 60.449 98.7445C60.5503 99.2609 60.6074 99.7851 60.6196 100.311C60.6285 100.386 60.6201 100.461 60.5951 100.532C60.57 100.603 60.529 100.667 60.4752 100.719C60.3957 100.79 60.2926 100.827 60.1866 100.825C60.1427 100.829 60.0984 100.824 60.0573 100.807C60.0162 100.791 59.9795 100.766 59.9504 100.733C59.8699 100.66 59.8071 100.57 59.7667 100.469L59.3731 99.3501C59.2795 99.0738 59.1323 98.8187 58.9401 98.5997C58.6863 98.327 58.3777 98.1116 58.0347 97.9677C57.6686 97.8165 57.276 97.7404 56.88 97.7439H53.3636C53.0622 97.7597 52.7712 97.8601 52.5238 98.0335C52.3857 98.1196 52.2722 98.24 52.194 98.3829C52.1158 98.5259 52.0758 98.6868 52.0777 98.8498V105.064C52.0744 105.154 52.089 105.243 52.1205 105.326C52.1521 105.41 52.2 105.486 52.2614 105.551C52.3758 105.668 52.5315 105.734 52.6944 105.736H55.581C55.7987 105.76 56.019 105.737 56.2272 105.669C56.4354 105.601 56.6267 105.489 56.7882 105.341C57.0579 104.977 57.246 104.56 57.3393 104.116C57.4836 103.708 57.6673 103.511 57.9166 103.511C57.9696 103.51 58.022 103.521 58.0699 103.544C58.1177 103.567 58.1596 103.6 58.1921 103.642C58.2792 103.765 58.321 103.914 58.3102 104.064C58.3102 104.182 58.3102 104.38 58.3102 104.669C58.3102 104.959 58.3102 105.248 58.2446 105.551C58.179 105.854 58.2446 106.104 58.2446 106.289C58.2446 106.473 58.2446 106.776 58.2446 107.092V108.027C58.2446 108.325 58.2446 108.549 58.2446 108.698C58.2807 108.841 58.2807 108.99 58.2446 109.132C58.2446 109.251 58.1265 109.304 58.0216 109.304C57.6935 109.304 57.4574 109.001 57.2868 108.421C57.2069 107.991 57.037 107.583 56.7882 107.223C56.6742 107.089 56.5307 106.984 56.369 106.915C56.2072 106.847 56.0318 106.817 55.8566 106.828H53.0224C52.7758 106.809 52.5289 106.864 52.3139 106.986C52.2254 107.064 52.1575 107.162 52.1163 107.272C52.0751 107.383 52.0618 107.502 52.0777 107.618V113.451C52.0457 113.707 52.0652 113.968 52.1351 114.216C52.2049 114.465 52.3237 114.697 52.4844 114.899C52.8859 115.205 53.3862 115.351 53.8884 115.307H56.2765C56.7776 115.314 57.2783 115.274 57.7723 115.189C58.1655 115.12 58.538 114.963 58.8613 114.728C59.2245 114.473 59.5362 114.151 59.7798 113.78C60.0855 113.327 60.3575 112.852 60.5933 112.358C60.6594 112.248 60.7437 112.15 60.8426 112.068C60.8769 112.031 60.9208 112.004 60.9694 111.99C61.018 111.976 61.0694 111.976 61.1182 111.989C61.1679 111.985 61.2178 111.996 61.2619 112.019C61.3061 112.042 61.3427 112.078 61.3675 112.121C61.424 112.231 61.4512 112.353 61.4462 112.477C61.429 112.815 61.3762 113.15 61.2887 113.477C61.1876 113.953 61.0606 114.424 60.9082 114.886C60.7639 115.373 60.6327 115.781 60.5015 116.137C60.4494 116.261 60.3786 116.376 60.2915 116.479C60.2549 116.524 60.2089 116.56 60.1567 116.585C60.1046 116.61 60.0476 116.623 59.9898 116.624H57.7067H55.2793L52.7862 116.558H50.3326C49.904 116.558 49.4972 116.558 49.1123 116.558L47.9445 116.65C47.6034 116.611 47.1573 116.624 46.6455 116.624Z" fill="white"/>
<path d="M72.7962 116.676C72.4157 116.676 71.8515 116.676 71.1167 116.676L68.7549 116.571C67.9283 116.571 67.1935 116.571 66.5374 116.571H65.3959H64.2937C63.9132 116.571 63.4671 116.571 62.9816 116.571C62.7893 116.578 62.5976 116.547 62.4174 116.479C62.3516 116.461 62.2938 116.422 62.2533 116.367C62.2128 116.312 62.192 116.244 62.1943 116.176C62.1889 116.104 62.2063 116.032 62.244 115.971C62.2817 115.909 62.3378 115.861 62.4043 115.834C62.6159 115.734 62.8416 115.667 63.0735 115.636C63.6607 115.573 64.2169 115.34 64.6742 114.965C65.0014 114.537 65.156 114.001 65.1072 113.464V99.7055C65.1586 99.1763 65.0034 98.6477 64.6742 98.231C64.2153 97.8564 63.6605 97.6191 63.0735 97.5463C62.8398 97.5085 62.6138 97.4329 62.4043 97.3225C62.339 97.2897 62.2845 97.2388 62.2472 97.1757C62.21 97.1127 62.1917 97.0402 62.1943 96.967C62.1962 96.8965 62.2183 96.828 62.2578 96.7696C62.2973 96.7113 62.3527 96.6656 62.4174 96.6379C62.5965 96.5652 62.7884 96.5294 62.9816 96.5325H64.2937H65.4221H66.7343H67.9676L69.5422 96.5062L71.1167 96.4141C71.6153 96.4141 71.9827 96.4141 72.2451 96.4141C73.9096 96.3812 75.5679 96.6259 77.1525 97.1382C78.4528 97.5643 79.6474 98.2646 80.6558 99.1921C81.5722 100.06 82.2926 101.115 82.7683 102.286C83.2528 103.509 83.4978 104.814 83.49 106.131C83.496 108.205 82.8916 110.235 81.7525 111.965C80.6134 113.696 78.9903 115.051 77.0869 115.86C75.7263 116.421 74.2667 116.698 72.7962 116.676ZM72.4026 115.36C73.794 115.398 75.1651 115.018 76.3389 114.267C77.4896 113.519 78.4008 112.454 78.9632 111.199C79.6008 109.782 79.9146 108.239 79.8817 106.683C79.9059 105.369 79.6879 104.061 79.2387 102.826C78.8127 101.796 78.1935 100.857 77.4149 100.061C76.7326 99.2892 75.8937 98.6726 74.9546 98.2526C74.0155 97.8325 72.9978 97.6186 71.9696 97.6253C71.1823 97.6253 70.5 97.6253 69.9489 97.7043C69.4814 97.71 69.0256 97.8518 68.6368 98.1125C68.4819 98.2539 68.3629 98.4304 68.2898 98.6274C68.2168 98.8244 68.1918 99.0361 68.217 99.2447V112.661C68.1728 113.294 68.3698 113.919 68.768 114.412C69.1807 114.824 69.7059 115.103 70.277 115.215C70.9748 115.369 71.6883 115.44 72.4026 115.426V115.36Z" fill="white"/>
<path d="M95.4827 116.901C93.8942 116.937 92.3213 116.58 90.9034 115.86C89.7285 115.286 88.7543 114.368 88.1086 113.227C87.456 111.94 87.1315 110.511 87.1639 109.067V99.8901C87.195 99.3297 87.0529 98.7734 86.7571 98.297C86.5198 97.9393 86.1525 97.6888 85.7337 97.5992C85.0907 97.4149 84.7627 97.1911 84.7627 96.9278C84.7627 96.6644 84.8414 96.6908 85.012 96.6249C85.2053 96.555 85.4103 96.5237 85.6156 96.5328C86.1404 96.5328 86.6784 96.5328 87.2295 96.5986C87.7806 96.6644 88.3317 96.5986 88.8959 96.5986H90.4704C91.0215 96.5986 91.507 96.5986 91.9268 96.5986C92.1404 96.5953 92.353 96.6264 92.5567 96.6908C92.6224 96.713 92.6793 96.7556 92.7194 96.8124C92.7595 96.8691 92.7806 96.9372 92.7797 97.0068C92.7797 97.1648 92.6748 97.2964 92.4648 97.3886C92.2549 97.4807 91.9793 97.5861 91.6251 97.7046C91.2999 97.8657 91.0235 98.1112 90.8247 98.4155C90.5338 98.8745 90.3917 99.4126 90.4179 99.9559V108.303C90.3671 109.618 90.6279 110.927 91.1789 112.121C91.6224 113.056 92.3539 113.822 93.2652 114.307C94.1933 114.788 95.2253 115.032 96.27 115.018C97.1153 115.085 97.9637 114.936 98.7367 114.586C99.5096 114.236 100.182 113.697 100.692 113.017C101.723 111.375 102.218 109.451 102.109 107.513V105.709C102.109 104.998 102.109 104.248 102.109 103.458C102.109 102.668 102.109 101.904 102.109 101.194C102.105 100.62 102.052 100.047 101.951 99.482C101.876 99.0547 101.725 98.6445 101.505 98.2707C101.422 98.1185 101.31 97.9843 101.175 97.8758C101.039 97.7673 100.884 97.6868 100.718 97.6387L99.9701 97.4281C99.7077 97.3227 99.5896 97.1911 99.5896 97.0331C99.5896 96.8751 99.6683 96.8093 99.8258 96.7566C100.033 96.687 100.251 96.6557 100.469 96.6644H101.781C102.096 96.6644 102.503 96.6644 102.962 96.6644C103.421 96.6644 103.618 96.6644 103.893 96.6644H104.694H105.52C105.726 96.6576 105.93 96.6888 106.124 96.7566C106.191 96.774 106.251 96.8131 106.293 96.8678C106.336 96.9226 106.359 96.9899 106.36 97.0594C106.36 97.3227 106.045 97.5334 105.429 97.6782C105.177 97.718 104.936 97.8115 104.724 97.9523C104.511 98.0931 104.331 98.278 104.195 98.4945C103.937 98.9955 103.797 99.5498 103.788 100.114C103.657 101.641 103.657 103.168 103.657 104.564C103.657 105.96 103.657 107.342 103.565 108.724C103.569 110.211 103.185 111.673 102.45 112.964C101.758 114.167 100.763 115.166 99.5634 115.86C98.3177 116.56 96.9103 116.919 95.4827 116.901Z" fill="white"/>
<path d="M107.239 116.584C107.052 116.608 106.863 116.608 106.675 116.584C106.612 116.567 106.555 116.529 106.515 116.477C106.475 116.425 106.453 116.361 106.452 116.295C106.452 116.031 106.741 115.834 107.331 115.715C107.946 115.635 108.532 115.405 109.037 115.044C109.232 114.85 109.382 114.614 109.475 114.354C109.568 114.095 109.602 113.818 109.575 113.543V99.7056C109.63 99.1781 109.48 98.6497 109.155 98.231C108.707 97.856 108.16 97.6183 107.581 97.5463C106.99 97.4147 106.688 97.2172 106.688 96.9275C106.688 96.8597 106.71 96.7937 106.75 96.7392C106.79 96.6846 106.847 96.6445 106.911 96.6247C107.082 96.5541 107.265 96.5226 107.449 96.5326H108.866H110.06C110.454 96.5326 110.861 96.5326 111.373 96.5326H112.58H113.734C114.128 96.5326 114.574 96.5326 115.047 96.5326C115.242 96.5262 115.437 96.5529 115.624 96.6116C115.687 96.627 115.743 96.6646 115.782 96.7177C115.82 96.7707 115.839 96.8358 115.834 96.9012C115.836 96.9793 115.816 97.0564 115.776 97.1239C115.737 97.1913 115.68 97.2464 115.611 97.283C115.404 97.3925 115.183 97.4722 114.955 97.52C114.354 97.6104 113.786 97.8503 113.301 98.2178C113.124 98.419 112.992 98.6557 112.912 98.9122C112.833 99.1687 112.809 99.4391 112.842 99.7056V113.477C112.816 113.749 112.855 114.024 112.955 114.278C113.056 114.532 113.215 114.758 113.419 114.939C113.923 115.301 114.501 115.545 115.112 115.65C115.345 115.682 115.571 115.753 115.781 115.86C115.85 115.893 115.908 115.946 115.947 116.011C115.987 116.077 116.007 116.152 116.004 116.229C116.001 116.289 115.979 116.347 115.942 116.394C115.904 116.442 115.852 116.476 115.794 116.492C115.619 116.562 115.431 116.594 115.243 116.584C114.732 116.584 114.272 116.584 113.839 116.584L112.606 116.505H111.294H109.982L108.67 116.584C108.224 116.571 107.751 116.584 107.239 116.584Z" fill="white"/>
<path d="M122.027 116.927C121.213 116.934 120.403 116.814 119.626 116.572C118.88 116.341 118.179 115.985 117.552 115.518L117.303 115.229C117.216 115.129 117.149 115.012 117.106 114.886C116.947 114.315 116.85 113.728 116.818 113.135C116.818 112.424 116.726 111.819 116.713 111.252C116.707 111.187 116.721 111.122 116.754 111.065C116.787 111.009 116.837 110.964 116.896 110.937C117.025 110.866 117.17 110.83 117.316 110.831C117.439 110.826 117.561 110.853 117.671 110.91C117.721 110.943 117.765 110.985 117.798 111.035C117.832 111.085 117.856 111.141 117.867 111.2C118.155 112.504 118.806 113.701 119.744 114.649C120.464 115.366 121.432 115.777 122.447 115.795C123.073 115.817 123.693 115.657 124.231 115.334C124.718 115.032 125.12 114.611 125.399 114.11C125.68 113.569 125.825 112.968 125.819 112.358C125.862 111.736 125.742 111.113 125.47 110.551C125.199 109.99 124.785 109.51 124.27 109.159C123.671 108.683 123.045 108.244 122.394 107.843C121.581 107.355 120.78 106.842 120.006 106.315C119.264 105.841 118.615 105.234 118.09 104.525C117.562 103.752 117.295 102.828 117.329 101.891C117.3 100.863 117.572 99.8493 118.11 98.9742C118.649 98.0992 119.431 97.4016 120.36 96.9674C121.484 96.4392 122.715 96.1822 123.956 96.217C124.623 96.2124 125.288 96.2875 125.937 96.4408C126.429 96.5631 126.911 96.7215 127.38 96.9148C127.552 96.9761 127.706 97.0803 127.826 97.2176C127.943 97.3751 128.028 97.554 128.076 97.7442C128.181 98.1655 128.299 98.6658 128.417 99.232C128.534 99.8081 128.591 100.395 128.587 100.983C128.587 101.207 128.417 101.325 128.102 101.325C127.919 101.327 127.738 101.282 127.577 101.194C127.441 101.136 127.332 101.028 127.275 100.891C126.975 99.9138 126.464 99.0149 125.779 98.2577C125.173 97.6992 124.372 97.4015 123.549 97.4282C122.981 97.4169 122.416 97.5292 121.896 97.7574C121.408 97.9535 120.995 98.2991 120.715 98.7448C120.393 99.3179 120.238 99.9704 120.269 100.628C120.274 101.191 120.474 101.735 120.833 102.168C121.273 102.68 121.785 103.123 122.355 103.485C122.985 103.919 123.667 104.367 124.494 104.801C125.279 105.272 126.029 105.8 126.737 106.381C127.38 106.903 127.919 107.541 128.325 108.264C128.726 109.035 128.925 109.896 128.902 110.765C128.937 111.918 128.641 113.055 128.049 114.044C127.476 114.956 126.645 115.676 125.661 116.111C124.523 116.643 123.283 116.921 122.027 116.927Z" fill="white"/>
<path d="M4.39541 126.604C3.8884 126.621 3.38223 126.55 2.8996 126.393C2.41907 126.234 1.97357 125.984 1.58748 125.656C1.22041 125.337 0.921371 124.948 0.708363 124.51C0.493318 124.04 0.385729 123.527 0.393455 123.009C0.388068 122.507 0.500439 122.011 0.721484 121.561C0.930023 121.102 1.23959 120.697 1.62684 120.376C2.0123 120.031 2.45685 119.759 2.93896 119.573C3.479 119.385 4.04702 119.292 4.61847 119.297H5.32701L5.93059 119.402L6.5604 119.573C6.63984 119.599 6.71182 119.645 6.77034 119.705C6.7992 119.734 6.82124 119.769 6.83486 119.808C6.84847 119.846 6.85333 119.888 6.84907 119.929C6.84907 120.113 6.84907 120.31 6.91467 120.508C6.98028 120.705 6.91467 120.942 6.91467 121.192C6.91692 121.22 6.91054 121.247 6.89642 121.271C6.88229 121.295 6.86114 121.313 6.83595 121.324C6.80849 121.345 6.77597 121.359 6.74166 121.363C6.70736 121.368 6.67249 121.363 6.64056 121.35C6.60863 121.336 6.58077 121.315 6.55978 121.287C6.5388 121.26 6.52544 121.227 6.52104 121.192C6.46089 120.977 6.38637 120.766 6.29798 120.56C6.20977 120.375 6.07945 120.213 5.91746 120.087C5.75711 119.969 5.58024 119.876 5.39262 119.81C5.10935 119.739 4.8185 119.704 4.52662 119.705C4.14036 119.698 3.75812 119.784 3.41132 119.955C3.0776 120.119 2.78242 120.352 2.54533 120.639C2.30661 120.925 2.12004 121.25 1.99424 121.601C1.85271 121.961 1.78145 122.345 1.7843 122.733C1.78252 123.179 1.8489 123.623 1.98112 124.049C2.09229 124.454 2.27932 124.834 2.5322 125.169C2.76637 125.488 3.06619 125.753 3.41132 125.945C3.76801 126.144 4.17111 126.244 4.57911 126.235C5.04297 126.259 5.50245 126.135 5.89122 125.88C6.2544 125.617 6.54737 125.269 6.7441 124.866C6.76277 124.818 6.79539 124.778 6.83759 124.75C6.87979 124.722 6.92957 124.707 6.98028 124.708C7.08525 124.708 7.12461 124.708 7.12461 124.892C7.13408 124.988 7.13408 125.085 7.12461 125.182C7.10384 125.324 7.07315 125.465 7.03276 125.603C7.03276 125.748 6.94092 125.88 6.90155 126.011C6.86829 126.076 6.82874 126.138 6.78346 126.196C6.71419 126.232 6.63837 126.254 6.5604 126.261C6.24694 126.38 5.9213 126.464 5.58944 126.511C5.19511 126.579 4.7954 126.61 4.39541 126.604Z" fill="white"/>
<path d="M7.64944 126.498C7.58026 126.513 7.50869 126.513 7.4395 126.498C7.41503 126.493 7.39294 126.48 7.37643 126.461C7.35991 126.442 7.34984 126.418 7.34766 126.393C7.3489 126.363 7.35805 126.334 7.37418 126.308C7.39031 126.283 7.41284 126.262 7.4395 126.248L7.67569 126.143C7.866 126.09 8.04426 126.001 8.20053 125.88C8.38511 125.751 8.52324 125.567 8.59417 125.353C8.79098 124.905 8.97468 124.484 9.13213 124.036L9.61762 122.838L10.0769 121.627C10.2343 121.219 10.4049 120.771 10.5623 120.31C10.6197 120.178 10.6679 120.041 10.7067 119.902C10.7171 119.802 10.7171 119.7 10.7067 119.599H10.9691L11.2315 119.481C11.312 119.438 11.3798 119.374 11.4283 119.297L11.5464 119.112C11.5559 119.151 11.5559 119.192 11.5464 119.231V119.362C11.7039 119.902 11.8745 120.429 12.0582 120.982C12.2418 121.535 12.4124 122.061 12.583 122.588C12.7536 123.115 12.9241 123.589 13.0685 124.036C13.2128 124.484 13.3571 124.866 13.4621 125.195C13.5158 125.396 13.6095 125.584 13.7377 125.748C13.8358 125.867 13.9562 125.965 14.0919 126.038C14.2174 126.097 14.3496 126.141 14.4856 126.169C14.5749 126.179 14.6605 126.211 14.7349 126.261C14.7586 126.28 14.7779 126.304 14.7915 126.332C14.8051 126.359 14.8127 126.389 14.8136 126.419C14.8138 126.442 14.806 126.463 14.7915 126.48C14.777 126.497 14.7569 126.508 14.7349 126.512H14.5249H14.0788H13.4884H11.8089C11.7396 126.526 11.6681 126.526 11.5989 126.512C11.5769 126.504 11.5576 126.49 11.5436 126.471C11.5296 126.452 11.5215 126.43 11.5202 126.406C11.5202 126.406 11.5202 126.301 11.6252 126.261C11.6921 126.218 11.7686 126.19 11.8482 126.182C12.0412 126.163 12.2262 126.095 12.3862 125.985C12.4394 125.947 12.4803 125.895 12.5037 125.834C12.5271 125.773 12.5318 125.706 12.5174 125.643C12.529 125.454 12.5202 125.264 12.4912 125.076C12.4912 124.892 12.3993 124.695 12.3468 124.484C12.2943 124.273 12.2287 124.089 12.1762 123.918C12.1883 123.884 12.1883 123.847 12.1762 123.813H11.9794H9.9194C9.88528 123.801 9.84855 123.801 9.81443 123.813C9.77996 123.856 9.75331 123.905 9.73571 123.957C9.70699 124.069 9.67194 124.179 9.63074 124.287C9.5792 124.429 9.5354 124.574 9.49953 124.721C9.44988 124.854 9.41041 124.99 9.38144 125.129L9.31583 125.406C9.30364 125.482 9.31042 125.561 9.33559 125.634C9.36076 125.708 9.40354 125.774 9.46016 125.827C9.60086 125.954 9.77313 126.04 9.95877 126.077C10.1818 126.077 10.2868 126.209 10.2868 126.301C10.287 126.323 10.2792 126.345 10.2647 126.362C10.2502 126.379 10.2301 126.39 10.2081 126.393C10.1388 126.408 10.0674 126.408 9.99813 126.393H8.94844H8.26614L7.64944 126.498ZM10.2737 123.352H11.8089C11.9138 123.352 11.9663 123.352 11.9663 123.352L11.1659 120.719C11.1659 120.6 11.1003 120.534 11.0872 120.534C11.0741 120.534 11.0872 120.534 11.0085 120.705L10.0637 123.339V123.431C10.0637 123.431 10.0637 123.431 10.0637 123.497L10.2737 123.352Z" fill="white"/>
<path d="M15.1812 126.485H14.9844C14.9589 126.482 14.9355 126.47 14.9185 126.45C14.9016 126.431 14.8924 126.406 14.8926 126.38C14.8926 126.288 14.9976 126.222 15.2075 126.169C15.4229 126.149 15.6278 126.066 15.7979 125.932C15.8647 125.86 15.9156 125.775 15.9473 125.682C15.9789 125.589 15.9906 125.49 15.9816 125.392V120.679C16 120.443 15.9547 120.207 15.8504 119.994C15.7907 119.908 15.7126 119.836 15.6219 119.784C15.5311 119.732 15.4299 119.7 15.3256 119.692C15.2387 119.679 15.1545 119.652 15.0763 119.613C15.0569 119.596 15.0411 119.576 15.0298 119.554C15.0185 119.531 15.012 119.506 15.0107 119.481C15.0107 119.481 15.0107 119.402 15.0894 119.376C15.1541 119.36 15.2215 119.36 15.2862 119.376H15.7455H16.0997H16.4934H16.9264H17.3594C17.5034 119.363 17.6483 119.363 17.7924 119.376C18.5038 119.339 19.2091 119.523 19.813 119.902C20.0542 120.063 20.2506 120.283 20.3837 120.541C20.5168 120.799 20.5823 121.086 20.574 121.377C20.5765 121.801 20.4822 122.22 20.2985 122.601C20.1276 122.981 19.8433 123.299 19.485 123.51C19.0581 123.753 18.5717 123.872 18.081 123.852C17.9494 123.861 17.8178 123.834 17.7005 123.773C17.6087 123.773 17.5562 123.668 17.5562 123.628C17.5479 123.61 17.5435 123.589 17.5435 123.569C17.5435 123.549 17.5479 123.528 17.5562 123.51C17.594 123.494 17.6364 123.494 17.6743 123.51H17.858H18.1598C18.3423 123.513 18.5221 123.464 18.6778 123.369C18.8336 123.273 18.9589 123.135 19.0389 122.97C19.2549 122.519 19.3541 122.021 19.3275 121.522C19.3483 121.283 19.3194 121.043 19.2426 120.816C19.1658 120.59 19.0428 120.381 18.8814 120.205C18.7271 120.06 18.5456 119.946 18.3475 119.872C18.1493 119.797 17.9383 119.763 17.7268 119.771C17.5568 119.761 17.3877 119.802 17.2413 119.889C17.1798 119.928 17.1301 119.982 17.0977 120.047C17.0653 120.113 17.0514 120.185 17.0576 120.258V125.392C17.0486 125.501 17.0618 125.611 17.0964 125.714C17.1309 125.817 17.1861 125.913 17.2585 125.994C17.331 126.075 17.4191 126.141 17.5177 126.187C17.6162 126.233 17.7231 126.258 17.8317 126.261L18.0679 126.34C18.092 126.353 18.1122 126.372 18.1261 126.395C18.14 126.418 18.1471 126.445 18.1466 126.472C18.1469 126.494 18.139 126.516 18.1245 126.533C18.11 126.55 18.0899 126.561 18.0679 126.564C17.9989 126.58 17.927 126.58 17.858 126.564H17.4512L17.0576 126.393H16.1653H15.7061L15.1812 126.485Z" fill="white"/>
<path d="M21.0597 126.485H20.8628C20.8373 126.482 20.8139 126.469 20.797 126.45C20.78 126.43 20.7708 126.406 20.771 126.38C20.771 126.288 20.876 126.222 21.0859 126.169C21.3082 126.144 21.5205 126.063 21.7026 125.932C21.7691 125.863 21.8199 125.78 21.8515 125.689C21.8832 125.598 21.8951 125.501 21.8863 125.405V120.468C21.9085 120.28 21.8567 120.091 21.742 119.942C21.579 119.81 21.3844 119.724 21.1778 119.691C20.9678 119.691 20.8628 119.573 20.8628 119.481C20.8621 119.457 20.8695 119.433 20.8838 119.414C20.8981 119.395 20.9185 119.381 20.9416 119.375C21.0063 119.36 21.0737 119.36 21.1384 119.375H21.637H22.07H23.8282H24.0382C24.0613 119.381 24.0816 119.395 24.096 119.414C24.1103 119.433 24.1176 119.457 24.1169 119.481C24.1147 119.509 24.1051 119.536 24.0889 119.559C24.0727 119.582 24.0507 119.601 24.025 119.612C23.9581 119.656 23.8816 119.683 23.802 119.691C23.5886 119.728 23.3865 119.814 23.2115 119.942C23.1474 120.012 23.099 120.096 23.0696 120.186C23.0402 120.277 23.0304 120.373 23.041 120.468V125.379C23.0315 125.475 23.0457 125.573 23.0823 125.662C23.1189 125.752 23.1768 125.831 23.2509 125.893C23.426 126.029 23.6345 126.115 23.8545 126.143L24.0907 126.222C24.1148 126.234 24.1349 126.253 24.1488 126.276C24.1628 126.299 24.1699 126.326 24.1694 126.353C24.1696 126.376 24.1618 126.397 24.1473 126.414C24.1328 126.431 24.1127 126.442 24.0907 126.446C24.0263 126.464 23.9582 126.464 23.8938 126.446H23.3952H22.9622H22.0306H21.5714L21.0597 126.485ZM22.07 119.007C22.0044 119.007 21.9781 119.007 21.9781 119.007C21.9852 118.935 22.0125 118.866 22.0569 118.809C22.2012 118.585 22.3587 118.362 22.5161 118.151C22.6736 117.94 22.831 117.717 23.0016 117.506C23.0354 117.455 23.0828 117.414 23.1384 117.388C23.1941 117.363 23.2558 117.353 23.3165 117.361H23.5658L23.8676 117.466C23.9594 117.466 23.9988 117.559 23.9988 117.611C23.9988 117.664 23.9988 117.743 23.8414 117.835C23.6839 117.927 23.3427 118.204 23.0672 118.388L22.2931 118.928L22.1487 119.007H22.07Z" fill="white"/>
<path d="M26.3604 126.485H26.1505C26.1274 126.479 26.107 126.466 26.0927 126.447C26.0784 126.427 26.071 126.404 26.0718 126.38C26.0722 126.355 26.0798 126.33 26.0938 126.309C26.1077 126.288 26.1274 126.272 26.1505 126.262C26.2286 126.219 26.3126 126.188 26.3998 126.169C26.6245 126.145 26.838 126.058 27.0165 125.919C27.0889 125.848 27.1442 125.761 27.1783 125.666C27.2124 125.57 27.2244 125.467 27.2133 125.366V121.048C27.2133 120.719 27.2133 120.482 27.2133 120.324C27.2084 120.207 27.1863 120.092 27.1477 119.981C27.1231 119.929 27.0814 119.888 27.0296 119.863H26.7278H25.9274C25.7359 119.862 25.547 119.907 25.3763 119.995C25.2053 120.064 25.059 120.183 24.9565 120.337L24.8384 120.521C24.784 120.593 24.7225 120.659 24.6547 120.719C24.6001 120.767 24.5306 120.795 24.4578 120.798C24.4459 120.805 24.4323 120.808 24.4185 120.808C24.4047 120.808 24.3911 120.805 24.3791 120.798C24.3717 120.763 24.3717 120.727 24.3791 120.692C24.376 120.604 24.3988 120.517 24.4447 120.442C24.5465 120.249 24.63 120.046 24.694 119.837C24.7521 119.634 24.7917 119.427 24.8121 119.218C24.8121 119.099 24.8121 119.033 24.8908 119.007C24.9335 118.993 24.9794 118.993 25.0221 119.007C25.0221 119.007 25.1139 119.007 25.1795 119.152L25.3238 119.376C25.412 119.455 25.5217 119.505 25.6388 119.521C25.7869 119.539 25.9367 119.539 26.0849 119.521H30.0212C30.209 119.536 30.3977 119.536 30.5854 119.521C30.7071 119.499 30.8259 119.464 30.9397 119.415C31.0298 119.376 31.1104 119.318 31.1759 119.244C31.2067 119.213 31.2437 119.189 31.2843 119.173C31.325 119.157 31.3685 119.15 31.4121 119.152C31.4121 119.152 31.4121 119.152 31.4777 119.152C31.4841 119.204 31.4841 119.257 31.4777 119.31C31.4835 119.354 31.4835 119.398 31.4777 119.442C31.4777 119.442 31.4777 119.547 31.4777 119.586C31.4575 119.698 31.4312 119.807 31.3989 119.916C31.3869 119.99 31.3869 120.065 31.3989 120.139C31.3902 120.227 31.3902 120.315 31.3989 120.403V120.548C31.4126 120.63 31.4126 120.715 31.3989 120.798C31.3989 120.877 31.3202 120.929 31.2677 120.929C31.2152 120.929 31.1628 120.929 31.1234 120.811C31.084 120.692 31.0578 120.627 31.0184 120.482C31.0031 120.393 30.9696 120.309 30.9199 120.234C30.8702 120.159 30.8054 120.095 30.7298 120.047C30.5093 119.926 30.2588 119.871 30.0081 119.889H28.8666C28.7587 119.864 28.6464 119.864 28.5385 119.889C28.4913 119.93 28.453 119.981 28.4259 120.038C28.3989 120.094 28.3836 120.156 28.3811 120.218C28.3623 120.495 28.3623 120.772 28.3811 121.048V125.34C28.3717 125.442 28.3857 125.545 28.4221 125.641C28.4585 125.737 28.5163 125.823 28.591 125.893C28.7755 126.021 28.9862 126.107 29.2077 126.143L29.4439 126.222C29.468 126.234 29.4882 126.253 29.5021 126.277C29.516 126.3 29.5231 126.327 29.5226 126.354C29.5296 126.368 29.5332 126.384 29.5332 126.4C29.5332 126.416 29.5296 126.432 29.5226 126.446C29.4534 126.461 29.3819 126.461 29.3127 126.446H28.7353H28.2892H27.3445H26.8853L26.3604 126.485Z" fill="white"/>
<path d="M34.9417 126.59C34.3758 126.607 33.814 126.49 33.3016 126.248C32.8763 126.029 32.5282 125.684 32.3044 125.261C32.0726 124.795 31.9599 124.28 31.9764 123.76V120.534C31.9878 120.333 31.9325 120.134 31.8189 119.968C31.7817 119.903 31.7307 119.847 31.6694 119.803C31.6082 119.76 31.5383 119.731 31.4646 119.718C31.2284 119.648 31.1104 119.569 31.1104 119.481C31.1102 119.455 31.1194 119.43 31.1363 119.411C31.1533 119.391 31.1767 119.379 31.2022 119.375C31.2714 119.361 31.343 119.361 31.4121 119.375H31.9895H33.669H33.892C33.9151 119.386 33.9348 119.402 33.9488 119.423C33.9627 119.444 33.9704 119.469 33.9708 119.494C33.9708 119.494 33.9708 119.586 33.8658 119.626L33.564 119.744C33.4439 119.795 33.3428 119.882 33.2753 119.994C33.1717 120.159 33.1213 120.352 33.131 120.547V123.523C33.1231 123.975 33.2126 124.425 33.3934 124.839C33.5534 125.172 33.8156 125.444 34.1413 125.616C34.4742 125.787 34.8436 125.873 35.2173 125.866C35.5182 125.891 35.8206 125.839 36.096 125.715C36.3713 125.59 36.6108 125.398 36.7918 125.155C37.1585 124.57 37.3329 123.884 37.2904 123.194V121.798C37.2904 121.522 37.2904 121.245 37.2904 120.995C37.2852 120.792 37.2632 120.589 37.2248 120.389C37.2046 120.235 37.1509 120.086 37.0674 119.955C37.0385 119.901 36.9993 119.854 36.952 119.815C36.9047 119.777 36.8502 119.748 36.7918 119.731L36.5425 119.626C36.4507 119.626 36.4113 119.547 36.4113 119.494C36.4113 119.441 36.4113 119.415 36.5032 119.389H36.7262H37.9596H38.2351H38.5369C38.6061 119.374 38.6777 119.374 38.7469 119.389C38.7724 119.392 38.7958 119.404 38.8128 119.424C38.8297 119.443 38.8389 119.468 38.8387 119.494C38.8387 119.586 38.7206 119.652 38.4976 119.705C38.4098 119.721 38.3262 119.756 38.2519 119.805C38.1775 119.855 38.1138 119.919 38.0646 119.994C37.9765 120.175 37.9273 120.372 37.9202 120.574C37.9202 121.166 37.8546 121.719 37.8546 122.206V123.694C37.863 124.225 37.7269 124.749 37.461 125.208C37.2177 125.636 36.8642 125.991 36.4375 126.235C35.9821 126.492 35.4637 126.615 34.9417 126.59Z" fill="white"/>
<path d="M39.1927 126.498C39.1288 126.52 39.0598 126.52 38.9959 126.498C38.9959 126.498 38.9171 126.498 38.9171 126.406C38.9158 126.377 38.9241 126.349 38.9407 126.325C38.9573 126.301 38.9813 126.283 39.009 126.275L39.1402 126.209C39.3608 126.169 39.5709 126.084 39.7569 125.959C39.8278 125.895 39.8825 125.815 39.9168 125.726C39.951 125.636 39.9636 125.54 39.9537 125.445V120.442C39.9799 120.316 39.9799 120.186 39.9537 120.06C39.9164 119.971 39.8458 119.9 39.7569 119.863C39.6206 119.811 39.4801 119.771 39.337 119.744C39.1271 119.744 39.0221 119.626 39.0221 119.534C39.0219 119.508 39.0311 119.483 39.0481 119.464C39.065 119.444 39.0884 119.432 39.1139 119.428C39.1787 119.413 39.246 119.413 39.3108 119.428H39.7962H40.203H41.9875H42.1843C42.1843 119.428 42.2499 119.428 42.2499 119.534C42.2533 119.56 42.2488 119.586 42.2372 119.61C42.2255 119.633 42.2071 119.652 42.1843 119.665C42.1097 119.713 42.0236 119.741 41.935 119.744C41.7159 119.799 41.501 119.869 41.2921 119.955C41.2145 119.996 41.1507 120.059 41.1087 120.137C41.0667 120.214 41.0483 120.302 41.0559 120.389V125.419C41.0425 125.594 41.0939 125.767 41.2002 125.906C41.3786 126.023 41.5919 126.074 41.8038 126.051H43.1159C43.2868 126.057 43.457 126.026 43.6145 125.959C43.7372 125.918 43.8492 125.851 43.9425 125.761C44.0654 125.661 44.1755 125.546 44.2706 125.419C44.3602 125.271 44.4391 125.117 44.5067 124.958L44.6117 124.682C44.6223 124.651 44.6418 124.625 44.6676 124.606C44.6933 124.588 44.7242 124.577 44.756 124.576C44.756 124.576 44.8479 124.576 44.861 124.576C44.8711 124.62 44.8711 124.665 44.861 124.708C44.861 124.905 44.7692 125.09 44.7167 125.235C44.6642 125.379 44.638 125.537 44.6117 125.669C44.5855 125.801 44.6117 125.959 44.6117 126.117V126.248C44.5931 126.257 44.573 126.261 44.5527 126.261C44.5323 126.261 44.5122 126.257 44.4936 126.248H42.5517H41.5938H40.1112H39.5207L39.1927 126.498Z" fill="white"/>
<path d="M48.7846 126.591C48.3358 126.587 47.8912 126.503 47.4725 126.341C47.0425 126.173 46.6468 125.927 46.3047 125.617C45.9648 125.294 45.6888 124.91 45.4912 124.484C45.2939 124.023 45.1955 123.525 45.2025 123.023C45.1997 122.539 45.2796 122.058 45.4387 121.601C45.6048 121.157 45.8493 120.747 46.1603 120.39C46.4597 120.04 46.8255 119.754 47.2363 119.547C47.7461 119.329 48.296 119.221 48.8502 119.231C49.3254 119.225 49.7975 119.31 50.241 119.481C50.6733 119.645 51.0699 119.89 51.4088 120.205C51.7488 120.525 52.021 120.91 52.2092 121.338C52.4079 121.798 52.502 122.297 52.4847 122.799C52.4862 123.279 52.4064 123.755 52.2486 124.208C52.0866 124.658 51.8418 125.073 51.5269 125.432C51.2007 125.792 50.8028 126.079 50.3591 126.275C49.8615 126.488 49.3255 126.595 48.7846 126.591ZM48.9551 126.13C49.4182 126.165 49.8797 126.044 50.2673 125.788C50.6134 125.542 50.8784 125.198 51.0283 124.8C51.1692 124.327 51.2182 123.831 51.1726 123.339C51.1703 122.895 51.1175 122.454 51.0152 122.022C50.9197 121.609 50.7603 121.214 50.5428 120.851C50.3507 120.522 50.0801 120.246 49.7555 120.047C49.4191 119.846 49.032 119.745 48.6402 119.758C48.2111 119.734 47.7858 119.849 47.4268 120.086C47.0678 120.323 46.794 120.67 46.6458 121.074C46.4962 121.515 46.4295 121.979 46.449 122.444C46.4474 122.887 46.4958 123.328 46.5933 123.76C46.6888 124.173 46.8482 124.569 47.0657 124.932C47.262 125.257 47.5261 125.535 47.8398 125.748C48.167 125.981 48.5544 126.114 48.9551 126.13Z" fill="white"/>
<path d="M55.3842 126.498C55.315 126.513 55.2435 126.513 55.1743 126.498C55.1536 126.49 55.1361 126.475 55.1244 126.456C55.1126 126.437 55.1071 126.415 55.1087 126.393C55.1087 126.301 55.2136 126.222 55.4236 126.182C55.6361 126.151 55.8383 126.069 56.014 125.945C56.0854 125.876 56.1402 125.792 56.1743 125.698C56.2083 125.605 56.2209 125.505 56.2108 125.405V120.468C56.2301 120.275 56.1736 120.081 56.0534 119.928C55.9057 119.783 55.7091 119.698 55.5023 119.691C55.4182 119.686 55.3369 119.658 55.2661 119.612C55.2429 119.599 55.2235 119.58 55.2097 119.557C55.196 119.534 55.1883 119.508 55.1874 119.481C55.1874 119.481 55.1874 119.402 55.2661 119.375C55.3352 119.359 55.407 119.359 55.4761 119.375H56.7226H57.1162H57.4967H58.0347C58.6926 119.335 59.3503 119.457 59.9504 119.731C60.1756 119.862 60.3569 120.057 60.4714 120.291C60.5859 120.526 60.6283 120.789 60.5933 121.048C60.601 121.27 60.556 121.491 60.4621 121.693C60.3885 121.855 60.2862 122.002 60.1603 122.127C60.0582 122.224 59.9485 122.312 59.8323 122.39C59.7006 122.469 59.5595 122.531 59.4124 122.575L59.9504 122.772C60.14 122.845 60.3171 122.947 60.4752 123.075C60.6505 123.202 60.7868 123.375 60.8689 123.575C60.973 123.825 61.0223 124.095 61.0132 124.365C61.025 124.691 60.9621 125.016 60.8295 125.313C60.7202 125.523 60.5682 125.707 60.3834 125.853C60.2225 125.963 60.0561 126.064 59.8848 126.156C59.6331 126.273 59.369 126.361 59.0975 126.419C58.7475 126.488 58.3912 126.519 58.0347 126.511H57.4967H56.4208H55.9747L55.3842 126.498ZM57.8247 122.443C58.0164 122.468 58.2104 122.468 58.4021 122.443C58.6135 122.4 58.8142 122.315 58.9925 122.193C59.1447 122.078 59.2646 121.925 59.3405 121.75C59.4164 121.575 59.4457 121.383 59.4255 121.192C59.427 120.955 59.387 120.719 59.3074 120.495C59.2348 120.278 59.0854 120.095 58.8876 119.981C58.62 119.83 58.3154 119.757 58.0084 119.77C57.8233 119.747 57.636 119.794 57.4836 119.902C57.4364 119.948 57.4 120.003 57.3773 120.065C57.3546 120.126 57.3461 120.192 57.3524 120.258V122.114C57.3426 122.18 57.3538 122.247 57.3845 122.306C57.4151 122.365 57.4636 122.413 57.523 122.443C57.6222 122.467 57.7255 122.467 57.8247 122.443ZM58.1265 126.011C58.4074 126.015 58.6841 125.942 58.9269 125.8C59.1648 125.665 59.3636 125.47 59.5043 125.234C59.6508 124.992 59.728 124.714 59.7273 124.431C59.7358 124.197 59.6956 123.964 59.6092 123.747C59.53 123.591 59.4332 123.445 59.3206 123.312C59.2281 123.223 59.127 123.144 59.0188 123.075C58.8969 122.999 58.7642 122.941 58.6251 122.904C58.3943 122.841 58.1559 122.81 57.9166 122.812C57.7672 122.801 57.6186 122.843 57.4967 122.93C57.4543 122.96 57.4192 123 57.3942 123.045C57.3692 123.091 57.3549 123.142 57.3524 123.194V125.274C57.3419 125.379 57.3541 125.485 57.3881 125.585C57.422 125.685 57.477 125.776 57.5492 125.853C57.7226 125.958 57.925 126.004 58.1265 125.985V126.011Z" fill="white"/>
<path d="M65.3564 126.591C64.7906 126.606 64.2291 126.489 63.7162 126.249C63.2973 126.025 62.9546 125.681 62.7322 125.261C62.4964 124.797 62.3791 124.281 62.391 123.76V120.535C62.4001 120.336 62.3499 120.138 62.2467 119.968C62.2055 119.904 62.1517 119.849 62.0885 119.806C62.0254 119.763 61.9542 119.733 61.8793 119.718C61.6562 119.652 61.5381 119.573 61.5381 119.481C61.5374 119.457 61.5448 119.434 61.5591 119.415C61.5734 119.396 61.5938 119.382 61.6169 119.376C61.6905 119.361 61.7663 119.361 61.8399 119.376H62.4173H64.0968H64.3067C64.3333 119.382 64.357 119.397 64.3737 119.419C64.3905 119.44 64.3992 119.467 64.3985 119.494C64.3985 119.494 64.3985 119.587 64.2805 119.626L63.9787 119.745C63.8607 119.799 63.7606 119.885 63.69 119.995C63.5863 120.16 63.5359 120.353 63.5457 120.548V123.523C63.5357 123.977 63.63 124.428 63.8212 124.84C63.9812 125.172 64.2434 125.445 64.5691 125.617C64.9008 125.79 65.2711 125.876 65.6451 125.867C65.9457 125.889 66.2473 125.836 66.5222 125.712C66.7972 125.588 67.0369 125.396 67.2196 125.156C67.5799 124.568 67.7537 123.884 67.7182 123.194V121.798C67.7182 121.522 67.7182 121.245 67.7182 120.995C67.7341 120.794 67.7341 120.591 67.7182 120.39C67.686 120.238 67.633 120.092 67.5607 119.955C67.4943 119.848 67.3919 119.769 67.2721 119.731L66.9178 119.626C66.826 119.626 66.7735 119.547 66.7735 119.494C66.7735 119.442 66.7735 119.415 66.8653 119.389H67.0884H68.3218H68.6104H68.8991C68.9727 119.374 69.0485 119.374 69.1222 119.389C69.1453 119.395 69.1656 119.409 69.1799 119.428C69.1943 119.447 69.2016 119.47 69.2009 119.494C69.2009 119.587 69.0959 119.652 68.8729 119.705C68.6938 119.744 68.5351 119.847 68.4267 119.995C68.3387 120.176 68.2895 120.373 68.2824 120.574C68.2824 121.166 68.2824 121.719 68.2824 122.207C68.2824 122.694 68.2824 123.207 68.2824 123.694C68.2781 124.224 68.1429 124.744 67.8888 125.208C67.6383 125.631 67.2865 125.984 66.8653 126.235C66.4045 126.491 65.8824 126.614 65.3564 126.591Z" fill="white"/>
<path d="M73.4783 126.604C72.9682 126.604 72.462 126.515 71.9825 126.34C71.502 126.181 71.0565 125.931 70.6704 125.603C70.3033 125.285 70.0043 124.895 69.7913 124.458C69.5987 123.982 69.5136 123.469 69.542 122.957C69.5366 122.455 69.6489 121.959 69.87 121.508C70.0785 121.05 70.3881 120.645 70.7753 120.324C71.1608 119.978 71.6054 119.706 72.0875 119.52C72.6272 119.332 73.1954 119.238 73.767 119.244H74.4755L75.0791 119.349L75.7089 119.52C75.7884 119.547 75.8603 119.592 75.9189 119.652C75.9477 119.681 75.9698 119.716 75.9834 119.755C75.997 119.794 76.0018 119.835 75.9976 119.876C75.9976 120.06 75.9976 120.258 76.0632 120.455C76.1288 120.653 76.0632 120.89 76.0632 121.14C76.0654 121.167 76.059 121.195 76.0449 121.218C76.0308 121.242 76.0097 121.261 75.9845 121.271C75.957 121.293 75.9245 121.306 75.8902 121.311C75.8559 121.315 75.821 121.31 75.7891 121.297C75.7571 121.284 75.7293 121.262 75.7083 121.234C75.6873 121.207 75.6739 121.174 75.6695 121.14C75.6094 120.924 75.5349 120.713 75.4465 120.508C75.3583 120.322 75.228 120.16 75.066 120.034C74.8753 119.897 74.6621 119.794 74.4362 119.731C74.1529 119.66 73.862 119.625 73.5702 119.626C73.1839 119.619 72.8017 119.705 72.4549 119.876C72.1211 120.04 71.826 120.273 71.5889 120.56C71.3506 120.848 71.1601 121.173 71.0247 121.522C70.8936 121.885 70.827 122.268 70.8278 122.654C70.8261 123.1 70.8924 123.544 71.0247 123.97C71.1358 124.375 71.3229 124.755 71.5757 125.09C71.8099 125.409 72.1097 125.674 72.4549 125.866C72.8116 126.065 73.2146 126.165 73.6226 126.156C74.0865 126.18 74.546 126.056 74.9348 125.801C75.2979 125.538 75.5909 125.19 75.7876 124.787C75.8063 124.739 75.8389 124.699 75.8811 124.671C75.9233 124.643 75.9731 124.628 76.0238 124.629C76.1157 124.629 76.1682 124.629 76.1682 124.813C76.1544 124.903 76.1324 124.991 76.1025 125.076C76.1025 125.208 76.1025 125.34 76.0107 125.498C75.9189 125.656 75.9189 125.774 75.8795 125.906C75.8462 125.971 75.8067 126.033 75.7614 126.09C75.7003 126.144 75.6288 126.184 75.5515 126.209C75.238 126.328 74.9124 126.412 74.5805 126.459C74.2179 126.539 73.8492 126.587 73.4783 126.604Z" fill="white"/>
<path d="M76.7193 126.498C76.6501 126.513 76.5786 126.513 76.5094 126.498C76.4828 126.492 76.4591 126.477 76.4424 126.456C76.4256 126.434 76.4168 126.407 76.4175 126.38C76.4188 126.35 76.4279 126.321 76.444 126.295C76.4602 126.27 76.4827 126.249 76.5094 126.235L76.7455 126.13C76.9359 126.077 77.1141 125.988 77.2704 125.866C77.4513 125.734 77.5884 125.551 77.664 125.34C77.8608 124.892 78.0445 124.471 78.202 124.023L78.7268 122.838L79.1861 121.627C79.3435 121.219 79.5141 120.771 79.6716 120.31C79.7289 120.178 79.7771 120.041 79.8159 119.902C79.8264 119.802 79.8264 119.7 79.8159 119.599H80.0783L80.3407 119.481C80.4212 119.438 80.489 119.374 80.5376 119.297L80.6557 119.112C80.6651 119.151 80.6651 119.192 80.6557 119.231V119.362C80.8131 119.902 80.9837 120.429 81.1674 120.982C81.3511 121.535 81.5216 122.061 81.6922 122.588C81.8628 123.115 82.0334 123.589 82.1777 124.036C82.322 124.484 82.4664 124.866 82.5713 125.195C82.625 125.396 82.7187 125.584 82.8469 125.748C82.9451 125.867 83.0654 125.965 83.2012 126.038C83.3266 126.097 83.4588 126.141 83.5948 126.169C83.6841 126.179 83.7697 126.211 83.8441 126.261C83.8678 126.28 83.8872 126.304 83.9008 126.332C83.9144 126.359 83.9219 126.389 83.9228 126.419C83.9231 126.442 83.9152 126.463 83.9007 126.48C83.8862 126.497 83.8661 126.508 83.8441 126.512H83.6342H83.188H82.5976H80.9312C80.862 126.526 80.7905 126.526 80.7213 126.512C80.6992 126.504 80.68 126.49 80.666 126.471C80.652 126.452 80.6438 126.43 80.6425 126.406C80.6425 126.406 80.6425 126.301 80.7475 126.261C80.8145 126.218 80.891 126.19 80.9706 126.182C81.1636 126.163 81.3486 126.095 81.5085 125.985C81.5618 125.947 81.6027 125.895 81.6261 125.834C81.6494 125.773 81.6542 125.706 81.6397 125.643C81.6397 125.524 81.6397 125.366 81.561 125.182C81.4823 124.997 81.4692 124.8 81.4167 124.589C81.3642 124.379 81.2986 124.194 81.2461 124.023C81.2428 124.002 81.2353 123.982 81.2241 123.964C81.2128 123.946 81.198 123.93 81.1805 123.918H80.9837H78.9893C78.9551 123.907 78.9184 123.907 78.8843 123.918C78.8498 123.961 78.8232 124.01 78.8056 124.063C78.7769 124.174 78.7418 124.284 78.7006 124.392C78.6491 124.534 78.6053 124.679 78.5694 124.826C78.5197 124.959 78.4803 125.096 78.4513 125.234V125.511C78.4391 125.588 78.4459 125.666 78.4711 125.74C78.4962 125.813 78.539 125.879 78.5956 125.932C78.7363 126.059 78.9086 126.146 79.0942 126.182C79.3173 126.182 79.4223 126.314 79.4223 126.406C79.4225 126.429 79.4146 126.45 79.4002 126.467C79.3857 126.484 79.3656 126.495 79.3435 126.498C79.2743 126.513 79.2028 126.513 79.1336 126.498H78.0839H77.4016H76.7193ZM79.3435 123.352H80.9181C81.023 123.352 81.0755 123.352 81.0755 123.352L80.2751 120.719C80.2751 120.6 80.2751 120.534 80.1964 120.534C80.1177 120.534 80.1964 120.534 80.1177 120.705L79.173 123.339V123.431C79.173 123.431 79.173 123.431 79.2386 123.497L79.3435 123.352Z" fill="white"/>
<path d="M90.6674 126.67C90.4332 126.672 90.1996 126.646 89.972 126.591C89.7753 126.54 89.5889 126.455 89.4209 126.34C89.2515 126.234 89.1007 126.101 88.9747 125.945C88.8173 125.722 88.6467 125.511 88.5024 125.313C88.3581 125.116 88.1875 124.879 88.0169 124.616C87.8463 124.352 87.6495 124.05 87.4265 123.681C87.3421 123.506 87.2041 123.363 87.0328 123.273C86.9103 123.217 86.7829 123.173 86.6523 123.141H86.3505C86.3322 123.132 86.312 123.127 86.2915 123.127C86.271 123.127 86.2507 123.132 86.2324 123.141C86.2171 123.193 86.2171 123.248 86.2324 123.299V125.261C86.2266 125.469 86.2914 125.673 86.4161 125.84C86.4901 125.926 86.5805 125.996 86.6819 126.045C86.7834 126.095 86.8938 126.124 87.0066 126.13L87.2428 126.209C87.2669 126.221 87.287 126.24 87.3009 126.263C87.3149 126.287 87.322 126.313 87.3215 126.34C87.3217 126.363 87.3139 126.384 87.2994 126.401C87.2849 126.418 87.2648 126.429 87.2428 126.433C87.1737 126.449 87.1019 126.449 87.0328 126.433H86.5605H86.1537H85.2877H84.8285H84.3167H84.1199C84.1079 126.44 84.0946 126.444 84.0808 126.446C84.067 126.448 84.0529 126.447 84.0395 126.443C84.0261 126.439 84.0135 126.433 84.0025 126.425C83.9916 126.416 83.9824 126.405 83.9756 126.393C83.9756 126.301 84.0806 126.235 84.2905 126.182C84.5059 126.162 84.7108 126.08 84.8809 125.945C84.9477 125.874 84.9986 125.788 85.0303 125.695C85.0619 125.602 85.0736 125.504 85.0646 125.406V120.653C85.0822 120.464 85.0822 120.275 85.0646 120.087C85.0392 119.978 84.9735 119.884 84.8809 119.823C84.7462 119.752 84.5993 119.708 84.4479 119.692C84.3598 119.685 84.2744 119.658 84.1986 119.613C84.1825 119.57 84.1825 119.523 84.1986 119.481C84.1986 119.481 84.1987 119.402 84.2774 119.376C84.3421 119.36 84.4095 119.36 84.4742 119.376H85.6813H86.075H86.4686H87.0197C87.6657 119.333 88.3096 119.485 88.8698 119.81C89.0826 119.955 89.2548 120.152 89.3697 120.382C89.4846 120.613 89.5384 120.869 89.5258 121.127C89.5298 121.421 89.4575 121.711 89.3159 121.969C89.1892 122.19 89.0197 122.382 88.8173 122.535C88.6344 122.683 88.4311 122.802 88.2137 122.891C88.2094 122.922 88.2094 122.953 88.2137 122.983C88.4368 123.325 88.6467 123.641 88.8567 123.931C89.0606 124.232 89.2795 124.522 89.5127 124.8C89.7633 125.1 90.0352 125.382 90.3262 125.643C90.4947 125.821 90.7153 125.941 90.956 125.985C91.1918 126.005 91.4289 126.005 91.6646 125.985C91.6858 125.983 91.7071 125.986 91.7272 125.993C91.7472 126 91.7654 126.012 91.7804 126.027C91.7955 126.042 91.807 126.06 91.8142 126.08C91.8214 126.1 91.8241 126.122 91.8221 126.143C91.8223 126.201 91.8079 126.257 91.7804 126.308C91.7529 126.359 91.713 126.402 91.6646 126.433C91.536 126.499 91.3992 126.547 91.2578 126.577L90.6674 126.67ZM86.731 122.812C87.0127 122.822 87.2911 122.749 87.5314 122.601C87.7434 122.459 87.9151 122.264 88.03 122.035C88.1508 121.799 88.2138 121.537 88.2137 121.272C88.2187 120.99 88.1789 120.71 88.0956 120.442C88.0217 120.212 87.8681 120.016 87.6626 119.889C87.3861 119.736 87.0727 119.663 86.7573 119.678C86.6766 119.672 86.5958 119.688 86.5239 119.725C86.452 119.763 86.3919 119.819 86.3505 119.889C86.2654 120.148 86.2255 120.42 86.2324 120.692C86.2324 120.863 86.2324 121.1 86.2324 121.39C86.2324 121.68 86.2324 122.022 86.2324 122.417C86.2324 122.601 86.2324 122.707 86.3768 122.746C86.4858 122.788 86.6012 122.81 86.7179 122.812H86.731Z" fill="white"/>
<path d="M91.94 126.498C91.8708 126.513 91.7992 126.513 91.73 126.498C91.7054 126.489 91.6838 126.473 91.6676 126.452C91.6514 126.431 91.6412 126.406 91.6382 126.38C91.6416 126.35 91.6517 126.322 91.6676 126.297C91.6835 126.272 91.7049 126.251 91.73 126.235L91.9662 126.13C92.1596 126.074 92.3417 125.985 92.5042 125.866C92.6814 125.734 92.8141 125.55 92.8847 125.34C93.0815 124.892 93.2652 124.471 93.4227 124.023L93.9082 122.825L94.3674 121.614C94.5248 121.206 94.6954 120.758 94.8529 120.297C94.9102 120.165 94.9585 120.028 94.9972 119.889C95.0077 119.788 95.0077 119.687 94.9972 119.586H95.2596L95.5221 119.468C95.605 119.428 95.6737 119.364 95.7189 119.283L95.837 119.099C95.8464 119.138 95.8464 119.179 95.837 119.218V119.349C95.9944 119.889 96.1781 120.416 96.3487 120.969C96.5193 121.522 96.703 122.048 96.8735 122.575C97.0441 123.102 97.2147 123.576 97.359 124.023C97.5034 124.471 97.6477 124.853 97.7527 125.182C97.8063 125.383 97.9001 125.571 98.0282 125.735C98.1264 125.854 98.2467 125.952 98.3825 126.024C98.508 126.084 98.6401 126.128 98.7761 126.156C98.8655 126.166 98.951 126.198 99.0254 126.248C99.0492 126.267 99.0685 126.291 99.0821 126.319C99.0957 126.346 99.1032 126.376 99.1041 126.406C99.1044 126.429 99.0965 126.45 99.082 126.467C99.0676 126.484 99.0474 126.495 99.0254 126.498H98.8286H98.3694H97.7789H96.1519C96.0826 126.513 96.0112 126.513 95.9419 126.498C95.9199 126.491 95.9007 126.476 95.8866 126.458C95.8726 126.439 95.8645 126.416 95.8632 126.393C95.8632 126.393 95.8632 126.288 95.9682 126.248C96.0361 126.206 96.1122 126.179 96.1912 126.169C96.3842 126.15 96.5693 126.082 96.7292 125.972C96.7825 125.934 96.8234 125.882 96.8467 125.821C96.8701 125.76 96.8749 125.693 96.8604 125.629C96.8478 125.474 96.8215 125.32 96.7817 125.169C96.7817 124.984 96.6898 124.787 96.6374 124.576C96.5849 124.366 96.5193 124.181 96.4668 124.01C96.4788 123.976 96.4788 123.939 96.4668 123.905H96.2831H94.2099C94.1758 123.894 94.1391 123.894 94.105 123.905C94.0705 123.948 94.0439 123.997 94.0262 124.05C93.9975 124.161 93.9625 124.271 93.9213 124.379C93.8697 124.521 93.8259 124.666 93.7901 124.813C93.7901 124.958 93.7113 125.09 93.672 125.221C93.6641 125.313 93.6641 125.406 93.672 125.498C93.6543 125.573 93.6572 125.652 93.6803 125.726C93.7034 125.8 93.7458 125.867 93.8032 125.919C93.9439 126.046 94.1162 126.132 94.3018 126.169C94.5249 126.169 94.6298 126.301 94.6298 126.393C94.6217 126.407 94.6101 126.418 94.5963 126.426C94.5825 126.434 94.5669 126.438 94.5511 126.438C94.5352 126.438 94.5197 126.434 94.5059 126.426C94.4921 126.418 94.4805 126.407 94.4724 126.393C94.4031 126.408 94.3316 126.408 94.2624 126.393H93.2127H92.5304L91.94 126.498ZM94.5642 123.352H96.1387C96.2437 123.352 96.2962 123.352 96.2962 123.352L95.4958 120.719C95.4958 120.6 95.4958 120.534 95.4171 120.534C95.3384 120.534 95.4171 120.534 95.3384 120.705L94.3936 123.339V123.431C94.3936 123.431 94.3936 123.431 94.3936 123.497L94.5642 123.352Z" fill="white"/>
<path d="M99.5108 126.485H99.2878C99.2647 126.479 99.2443 126.465 99.23 126.446C99.2157 126.427 99.2083 126.404 99.209 126.38C99.2084 126.352 99.2171 126.326 99.2339 126.304C99.2506 126.282 99.2743 126.267 99.3009 126.261L99.5502 126.182C99.7235 126.146 99.8801 126.053 99.9963 125.919C100.126 125.751 100.208 125.551 100.232 125.34C100.232 124.8 100.364 124.247 100.416 123.694C100.469 123.141 100.534 122.614 100.574 122.101C100.613 121.587 100.652 121.153 100.665 120.784V120.613C100.665 120.613 100.665 120.495 100.665 120.429C100.678 120.355 100.678 120.279 100.665 120.205C100.632 120.133 100.577 120.073 100.508 120.034C100.386 119.944 100.254 119.869 100.114 119.81L99.7208 119.678C99.6507 119.658 99.5842 119.627 99.5239 119.586C99.5078 119.544 99.5078 119.497 99.5239 119.454C99.5221 119.441 99.523 119.426 99.5267 119.413C99.5303 119.4 99.5366 119.387 99.5451 119.376C99.5537 119.365 99.5643 119.356 99.5765 119.349C99.5886 119.342 99.602 119.338 99.6158 119.336H99.8651H100.232H100.731H101.243H101.65C101.67 119.327 101.693 119.323 101.715 119.323C101.738 119.323 101.76 119.327 101.781 119.336C101.805 119.349 101.826 119.368 101.842 119.391C101.858 119.414 101.868 119.44 101.873 119.468L101.991 119.876C101.991 120.007 102.069 120.152 102.122 120.297L103.788 124.457C103.799 124.477 103.814 124.495 103.832 124.508C103.85 124.522 103.871 124.532 103.893 124.536C103.909 124.546 103.927 124.551 103.946 124.551C103.964 124.551 103.982 124.546 103.998 124.536L105.927 120.376C105.927 120.205 106.006 120.047 106.032 119.889L106.124 119.494C106.124 119.402 106.124 119.349 106.255 119.349H106.675C106.933 119.367 107.191 119.367 107.449 119.349H108.079C108.131 119.336 108.185 119.336 108.236 119.349C108.236 119.349 108.328 119.349 108.328 119.441C108.33 119.467 108.325 119.493 108.313 119.516C108.302 119.539 108.284 119.559 108.263 119.573C108.198 119.619 108.128 119.654 108.053 119.678L107.79 119.77L107.541 119.876C107.432 119.919 107.336 119.992 107.265 120.086C107.196 120.181 107.164 120.298 107.174 120.416C107.174 120.929 107.174 121.403 107.174 121.824C107.174 122.246 107.174 122.654 107.174 123.036L107.252 124.181C107.252 124.563 107.252 124.971 107.252 125.405C107.262 125.597 107.347 125.777 107.488 125.906C107.653 126.043 107.853 126.13 108.066 126.156L108.302 126.235C108.326 126.247 108.346 126.266 108.36 126.289C108.374 126.313 108.381 126.339 108.381 126.367C108.388 126.381 108.391 126.397 108.391 126.413C108.391 126.429 108.388 126.444 108.381 126.459C108.312 126.474 108.24 126.474 108.171 126.459H107.672H107.226H106.36H105.966H105.481H105.284C105.271 126.452 105.26 126.443 105.251 126.431C105.242 126.42 105.235 126.407 105.232 126.393C105.233 126.366 105.24 126.34 105.254 126.317C105.268 126.294 105.287 126.275 105.31 126.261C105.381 126.215 105.462 126.188 105.547 126.182C105.636 126.179 105.724 126.157 105.805 126.118C105.887 126.08 105.959 126.026 106.019 125.958C106.123 125.804 106.17 125.617 106.15 125.432C106.15 124.931 106.15 124.471 106.15 124.115C106.15 123.76 106.15 123.259 106.15 122.799C106.15 122.338 106.15 121.943 106.15 121.482V121.39C106.107 121.411 106.074 121.449 106.058 121.495L103.71 126.538C103.708 126.551 103.704 126.564 103.697 126.576C103.69 126.588 103.68 126.598 103.669 126.605C103.658 126.613 103.645 126.618 103.632 126.62C103.618 126.622 103.604 126.621 103.592 126.617C103.568 126.617 103.544 126.61 103.525 126.596C103.506 126.581 103.492 126.561 103.487 126.538C103.172 125.695 102.857 124.852 102.502 124.036C102.148 123.22 101.807 122.351 101.427 121.403C101.413 121.393 101.397 121.388 101.381 121.388C101.364 121.388 101.348 121.393 101.335 121.403C101.335 121.403 101.335 121.403 101.335 121.482C101.335 121.943 101.243 122.39 101.203 122.799C101.164 123.207 101.125 123.654 101.112 124.115C101.098 124.576 101.112 124.971 101.112 125.432C101.112 125.623 101.177 125.808 101.295 125.958C101.44 126.115 101.635 126.218 101.846 126.248L102.096 126.327C102.125 126.335 102.15 126.352 102.169 126.376C102.188 126.4 102.199 126.429 102.201 126.459C102.198 126.482 102.187 126.504 102.171 126.521C102.154 126.537 102.132 126.548 102.109 126.551C102.035 126.566 101.959 126.566 101.886 126.551H101.164H100.889H100.193H99.8782L99.5108 126.485Z" fill="white"/>
<path d="M108.827 126.498C108.753 126.513 108.677 126.513 108.604 126.498C108.581 126.488 108.561 126.472 108.547 126.451C108.533 126.43 108.525 126.405 108.525 126.38C108.526 126.351 108.534 126.323 108.547 126.298C108.561 126.273 108.58 126.251 108.604 126.235L108.84 126.13C109.034 126.077 109.217 125.988 109.378 125.866C109.555 125.731 109.691 125.548 109.771 125.34C109.955 124.892 110.139 124.471 110.309 124.023L110.782 122.825C110.939 122.443 111.084 122.035 111.254 121.614C111.425 121.193 111.569 120.758 111.74 120.297C111.794 120.165 111.837 120.028 111.871 119.889C111.88 119.788 111.88 119.687 111.871 119.586H112.12L112.383 119.468C112.468 119.432 112.538 119.367 112.579 119.283L112.697 119.099C112.707 119.138 112.707 119.179 112.697 119.218V119.349C112.868 119.889 113.039 120.416 113.209 120.969C113.38 121.522 113.563 122.048 113.734 122.575C113.905 123.102 114.075 123.576 114.219 124.023C114.364 124.471 114.508 124.853 114.613 125.182C114.664 125.387 114.763 125.576 114.902 125.735C114.995 125.853 115.111 125.951 115.243 126.024C115.372 126.086 115.509 126.13 115.65 126.156C115.735 126.166 115.816 126.198 115.886 126.248C115.91 126.267 115.929 126.291 115.943 126.319C115.956 126.346 115.964 126.376 115.965 126.406C115.965 126.429 115.957 126.45 115.942 126.467C115.928 126.484 115.908 126.495 115.886 126.498H115.689H115.466H114.889H113.039C112.966 126.479 112.898 126.443 112.842 126.393C112.842 126.393 112.75 126.393 112.75 126.288C112.75 126.182 112.75 126.182 112.855 126.143C112.924 126.103 112.999 126.076 113.078 126.064C113.271 126.044 113.456 125.977 113.616 125.866C113.671 125.83 113.713 125.778 113.736 125.716C113.76 125.655 113.763 125.588 113.747 125.524C113.74 125.369 113.718 125.214 113.682 125.063C113.629 124.879 113.577 124.681 113.524 124.471C113.524 124.273 113.406 124.076 113.367 123.905C113.364 123.882 113.355 123.86 113.341 123.841C113.327 123.823 113.309 123.808 113.288 123.799H113.104H111.084C111.069 123.793 111.053 123.79 111.038 123.79C111.022 123.79 111.006 123.793 110.992 123.799C110.952 123.841 110.921 123.891 110.9 123.944C110.871 124.056 110.836 124.166 110.795 124.273C110.795 124.418 110.703 124.55 110.664 124.708L110.546 125.116C110.538 125.208 110.538 125.3 110.546 125.392C110.531 125.468 110.535 125.546 110.558 125.62C110.581 125.694 110.622 125.76 110.677 125.814C110.819 125.938 110.991 126.024 111.175 126.064C111.398 126.064 111.503 126.196 111.503 126.288C111.504 126.31 111.496 126.332 111.481 126.349C111.467 126.366 111.447 126.377 111.425 126.38C111.356 126.395 111.284 126.395 111.215 126.38H110.165H109.496L108.827 126.498ZM111.451 123.352H112.973C113.065 123.352 113.117 123.352 113.117 123.352V123.233L112.317 120.6C112.317 120.482 112.317 120.416 112.225 120.416C112.133 120.416 112.225 120.416 112.146 120.587L111.202 123.22C111.197 123.251 111.197 123.282 111.202 123.312C111.196 123.322 111.193 123.334 111.193 123.345C111.193 123.357 111.196 123.368 111.202 123.378L111.451 123.352Z" fill="white"/>
<path d="M123.116 126.63C122.971 126.606 122.833 126.552 122.709 126.472C122.483 126.328 122.286 126.14 122.132 125.919C122.053 125.827 121.922 125.696 121.765 125.498L121.187 124.84C120.977 124.576 120.741 124.313 120.492 124.023L119.744 123.155L119.035 122.351L118.458 121.667L118.064 121.245C118.04 121.198 118.004 121.157 117.96 121.127C117.945 121.121 117.929 121.118 117.914 121.118C117.898 121.118 117.882 121.121 117.868 121.127C117.868 121.127 117.868 121.127 117.868 121.206C117.862 121.254 117.862 121.303 117.868 121.351C117.868 121.706 117.868 122.101 117.868 122.562V123.971C117.868 124.445 117.868 124.892 117.868 125.287C117.868 125.485 117.928 125.677 118.038 125.84C118.188 126.016 118.399 126.129 118.629 126.156L118.878 126.235C118.904 126.247 118.926 126.265 118.942 126.289C118.958 126.312 118.968 126.339 118.97 126.367C118.967 126.391 118.956 126.412 118.94 126.429C118.923 126.446 118.901 126.456 118.878 126.459C118.804 126.475 118.728 126.475 118.655 126.459H118.091H117.802H117.107H116.818H116.477H116.267C116.241 126.456 116.218 126.443 116.201 126.424C116.184 126.405 116.175 126.38 116.175 126.354C116.175 126.329 116.183 126.304 116.197 126.283C116.211 126.262 116.231 126.245 116.254 126.235L116.503 126.13C116.593 126.109 116.677 126.071 116.752 126.016C116.826 125.962 116.889 125.893 116.936 125.814C117.036 125.646 117.094 125.456 117.107 125.261C117.107 124.985 117.107 124.616 117.198 124.168C117.29 123.721 117.198 123.22 117.277 122.667C117.356 122.114 117.277 121.522 117.277 120.929C117.294 120.78 117.277 120.629 117.227 120.488C117.177 120.346 117.095 120.218 116.989 120.113C116.767 119.931 116.513 119.792 116.241 119.705L116.057 119.613C115.965 119.613 115.913 119.521 115.913 119.455C115.914 119.425 115.925 119.396 115.944 119.372C115.963 119.349 115.989 119.331 116.018 119.323H116.175H118.091C118.113 119.312 118.138 119.306 118.163 119.306C118.188 119.306 118.213 119.312 118.235 119.323C118.276 119.351 118.312 119.387 118.34 119.429L118.707 119.876L119.311 120.6L120.033 121.469L120.82 122.391L121.555 123.273C121.778 123.55 121.988 123.786 122.158 123.984L122.513 124.418L122.631 124.537C122.631 124.537 122.722 124.616 122.749 124.616C122.775 124.616 122.854 124.616 122.867 124.405V120.35C122.86 120.269 122.835 120.19 122.794 120.12C122.753 120.049 122.698 119.988 122.631 119.942C122.498 119.832 122.34 119.755 122.171 119.718C122.072 119.706 121.975 119.679 121.883 119.639C121.804 119.639 121.765 119.56 121.765 119.494C121.765 119.429 121.765 119.429 121.883 119.402C121.965 119.39 122.049 119.39 122.132 119.402H124.126C124.195 119.386 124.267 119.386 124.336 119.402C124.362 119.405 124.385 119.418 124.402 119.437C124.419 119.457 124.428 119.482 124.428 119.508C124.428 119.6 124.31 119.679 124.087 119.718C123.895 119.743 123.712 119.811 123.549 119.916C123.499 119.97 123.46 120.035 123.435 120.105C123.411 120.175 123.4 120.25 123.405 120.324C123.405 120.442 123.405 120.64 123.405 120.903C123.405 121.166 123.405 121.469 123.405 121.825C123.405 122.18 123.405 122.562 123.405 122.944C123.405 123.326 123.405 123.721 123.405 124.102V125.077C123.405 125.261 123.405 125.419 123.405 125.59C123.416 125.73 123.416 125.871 123.405 126.012C123.405 126.13 123.405 126.222 123.405 126.275C123.411 126.324 123.407 126.374 123.393 126.421C123.38 126.469 123.357 126.513 123.326 126.551C123.3 126.58 123.267 126.602 123.23 126.616C123.194 126.63 123.155 126.635 123.116 126.63Z" fill="white"/>
<path d="M128.391 126.591C127.423 126.592 126.489 126.236 125.767 125.59C125.415 125.272 125.129 124.887 124.927 124.458C124.734 124.014 124.64 123.533 124.651 123.049C124.651 122.542 124.754 122.04 124.953 121.575C125.159 121.117 125.453 120.706 125.819 120.363C126.197 120.002 126.643 119.72 127.131 119.534C127.637 119.336 128.176 119.237 128.719 119.244C128.889 119.233 129.06 119.233 129.231 119.244L129.873 119.336C130.078 119.359 130.279 119.399 130.477 119.455C130.619 119.476 130.756 119.521 130.884 119.587H130.989C130.993 119.626 130.993 119.666 130.989 119.705L131.067 120.363C131.067 120.574 131.067 120.758 131.067 120.903C131.086 120.95 131.086 121.001 131.067 121.048C131.051 121.055 131.033 121.059 131.015 121.059C130.997 121.059 130.979 121.055 130.963 121.048C130.93 121.051 130.896 121.046 130.866 121.032C130.836 121.018 130.811 120.996 130.792 120.969C130.752 120.906 130.717 120.84 130.687 120.771C130.687 120.653 130.582 120.534 130.53 120.442C130.459 120.327 130.38 120.217 130.293 120.113C130.204 120.026 130.108 119.947 130.005 119.876C129.841 119.781 129.664 119.71 129.48 119.666C129.224 119.591 128.959 119.555 128.693 119.56C128.307 119.56 127.926 119.646 127.577 119.81C127.25 119.985 126.964 120.228 126.737 120.521C126.502 120.819 126.324 121.158 126.213 121.522C126.086 121.904 126.024 122.304 126.029 122.707C126.027 123.153 126.093 123.597 126.226 124.023C126.342 124.402 126.529 124.755 126.777 125.064C127.006 125.332 127.288 125.552 127.603 125.709C127.92 125.856 128.265 125.932 128.614 125.933C128.874 125.943 129.133 125.898 129.375 125.801C129.502 125.741 129.621 125.666 129.729 125.577C129.821 125.488 129.893 125.38 129.939 125.261C130.003 125.112 130.035 124.95 130.031 124.787V124.563C130.037 124.471 130.037 124.379 130.031 124.287C130.031 124.208 130.031 124.129 130.031 124.063C130.046 123.994 130.046 123.922 130.031 123.852C130.018 123.795 129.986 123.743 129.939 123.707C129.863 123.632 129.768 123.577 129.664 123.549L129.296 123.457H129.007C128.96 123.472 128.91 123.472 128.863 123.457C128.836 123.44 128.814 123.417 128.798 123.39C128.782 123.362 128.773 123.331 128.771 123.299C128.776 123.273 128.786 123.249 128.802 123.228C128.818 123.208 128.839 123.191 128.863 123.181C128.91 123.167 128.96 123.167 129.007 123.181H129.493H129.965H131.015H131.566H131.697C131.722 123.192 131.744 123.21 131.758 123.234C131.772 123.258 131.778 123.285 131.776 123.312C131.776 123.341 131.769 123.37 131.755 123.395C131.741 123.42 131.722 123.442 131.697 123.457C131.65 123.47 131.6 123.47 131.553 123.457C131.421 123.478 131.3 123.542 131.21 123.64C131.119 123.738 131.065 123.864 131.054 123.997C131.054 124.155 131.054 124.287 131.054 124.418C131.054 124.55 131.054 124.669 131.054 124.8V125.116C131.047 125.146 131.047 125.178 131.054 125.208V125.301L131.133 125.406C131.14 125.422 131.144 125.44 131.144 125.459C131.144 125.477 131.14 125.495 131.133 125.511C131.137 125.551 131.137 125.59 131.133 125.63C131.117 125.655 131.096 125.676 131.071 125.692C131.046 125.708 131.018 125.718 130.989 125.722C130.881 125.741 130.779 125.781 130.687 125.84C130.508 125.933 130.324 126.017 130.136 126.09C129.885 126.192 129.626 126.272 129.362 126.327C129.051 126.459 128.725 126.547 128.391 126.591Z" fill="white"/>
<path d="M132.065 126.498C131.995 126.513 131.924 126.513 131.855 126.498C131.828 126.492 131.804 126.477 131.788 126.456C131.771 126.434 131.762 126.407 131.763 126.38C131.764 126.35 131.773 126.321 131.789 126.295C131.805 126.27 131.828 126.249 131.855 126.235L132.091 126.13C132.281 126.077 132.459 125.988 132.616 125.866C132.793 125.731 132.929 125.548 133.009 125.34C133.206 124.892 133.39 124.471 133.547 124.023L134.033 122.825L134.492 121.614C134.649 121.206 134.807 120.758 134.977 120.297C135.035 120.165 135.083 120.028 135.122 119.889C135.122 119.771 135.122 119.678 135.122 119.586H135.384L135.647 119.468C135.727 119.425 135.795 119.361 135.843 119.283C135.872 119.218 135.907 119.157 135.948 119.099C135.958 119.138 135.958 119.179 135.948 119.218C135.937 119.261 135.937 119.306 135.948 119.349C136.106 119.889 136.276 120.416 136.46 120.969C136.644 121.522 136.814 122.048 136.985 122.575C137.156 123.102 137.313 123.576 137.47 124.023C137.628 124.471 137.746 124.853 137.864 125.182C137.918 125.383 138.011 125.571 138.14 125.735C138.233 125.853 138.349 125.951 138.481 126.024C138.612 126.082 138.748 126.126 138.888 126.156C138.976 126.168 139.061 126.2 139.137 126.248C139.161 126.267 139.18 126.291 139.193 126.319C139.207 126.346 139.215 126.376 139.216 126.406C139.216 126.429 139.208 126.45 139.193 126.467C139.179 126.484 139.159 126.495 139.137 126.498H138.927H138.481H137.89H136.027C135.958 126.513 135.886 126.513 135.817 126.498C135.795 126.491 135.776 126.476 135.762 126.458C135.748 126.439 135.74 126.416 135.738 126.393C135.738 126.363 135.747 126.333 135.763 126.307C135.779 126.281 135.803 126.261 135.83 126.248C135.903 126.206 135.983 126.18 136.066 126.169C136.255 126.15 136.436 126.082 136.591 125.972C136.646 125.935 136.688 125.883 136.714 125.822C136.739 125.761 136.747 125.694 136.736 125.629C136.736 125.511 136.736 125.353 136.657 125.169C136.578 124.984 136.565 124.787 136.499 124.576C136.434 124.366 136.395 124.181 136.342 124.01C136.339 123.987 136.331 123.965 136.317 123.947C136.303 123.928 136.284 123.914 136.263 123.905H136.08H134.085C134.051 123.891 134.014 123.891 133.98 123.905C133.946 123.948 133.919 123.997 133.901 124.05L133.797 124.379L133.652 124.813C133.652 124.958 133.573 125.09 133.547 125.221C133.541 125.313 133.541 125.406 133.547 125.498C133.535 125.574 133.542 125.653 133.567 125.727C133.592 125.8 133.635 125.866 133.692 125.919C133.832 126.046 134.005 126.132 134.19 126.169C134.4 126.169 134.518 126.301 134.518 126.393C134.518 126.485 134.518 126.472 134.426 126.485C134.357 126.501 134.286 126.501 134.216 126.485H133.167H132.498L132.065 126.498ZM134.689 123.352H136.263C136.368 123.352 136.421 123.352 136.421 123.352L135.62 120.719C135.62 120.6 135.62 120.534 135.529 120.534C135.437 120.534 135.529 120.534 135.529 120.705L134.584 123.339V123.431C134.584 123.431 134.584 123.431 134.584 123.497L134.689 123.352Z" fill="white"/>
<path d="M141 128.013H0V129H141V128.013Z" fill="white"/>
</svg>
