<svg width="310" height="286" viewBox="0 0 310 286" fill="none" xmlns="http://www.w3.org/2000/svg">
<path d="M199.146 202.43H99.0107V62.6409H126.056V0H224.893V139.234L198.944 138.884L199.146 202.43ZM109.563 191.717H188.564V138.738L165.902 138.446L165.21 38.0924H199.146V128.172L214.369 128.376V10.7126H136.522V62.7576H160.308V163.17H126.056V73.4118H109.563V191.717ZM136.608 152.545H149.929V73.4994H136.724L136.608 152.545ZM176.368 127.88L188.535 128.055V48.805H175.878L176.368 127.88Z" fill="#E4312A"/>
<path d="M160.423 154.618H152.639V163.199H160.423V154.618Z" fill="#E4312A"/>
<path d="M25.1427 258.562C24.6898 258.571 24.2395 258.492 23.8164 258.328C23.6635 258.276 23.5296 258.179 23.4319 258.049C23.3343 257.919 23.2774 257.762 23.2686 257.599C23.2773 257.417 23.3324 257.241 23.4284 257.088C23.5244 256.934 23.6581 256.809 23.8164 256.723C24.2863 256.456 24.7783 256.232 25.2868 256.052C26.4528 255.702 27.5536 255.159 28.5449 254.446C29.6428 253.551 30.4798 252.37 30.9668 251.031C32.1489 248.287 33.2734 245.66 34.2825 243.15C35.2917 240.64 36.3008 238.188 37.1658 235.765C38.0307 233.342 39.0687 230.832 40.049 228.234C41.0293 225.636 42.0096 222.892 42.9322 219.944C43.2764 219.098 43.5654 218.23 43.7972 217.346C43.9553 216.732 44.0709 216.108 44.1432 215.478C44.6814 215.37 45.2114 215.224 45.729 215.04C46.2904 214.866 46.8317 214.631 47.3436 214.34C47.8523 214.08 48.2737 213.674 48.5546 213.172C48.7692 212.777 49.01 212.396 49.2754 212.034H49.5637C49.5637 212.034 49.7944 212.034 49.8809 212.267C50.0064 212.497 50.1032 212.743 50.1692 212.997C50.1692 213.289 50.3133 213.581 50.3998 213.902C51.4378 217.171 52.4758 220.528 53.5714 223.914C54.667 227.3 55.7338 230.657 56.8006 233.897C57.8674 237.137 58.8766 240.143 59.6839 242.916C60.4912 245.689 61.4138 248.112 62.077 250.185C62.4372 251.423 63.0241 252.581 63.8069 253.6C64.3948 254.323 65.1204 254.918 65.9405 255.351C66.7253 255.746 67.5595 256.031 68.4201 256.198C68.9582 256.27 69.4718 256.47 69.9194 256.781C70.064 256.897 70.1826 257.043 70.2671 257.209C70.3517 257.376 70.4002 257.558 70.4095 257.745C70.4006 257.882 70.3482 258.013 70.2599 258.119C70.1716 258.224 70.0522 258.297 69.9194 258.328C69.5077 258.38 69.0913 258.38 68.6796 258.328H65.7963L62.1923 258.153H58.7901H55.9068H53.0236C52.1009 258.153 51.3225 258.153 50.6593 258.153C50.2148 258.178 49.7708 258.098 49.3619 257.92C49.0159 257.774 48.8429 257.569 48.8429 257.278C48.8541 257.089 48.9166 256.908 49.0235 256.753C49.1304 256.599 49.2774 256.477 49.4484 256.402C49.8924 256.173 50.3691 256.015 50.8612 255.935C52.0378 255.798 53.1649 255.378 54.1481 254.709C54.4814 254.472 54.7385 254.14 54.8872 253.756C55.0359 253.372 55.0696 252.952 54.9842 252.549C54.9177 251.564 54.7633 250.587 54.5229 249.63C54.2634 248.492 53.9462 247.266 53.6002 245.981C53.2542 244.697 52.9083 243.5 52.5911 242.42C52.5695 242.28 52.5168 242.147 52.4369 242.031C52.357 241.914 52.2519 241.818 52.1298 241.749C51.7477 241.688 51.3585 241.688 50.9765 241.749H39.0975C38.9862 241.743 38.8749 241.761 38.7706 241.801C38.6664 241.841 38.5716 241.903 38.4921 241.982C38.2568 242.243 38.0797 242.551 37.9731 242.887C37.8289 243.442 37.6271 244.113 37.3388 244.96C37.0504 245.806 36.7621 246.653 36.5026 247.587C36.2431 248.521 35.9836 249.367 35.7818 250.155C35.6214 250.719 35.5057 251.295 35.4358 251.878C35.3453 252.356 35.3744 252.849 35.5204 253.313C35.6665 253.777 35.9248 254.197 36.272 254.534C37.1495 255.307 38.2141 255.831 39.357 256.052C40.7122 256.431 41.3753 256.869 41.3753 257.424C41.3724 257.574 41.3196 257.719 41.2255 257.836C41.1314 257.952 41.0014 258.033 40.8563 258.066C40.4267 258.137 39.9885 258.137 39.5589 258.066C38.7227 258.066 37.7424 258.066 36.6756 258.066H33.1581C31.7715 258.058 30.3855 258.126 29.0062 258.27C27.6222 258.474 26.3536 258.562 25.1427 258.562ZM40.9716 239.034H50.717C51.3225 239.034 51.6396 239.034 51.6396 238.684C51.6568 238.577 51.6568 238.469 51.6396 238.363C51.6307 238.227 51.6307 238.09 51.6396 237.954L46.5651 221.841C46.3633 221.112 46.1615 220.761 46.0461 220.761C45.9308 220.761 45.7867 221.112 45.5848 221.783L39.8184 237.867C39.7943 238.041 39.7943 238.218 39.8184 238.392C39.81 238.496 39.8412 238.599 39.9055 238.68C39.9698 238.762 40.0624 238.815 40.1643 238.83C40.4233 238.934 40.6948 239.003 40.9716 239.034Z" fill="#E4312A"/>
<path d="M82.6053 259.233C80.8169 259.248 79.037 258.982 77.329 258.445C75.6994 257.934 74.1684 257.144 72.8023 256.11C72.5966 255.908 72.404 255.694 72.2257 255.467C72.0331 255.246 71.8861 254.988 71.7932 254.708C71.4437 253.441 71.231 252.14 71.1589 250.826C71.1589 249.25 70.9859 247.907 70.9282 246.652C70.9232 246.509 70.9584 246.367 71.0298 246.243C71.1013 246.119 71.206 246.018 71.3319 245.952C71.6149 245.796 71.9324 245.716 72.2545 245.718C72.5246 245.707 72.7929 245.767 73.033 245.893C73.144 245.965 73.2396 246.059 73.3139 246.17C73.3882 246.28 73.4398 246.404 73.4655 246.535C74.1064 249.431 75.5462 252.083 77.6173 254.183C79.1907 255.84 81.3447 256.805 83.6145 256.869C84.9819 256.914 86.3332 256.559 87.5068 255.847C88.5895 255.194 89.4765 254.256 90.0729 253.132C90.7146 251.943 91.0423 250.605 91.0244 249.25C91.0851 247.798 90.7878 246.353 90.1594 245.047C89.5198 243.908 88.6562 242.915 87.6222 242.128C86.2956 241.074 84.9093 240.099 83.4703 239.209C81.6827 238.129 79.9527 236.99 78.2228 235.823C76.582 234.714 75.1473 233.321 73.9844 231.707C72.8358 229.987 72.2508 227.945 72.3122 225.869C72.2506 223.587 72.8514 221.336 74.0403 219.396C75.2292 217.455 76.954 215.91 79.0013 214.952C81.4595 213.779 84.1561 213.209 86.8725 213.288C88.3476 213.278 89.8186 213.445 91.255 213.785C92.3349 214.06 93.3947 214.411 94.4266 214.836C94.7996 214.965 95.1293 215.197 95.3781 215.507C95.6433 215.855 95.8391 216.251 95.9547 216.674C96.1854 217.609 96.416 218.718 96.6755 219.973C96.9553 221.237 97.0907 222.53 97.0792 223.826C97.0792 224.322 96.7332 224.585 96.0124 224.585C95.6185 224.592 95.23 224.491 94.8879 224.293C94.5886 224.166 94.3505 223.925 94.2248 223.622C93.5671 221.448 92.4337 219.453 90.9091 217.784C90.2318 217.164 89.4393 216.687 88.5779 216.382C87.7164 216.076 86.8034 215.947 85.8922 216.003C84.6434 215.978 83.4041 216.227 82.2593 216.733C81.1754 217.202 80.2597 217.997 79.6356 219.01C78.9508 220.288 78.6219 221.731 78.6841 223.184C78.7003 224.427 79.1266 225.629 79.8951 226.599C80.8681 227.727 81.9942 228.71 83.2396 229.518C84.6524 230.481 86.1229 231.474 87.9393 232.437C89.6784 233.474 91.3363 234.645 92.8985 235.94C94.3121 237.087 95.4879 238.505 96.3584 240.114C97.2396 241.823 97.6762 243.732 97.627 245.66C97.7029 248.214 97.0524 250.737 95.7529 252.928C94.4975 254.943 92.6819 256.537 90.5342 257.511C88.0419 258.648 85.3391 259.235 82.6053 259.233Z" fill="#E4312A"/>
<path d="M102.499 258.561C102.068 258.567 101.639 258.498 101.23 258.357C101.128 258.293 101.044 258.203 100.988 258.095C100.932 257.987 100.906 257.865 100.913 257.744C100.913 257.16 101.548 256.722 102.845 256.459C104.14 256.252 105.366 255.731 106.42 254.942C106.823 254.49 107.129 253.958 107.318 253.38C107.506 252.802 107.574 252.191 107.516 251.585V221.052C107.61 219.867 107.282 218.687 106.593 217.725C105.634 216.896 104.446 216.387 103.191 216.265C102.667 216.191 102.165 216.002 101.721 215.711C101.579 215.625 101.461 215.506 101.375 215.364C101.29 215.221 101.24 215.06 101.23 214.893C101.23 214.631 101.403 214.426 101.721 214.251C102.121 214.077 102.554 213.998 102.989 214.018H106.939H110.428C111.552 214.018 112.792 214.018 114.119 214.018H119.885C121.846 214.018 123.662 214.018 125.248 214.018C126.834 214.018 128.131 214.018 129.025 214.018H130.784C131.071 214.019 131.355 214.079 131.62 214.193C131.757 214.24 131.878 214.326 131.97 214.439C132.061 214.553 132.12 214.69 132.139 214.835C132.341 216.207 132.571 217.579 132.831 218.922C133.053 220.066 133.179 221.229 133.206 222.395C133.225 222.56 133.207 222.728 133.152 222.885C133.097 223.042 133.007 223.184 132.888 223.3C132.714 223.456 132.487 223.54 132.254 223.534C132.158 223.544 132.06 223.531 131.97 223.495C131.88 223.46 131.799 223.403 131.735 223.329C131.558 223.168 131.42 222.969 131.331 222.745L130.466 220.264C130.261 219.652 129.938 219.086 129.515 218.6C128.957 217.996 128.279 217.518 127.526 217.199C126.721 216.864 125.858 216.695 124.988 216.703H117.261C116.599 216.738 115.96 216.961 115.416 217.345C115.113 217.536 114.863 217.803 114.691 218.12C114.52 218.437 114.431 218.794 114.436 219.155V232.933C114.429 233.131 114.461 233.328 114.53 233.514C114.599 233.699 114.704 233.869 114.839 234.013C115.091 234.271 115.433 234.418 115.791 234.421H122.134C122.612 234.475 123.096 234.425 123.554 234.274C124.011 234.123 124.432 233.875 124.787 233.546C125.379 232.74 125.792 231.814 125.997 230.831C126.315 229.926 126.718 229.488 127.266 229.488C127.382 229.486 127.498 229.511 127.603 229.562C127.708 229.612 127.8 229.687 127.872 229.78C128.063 230.051 128.155 230.382 128.131 230.714C128.131 230.977 128.131 231.415 128.131 232.057C128.131 232.699 128.131 233.341 127.987 234.013C127.843 234.684 127.987 235.239 127.987 235.647C127.987 236.056 127.987 236.727 127.987 237.428V239.5C127.987 240.162 127.987 240.658 127.987 240.989C128.066 241.305 128.066 241.636 127.987 241.952C127.987 242.215 127.727 242.332 127.497 242.332C126.776 242.332 126.257 241.66 125.882 240.376C125.707 239.422 125.333 238.517 124.787 237.72C124.536 237.423 124.221 237.189 123.865 237.037C123.51 236.885 123.124 236.819 122.739 236.844H116.512C115.97 236.8 115.427 236.922 114.955 237.194C114.76 237.366 114.611 237.584 114.52 237.828C114.43 238.073 114.401 238.337 114.436 238.595V251.526C114.365 252.095 114.408 252.672 114.562 253.223C114.715 253.775 114.976 254.29 115.329 254.737C116.212 255.415 117.311 255.738 118.415 255.642H123.662C124.763 255.656 125.863 255.568 126.949 255.379C127.813 255.227 128.631 254.878 129.342 254.358C130.14 253.793 130.825 253.08 131.36 252.256C132.032 251.251 132.63 250.198 133.148 249.104C133.293 248.86 133.478 248.642 133.696 248.461C133.771 248.379 133.867 248.319 133.974 248.288C134.081 248.257 134.194 248.256 134.301 248.286C134.41 248.277 134.52 248.3 134.617 248.352C134.714 248.403 134.795 248.482 134.849 248.578C134.973 248.821 135.033 249.093 135.022 249.366C134.984 250.116 134.868 250.86 134.676 251.585C134.454 252.64 134.175 253.683 133.84 254.708C133.523 255.788 133.234 256.693 132.946 257.481C132.832 257.756 132.676 258.012 132.485 258.24C132.404 258.34 132.303 258.42 132.189 258.475C132.074 258.531 131.949 258.56 131.822 258.561H126.805H121.471L115.993 258.415H110.601C109.659 258.415 108.765 258.415 107.92 258.415L105.353 258.619C104.604 258.532 103.624 258.561 102.499 258.561Z" fill="#E4312A"/>
<path d="M159.962 258.678C159.126 258.678 157.886 258.678 156.271 258.678L151.081 258.444C149.265 258.444 147.65 258.444 146.209 258.444H143.7H141.278C140.442 258.444 139.462 258.444 138.395 258.444C137.973 258.46 137.551 258.39 137.155 258.24C137.011 258.2 136.884 258.113 136.795 257.991C136.706 257.869 136.66 257.72 136.665 257.569C136.653 257.409 136.691 257.25 136.774 257.113C136.857 256.977 136.98 256.871 137.127 256.81C137.592 256.588 138.088 256.441 138.597 256.372C139.887 256.232 141.11 255.714 142.115 254.883C142.833 253.934 143.173 252.746 143.066 251.556V221.052C143.179 219.879 142.838 218.707 142.115 217.783C141.106 216.953 139.887 216.427 138.597 216.265C138.084 216.181 137.587 216.014 137.127 215.769C136.983 215.696 136.863 215.583 136.781 215.444C136.7 215.304 136.659 215.143 136.665 214.981C136.669 214.825 136.718 214.673 136.805 214.543C136.892 214.414 137.013 214.313 137.155 214.251C137.549 214.09 137.971 214.011 138.395 214.018H141.278H143.758H146.641H149.351L152.811 213.959L156.271 213.755C157.367 213.755 158.174 213.755 158.751 213.755C162.408 213.682 166.052 214.225 169.534 215.36C172.392 216.305 175.016 217.858 177.232 219.914C179.246 221.838 180.829 224.177 181.874 226.774C182.939 229.485 183.477 232.379 183.46 235.297C183.474 239.896 182.145 244.396 179.642 248.233C177.139 252.071 173.573 255.075 169.39 256.868C166.4 258.11 163.193 258.726 159.962 258.678ZM159.097 255.759C162.154 255.844 165.167 255 167.747 253.336C170.275 251.678 172.277 249.316 173.513 246.535C174.914 243.391 175.604 239.971 175.531 236.523C175.585 233.608 175.106 230.709 174.119 227.97C173.182 225.686 171.822 223.605 170.111 221.841C168.611 220.129 166.768 218.762 164.705 217.831C162.641 216.9 160.405 216.426 158.145 216.44C156.415 216.44 154.916 216.44 153.705 216.616C152.678 216.628 151.676 216.943 150.822 217.52C150.481 217.834 150.22 218.225 150.059 218.662C149.899 219.099 149.844 219.568 149.899 220.031V249.775C149.802 251.178 150.235 252.565 151.11 253.657C152.017 254.57 153.171 255.19 154.426 255.438C155.959 255.779 157.527 255.936 159.097 255.905V255.759Z" fill="#E4312A"/>
<path d="M209.814 259.174C206.323 259.255 202.867 258.463 199.751 256.868C197.17 255.594 195.029 253.559 193.61 251.03C192.176 248.177 191.463 245.008 191.534 241.807V221.461C191.603 220.219 191.29 218.986 190.64 217.929C190.119 217.136 189.312 216.581 188.391 216.382C186.979 215.974 186.258 215.478 186.258 214.894C186.258 214.31 186.431 214.368 186.806 214.222C187.23 214.067 187.681 213.998 188.132 214.018C189.285 214.018 190.467 214.018 191.678 214.164C192.889 214.31 194.1 214.164 195.34 214.164H198.8C200.011 214.164 201.078 214.164 202 214.164C202.469 214.157 202.937 214.226 203.384 214.368C203.529 214.418 203.654 214.512 203.742 214.638C203.83 214.764 203.876 214.915 203.874 215.069C203.874 215.419 203.644 215.711 203.182 215.915C202.721 216.12 202.116 216.353 201.337 216.616C200.623 216.973 200.015 217.517 199.578 218.192C198.939 219.21 198.627 220.403 198.685 221.607V240.114C198.573 243.029 199.146 245.93 200.357 248.579C201.331 250.65 202.939 252.349 204.941 253.424C206.981 254.491 209.248 255.033 211.544 255C213.401 255.148 215.266 254.819 216.964 254.044C218.663 253.268 220.14 252.071 221.26 250.563C223.526 246.923 224.614 242.658 224.374 238.362V234.363C224.374 232.787 224.374 231.123 224.374 229.372C224.374 227.62 224.374 225.927 224.374 224.351C224.365 223.079 224.25 221.809 224.028 220.557C223.862 219.609 223.53 218.7 223.048 217.871C222.865 217.534 222.618 217.236 222.321 216.996C222.024 216.755 221.683 216.577 221.318 216.47L219.675 216.003C219.098 215.769 218.838 215.478 218.838 215.127C218.838 214.777 219.011 214.631 219.357 214.514C219.812 214.36 220.291 214.291 220.77 214.31H223.653C224.345 214.31 225.239 214.31 226.248 214.31C227.258 214.31 227.69 214.31 228.295 214.31H230.054H231.871C232.321 214.295 232.771 214.364 233.197 214.514C233.344 214.553 233.475 214.639 233.569 214.761C233.663 214.882 233.714 215.032 233.716 215.186C233.716 215.769 233.024 216.236 231.669 216.558C231.116 216.646 230.588 216.853 230.12 217.165C229.653 217.477 229.257 217.887 228.959 218.367C228.39 219.478 228.084 220.707 228.065 221.958C227.776 225.344 227.777 228.73 227.777 231.824C227.777 234.918 227.777 237.983 227.575 241.048C227.583 244.344 226.738 247.584 225.124 250.447C223.604 253.115 221.416 255.33 218.781 256.868C216.043 258.42 212.951 259.216 209.814 259.174Z" fill="#E4312A"/>
<path d="M235.647 258.474C235.235 258.526 234.819 258.526 234.407 258.474C234.267 258.436 234.144 258.352 234.055 258.236C233.967 258.12 233.918 257.978 233.917 257.832C233.917 257.248 234.551 256.81 235.849 256.547C237.2 256.37 238.487 255.859 239.597 255.059C240.026 254.628 240.355 254.106 240.559 253.53C240.764 252.954 240.839 252.34 240.779 251.731V221.053C240.9 219.883 240.569 218.712 239.856 217.784C238.871 216.952 237.67 216.425 236.397 216.266C235.099 215.974 234.436 215.536 234.436 214.894C234.436 214.744 234.483 214.597 234.571 214.476C234.66 214.355 234.784 214.266 234.926 214.222C235.3 214.066 235.704 213.996 236.108 214.018H239.222H241.846C242.711 214.018 243.605 214.018 244.729 214.018H247.382H249.919C250.784 214.018 251.764 214.018 252.802 214.018C253.232 214.004 253.661 214.063 254.071 214.193C254.21 214.228 254.334 214.311 254.418 214.429C254.503 214.546 254.543 214.69 254.532 214.835C254.536 215.009 254.492 215.18 254.406 215.329C254.319 215.479 254.193 215.601 254.042 215.682C253.588 215.925 253.103 216.101 252.6 216.207C251.281 216.408 250.032 216.94 248.967 217.754C248.578 218.201 248.287 218.725 248.113 219.294C247.939 219.863 247.886 220.462 247.958 221.053V251.585C247.901 252.188 247.986 252.797 248.207 253.36C248.427 253.923 248.777 254.426 249.227 254.825C250.332 255.63 251.604 256.169 252.946 256.401C253.459 256.473 253.956 256.631 254.417 256.869C254.568 256.942 254.695 257.058 254.782 257.203C254.869 257.349 254.912 257.516 254.907 257.686C254.9 257.82 254.852 257.948 254.769 258.053C254.686 258.157 254.573 258.233 254.446 258.27C254.061 258.425 253.648 258.495 253.235 258.474C252.11 258.474 251.101 258.474 250.15 258.474L247.439 258.299H244.556H241.673L238.79 258.474C237.809 258.445 236.771 258.474 235.647 258.474Z" fill="#E4312A"/>
<path d="M268.141 259.233C266.352 259.248 264.572 258.982 262.865 258.445C261.226 257.934 259.685 257.144 258.309 256.109L257.761 255.467C257.569 255.246 257.422 254.988 257.329 254.708C256.979 253.441 256.766 252.14 256.694 250.826C256.694 249.25 256.493 247.907 256.464 246.652C256.451 246.507 256.483 246.362 256.555 246.237C256.628 246.111 256.737 246.011 256.867 245.951C257.15 245.796 257.468 245.715 257.79 245.718C258.06 245.707 258.328 245.767 258.568 245.893C258.68 245.965 258.775 246.059 258.849 246.169C258.924 246.28 258.975 246.404 259.001 246.535C259.634 249.428 261.063 252.079 263.124 254.183C264.707 255.773 266.834 256.682 269.063 256.722C270.44 256.771 271.802 256.417 272.985 255.701C274.054 255.032 274.938 254.097 275.551 252.986C276.17 251.789 276.486 250.455 276.473 249.104C276.569 247.724 276.305 246.342 275.708 245.098C275.111 243.853 274.201 242.789 273.071 242.011C271.755 240.956 270.378 239.982 268.948 239.092C267.161 238.012 265.402 236.873 263.701 235.706C262.07 234.653 260.643 233.308 259.491 231.736C258.33 230.022 257.743 227.975 257.819 225.898C257.755 223.619 258.351 221.37 259.535 219.43C260.718 217.49 262.437 215.944 264.479 214.981C266.948 213.81 269.654 213.24 272.379 213.317C273.845 213.307 275.306 213.474 276.733 213.814C277.814 214.085 278.874 214.436 279.904 214.864C280.282 215.001 280.62 215.232 280.885 215.536C281.141 215.885 281.327 216.282 281.433 216.703C281.663 217.637 281.923 218.747 282.182 220.002C282.44 221.279 282.566 222.58 282.557 223.884C282.557 224.38 282.182 224.643 281.49 224.643C281.088 224.647 280.691 224.546 280.337 224.351C280.038 224.224 279.8 223.983 279.674 223.68C279.014 221.513 277.892 219.52 276.387 217.842C275.053 216.604 273.294 215.943 271.485 216.003C270.237 215.978 268.997 216.227 267.853 216.733C266.781 217.167 265.873 217.934 265.258 218.922C264.55 220.192 264.21 221.639 264.277 223.096C264.29 224.345 264.728 225.551 265.517 226.511C266.484 227.646 267.611 228.63 268.862 229.43C270.246 230.393 271.745 231.386 273.561 232.349C275.287 233.394 276.935 234.564 278.492 235.852C279.904 237.008 281.088 238.424 281.98 240.026C282.862 241.736 283.298 243.644 283.249 245.572C283.325 248.126 282.674 250.649 281.375 252.84C280.116 254.863 278.289 256.459 276.127 257.423C273.625 258.603 270.901 259.22 268.141 259.233Z" fill="#E4312A"/>
<path d="M9.65997 280.687C8.54587 280.726 7.43362 280.568 6.37308 280.22C5.31716 279.868 4.33822 279.313 3.48984 278.586C2.68325 277.88 2.02613 277.016 1.55807 276.046C1.08553 275.003 0.849111 273.866 0.866088 272.719C0.854251 271.606 1.10117 270.506 1.5869 269.508C2.04514 268.491 2.72537 267.593 3.57633 266.881C4.42334 266.116 5.40019 265.513 6.45957 265.1C7.64624 264.684 8.89442 264.477 10.1501 264.487H11.7071L13.0334 264.721L14.4173 265.1C14.5919 265.159 14.7501 265.259 14.8786 265.392C14.9421 265.457 14.9905 265.535 15.0204 265.62C15.0503 265.706 15.061 265.798 15.0516 265.888C15.0516 266.297 15.0516 266.735 15.1958 267.173C15.34 267.61 15.1958 268.136 15.1958 268.69C15.2007 268.751 15.1867 268.812 15.1557 268.865C15.1246 268.917 15.0782 268.958 15.0228 268.982C14.9625 269.029 14.891 269.059 14.8156 269.069C14.7402 269.079 14.6636 269.069 14.5935 269.039C14.5233 269.009 14.4621 268.962 14.416 268.9C14.3699 268.839 14.3405 268.767 14.3308 268.69C14.1986 268.213 14.0349 267.745 13.8407 267.289C13.6468 266.878 13.3605 266.518 13.0045 266.239C12.6522 265.978 12.2635 265.771 11.8512 265.626C11.2288 265.469 10.5897 265.391 9.94829 265.392C9.09953 265.378 8.25959 265.568 7.49754 265.947C6.76422 266.31 6.11559 266.828 5.5946 267.464C5.07004 268.097 4.66008 268.818 4.38364 269.595C4.07266 270.395 3.91606 271.247 3.92232 272.106C3.91842 273.095 4.06427 274.08 4.35481 275.025C4.59911 275.922 5.01009 276.764 5.56577 277.506C6.08033 278.213 6.73914 278.801 7.49754 279.228C8.28134 279.669 9.16709 279.891 10.0636 279.87C11.0829 279.923 12.0926 279.647 12.9469 279.082C13.7449 278.5 14.3887 277.728 14.821 276.834C14.862 276.729 14.9337 276.64 15.0264 276.577C15.1191 276.515 15.2285 276.482 15.34 276.484C15.5706 276.484 15.6571 276.484 15.6571 276.893C15.6779 277.106 15.6779 277.321 15.6571 277.535C15.6115 277.851 15.544 278.163 15.4553 278.469C15.4553 278.79 15.2535 279.082 15.167 279.374C15.0939 279.518 15.007 279.655 14.9075 279.782C14.7553 279.864 14.5886 279.913 14.4173 279.928C13.7285 280.192 13.013 280.378 12.2837 280.483C11.4172 280.633 10.5389 280.701 9.65997 280.687Z" fill="#E4312A"/>
<path d="M16.8096 280.454C16.6576 280.487 16.5003 280.487 16.3483 280.454C16.2945 280.441 16.246 280.412 16.2097 280.37C16.1734 280.328 16.1513 280.276 16.1465 280.22C16.1492 280.153 16.1693 280.088 16.2048 280.032C16.2402 279.976 16.2897 279.93 16.3483 279.899L16.8673 279.665C17.2855 279.548 17.6772 279.35 18.0206 279.082C18.4262 278.797 18.7297 278.388 18.8856 277.914C19.318 276.922 19.7217 275.987 20.0677 274.995L21.1345 272.339L22.1436 269.653C22.4896 268.748 22.8644 267.756 23.2104 266.734C23.3365 266.44 23.4424 266.138 23.5276 265.829C23.5505 265.606 23.5505 265.381 23.5276 265.158H24.1042L24.6809 264.895C24.8577 264.8 25.0067 264.659 25.1134 264.487L25.3729 264.078C25.3936 264.164 25.3936 264.255 25.3729 264.341V264.633C25.7188 265.83 26.0937 266.997 26.4973 268.223C26.901 269.449 27.2758 270.617 27.6506 271.784C28.0254 272.952 28.4003 274.003 28.7174 274.995C29.0346 275.987 29.3517 276.834 29.5824 277.564C29.7003 278.01 29.9063 278.427 30.1879 278.79C30.4036 279.053 30.668 279.271 30.9663 279.432C31.2421 279.564 31.5325 279.662 31.8313 279.724C32.0276 279.746 32.2157 279.816 32.3791 279.928C32.4313 279.97 32.4738 280.024 32.5036 280.084C32.5335 280.144 32.55 280.211 32.5521 280.278C32.5526 280.328 32.5354 280.376 32.5035 280.413C32.4717 280.451 32.4275 280.476 32.3791 280.483H31.9178H30.9375H29.64H25.9495C25.7974 280.515 25.6403 280.515 25.4882 280.483C25.4398 280.465 25.3975 280.434 25.3667 280.392C25.3359 280.351 25.318 280.301 25.3152 280.249C25.3152 280.249 25.3152 280.016 25.5458 279.928C25.693 279.831 25.8611 279.771 26.036 279.753C26.4601 279.71 26.8667 279.559 27.2181 279.315C27.3351 279.232 27.425 279.115 27.4764 278.98C27.5277 278.845 27.5382 278.697 27.5064 278.556C27.5319 278.137 27.5126 277.716 27.4488 277.301C27.4488 276.892 27.247 276.455 27.1316 275.987C27.0163 275.52 26.8721 275.112 26.7568 274.732C26.7832 274.657 26.7832 274.574 26.7568 274.499H26.3243H21.7976C21.7227 274.474 21.642 274.474 21.567 274.499C21.4912 274.595 21.4327 274.703 21.394 274.82C21.3309 275.067 21.2539 275.311 21.1633 275.55C21.0501 275.865 20.9538 276.187 20.875 276.513C20.7659 276.807 20.6792 277.11 20.6155 277.418L20.4713 278.031C20.4445 278.201 20.4595 278.375 20.5148 278.538C20.5701 278.701 20.6641 278.847 20.7885 278.965C21.0977 279.246 21.4762 279.438 21.8841 279.519C22.3743 279.519 22.6049 279.811 22.6049 280.016C22.6054 280.065 22.5882 280.113 22.5564 280.151C22.5245 280.188 22.4803 280.213 22.4319 280.22C22.2798 280.252 22.1227 280.252 21.9706 280.22H19.664H18.1648L16.8096 280.454ZM22.5761 273.477H25.9495C26.1802 273.477 26.2955 273.477 26.2955 273.477L24.5367 267.639C24.5367 267.377 24.3926 267.231 24.3637 267.231C24.3349 267.231 24.3637 267.231 24.1907 267.61L22.1148 273.448V273.652C22.1148 273.652 22.1148 273.652 22.1148 273.798L22.5761 273.477Z" fill="#E4312A"/>
<path d="M33.3599 280.425H32.9274C32.8714 280.418 32.8199 280.39 32.7827 280.347C32.7455 280.304 32.7252 280.248 32.7256 280.191C32.7256 279.987 32.9563 279.841 33.4176 279.724C33.8909 279.679 34.3412 279.496 34.715 279.199C34.8618 279.039 34.9736 278.85 35.0432 278.644C35.1127 278.438 35.1385 278.219 35.1187 278.002V267.552C35.159 267.029 35.0594 266.505 34.8304 266.034C34.699 265.843 34.5275 265.684 34.3281 265.568C34.1287 265.452 33.9063 265.382 33.6771 265.363C33.4862 265.335 33.3011 265.276 33.1292 265.188C33.0867 265.152 33.0519 265.107 33.0271 265.057C33.0023 265.007 32.988 264.952 32.9851 264.896C32.9851 264.896 32.9851 264.721 33.1581 264.662C33.3003 264.629 33.4483 264.629 33.5906 264.662H34.5997H35.3782H36.2431H37.1946H38.1461C38.4626 264.633 38.781 264.633 39.0976 264.662C40.6608 264.582 42.2108 264.99 43.5378 265.83C44.0676 266.186 44.4992 266.674 44.7917 267.246C45.0843 267.817 45.2283 268.455 45.21 269.099C45.2154 270.039 45.0083 270.968 44.6046 271.814C44.2289 272.656 43.6043 273.36 42.8169 273.828C41.879 274.368 40.8101 274.631 39.7319 274.587C39.4426 274.607 39.1534 274.546 38.8957 274.412C38.6939 274.412 38.5786 274.178 38.5786 274.091C38.5603 274.049 38.5508 274.005 38.5508 273.959C38.5508 273.914 38.5603 273.869 38.5786 273.828C38.6618 273.794 38.7548 273.794 38.8381 273.828H39.2417H39.9049C40.306 273.836 40.701 273.727 41.0433 273.515C41.3856 273.303 41.6608 272.996 41.8366 272.631C42.3113 271.632 42.5294 270.528 42.4709 269.42C42.5166 268.892 42.453 268.359 42.2843 267.856C42.1155 267.354 41.8452 266.892 41.4906 266.501C41.1516 266.179 40.7528 265.928 40.3173 265.762C39.8818 265.597 39.4182 265.521 38.9534 265.538C38.5799 265.516 38.2083 265.607 37.8866 265.801C37.7515 265.886 37.6423 266.008 37.5711 266.152C37.4999 266.296 37.4694 266.457 37.4829 266.618V278.002C37.4633 278.243 37.4923 278.486 37.5682 278.715C37.6441 278.944 37.7653 279.155 37.9245 279.335C38.0837 279.516 38.2774 279.661 38.494 279.763C38.7105 279.865 38.9453 279.921 39.1841 279.929L39.703 280.104C39.756 280.131 39.8003 280.173 39.8309 280.225C39.8615 280.276 39.8771 280.335 39.876 280.396C39.8765 280.445 39.8593 280.493 39.8275 280.531C39.7956 280.568 39.7514 280.593 39.703 280.6C39.5513 280.636 39.3934 280.636 39.2417 280.6H38.3479L37.4829 280.22H35.5223H34.5132L33.3599 280.425Z" fill="#E4312A"/>
<path d="M46.2749 280.424H45.8425C45.7864 280.417 45.7349 280.389 45.6977 280.346C45.6605 280.303 45.6402 280.248 45.6406 280.191C45.6406 279.986 45.8713 279.84 46.3326 279.724C46.8212 279.668 47.2877 279.487 47.6877 279.198C47.8338 279.044 47.9454 278.86 48.015 278.659C48.0847 278.457 48.1107 278.243 48.0914 278.031V267.085C48.1403 266.668 48.0264 266.249 47.7742 265.917C47.4161 265.625 46.9885 265.434 46.5344 265.362C46.0731 265.362 45.8425 265.1 45.8425 264.895C45.8408 264.842 45.857 264.79 45.8885 264.748C45.9199 264.705 45.9647 264.675 46.0155 264.662C46.1577 264.628 46.3057 264.628 46.4479 264.662H47.5436H48.495H52.3586H52.8199C52.8707 264.675 52.9154 264.705 52.9469 264.748C52.9783 264.79 52.9946 264.842 52.9929 264.895C52.9881 264.958 52.9669 265.018 52.9314 265.069C52.8959 265.12 52.8474 265.161 52.7911 265.187C52.6439 265.285 52.4758 265.345 52.3009 265.362C51.832 265.443 51.3879 265.633 51.0035 265.917C50.8626 266.073 50.7563 266.258 50.6916 266.46C50.627 266.661 50.6055 266.874 50.6286 267.085V277.972C50.6079 278.186 50.6391 278.401 50.7195 278.599C50.7999 278.798 50.9271 278.973 51.09 279.111C51.4748 279.413 51.933 279.604 52.4163 279.665L52.9352 279.84C52.9882 279.868 53.0325 279.91 53.0631 279.961C53.0937 280.013 53.1093 280.072 53.1082 280.132C53.1087 280.182 53.0915 280.23 53.0597 280.267C53.0278 280.305 52.9836 280.33 52.9352 280.337C52.7938 280.376 52.6442 280.376 52.5027 280.337H51.4071H50.4556H48.4085H47.3994L46.2749 280.424ZM48.495 263.844C48.3509 263.844 48.2932 263.844 48.2932 263.844C48.3088 263.685 48.3687 263.533 48.4662 263.407C48.7834 262.91 49.1294 262.414 49.4753 261.947C49.8213 261.48 50.1673 260.984 50.5421 260.517C50.6164 260.403 50.7206 260.313 50.8429 260.256C50.9651 260.2 51.1007 260.179 51.2341 260.196H51.7819L52.4451 260.429C52.6469 260.429 52.7334 260.634 52.7334 260.75C52.7334 260.867 52.7334 261.042 52.3874 261.247C52.0414 261.451 51.2918 262.064 50.6863 262.473L48.9852 263.669L48.668 263.844H48.495Z" fill="#E4312A"/>
<path d="M57.9236 280.425H57.4623C57.4115 280.412 57.3667 280.382 57.3353 280.339C57.3038 280.297 57.2876 280.245 57.2893 280.192C57.2902 280.136 57.307 280.081 57.3377 280.035C57.3683 279.988 57.4116 279.952 57.4623 279.929C57.634 279.834 57.8186 279.765 58.0101 279.725C58.5038 279.671 58.9729 279.479 59.3652 279.17C59.5243 279.012 59.6459 278.82 59.7208 278.608C59.7958 278.395 59.822 278.168 59.7977 277.944V268.37C59.7977 267.64 59.7977 267.115 59.7977 266.765C59.7869 266.506 59.7383 266.25 59.6535 266.006C59.5994 265.891 59.5078 265.798 59.394 265.743H58.7309H56.9721C56.5513 265.742 56.1362 265.842 55.7612 266.035C55.3853 266.188 55.0638 266.453 54.8385 266.794L54.579 267.202C54.4597 267.362 54.3244 267.509 54.1754 267.64C54.0555 267.748 53.9027 267.809 53.7429 267.815C53.7166 267.831 53.6868 267.839 53.6564 267.839C53.626 267.839 53.5962 267.831 53.5699 267.815C53.5535 267.738 53.5535 267.659 53.5699 267.582C53.563 267.387 53.6131 267.194 53.7141 267.027C53.9377 266.598 54.1211 266.149 54.2619 265.685C54.3895 265.236 54.4764 264.777 54.5214 264.313C54.5214 264.05 54.5214 263.904 54.6944 263.846C54.788 263.814 54.889 263.814 54.9827 263.846C54.9827 263.846 55.1845 263.846 55.3287 264.167L55.6458 264.663C55.8396 264.838 56.0806 264.949 56.3378 264.984C56.6634 265.024 56.9925 265.024 57.3181 264.984H65.9678C66.3804 265.018 66.795 265.018 67.2076 264.984C67.475 264.936 67.7361 264.858 67.9861 264.751C68.1841 264.663 68.3611 264.534 68.5051 264.371C68.5729 264.302 68.654 264.249 68.7434 264.214C68.8327 264.179 68.9283 264.163 69.0241 264.167C69.0241 264.167 69.0241 264.167 69.1682 264.167C69.1824 264.283 69.1824 264.401 69.1682 264.517C69.1809 264.614 69.1809 264.712 69.1682 264.809C69.1682 264.809 69.1682 265.042 69.1682 265.13C69.1239 265.376 69.0661 265.62 68.9952 265.86C68.9689 266.024 68.9689 266.192 68.9952 266.356C68.976 266.55 68.976 266.746 68.9952 266.94V267.261C69.0253 267.444 69.0253 267.632 68.9952 267.815C68.9952 267.991 68.8222 268.107 68.7069 268.107C68.5916 268.107 68.4762 268.107 68.3897 267.845C68.3033 267.582 68.2456 267.436 68.1591 267.115C68.1255 266.918 68.0517 266.731 67.9425 266.565C67.8333 266.4 67.691 266.259 67.5248 266.152C67.0402 265.884 66.4898 265.762 65.939 265.801H63.4306C63.1935 265.745 62.9469 265.745 62.7098 265.801C62.606 265.893 62.5218 266.005 62.4623 266.13C62.4028 266.256 62.3693 266.392 62.3638 266.531C62.3226 267.143 62.3226 267.758 62.3638 268.37V277.886C62.3431 278.112 62.3739 278.341 62.4538 278.553C62.5338 278.766 62.6608 278.957 62.8251 279.112C63.2304 279.396 63.6934 279.586 64.1802 279.666L64.6992 279.842C64.7522 279.869 64.7965 279.911 64.8271 279.962C64.8576 280.014 64.8733 280.073 64.8722 280.133C64.8875 280.165 64.8954 280.2 64.8954 280.236C64.8954 280.271 64.8875 280.306 64.8722 280.338C64.7202 280.371 64.5629 280.371 64.4109 280.338H63.1423H62.1619H60.086H59.0769L57.9236 280.425Z" fill="#E4312A"/>
<path d="M76.7804 280.658C75.5369 280.695 74.3023 280.435 73.1763 279.899C72.2418 279.414 71.477 278.649 70.9851 277.71C70.4757 276.678 70.228 275.535 70.2643 274.382V267.231C70.2895 266.785 70.1678 266.344 69.9183 265.976C69.8365 265.831 69.7244 265.707 69.5899 265.611C69.4554 265.515 69.3017 265.45 69.1398 265.421C68.6208 265.265 68.3613 265.09 68.3613 264.896C68.3609 264.838 68.3812 264.783 68.4184 264.74C68.4556 264.697 68.5071 264.669 68.5632 264.662C68.7152 264.629 68.8725 264.629 69.0245 264.662H70.2931H73.9837H74.4738C74.5245 264.684 74.5677 264.721 74.5984 264.768C74.6291 264.814 74.6459 264.869 74.6468 264.925C74.6468 264.925 74.6468 265.129 74.4161 265.217L73.753 265.479C73.489 265.592 73.2669 265.786 73.1187 266.034C72.8909 266.4 72.7801 266.828 72.8015 267.26V273.857C72.7841 274.86 72.9808 275.856 73.3782 276.776C73.7297 277.513 74.3058 278.117 75.0216 278.498C75.753 278.876 76.5648 279.066 77.3859 279.053C78.0472 279.108 78.7115 278.992 79.3167 278.716C79.9218 278.441 80.4479 278.014 80.8458 277.476C81.6514 276.178 82.0346 274.657 81.9414 273.127V270.033C81.9414 269.42 81.9414 268.807 81.9414 268.252C81.9299 267.802 81.8817 267.352 81.7972 266.91C81.7529 266.567 81.6348 266.238 81.4512 265.946C81.3878 265.827 81.3017 265.722 81.1977 265.637C81.0938 265.552 80.9741 265.488 80.8458 265.45L80.298 265.217C80.0961 265.217 80.0096 265.042 80.0096 264.925C80.0096 264.808 80.0096 264.75 80.2115 264.691H80.7016H83.4119H84.0173H84.6805C84.8325 264.658 84.9898 264.658 85.1418 264.691C85.1978 264.698 85.2494 264.726 85.2866 264.769C85.3238 264.812 85.3441 264.868 85.3436 264.925C85.3436 265.129 85.0841 265.275 84.594 265.392C84.4011 265.429 84.2175 265.505 84.0541 265.615C83.8906 265.726 83.7507 265.868 83.6425 266.034C83.449 266.435 83.341 266.872 83.3254 267.318C83.3254 268.632 83.1812 269.858 83.1812 270.938V274.236C83.1996 275.414 82.9005 276.575 82.3162 277.593C81.7815 278.542 81.0048 279.329 80.0673 279.87C79.0665 280.44 77.9274 280.713 76.7804 280.658Z" fill="#E4312A"/>
<path d="M86.1234 280.453C85.9829 280.5 85.8313 280.5 85.6909 280.453C85.6909 280.453 85.5179 280.453 85.5179 280.249C85.515 280.185 85.5332 280.121 85.5697 280.068C85.6062 280.015 85.659 279.976 85.7197 279.957L86.008 279.811C86.4929 279.724 86.9544 279.535 87.3632 279.257C87.5189 279.115 87.6393 278.938 87.7144 278.74C87.7896 278.542 87.8174 278.329 87.7956 278.118V267.026C87.8532 266.747 87.8532 266.459 87.7956 266.18C87.7138 265.982 87.5585 265.825 87.3632 265.742C87.0638 265.627 86.7551 265.539 86.4405 265.479C85.9792 265.479 85.7485 265.216 85.7485 265.012C85.7481 264.955 85.7684 264.9 85.8056 264.857C85.8428 264.814 85.8943 264.786 85.9504 264.779C86.0926 264.745 86.2406 264.745 86.3828 264.779H87.4496H88.3435H92.2647H92.6971C92.6971 264.779 92.8413 264.779 92.8413 265.012C92.8487 265.07 92.839 265.128 92.8133 265.18C92.7876 265.232 92.7472 265.275 92.6971 265.304C92.5332 265.411 92.3441 265.471 92.1493 265.479C91.6678 265.6 91.1956 265.756 90.7365 265.946C90.5661 266.037 90.4259 266.177 90.3336 266.349C90.2413 266.52 90.2009 266.715 90.2176 266.909V278.06C90.1882 278.447 90.3012 278.832 90.5347 279.14C90.9266 279.399 91.3955 279.513 91.861 279.461H94.7442C95.1198 279.475 95.4939 279.405 95.8399 279.257C96.1094 279.167 96.3557 279.017 96.5607 278.819C96.8306 278.596 97.0727 278.342 97.2815 278.06C97.4784 277.732 97.6518 277.391 97.8005 277.038L98.0311 276.425C98.0545 276.358 98.0973 276.3 98.1539 276.259C98.2105 276.217 98.2783 276.194 98.3483 276.192C98.3483 276.192 98.5501 276.192 98.5789 276.192C98.6011 276.288 98.6011 276.388 98.5789 276.484C98.5789 276.921 98.3771 277.33 98.2618 277.651C98.1465 277.972 98.0888 278.322 98.0311 278.614C97.9735 278.906 98.0311 279.257 98.0311 279.607V279.899C97.9903 279.917 97.9461 279.927 97.9014 279.927C97.8567 279.927 97.8125 279.917 97.7716 279.899H93.5045H91.3997H88.1416H86.8442L86.1234 280.453Z" fill="#E4312A"/>
<path d="M107.199 280.658C106.213 280.651 105.236 280.463 104.316 280.104C103.371 279.731 102.502 279.187 101.75 278.498C101.003 277.783 100.397 276.931 99.9622 275.988C99.5287 274.965 99.3126 273.861 99.3279 272.748C99.3219 271.675 99.4974 270.608 99.8469 269.595C100.212 268.611 100.749 267.701 101.433 266.91C102.091 266.135 102.894 265.5 103.797 265.042C104.917 264.558 106.126 264.319 107.343 264.341C108.388 264.328 109.425 264.516 110.4 264.896C111.349 265.258 112.221 265.803 112.966 266.501C113.713 267.21 114.311 268.064 114.724 269.012C115.161 270.033 115.368 271.14 115.33 272.252C115.333 273.315 115.158 274.371 114.811 275.375C114.455 276.372 113.917 277.293 113.225 278.09C112.508 278.887 111.634 279.524 110.659 279.958C109.566 280.429 108.388 280.668 107.199 280.658ZM107.574 279.637C108.592 279.713 109.605 279.447 110.457 278.878C111.218 278.333 111.8 277.571 112.129 276.688C112.439 275.639 112.547 274.539 112.447 273.448C112.442 272.465 112.325 271.486 112.101 270.529C111.891 269.614 111.541 268.737 111.063 267.932C110.64 267.202 110.046 266.59 109.333 266.151C108.593 265.704 107.743 265.481 106.882 265.509C105.939 265.456 105.004 265.712 104.216 266.237C103.427 266.763 102.825 267.53 102.499 268.428C102.171 269.404 102.024 270.433 102.067 271.464C102.063 272.446 102.17 273.425 102.384 274.382C102.594 275.298 102.944 276.175 103.422 276.98C103.854 277.701 104.434 278.318 105.123 278.79C105.842 279.306 106.693 279.6 107.574 279.637Z" fill="#E4312A"/>
<path d="M121.702 280.453C121.55 280.486 121.392 280.486 121.24 280.453C121.195 280.435 121.157 280.402 121.131 280.36C121.105 280.318 121.093 280.269 121.096 280.219C121.096 280.015 121.327 279.84 121.788 279.752C122.255 279.682 122.7 279.502 123.086 279.227C123.243 279.074 123.363 278.886 123.438 278.679C123.513 278.472 123.54 278.25 123.518 278.03V267.084C123.561 266.655 123.436 266.226 123.172 265.887C122.848 265.565 122.416 265.377 121.961 265.362C121.776 265.349 121.598 265.289 121.442 265.187C121.391 265.157 121.349 265.115 121.318 265.063C121.288 265.012 121.271 264.954 121.269 264.895C121.269 264.895 121.269 264.72 121.442 264.661C121.594 264.625 121.752 264.625 121.904 264.661H124.643H125.508H126.344H127.526C128.972 264.573 130.417 264.843 131.735 265.449C132.23 265.739 132.629 266.172 132.88 266.691C133.132 267.211 133.225 267.795 133.148 268.368C133.165 268.862 133.066 269.352 132.86 269.799C132.698 270.158 132.473 270.484 132.197 270.762C131.972 270.976 131.731 271.171 131.476 271.346C131.187 271.521 130.877 271.658 130.553 271.754L131.735 272.192C132.152 272.354 132.541 272.58 132.889 272.864C133.274 273.144 133.574 273.528 133.754 273.973C133.983 274.527 134.091 275.124 134.071 275.724C134.097 276.447 133.959 277.166 133.667 277.826C133.427 278.29 133.093 278.698 132.687 279.023C132.333 279.265 131.968 279.49 131.591 279.694C131.038 279.954 130.458 280.15 129.861 280.278C129.092 280.43 128.309 280.499 127.526 280.482H126.344H123.98H122.999L121.702 280.453ZM127.065 271.463C127.486 271.518 127.912 271.518 128.333 271.463C128.798 271.367 129.239 271.178 129.631 270.908C129.965 270.653 130.229 270.315 130.395 269.926C130.562 269.537 130.627 269.111 130.582 268.69C130.585 268.162 130.498 267.639 130.323 267.142C130.163 266.661 129.835 266.256 129.4 266.004C128.812 265.668 128.143 265.506 127.468 265.537C127.061 265.485 126.65 265.589 126.315 265.829C126.211 265.93 126.131 266.053 126.081 266.189C126.031 266.326 126.013 266.472 126.027 266.617V270.733C126.005 270.879 126.03 271.028 126.097 271.159C126.164 271.29 126.271 271.396 126.401 271.463C126.62 271.515 126.847 271.515 127.065 271.463ZM127.728 279.373C128.345 279.382 128.953 279.22 129.487 278.906C130.009 278.605 130.446 278.173 130.755 277.651C131.077 277.114 131.247 276.498 131.245 275.87C131.264 275.351 131.176 274.835 130.986 274.352C130.812 274.008 130.599 273.684 130.351 273.389C130.148 273.192 129.926 273.016 129.688 272.864C129.421 272.694 129.129 272.566 128.823 272.484C128.316 272.345 127.792 272.276 127.266 272.28C126.938 272.256 126.612 272.349 126.344 272.543C126.251 272.609 126.174 272.696 126.119 272.797C126.064 272.898 126.032 273.011 126.027 273.126V277.738C126.004 277.971 126.03 278.206 126.105 278.428C126.18 278.65 126.3 278.852 126.459 279.023C126.84 279.255 127.285 279.357 127.728 279.315V279.373Z" fill="#E4312A"/>
<path d="M143.615 280.658C142.372 280.691 141.138 280.431 140.011 279.899C139.09 279.404 138.337 278.642 137.848 277.71C137.33 276.68 137.073 275.537 137.099 274.382V267.231C137.119 266.79 137.008 266.353 136.782 265.976C136.691 265.833 136.573 265.71 136.434 265.614C136.295 265.519 136.139 265.453 135.974 265.421C135.484 265.275 135.225 265.1 135.225 264.895C135.223 264.842 135.239 264.79 135.271 264.748C135.302 264.706 135.347 264.675 135.398 264.662C135.559 264.629 135.726 264.629 135.888 264.662H137.156H140.847H141.308C141.367 264.675 141.419 264.709 141.456 264.757C141.492 264.805 141.512 264.864 141.51 264.925C141.51 264.925 141.51 265.129 141.251 265.217L140.588 265.479C140.328 265.599 140.108 265.792 139.953 266.034C139.725 266.4 139.615 266.828 139.636 267.26V273.857C139.614 274.864 139.821 275.862 140.242 276.776C140.593 277.513 141.169 278.117 141.885 278.498C142.614 278.883 143.427 279.074 144.249 279.052C144.91 279.102 145.573 278.984 146.177 278.709C146.781 278.433 147.308 278.01 147.709 277.476C148.501 276.172 148.883 274.656 148.805 273.127V270.033C148.805 269.42 148.805 268.807 148.805 268.252C148.84 267.805 148.84 267.356 148.805 266.91C148.734 266.574 148.618 266.25 148.459 265.946C148.313 265.709 148.088 265.533 147.824 265.45L147.046 265.217C146.844 265.217 146.729 265.041 146.729 264.925C146.729 264.808 146.729 264.75 146.931 264.691H147.421H150.131H150.765H151.4C151.561 264.658 151.728 264.658 151.89 264.691C151.941 264.704 151.985 264.735 152.017 264.777C152.048 264.82 152.065 264.872 152.063 264.925C152.063 265.129 151.832 265.275 151.342 265.392C150.949 265.477 150.6 265.706 150.362 266.034C150.168 266.435 150.06 266.872 150.045 267.318C150.045 268.632 150.045 269.858 150.045 270.938C150.045 272.018 150.045 273.156 150.045 274.236C150.035 275.41 149.738 276.564 149.18 277.593C148.629 278.53 147.856 279.312 146.931 279.87C145.918 280.436 144.771 280.709 143.615 280.658Z" fill="#E4312A"/>
<path d="M161.462 280.687C160.341 280.688 159.229 280.49 158.175 280.103C157.119 279.751 156.14 279.196 155.292 278.468C154.486 277.762 153.828 276.899 153.36 275.929C152.937 274.874 152.75 273.738 152.813 272.601C152.801 271.488 153.048 270.388 153.533 269.39C153.992 268.373 154.672 267.475 155.523 266.763C156.37 265.998 157.347 265.395 158.406 264.983C159.592 264.565 160.841 264.357 162.097 264.37H163.654L164.98 264.603L166.364 264.983C166.538 265.041 166.697 265.141 166.825 265.275C166.889 265.339 166.937 265.417 166.967 265.503C166.997 265.589 167.007 265.68 166.998 265.771C166.998 266.179 166.998 266.617 167.142 267.055C167.286 267.493 167.142 268.018 167.142 268.573C167.147 268.634 167.133 268.695 167.102 268.747C167.071 268.799 167.025 268.841 166.969 268.865C166.909 268.912 166.837 268.942 166.762 268.951C166.687 268.961 166.61 268.951 166.54 268.921C166.47 268.892 166.409 268.844 166.362 268.783C166.316 268.722 166.287 268.649 166.277 268.573C166.145 268.095 165.981 267.627 165.787 267.172C165.593 266.76 165.307 266.4 164.951 266.121C164.532 265.817 164.064 265.59 163.567 265.45C162.945 265.293 162.305 265.215 161.664 265.216C160.815 265.202 159.975 265.392 159.213 265.771C158.48 266.135 157.831 266.652 157.31 267.289C156.787 267.927 156.368 268.646 156.071 269.419C155.783 270.224 155.636 271.074 155.638 271.93C155.634 272.919 155.78 273.904 156.071 274.849C156.315 275.746 156.726 276.588 157.282 277.33C157.796 278.037 158.455 278.625 159.213 279.052C159.997 279.493 160.883 279.715 161.779 279.694C162.799 279.747 163.808 279.472 164.663 278.906C165.461 278.325 166.104 277.553 166.537 276.658C166.578 276.554 166.649 276.464 166.742 276.401C166.835 276.339 166.944 276.306 167.056 276.308C167.258 276.308 167.373 276.308 167.373 276.717C167.343 276.916 167.294 277.111 167.229 277.301C167.229 277.593 167.229 277.884 167.027 278.235C166.825 278.585 166.825 278.848 166.739 279.14C166.666 279.284 166.579 279.421 166.479 279.548C166.345 279.667 166.188 279.756 166.018 279.811C165.329 280.075 164.613 280.261 163.884 280.366C163.087 280.543 162.277 280.65 161.462 280.687Z" fill="#E4312A"/>
<path d="M168.583 280.454C168.431 280.487 168.274 280.487 168.122 280.454C168.063 280.44 168.011 280.407 167.975 280.359C167.938 280.311 167.919 280.251 167.92 280.191C167.923 280.124 167.943 280.059 167.978 280.003C168.014 279.946 168.063 279.9 168.122 279.87L168.641 279.636C169.059 279.519 169.451 279.321 169.794 279.052C170.192 278.76 170.493 278.353 170.659 277.885C171.092 276.892 171.495 275.958 171.841 274.966L172.994 272.339L174.004 269.653C174.35 268.748 174.724 267.756 175.07 266.734C175.196 266.44 175.302 266.138 175.388 265.829C175.411 265.606 175.411 265.381 175.388 265.158H175.964L176.541 264.895C176.718 264.8 176.867 264.659 176.973 264.487L177.233 264.078C177.254 264.164 177.254 264.255 177.233 264.341V264.633C177.579 265.83 177.954 266.997 178.357 268.223C178.761 269.449 179.136 270.617 179.511 271.784C179.885 272.952 180.26 274.003 180.577 274.995C180.895 275.987 181.212 276.834 181.442 277.564C181.56 278.01 181.766 278.427 182.048 278.79C182.264 279.053 182.528 279.271 182.826 279.432C183.102 279.564 183.392 279.662 183.691 279.724C183.888 279.746 184.076 279.816 184.239 279.928C184.291 279.97 184.334 280.024 184.364 280.084C184.393 280.144 184.41 280.211 184.412 280.278C184.413 280.328 184.395 280.376 184.364 280.413C184.332 280.451 184.288 280.476 184.239 280.483H183.778H182.797H181.5H177.838C177.686 280.515 177.529 280.515 177.377 280.483C177.329 280.465 177.286 280.434 177.256 280.392C177.225 280.351 177.207 280.301 177.204 280.249C177.204 280.249 177.204 280.016 177.435 279.928C177.582 279.831 177.75 279.771 177.925 279.753C178.349 279.71 178.755 279.559 179.107 279.315C179.224 279.232 179.314 279.115 179.365 278.98C179.417 278.845 179.427 278.697 179.395 278.556C179.395 278.293 179.395 277.943 179.222 277.535C179.049 277.126 179.02 276.688 178.905 276.221C178.79 275.754 178.646 275.345 178.53 274.966C178.523 274.919 178.507 274.874 178.482 274.834C178.457 274.794 178.425 274.759 178.386 274.732H177.954H173.571C173.496 274.708 173.415 274.708 173.34 274.732C173.265 274.828 173.206 274.937 173.167 275.053C173.104 275.301 173.027 275.545 172.937 275.783C172.824 276.099 172.727 276.42 172.649 276.746C172.539 277.041 172.453 277.343 172.389 277.651V278.264C172.362 278.434 172.377 278.609 172.432 278.771C172.488 278.934 172.582 279.081 172.706 279.198C173.015 279.48 173.394 279.671 173.802 279.753C174.292 279.753 174.523 280.045 174.523 280.249C174.523 280.299 174.506 280.347 174.474 280.384C174.442 280.422 174.398 280.446 174.35 280.454C174.197 280.486 174.04 280.486 173.888 280.454H171.582H170.082H168.583ZM174.35 273.477H177.809C178.04 273.477 178.155 273.477 178.155 273.477L176.397 267.639C176.397 267.377 176.397 267.231 176.224 267.231C176.051 267.231 176.224 267.231 176.051 267.61L173.975 273.448V273.652C173.975 273.652 173.975 273.652 174.119 273.798L174.35 273.477Z" fill="#E4312A"/>
<path d="M199.23 280.833C198.715 280.839 198.202 280.781 197.702 280.658C197.27 280.545 196.86 280.357 196.491 280.104C196.119 279.868 195.787 279.573 195.511 279.228C195.165 278.732 194.79 278.265 194.473 277.827C194.155 277.389 193.781 276.864 193.406 276.28C193.031 275.696 192.598 275.025 192.108 274.207C191.923 273.82 191.62 273.503 191.243 273.302C190.974 273.179 190.694 273.082 190.407 273.011H189.744C189.704 272.99 189.659 272.979 189.614 272.979C189.569 272.979 189.525 272.99 189.485 273.011C189.451 273.125 189.451 273.247 189.485 273.361V277.71C189.472 278.172 189.614 278.625 189.888 278.994C190.051 279.184 190.249 279.339 190.472 279.449C190.695 279.56 190.938 279.623 191.186 279.637L191.705 279.812C191.758 279.839 191.802 279.881 191.833 279.933C191.863 279.984 191.879 280.043 191.878 280.104C191.878 280.153 191.861 280.201 191.829 280.239C191.797 280.276 191.753 280.301 191.705 280.308C191.553 280.344 191.395 280.344 191.243 280.308H190.205H189.312H187.409H186.4H185.275H184.843C184.816 280.324 184.787 280.334 184.757 280.338C184.726 280.342 184.695 280.34 184.666 280.331C184.636 280.323 184.609 280.309 184.585 280.29C184.56 280.271 184.54 280.247 184.525 280.22C184.525 280.016 184.756 279.87 185.217 279.753C185.691 279.708 186.141 279.525 186.515 279.228C186.662 279.069 186.773 278.879 186.843 278.673C186.913 278.467 186.938 278.248 186.918 278.031V267.494C186.957 267.076 186.957 266.656 186.918 266.239C186.863 265.999 186.718 265.79 186.515 265.655C186.219 265.498 185.896 265.399 185.563 265.363C185.37 265.349 185.182 265.289 185.016 265.188C184.98 265.094 184.98 264.99 185.016 264.896C185.016 264.896 185.016 264.721 185.189 264.662C185.331 264.629 185.479 264.629 185.621 264.662H188.274H189.139H190.004H191.215C192.634 264.569 194.049 264.904 195.28 265.626C195.748 265.946 196.126 266.383 196.378 266.894C196.631 267.405 196.749 267.974 196.722 268.545C196.73 269.197 196.571 269.841 196.26 270.413C195.982 270.901 195.609 271.328 195.165 271.668C194.763 271.994 194.316 272.26 193.838 272.456C193.829 272.524 193.829 272.593 193.838 272.66C194.328 273.419 194.79 274.12 195.251 274.762C195.699 275.428 196.18 276.071 196.693 276.688C197.243 277.354 197.841 277.978 198.48 278.557C198.85 278.952 199.335 279.217 199.864 279.316C200.382 279.361 200.903 279.361 201.421 279.316C201.468 279.311 201.515 279.317 201.559 279.333C201.603 279.349 201.643 279.375 201.676 279.408C201.709 279.442 201.734 279.482 201.75 279.527C201.766 279.571 201.772 279.619 201.767 279.666C201.768 279.794 201.736 279.92 201.676 280.032C201.615 280.144 201.528 280.239 201.421 280.308C201.139 280.454 200.838 280.562 200.527 280.629L199.23 280.833ZM190.58 272.281C191.199 272.304 191.811 272.142 192.339 271.814C192.805 271.498 193.182 271.066 193.435 270.559C193.7 270.035 193.838 269.454 193.838 268.866C193.849 268.243 193.762 267.622 193.579 267.027C193.416 266.516 193.079 266.081 192.627 265.801C192.02 265.462 191.331 265.3 190.638 265.334C190.461 265.319 190.283 265.355 190.125 265.438C189.967 265.52 189.835 265.646 189.744 265.801C189.557 266.375 189.469 266.977 189.485 267.581C189.485 267.961 189.485 268.486 189.485 269.128C189.485 269.771 189.485 270.53 189.485 271.405C189.485 271.814 189.485 272.047 189.802 272.135C190.041 272.228 190.295 272.277 190.551 272.281H190.58Z" fill="#E4312A"/>
<path d="M202.029 280.453C201.877 280.486 201.72 280.486 201.568 280.453C201.514 280.432 201.466 280.396 201.431 280.35C201.395 280.304 201.373 280.248 201.366 280.19C201.374 280.125 201.396 280.062 201.431 280.006C201.466 279.951 201.513 279.904 201.568 279.869L202.087 279.636C202.512 279.513 202.912 279.315 203.269 279.052C203.658 278.758 203.95 278.35 204.105 277.884C204.538 276.892 204.941 275.958 205.287 274.965L206.354 272.309L207.363 269.624C207.709 268.719 208.084 267.726 208.43 266.705C208.556 266.411 208.662 266.108 208.747 265.8C208.77 265.577 208.77 265.352 208.747 265.128H209.324L209.901 264.866C210.083 264.778 210.234 264.635 210.333 264.457L210.593 264.048C210.613 264.135 210.613 264.225 210.593 264.311V264.603C210.939 265.8 211.342 266.967 211.717 268.193C212.092 269.419 212.495 270.587 212.87 271.754C213.245 272.922 213.62 273.973 213.937 274.965C214.254 275.958 214.571 276.804 214.802 277.534C214.92 277.98 215.126 278.397 215.408 278.76C215.623 279.023 215.888 279.241 216.186 279.402C216.462 279.534 216.752 279.632 217.051 279.694C217.247 279.716 217.435 279.786 217.599 279.898C217.651 279.941 217.693 279.994 217.723 280.054C217.753 280.115 217.77 280.181 217.772 280.249C217.772 280.298 217.755 280.346 217.723 280.384C217.691 280.421 217.647 280.446 217.599 280.453H217.166H216.157H214.86H211.285C211.132 280.485 210.975 280.485 210.823 280.453C210.775 280.436 210.733 280.404 210.702 280.363C210.671 280.321 210.653 280.271 210.65 280.219C210.65 280.219 210.65 279.986 210.881 279.898C211.03 279.805 211.197 279.746 211.371 279.723C211.795 279.68 212.202 279.529 212.553 279.285C212.67 279.202 212.76 279.085 212.811 278.95C212.863 278.815 212.873 278.668 212.841 278.526C212.814 278.181 212.756 277.839 212.668 277.505C212.668 277.096 212.467 276.658 212.351 276.191C212.236 275.724 212.092 275.316 211.976 274.936C212.003 274.861 212.003 274.778 211.976 274.703H211.573H207.017C206.942 274.678 206.862 274.678 206.787 274.703C206.711 274.799 206.652 274.907 206.614 275.024C206.551 275.271 206.474 275.515 206.383 275.753C206.27 276.069 206.174 276.39 206.095 276.717C206.095 277.038 205.922 277.33 205.835 277.621C205.818 277.825 205.818 278.031 205.835 278.234C205.796 278.402 205.803 278.577 205.854 278.741C205.904 278.906 205.997 279.053 206.124 279.169C206.433 279.45 206.811 279.642 207.219 279.723C207.709 279.723 207.94 280.015 207.94 280.219C207.922 280.25 207.897 280.275 207.866 280.292C207.836 280.309 207.802 280.318 207.767 280.318C207.732 280.318 207.698 280.309 207.668 280.292C207.637 280.275 207.612 280.25 207.594 280.219C207.442 280.252 207.285 280.252 207.133 280.219H204.826H203.327L202.029 280.453ZM207.796 273.477H211.256C211.486 273.477 211.602 273.477 211.602 273.477L209.843 267.639C209.843 267.376 209.843 267.23 209.67 267.23C209.497 267.23 209.67 267.23 209.497 267.609L207.421 273.447V273.652C207.421 273.652 207.421 273.652 207.421 273.798L207.796 273.477Z" fill="#E4312A"/>
<path d="M218.663 280.425H218.173C218.122 280.411 218.078 280.381 218.046 280.339C218.015 280.296 217.998 280.244 218 280.191C217.999 280.13 218.018 280.071 218.055 280.023C218.091 279.975 218.144 279.942 218.202 279.928L218.75 279.753C219.131 279.672 219.475 279.467 219.73 279.169C220.015 278.797 220.194 278.353 220.249 277.885C220.249 276.688 220.537 275.462 220.653 274.236C220.768 273.01 220.912 271.843 220.999 270.704C221.085 269.566 221.172 268.603 221.201 267.785V267.406C221.201 267.406 221.201 267.143 221.201 266.997C221.228 266.833 221.228 266.665 221.201 266.501C221.127 266.341 221.006 266.209 220.855 266.122C220.586 265.924 220.295 265.757 219.99 265.625L219.125 265.334C218.971 265.289 218.825 265.22 218.692 265.129C218.657 265.035 218.657 264.931 218.692 264.837C218.688 264.807 218.69 264.775 218.698 264.746C218.706 264.716 218.72 264.688 218.739 264.663C218.757 264.639 218.781 264.618 218.808 264.603C218.834 264.588 218.864 264.578 218.894 264.575H219.442H220.249H221.345H222.469H223.363C223.409 264.555 223.458 264.545 223.507 264.545C223.557 264.545 223.606 264.555 223.651 264.575C223.704 264.605 223.75 264.647 223.785 264.697C223.82 264.748 223.843 264.806 223.853 264.866L224.113 265.771C224.113 266.063 224.286 266.384 224.401 266.705L228.063 275.929C228.086 275.974 228.119 276.012 228.159 276.042C228.199 276.073 228.245 276.094 228.293 276.104C228.328 276.125 228.368 276.136 228.409 276.136C228.449 276.136 228.489 276.125 228.524 276.104L232.762 266.881C232.762 266.501 232.935 266.151 232.993 265.801L233.195 264.925C233.195 264.721 233.195 264.604 233.483 264.604H234.406C234.972 264.644 235.541 264.644 236.107 264.604H237.491C237.604 264.575 237.723 264.575 237.837 264.604C237.837 264.604 238.039 264.604 238.039 264.808C238.043 264.865 238.031 264.923 238.006 264.974C237.981 265.025 237.942 265.069 237.894 265.1C237.753 265.201 237.598 265.28 237.433 265.334L236.857 265.538L236.309 265.771C236.068 265.868 235.859 266.03 235.703 266.238C235.551 266.449 235.479 266.708 235.501 266.968C235.501 268.107 235.501 269.157 235.501 270.091C235.501 271.026 235.501 271.93 235.501 272.777L235.674 275.316C235.674 276.163 235.674 277.068 235.674 278.031C235.695 278.456 235.882 278.855 236.193 279.14C236.555 279.444 236.995 279.637 237.462 279.695L237.981 279.87C238.034 279.897 238.078 279.939 238.109 279.991C238.139 280.042 238.155 280.102 238.154 280.162C238.169 280.194 238.177 280.229 238.177 280.264C238.177 280.299 238.169 280.334 238.154 280.366C238.002 280.399 237.845 280.399 237.693 280.366H236.597H235.617H233.714H232.849H231.782H231.35C231.321 280.351 231.297 280.33 231.277 280.305C231.257 280.28 231.242 280.251 231.234 280.22C231.236 280.161 231.253 280.103 231.283 280.052C231.314 280 231.356 279.958 231.407 279.928C231.563 279.826 231.741 279.766 231.926 279.753C232.123 279.745 232.317 279.697 232.495 279.612C232.673 279.527 232.833 279.406 232.964 279.257C233.193 278.914 233.296 278.501 233.252 278.089C233.252 276.98 233.252 275.959 233.252 275.17C233.252 274.382 233.252 273.273 233.252 272.251C233.252 271.23 233.252 270.354 233.252 269.332V269.128C233.157 269.176 233.085 269.26 233.051 269.362L227.89 280.541C227.887 280.571 227.877 280.6 227.862 280.626C227.846 280.652 227.826 280.674 227.801 280.691C227.776 280.708 227.748 280.719 227.718 280.723C227.689 280.727 227.659 280.725 227.63 280.716C227.578 280.718 227.526 280.702 227.484 280.67C227.443 280.638 227.413 280.593 227.399 280.541C226.708 278.673 226.016 276.805 225.237 274.995C224.459 273.186 223.709 271.259 222.873 269.157C222.843 269.136 222.808 269.124 222.772 269.124C222.736 269.124 222.7 269.136 222.671 269.157C222.671 269.157 222.671 269.157 222.671 269.332C222.671 270.354 222.469 271.347 222.383 272.251C222.296 273.156 222.21 274.149 222.181 275.17C222.152 276.192 222.181 277.068 222.181 278.089C222.183 278.513 222.325 278.924 222.584 279.257C222.904 279.605 223.331 279.832 223.795 279.899L224.343 280.074C224.407 280.092 224.463 280.13 224.505 280.183C224.546 280.235 224.57 280.299 224.574 280.366C224.568 280.418 224.545 280.467 224.508 280.504C224.471 280.541 224.423 280.564 224.372 280.571C224.21 280.604 224.044 280.604 223.882 280.571H222.296H221.691H220.163H219.471L218.663 280.425Z" fill="#E4312A"/>
<path d="M239.135 280.453C238.973 280.486 238.806 280.486 238.645 280.453C238.594 280.43 238.551 280.394 238.52 280.347C238.489 280.301 238.473 280.246 238.472 280.19C238.474 280.127 238.491 280.065 238.521 280.009C238.551 279.953 238.593 279.905 238.645 279.869L239.164 279.636C239.591 279.519 239.992 279.321 240.346 279.052C240.735 278.751 241.034 278.347 241.211 277.884C241.614 276.892 242.018 275.958 242.393 274.965L243.431 272.309C243.777 271.462 244.094 270.558 244.469 269.624C244.844 268.689 245.161 267.726 245.536 266.705C245.654 266.411 245.751 266.108 245.824 265.8C245.845 265.576 245.845 265.352 245.824 265.128H246.372L246.948 264.866C247.137 264.787 247.291 264.642 247.381 264.457L247.64 264.048C247.661 264.135 247.661 264.225 247.64 264.311V264.603C248.015 265.8 248.39 266.967 248.765 268.193C249.14 269.419 249.543 270.587 249.918 271.754C250.293 272.922 250.668 273.973 250.985 274.965C251.302 275.958 251.619 276.804 251.85 277.534C251.961 277.988 252.179 278.409 252.484 278.76C252.69 279.022 252.945 279.24 253.234 279.402C253.518 279.538 253.818 279.637 254.128 279.694C254.315 279.716 254.494 279.786 254.647 279.898C254.699 279.94 254.741 279.994 254.771 280.054C254.801 280.115 254.818 280.181 254.82 280.249C254.82 280.298 254.803 280.346 254.771 280.384C254.739 280.421 254.695 280.446 254.647 280.453H254.214H253.724H252.455H248.39C248.23 280.41 248.082 280.33 247.958 280.219C247.958 280.219 247.756 280.219 247.756 279.986C247.756 279.752 247.756 279.752 247.986 279.665C248.138 279.576 248.304 279.517 248.477 279.49C248.901 279.447 249.307 279.296 249.659 279.052C249.779 278.971 249.871 278.855 249.923 278.719C249.974 278.583 249.983 278.434 249.947 278.293C249.932 277.948 249.884 277.606 249.803 277.271C249.687 276.863 249.572 276.425 249.457 275.958C249.457 275.52 249.197 275.082 249.111 274.703C249.105 274.652 249.086 274.603 249.055 274.562C249.025 274.521 248.984 274.489 248.938 274.469H248.534H244.094C244.062 274.455 244.028 274.448 243.993 274.448C243.958 274.448 243.924 274.455 243.892 274.469C243.806 274.562 243.737 274.671 243.69 274.79C243.627 275.038 243.55 275.281 243.46 275.52C243.46 275.841 243.258 276.133 243.171 276.483L242.912 277.388C242.895 277.592 242.895 277.797 242.912 278.001C242.879 278.169 242.888 278.342 242.938 278.505C242.989 278.668 243.079 278.816 243.2 278.935C243.513 279.211 243.89 279.402 244.296 279.49C244.786 279.49 245.017 279.782 245.017 279.986C245.017 280.035 245 280.083 244.968 280.121C244.936 280.158 244.892 280.183 244.844 280.19C244.692 280.224 244.534 280.224 244.382 280.19H242.076H240.605L239.135 280.453ZM244.901 273.477H248.246C248.448 273.477 248.563 273.477 248.563 273.477V273.214L246.804 267.376C246.804 267.113 246.804 266.967 246.602 266.967C246.401 266.967 246.602 266.967 246.429 267.347L244.353 273.185C244.343 273.252 244.343 273.321 244.353 273.389C244.341 273.411 244.334 273.436 244.334 273.462C244.334 273.488 244.341 273.513 244.353 273.535L244.901 273.477Z" fill="#E4312A"/>
<path d="M270.535 280.745C270.217 280.69 269.913 280.571 269.641 280.395C269.143 280.074 268.712 279.658 268.373 279.169C268.2 278.964 267.911 278.673 267.565 278.235L266.297 276.775C265.835 276.191 265.316 275.608 264.769 274.965L263.125 273.039L261.568 271.258L260.3 269.741L259.435 268.806C259.381 268.7 259.302 268.61 259.204 268.544C259.172 268.53 259.138 268.523 259.103 268.523C259.068 268.523 259.034 268.53 259.002 268.544C259.002 268.544 259.002 268.544 259.002 268.719C258.989 268.826 258.989 268.933 259.002 269.04C259.002 269.828 259.002 270.704 259.002 271.725V274.849C259.002 275.9 259.002 276.892 259.002 277.768C259.003 278.205 259.134 278.632 259.377 278.994C259.707 279.384 260.17 279.634 260.674 279.694L261.222 279.869C261.279 279.895 261.327 279.936 261.363 279.987C261.398 280.039 261.419 280.099 261.424 280.161C261.418 280.213 261.395 280.262 261.358 280.299C261.321 280.336 261.274 280.359 261.222 280.366C261.061 280.401 260.894 280.401 260.732 280.366H259.492H258.858H257.33H256.695H255.946H255.485C255.428 280.358 255.377 280.331 255.34 280.288C255.303 280.245 255.282 280.189 255.283 280.132C255.284 280.076 255.3 280.022 255.331 279.975C255.362 279.928 255.405 279.892 255.456 279.869L256.004 279.636C256.201 279.59 256.386 279.504 256.55 279.384C256.713 279.264 256.851 279.111 256.955 278.935C257.174 278.562 257.302 278.142 257.33 277.709C257.33 277.096 257.33 276.279 257.532 275.287C257.733 274.294 257.532 273.185 257.705 271.959C257.878 270.733 257.705 269.419 257.705 268.106C257.742 267.775 257.704 267.44 257.594 267.127C257.484 266.813 257.305 266.529 257.07 266.296C256.584 265.892 256.026 265.585 255.427 265.391L255.023 265.187C254.821 265.187 254.706 264.983 254.706 264.837C254.71 264.77 254.734 264.706 254.775 264.653C254.816 264.601 254.873 264.563 254.937 264.545H255.283H259.492C259.541 264.519 259.596 264.506 259.651 264.506C259.706 264.506 259.76 264.519 259.809 264.545C259.9 264.607 259.979 264.686 260.04 264.778L260.847 265.771L262.174 267.376L263.759 269.303L265.489 271.346L267.104 273.302C267.594 273.915 268.055 274.44 268.43 274.878L269.209 275.841L269.468 276.104C269.468 276.104 269.67 276.279 269.728 276.279C269.785 276.279 269.958 276.279 269.987 275.812V266.822C269.972 266.641 269.918 266.467 269.828 266.31C269.738 266.154 269.615 266.019 269.468 265.917C269.176 265.672 268.83 265.502 268.459 265.421C268.24 265.393 268.027 265.335 267.825 265.245C267.652 265.245 267.565 265.07 267.565 264.924C267.565 264.778 267.565 264.778 267.825 264.72C268.006 264.693 268.191 264.693 268.373 264.72H272.755C272.907 264.684 273.065 264.684 273.216 264.72C273.273 264.727 273.324 264.755 273.361 264.798C273.398 264.841 273.419 264.896 273.418 264.953C273.418 265.158 273.159 265.333 272.669 265.421C272.248 265.477 271.844 265.626 271.487 265.858C271.376 265.98 271.291 266.123 271.237 266.278C271.182 266.434 271.159 266.599 271.169 266.763C271.169 267.026 271.169 267.464 271.169 268.048C271.169 268.631 271.169 269.303 271.169 270.091C271.169 270.879 271.169 271.725 271.169 272.572C271.169 273.418 271.169 274.294 271.169 275.141V277.301C271.169 277.709 271.169 278.06 271.169 278.439C271.194 278.75 271.194 279.062 271.169 279.373C271.169 279.636 271.169 279.84 271.169 279.957C271.183 280.066 271.174 280.176 271.144 280.281C271.115 280.386 271.064 280.485 270.996 280.57C270.938 280.634 270.866 280.683 270.786 280.713C270.706 280.743 270.62 280.754 270.535 280.745Z" fill="#E4312A"/>
<path d="M282.125 280.657C279.999 280.661 277.946 279.871 276.359 278.439C275.585 277.734 274.958 276.881 274.514 275.929C274.091 274.944 273.884 273.879 273.908 272.805C273.908 271.681 274.134 270.569 274.571 269.536C275.024 268.522 275.671 267.61 276.474 266.851C277.305 266.05 278.285 265.425 279.357 265.012C280.469 264.572 281.653 264.354 282.846 264.37C283.221 264.345 283.596 264.345 283.971 264.37L285.383 264.574C285.832 264.625 286.275 264.713 286.71 264.837C287.021 264.884 287.323 264.982 287.604 265.129H287.834C287.843 265.216 287.843 265.304 287.834 265.391L288.007 266.851C288.007 267.318 288.007 267.726 288.007 268.047C288.047 268.151 288.047 268.265 288.007 268.369C287.971 268.385 287.932 268.393 287.892 268.393C287.852 268.393 287.813 268.385 287.777 268.369C287.704 268.376 287.631 268.364 287.565 268.333C287.499 268.302 287.443 268.254 287.402 268.193C287.314 268.054 287.237 267.907 287.171 267.756C287.171 267.493 286.94 267.23 286.825 267.026C286.671 266.769 286.497 266.525 286.306 266.296C286.11 266.103 285.898 265.927 285.672 265.771C285.311 265.56 284.923 265.403 284.518 265.304C283.957 265.137 283.374 265.059 282.789 265.07C281.941 265.07 281.105 265.26 280.338 265.625C279.62 266.012 278.991 266.55 278.492 267.201C277.974 267.861 277.583 268.613 277.339 269.419C277.06 270.266 276.924 271.154 276.936 272.046C276.931 273.036 277.077 274.021 277.368 274.965C277.624 275.805 278.035 276.587 278.579 277.271C279.083 277.867 279.701 278.353 280.395 278.702C281.091 279.028 281.849 279.197 282.616 279.198C283.187 279.221 283.757 279.121 284.288 278.906C284.567 278.774 284.828 278.607 285.066 278.41C285.268 278.213 285.426 277.974 285.528 277.709C285.669 277.378 285.738 277.019 285.729 276.658V276.162C285.744 275.958 285.744 275.753 285.729 275.549C285.729 275.374 285.729 275.199 285.729 275.053C285.762 274.899 285.762 274.74 285.729 274.586C285.702 274.458 285.63 274.344 285.528 274.265C285.359 274.097 285.151 273.976 284.922 273.915L284.115 273.71H283.481C283.377 273.742 283.267 273.742 283.163 273.71C283.104 273.673 283.055 273.621 283.02 273.56C282.985 273.499 282.965 273.431 282.962 273.36C282.971 273.303 282.994 273.249 283.03 273.203C283.065 273.157 283.111 273.121 283.163 273.097C283.267 273.066 283.377 273.066 283.481 273.097H284.547H285.585H287.892H289.103H289.391C289.447 273.121 289.493 273.163 289.524 273.215C289.555 273.267 289.569 273.328 289.564 273.389C289.564 273.453 289.549 273.516 289.518 273.572C289.488 273.628 289.444 273.676 289.391 273.71C289.287 273.739 289.178 273.739 289.074 273.71C288.785 273.755 288.519 273.898 288.32 274.116C288.121 274.333 288.001 274.612 287.978 274.907C287.978 275.257 287.978 275.549 287.978 275.841C287.978 276.133 287.978 276.396 287.978 276.688V277.388C287.961 277.455 287.961 277.525 287.978 277.592V277.797L288.151 278.03C288.167 278.067 288.175 278.107 288.175 278.147C288.175 278.187 288.167 278.227 288.151 278.264C288.159 278.351 288.159 278.439 288.151 278.527C288.117 278.583 288.071 278.63 288.016 278.665C287.961 278.701 287.899 278.723 287.834 278.731C287.598 278.773 287.373 278.863 287.171 278.994C286.777 279.199 286.373 279.384 285.96 279.548C285.41 279.774 284.84 279.95 284.259 280.074C283.577 280.365 282.859 280.561 282.125 280.657Z" fill="#E4312A"/>
<path d="M290.199 280.453C290.047 280.486 289.89 280.486 289.738 280.453C289.68 280.439 289.628 280.406 289.591 280.358C289.554 280.31 289.535 280.251 289.536 280.19C289.539 280.123 289.559 280.059 289.595 280.002C289.63 279.946 289.679 279.9 289.738 279.869L290.257 279.636C290.675 279.519 291.067 279.32 291.41 279.052C291.8 278.751 292.099 278.347 292.275 277.884C292.708 276.892 293.111 275.958 293.457 274.965L294.524 272.309L295.533 269.624C295.879 268.719 296.225 267.726 296.6 266.705C296.726 266.411 296.832 266.108 296.917 265.8C296.917 265.537 296.917 265.333 296.917 265.128H297.494L298.071 264.866C298.247 264.77 298.396 264.629 298.503 264.457C298.565 264.313 298.643 264.176 298.734 264.048C298.755 264.135 298.755 264.225 298.734 264.311C298.708 264.407 298.708 264.507 298.734 264.603C299.08 265.8 299.455 266.967 299.858 268.193C300.262 269.419 300.637 270.587 301.011 271.754C301.386 272.922 301.732 273.973 302.078 274.965C302.424 275.958 302.684 276.804 302.943 277.534C303.061 277.98 303.267 278.397 303.549 278.76C303.754 279.022 304.009 279.24 304.298 279.402C304.586 279.53 304.885 279.628 305.192 279.694C305.387 279.721 305.574 279.791 305.74 279.898C305.792 279.941 305.835 279.994 305.865 280.054C305.894 280.115 305.911 280.181 305.913 280.249C305.913 280.298 305.896 280.346 305.864 280.384C305.833 280.421 305.788 280.446 305.74 280.453H305.279H304.298H303.001H298.907C298.755 280.485 298.598 280.485 298.445 280.453C298.397 280.436 298.355 280.404 298.324 280.363C298.293 280.321 298.275 280.271 298.272 280.219C298.272 280.152 298.291 280.086 298.327 280.029C298.362 279.972 298.414 279.926 298.474 279.898C298.634 279.806 298.81 279.746 298.993 279.723C299.408 279.68 299.806 279.529 300.147 279.285C300.266 279.203 300.359 279.088 300.416 278.953C300.472 278.819 300.489 278.67 300.464 278.526C300.464 278.264 300.464 277.913 300.291 277.505C300.118 277.096 300.089 276.658 299.945 276.191C299.801 275.724 299.714 275.316 299.599 274.936C299.593 274.885 299.573 274.837 299.543 274.796C299.513 274.755 299.472 274.723 299.426 274.703H299.022H294.64C294.565 274.673 294.483 274.673 294.409 274.703C294.333 274.799 294.275 274.907 294.236 275.024L294.005 275.753L293.688 276.717C293.688 277.038 293.515 277.33 293.457 277.621C293.443 277.826 293.443 278.03 293.457 278.234C293.431 278.405 293.446 278.579 293.501 278.742C293.556 278.904 293.65 279.051 293.775 279.169C294.084 279.45 294.462 279.642 294.87 279.723C295.332 279.723 295.591 280.015 295.591 280.219C295.591 280.424 295.591 280.394 295.389 280.424C295.237 280.458 295.08 280.458 294.928 280.424H292.621H291.151L290.199 280.453ZM295.966 273.477H299.426C299.656 273.477 299.772 273.477 299.772 273.477L298.013 267.639C298.013 267.376 298.013 267.23 297.811 267.23C297.609 267.23 297.811 267.23 297.811 267.609L295.735 273.447V273.652C295.735 273.652 295.735 273.652 295.735 273.798L295.966 273.477Z" fill="#E4312A"/>
<path d="M309.833 283.811H0V286H309.833V283.811Z" fill="#E4312A"/>
</svg>
