<svg width="72" height="72" viewBox="0 0 72 72" fill="none" xmlns="http://www.w3.org/2000/svg">
<path d="M36 0C16.2 0 0 16.2289 0 36.2169C0 54.2892 13.176 69.2892 30.384 72V46.6988H21.24V36.2169H30.384V28.2289C30.384 19.1566 35.748 14.1687 43.9919 14.1687C47.9159 14.1687 52.0199 14.8554 52.0199 14.8554V23.7831H47.4839C43.0199 23.7831 41.616 26.5663 41.616 29.4217V36.2169H51.6239L50.0039 46.6988H41.616V72C50.0991 70.6549 57.8239 66.3091 63.3957 59.7472C68.9675 53.1853 72.0192 44.8397 71.9999 36.2169C71.9999 16.2289 55.7999 0 36 0Z" fill="white"/>
</svg>
