<svg width="72" height="72" viewBox="0 0 72 72" fill="none" xmlns="http://www.w3.org/2000/svg">
<path d="M20.88 0H51.12C62.64 0 72 9.36 72 20.88V51.12C72 56.6577 69.8001 61.9686 65.8844 65.8844C61.9686 69.8001 56.6577 72 51.12 72H20.88C9.36 72 0 62.64 0 51.12V20.88C0 15.3423 2.19985 10.0314 6.11561 6.11561C10.0314 2.19985 15.3423 0 20.88 0ZM20.16 7.2C16.7228 7.2 13.4264 8.56542 10.9959 10.9959C8.56542 13.4264 7.2 16.7228 7.2 20.16V51.84C7.2 59.004 12.996 64.8 20.16 64.8H51.84C55.2772 64.8 58.5736 63.4346 61.0041 61.0041C63.4346 58.5736 64.8 55.2772 64.8 51.84V20.16C64.8 12.996 59.004 7.2 51.84 7.2H20.16ZM54.9 12.6C56.0935 12.6 57.2381 13.0741 58.082 13.918C58.9259 14.7619 59.4 15.9065 59.4 17.1C59.4 18.2935 58.9259 19.4381 58.082 20.282C57.2381 21.1259 56.0935 21.6 54.9 21.6C53.7065 21.6 52.5619 21.1259 51.718 20.282C50.8741 19.4381 50.4 18.2935 50.4 17.1C50.4 15.9065 50.8741 14.7619 51.718 13.918C52.5619 13.0741 53.7065 12.6 54.9 12.6ZM36 18C40.7739 18 45.3523 19.8964 48.7279 23.2721C52.1036 26.6477 54 31.2261 54 36C54 40.7739 52.1036 45.3523 48.7279 48.7279C45.3523 52.1036 40.7739 54 36 54C31.2261 54 26.6477 52.1036 23.2721 48.7279C19.8964 45.3523 18 40.7739 18 36C18 31.2261 19.8964 26.6477 23.2721 23.2721C26.6477 19.8964 31.2261 18 36 18ZM36 25.2C33.1357 25.2 30.3886 26.3379 28.3632 28.3632C26.3379 30.3886 25.2 33.1357 25.2 36C25.2 38.8643 26.3379 41.6114 28.3632 43.6368C30.3886 45.6621 33.1357 46.8 36 46.8C38.8643 46.8 41.6114 45.6621 43.6368 43.6368C45.6621 41.6114 46.8 38.8643 46.8 36C46.8 33.1357 45.6621 30.3886 43.6368 28.3632C41.6114 26.3379 38.8643 25.2 36 25.2Z" fill="white"/>
</svg>
