<svg width="126" height="133" viewBox="0 0 126 133" fill="none" xmlns="http://www.w3.org/2000/svg">
<path d="M7.76728 124.51C7.53594 126.138 6.9894 127.364 6.1291 128.178C5.2688 128.992 4.0904 129.407 2.60259 129.407C2.31952 129.404 2.03697 129.382 1.75675 129.342C1.45456 129.296 1.11478 129.232 0.74463 129.146L0 126.515C0.347627 126.616 0.701739 126.692 1.05983 126.744C1.39504 126.792 1.73328 126.816 2.07195 126.816C3.0725 126.816 3.79159 126.593 4.22921 126.145C4.66683 125.698 5.02059 124.547 5.29048 122.691L8.30949 102.414H11.0567L7.76728 124.51Z" fill="#EC1C24"/>
<path d="M12.1164 121.31C12.1129 121.107 12.1503 120.904 12.2264 120.716C12.3024 120.527 12.4156 120.355 12.5592 120.211C12.7028 120.067 12.8739 119.953 13.0623 119.876C13.2508 119.799 13.4528 119.76 13.6563 119.763C13.8612 119.759 14.0649 119.796 14.2548 119.873C14.4448 119.95 14.617 120.065 14.761 120.211C14.9077 120.353 15.0234 120.525 15.1008 120.714C15.1782 120.903 15.2156 121.106 15.2106 121.31C15.2112 121.514 15.1713 121.716 15.0933 121.905C15.0153 122.093 14.9008 122.264 14.7562 122.408C14.6117 122.552 14.44 122.666 14.2512 122.743C14.0624 122.82 13.8602 122.859 13.6563 122.857C13.4532 122.86 13.2516 122.822 13.064 122.744C12.8765 122.665 12.707 122.55 12.5661 122.403C12.4212 122.261 12.3067 122.091 12.2294 121.903C12.1521 121.715 12.1137 121.513 12.1164 121.31Z" fill="#EC1C24"/>
<path d="M31.9239 122.603H18.5654L21.5743 102.414H32.3129L31.9543 104.798H23.9051L22.9898 110.938H30.1007L29.7407 113.423H22.6385L21.6264 120.168H32.2652L31.9239 122.603Z" fill="#EC1C24"/>
<path d="M33.465 121.31C33.4617 121.107 33.4993 120.905 33.5754 120.716C33.6515 120.527 33.7647 120.356 33.9083 120.211C34.0518 120.067 34.2228 119.953 34.4112 119.876C34.5995 119.799 34.8014 119.761 35.0049 119.763C35.2099 119.759 35.4136 119.796 35.6036 119.873C35.7935 119.95 35.9657 120.065 36.1096 120.211C36.2554 120.353 36.3706 120.523 36.4479 120.71C36.5253 120.898 36.5632 121.1 36.5592 121.303C36.5608 121.507 36.5216 121.71 36.4441 121.9C36.3665 122.089 36.2521 122.261 36.1074 122.405C35.9628 122.55 35.7908 122.665 35.6015 122.742C35.4123 122.82 35.2095 122.859 35.0049 122.857C34.802 122.86 34.6005 122.822 34.4132 122.744C34.2259 122.666 34.0567 122.55 33.9162 122.403C33.7711 122.261 33.6563 122.091 33.5788 121.903C33.5012 121.715 33.4625 121.513 33.465 121.31Z" fill="#EC1C24"/>
<path d="M49.1067 124.51C48.8753 126.138 48.3288 127.364 47.4685 128.178C46.6082 128.992 45.4312 129.407 43.9391 129.407C43.6565 129.404 43.3744 129.382 43.0947 129.342C42.791 129.295 42.4513 129.232 42.0826 129.145L41.3408 126.515C41.6884 126.615 42.0425 126.692 42.4007 126.743C42.733 126.791 43.0683 126.816 43.4041 126.816C44.4066 126.816 45.1261 126.592 45.5628 126.145C45.9995 125.698 46.3532 124.546 46.6241 122.691L49.6489 102.415H52.396L49.1067 124.51Z" fill="white"/>
<path d="M54.1502 122.603H51.377L60.071 102.414H62.6071L66.8002 122.603H64.2916L63.0525 116.568H56.5706L54.1502 122.603ZM62.5478 114.133L60.8721 106.113L57.6159 114.133H62.5478Z" fill="white"/>
<path d="M70.7119 122.603H67.9561L70.9476 102.414H73.7396L70.7119 122.603Z" fill="white"/>
<path d="M75.8986 122.603H73.2266L79.7721 102.414H82.0624L85.346 115.95L92.4409 102.414H94.8599L95.3934 122.603H92.8602L92.5002 107.35L84.4032 122.603L80.7654 107.35L75.8986 122.603Z" fill="white"/>
<path d="M110.899 122.603H97.5352L100.543 102.414H111.283L110.921 104.798H102.873L101.954 110.938H109.065L108.705 113.423H101.608L100.596 120.168H111.236L110.899 122.603Z" fill="white"/>
<path d="M111.673 121.454L112.12 118.545C112.918 119.117 113.781 119.594 114.69 119.965C115.407 120.256 116.171 120.411 116.945 120.423C117.842 120.423 118.573 120.166 119.141 119.648C119.418 119.401 119.638 119.097 119.785 118.756C119.932 118.415 120.003 118.046 119.992 117.675C119.992 116.729 118.957 115.408 116.887 113.712L116.742 113.581C115.269 112.392 114.267 111.364 113.736 110.499C113.208 109.636 112.932 108.641 112.942 107.629C112.942 106.053 113.552 104.739 114.77 103.689C115.988 102.638 117.531 102.111 119.397 102.108C119.982 102.115 120.564 102.188 121.132 102.327C121.849 102.499 122.553 102.719 123.24 102.987L122.92 105.659C122.319 105.347 121.69 105.091 121.041 104.896C120.507 104.735 119.954 104.651 119.397 104.646C118.311 104.646 117.426 104.912 116.748 105.437C116.429 105.67 116.171 105.977 115.994 106.331C115.818 106.685 115.73 107.076 115.736 107.471C115.736 108.498 116.785 109.88 118.885 111.619L119.232 111.909L119.377 112.023C121.617 113.881 122.737 115.665 122.737 117.373C122.737 119.056 122.188 120.407 121.091 121.428C119.994 122.449 118.522 122.959 116.676 122.957C115.836 122.954 115.001 122.828 114.199 122.582C113.315 122.309 112.466 121.93 111.673 121.454Z" fill="white"/>
<path d="M51.1523 132.025V124.836H51.7755V132.025H51.1523Z" fill="white"/>
<path d="M53.498 132.025V124.836H54.101L59.3582 131.111V124.836H59.9293V132.025H59.3944L54.0706 125.663V132.025H53.498Z" fill="white"/>
<path d="M67.5862 131.49C67.1768 131.7 66.7471 131.867 66.3037 131.989C65.9034 132.097 65.4907 132.152 65.0761 132.154C64.6776 132.156 64.2807 132.101 63.8977 131.99C63.5286 131.886 63.1779 131.724 62.8582 131.512C62.342 131.181 61.9189 130.723 61.6292 130.183C61.3405 129.635 61.1915 129.025 61.1954 128.406C61.1971 127.922 61.2956 127.444 61.4851 126.999C61.6746 126.554 61.9512 126.151 62.2986 125.815C62.6577 125.459 63.0864 125.18 63.558 124.997C64.0425 124.81 64.5582 124.716 65.0776 124.722C65.4916 124.723 65.9035 124.78 66.3022 124.891C66.7476 125.015 67.1785 125.186 67.5876 125.401V126.002C67.1603 125.764 66.7103 125.571 66.2444 125.423C65.8598 125.304 65.46 125.241 65.0573 125.237C64.7324 125.235 64.409 125.281 64.0973 125.373C63.7928 125.463 63.5031 125.597 63.237 125.77C62.8 126.062 62.4426 126.457 62.1969 126.922C61.9513 127.386 61.8252 127.904 61.8301 128.429C61.829 128.849 61.9101 129.265 62.0687 129.654C62.2228 130.042 62.4518 130.395 62.7425 130.695C63.0339 130.997 63.3863 131.234 63.7763 131.389C64.186 131.552 64.6234 131.635 65.0646 131.633C65.38 131.631 65.694 131.591 66.0001 131.515C66.3478 131.429 66.6866 131.311 67.0122 131.162V129.236H65.4983V128.728H67.5819L67.5862 131.49Z" fill="white"/>
<path d="M69.1318 132.025V124.836H73.0169V125.291H69.703V128.157H72.9099V128.614H69.703V131.543H73.1008V132.025H69.1318Z" fill="white"/>
<path d="M74.3184 132.025V124.836H74.9198L80.1771 131.111V124.836H80.7554V132.025H80.2219L74.8967 125.663V132.025H74.3184Z" fill="white"/>
<path d="M82.4775 132.025V124.836H83.0993V132.025H82.4775Z" fill="white"/>
<path d="M84.8174 132.025V124.836H88.7039V125.291H85.3871V128.157H88.5955V128.614H85.3871V131.543H88.7863V132.025H84.8174Z" fill="white"/>
<path d="M90.0049 124.836H91.7399C92.5034 124.836 93.0875 124.991 93.4967 125.3C93.9059 125.609 94.1054 126.053 94.1054 126.63C94.1196 127.024 93.9993 127.411 93.7642 127.728C93.4954 128.045 93.1363 128.274 92.7347 128.383C92.8614 128.458 92.9797 128.546 93.0875 128.646C93.1967 128.748 93.2937 128.863 93.3767 128.987L95.3546 132.023H94.7054L93.556 130.252C93.3304 129.905 93.1352 129.62 92.9776 129.395C92.8594 129.225 92.7294 129.064 92.5887 128.912C92.4482 128.779 92.2744 128.686 92.0855 128.643C91.7832 128.58 91.4746 128.553 91.1659 128.562H90.576V132.023H90.0063L90.0049 124.836ZM90.5746 125.317V128.065H91.0156C91.3963 128.072 91.7771 128.058 92.1564 128.024C92.3405 128.003 92.5204 127.955 92.6899 127.88C92.9313 127.781 93.1373 127.611 93.2813 127.394C93.4192 127.16 93.4875 126.892 93.4779 126.622C93.4874 126.436 93.4521 126.251 93.3751 126.082C93.2981 125.914 93.1816 125.766 93.0355 125.651C92.739 125.423 92.3125 125.309 91.7746 125.309L90.5746 125.317Z" fill="white"/>
<path d="M95.4775 128.406C95.4784 127.926 95.5768 127.45 95.7667 127.009C95.9578 126.561 96.236 126.156 96.5851 125.816C97.2969 125.118 98.2556 124.729 99.2527 124.733C99.7481 124.732 100.239 124.826 100.699 125.011C101.154 125.196 101.568 125.469 101.916 125.816C102.399 126.288 102.743 126.884 102.909 127.538C103.075 128.192 103.058 128.88 102.859 129.525C102.751 129.877 102.59 130.21 102.379 130.511C102.037 131.023 101.572 131.44 101.027 131.724C100.529 131.979 99.983 132.124 99.4246 132.149C98.8663 132.174 98.3091 132.078 97.791 131.869C97.3392 131.686 96.929 131.414 96.5851 131.069C96.2316 130.722 95.9517 130.308 95.7622 129.85C95.5726 129.392 95.4773 128.901 95.4819 128.406H95.4775ZM96.1108 128.433C96.1099 128.853 96.1904 129.269 96.348 129.658C96.5036 130.046 96.7335 130.399 97.0246 130.699C97.3158 130.994 97.6628 131.228 98.0454 131.387C98.4276 131.55 98.8388 131.634 99.2542 131.633C99.6699 131.635 100.082 131.554 100.466 131.395C100.847 131.234 101.191 130.997 101.478 130.699C101.772 130.404 102.004 130.052 102.16 129.665C102.476 128.879 102.476 128.001 102.16 127.215C102.003 126.829 101.769 126.479 101.474 126.185C101.182 125.888 100.834 125.651 100.451 125.487C100.071 125.325 99.6628 125.242 99.2498 125.242C98.8369 125.242 98.4283 125.325 98.0483 125.487C97.6623 125.65 97.3121 125.888 97.0174 126.187C96.7243 126.477 96.4936 126.825 96.3393 127.207C96.1844 127.597 96.1068 128.014 96.1108 128.433Z" fill="white"/>
<path d="M107.673 125.859C107.41 125.675 107.125 125.525 106.825 125.41C106.569 125.316 106.299 125.267 106.026 125.266C105.634 125.25 105.25 125.387 104.956 125.649C104.822 125.77 104.715 125.918 104.644 126.084C104.572 126.25 104.537 126.43 104.541 126.61C104.529 126.892 104.624 127.168 104.808 127.383C104.986 127.581 105.371 127.805 105.964 128.055C105.996 128.068 106.051 128.088 106.117 128.119C106.783 128.387 107.225 128.649 107.449 128.899C107.604 129.067 107.723 129.263 107.801 129.478C107.881 129.699 107.923 129.932 107.922 130.167C107.93 130.432 107.88 130.695 107.777 130.938C107.674 131.182 107.519 131.4 107.323 131.579C106.905 131.953 106.358 132.151 105.797 132.131C105.481 132.13 105.168 132.076 104.871 131.97C104.542 131.853 104.23 131.692 103.944 131.492V130.792C104.238 131.029 104.561 131.227 104.906 131.38C105.184 131.503 105.485 131.569 105.789 131.573C106.196 131.594 106.595 131.456 106.901 131.187C107.04 131.051 107.149 130.888 107.22 130.707C107.291 130.526 107.323 130.332 107.313 130.138C107.325 129.847 107.224 129.561 107.031 129.342C106.846 129.134 106.422 128.893 105.757 128.619C105.069 128.335 104.598 128.046 104.345 127.751C104.084 127.444 103.948 127.05 103.965 126.647C103.957 126.39 104.004 126.136 104.104 125.9C104.204 125.663 104.354 125.452 104.543 125.279C104.959 124.914 105.5 124.724 106.052 124.748C106.33 124.747 106.607 124.785 106.874 124.861C107.156 124.945 107.427 125.064 107.68 125.215L107.673 125.859Z" fill="white"/>
<path d="M115.14 125.859C114.876 125.675 114.591 125.524 114.291 125.41C114.035 125.316 113.765 125.267 113.493 125.266C113.1 125.25 112.717 125.387 112.424 125.649C112.289 125.769 112.182 125.918 112.11 126.084C112.038 126.25 112.003 126.429 112.008 126.61C111.995 126.893 112.092 127.169 112.277 127.382C112.453 127.581 112.838 127.805 113.425 128.055C113.459 128.068 113.51 128.088 113.579 128.118C114.243 128.387 114.688 128.649 114.908 128.899C115.064 129.066 115.184 129.263 115.261 129.478C115.342 129.698 115.383 129.932 115.382 130.167C115.39 130.431 115.341 130.694 115.239 130.938C115.136 131.181 114.982 131.4 114.787 131.578C114.368 131.954 113.82 132.152 113.258 132.131C112.943 132.13 112.629 132.076 112.332 131.97C112.003 131.852 111.692 131.691 111.406 131.492V130.792C111.7 131.029 112.024 131.227 112.369 131.38C112.646 131.503 112.945 131.568 113.248 131.573C113.656 131.595 114.055 131.456 114.362 131.187C114.501 131.051 114.609 130.888 114.68 130.707C114.751 130.526 114.782 130.332 114.772 130.138C114.784 129.847 114.685 129.563 114.496 129.342C114.303 129.133 113.878 128.892 113.221 128.619C112.533 128.33 112.064 128.04 111.807 127.751C111.546 127.444 111.41 127.049 111.426 126.647C111.418 126.39 111.466 126.135 111.565 125.899C111.665 125.663 111.815 125.451 112.005 125.279C112.39 124.924 112.893 124.747 113.511 124.748C113.79 124.747 114.067 124.785 114.334 124.861C114.616 124.946 114.887 125.065 115.14 125.215V125.859Z" fill="white"/>
<path d="M116.713 132.025V130.973H117.397V132.025H116.713Z" fill="white"/>
<path d="M118.107 132.026L121.236 124.78H121.468L124.602 132.021H123.997L122.932 129.513H119.773L118.707 132.026H118.107ZM119.973 129.034H122.731L121.353 125.781L119.973 129.034Z" fill="white"/>
<path d="M125.316 132.025V130.973H126V132.025H125.316Z" fill="white"/>
<path style="mix-blend-mode:multiply" d="M106.254 34.8896C61.8652 38.7024 40.1553 51.98 40.1553 51.98L43.3651 61.5488C43.3651 61.5488 61.0801 48.079 107.315 39.5425C107.063 37.9702 106.708 36.4159 106.254 34.8896Z" fill="url(#paint0_linear)"/>
<path style="mix-blend-mode:multiply" d="M72.9942 74.153C54.1818 80.4252 35.0022 73.7279 30.1542 59.1924C25.3061 44.657 36.6245 27.7864 55.4369 21.5127C71.356 16.2035 87.5355 20.1926 95.0642 30.3543L100.777 29.2699C91.1053 15.3504 69.4185 9.77939 48.0817 16.896C23.3267 25.1592 8.42832 47.3535 14.809 66.4826C21.1897 85.6116 46.4319 94.4286 71.1883 86.1755C90.78 79.6416 104.186 64.3745 105.769 48.8081L98.449 50.0067C95.5485 60.2797 86.091 69.785 72.9942 74.153Z" fill="url(#paint1_linear)"/>
<path d="M98.1247 45.3059C96.0325 55.7784 87.3485 65.9936 74.6363 71.3723C56.3705 79.0991 36.7267 73.9185 30.7567 59.8052C24.7866 45.6919 34.7531 27.9958 53.0233 20.2647C68.4798 13.7264 84.9122 16.4389 93.2188 25.9802L98.8274 24.4519C88.0975 11.332 66.0434 7.47294 45.3297 16.235C21.2876 26.4053 8.17344 49.7043 16.0289 68.2766C23.8844 86.849 49.7382 93.6634 73.7746 83.4974C92.7937 75.4497 104.971 59.182 105.327 43.539L98.1247 45.3059Z" fill="url(#paint2_radial)"/>
<path d="M101.935 30.1123C59.9018 37.5384 40.1641 51.8367 40.1641 51.8367L43.0327 61.7207C43.0327 61.7207 60.0941 46.8701 103.696 34.8577C103.217 33.238 102.628 31.6526 101.935 30.1123Z" fill="url(#paint3_linear)"/>
<path d="M88.3632 78.6709C84.531 81.9509 80.3443 84.7923 75.8809 87.1423C74.6982 87.7655 73.5068 88.3366 72.3125 88.8774C72.5699 91.5291 72.8504 93.5216 72.8504 93.5216C72.8504 93.5216 81.8452 96.1241 95.542 90.5647C95.542 90.5705 92.6807 84.5238 88.3632 78.6709Z" fill="url(#paint4_linear)"/>
<path d="M57.0936 1.97978C57.0936 1.97978 48.6193 -2.00507 34.2227 1.33203C34.2227 1.33203 36.124 7.8385 39.5103 14.345C40.8115 13.8114 42.1374 13.2996 43.4951 12.8384C47.7709 11.3804 52.1815 10.3525 56.6613 9.7702C57.0286 5.73618 57.0936 1.97978 57.0936 1.97978Z" fill="url(#paint5_linear)"/>
<defs>
<linearGradient id="paint0_linear" x1="43.2649" y1="40.4703" x2="112.005" y2="57.3253" gradientUnits="userSpaceOnUse">
<stop stop-color="#BBBDBF"/>
<stop offset="1" stop-color="white"/>
</linearGradient>
<linearGradient id="paint1_linear" x1="12171.5" y1="18580" x2="69233.6" y2="44972.4" gradientUnits="userSpaceOnUse">
<stop stop-color="#BBBDBF"/>
<stop offset="1" stop-color="white"/>
</linearGradient>
<radialGradient id="paint2_radial" cx="0" cy="0" r="1" gradientUnits="userSpaceOnUse" gradientTransform="translate(23.738 30.3709) rotate(-6.91123) scale(93.5102)">
<stop stop-color="#EC1C24"/>
<stop offset="1" stop-color="#B01117"/>
</radialGradient>
<linearGradient id="paint3_linear" x1="41.6003" y1="55.6264" x2="93.1299" y2="34.5799" gradientUnits="userSpaceOnUse">
<stop stop-color="#929497"/>
<stop offset="1" stop-color="#231F20"/>
</linearGradient>
<linearGradient id="paint4_linear" x1="87.0923" y1="96.2846" x2="79.2484" y2="83.7344" gradientUnits="userSpaceOnUse">
<stop stop-color="#D0D2D3"/>
<stop offset="1" stop-color="#231F20"/>
</linearGradient>
<linearGradient id="paint5_linear" x1="6920.9" y1="-262.37" x2="7460.51" y2="1728.66" gradientUnits="userSpaceOnUse">
<stop stop-color="#D0D2D3"/>
<stop offset="1" stop-color="#231F20"/>
</linearGradient>
</defs>
</svg>
