<svg width="321" height="516" viewBox="0 0 321 516" fill="none" xmlns="http://www.w3.org/2000/svg">
  <g clip-path="url(#clip0)">
    <rect width="321" height="516" fill="white"/>
    <g clip-path="url(#clip1)">
      <rect x="-9" y="-20" width="353" height="624" rx="10.4879" fill="url(#paint0_linear)"/>
      <path
        d="M47.9394 68.3002L47.6153 68.4312L47.9394 68.3002ZM32.3694 161.052L32.7013 160.942L32.3694 161.052ZM-23.7055 199.19C-23.5433 199.295 -23.3269 199.248 -23.2221 199.086C-23.1173 198.924 -23.1638 198.708 -23.326 198.603L-23.7055 199.19ZM-17.1823 202.174C-17.3539 202.085 -17.5648 202.152 -17.6534 202.324C-17.742 202.495 -17.6748 202.706 -17.5032 202.795L-17.1823 202.174ZM-10.9615 205.729C-10.781 205.797 -10.5791 205.706 -10.5105 205.526C-10.4419 205.345 -10.5326 205.144 -10.7131 205.075L-10.9615 205.729ZM-3.94368 207.151C-4.13176 207.107 -4.3196 207.224 -4.36323 207.413C-4.40686 207.601 -4.28976 207.788 -4.10168 207.832L-3.94368 207.151ZM2.99714 208.9C3.1898 208.913 3.35627 208.767 3.36897 208.574C3.38167 208.382 3.23578 208.215 3.04312 208.203L2.99714 208.9ZM10.0923 208.001C9.90085 208.026 9.76572 208.201 9.79052 208.393C9.81531 208.584 9.99064 208.719 10.1821 208.695L10.0923 208.001ZM17.1745 206.978C17.3553 206.91 17.447 206.708 17.3792 206.528C17.3115 206.347 17.11 206.255 16.9292 206.323L17.1745 206.978ZM23.1407 203.043C22.9832 203.155 22.946 203.373 23.0577 203.531C23.1694 203.688 23.3876 203.725 23.5451 203.613L23.1407 203.043ZM28.8093 198.695C28.9314 198.545 28.9092 198.325 28.7597 198.203C28.6102 198.081 28.39 198.103 28.2678 198.252L28.8093 198.695ZM31.974 192.278C31.8936 192.453 31.9707 192.661 32.1462 192.741C32.3217 192.822 32.5292 192.744 32.6097 192.569L31.974 192.278ZM34.8369 185.734C34.8764 185.545 34.7553 185.36 34.5663 185.32C34.3773 185.281 34.192 185.402 34.1525 185.591L34.8369 185.734ZM34.9233 178.565C34.9197 178.758 35.0734 178.918 35.2664 178.921C35.4595 178.925 35.6188 178.771 35.6224 178.578L34.9233 178.565ZM35.1806 171.411C35.1543 171.22 34.978 171.086 34.7867 171.113C34.5954 171.139 34.4617 171.315 34.4879 171.507L35.1806 171.411ZM33.063 164.565C33.1135 164.751 33.3055 164.861 33.4918 164.811C33.6782 164.76 33.7884 164.568 33.7379 164.382L33.063 164.565ZM31.7101 157.591C31.6617 157.404 31.4709 157.292 31.284 157.34C31.0971 157.388 30.9848 157.579 31.0332 157.766L31.7101 157.591ZM29.7868 150.812C29.8053 151.005 29.9761 151.145 30.1683 151.127C30.3605 151.108 30.5013 150.937 30.4828 150.745L29.7868 150.812ZM30.4389 143.796C30.4555 143.604 30.3129 143.435 30.1206 143.418C29.9282 143.401 29.7589 143.544 29.7423 143.736L30.4389 143.796ZM30.9878 136.775C30.9372 136.961 31.0473 137.154 31.2336 137.204C31.42 137.255 31.612 137.145 31.6626 136.958L30.9878 136.775ZM33.9923 130.401C34.0693 130.224 33.9881 130.018 33.811 129.941C33.6339 129.864 33.4279 129.946 33.351 130.123L33.9923 130.401ZM36.4832 123.809C36.3903 123.978 36.4522 124.19 36.6215 124.283C36.7908 124.376 37.0033 124.314 37.0962 124.145L36.4832 123.809ZM40.6046 118.08C40.7035 117.914 40.6492 117.7 40.4834 117.601C40.3175 117.502 40.1029 117.556 40.004 117.722L40.6046 118.08ZM43.5648 111.681C43.4691 111.849 43.5275 112.062 43.6952 112.158C43.863 112.254 44.0765 112.195 44.1721 112.027L43.5648 111.681ZM47.4597 105.799C47.5427 105.624 47.4685 105.416 47.2941 105.333C47.1198 105.25 46.9112 105.324 46.8283 105.498L47.4597 105.799ZM49.4395 99.0392C49.3795 99.2227 49.4795 99.4201 49.663 99.4802C49.8465 99.5402 50.044 99.4401 50.104 99.2566L49.4395 99.0392ZM51.7487 92.3779C51.7772 92.1869 51.6456 92.009 51.4546 91.9804C51.2637 91.9519 51.0857 92.0835 51.0572 92.2745L51.7487 92.3779ZM51.4609 85.3496C51.4669 85.5426 51.6283 85.6941 51.8213 85.6881C52.0142 85.682 52.1658 85.5207 52.1597 85.3277L51.4609 85.3496ZM51.3483 78.3144C51.3109 78.125 51.1271 78.0017 50.9377 78.0391C50.7482 78.0764 50.625 78.2603 50.6623 78.4497L51.3483 78.3144ZM48.8414 71.7188C48.9036 71.9016 49.1023 71.9992 49.285 71.937C49.4678 71.8747 49.5655 71.676 49.5032 71.4933L48.8414 71.7188ZM46.9189 65.1433C46.8343 64.9698 46.6251 64.8976 46.4515 64.9822C46.2779 65.0667 46.2058 65.276 46.2904 65.4496L46.9189 65.1433ZM42.9886 59.8348C43.1 59.9926 43.3181 60.0301 43.4758 59.9187C43.6335 59.8073 43.6711 59.5892 43.5597 59.4315L42.9886 59.8348ZM39.2496 54.3907C39.1106 54.2567 38.8893 54.2607 38.7553 54.3996C38.6212 54.5386 38.6252 54.7599 38.7641 54.8939L39.2496 54.3907ZM33.6735 50.8776C33.8362 50.9816 34.0524 50.934 34.1563 50.7713C34.2603 50.6086 34.2127 50.3924 34.05 50.2884L33.6735 50.8776ZM28.1503 47.2673C27.9711 47.1954 27.7676 47.2824 27.6957 47.4616C27.6238 47.6408 27.7108 47.8443 27.8899 47.9162L28.1503 47.2673ZM21.6713 45.9957C21.8596 46.0384 22.0468 45.9204 22.0895 45.7321C22.1322 45.5438 22.0141 45.3565 21.8258 45.3138L21.6713 45.9957ZM15.2957 44.2793C15.1035 44.2607 14.9326 44.4014 14.914 44.5935C14.8954 44.7857 15.0361 44.9566 15.2283 44.9752L15.2957 44.2793ZM8.69864 44.6757C8.89172 44.6756 9.04818 44.519 9.04811 44.3259C9.04804 44.1329 8.89146 43.9764 8.69838 43.9765L8.69864 44.6757ZM2.10934 44.229C1.91677 44.243 1.77199 44.4104 1.78596 44.603C1.79994 44.7955 1.96738 44.9403 2.15995 44.9264L2.10934 44.229ZM-4.36512 45.5762C-4.17349 45.5527 -4.03726 45.3782 -4.06085 45.1866C-4.08443 44.9949 -4.25889 44.8587 -4.45053 44.8823L-4.36512 45.5762ZM-10.9719 45.7865C-11.1628 45.815 -11.2944 45.993 -11.2659 46.1839C-11.2373 46.3749 -11.0593 46.5065 -10.8684 46.4779L-10.9719 45.7865ZM-17.3669 47.4394C-17.1756 47.4133 -17.0417 47.237 -17.0678 47.0457C-17.094 46.8544 -17.2703 46.7205 -17.4616 46.7467L-17.3669 47.4394ZM-26.6821 197.173C-25.6868 197.879 -24.6943 198.551 -23.7055 199.19L-23.326 198.603C-24.3062 197.969 -25.2903 197.303 -26.2776 196.603L-26.6821 197.173ZM-17.5032 202.795C-15.293 203.937 -13.1095 204.912 -10.9615 205.729L-10.7131 205.075C-12.8353 204.269 -14.9946 203.304 -17.1823 202.174L-17.5032 202.795ZM-4.10168 207.832C-1.66802 208.397 0.703105 208.749 2.99714 208.9L3.04312 208.203C0.788675 208.054 -1.54499 207.707 -3.94368 207.151L-4.10168 207.832ZM10.1821 208.695C12.6483 208.375 14.987 207.797 17.1745 206.978L16.9292 206.323C14.794 207.123 12.5076 207.688 10.0923 208.001L10.1821 208.695ZM23.5451 203.613C25.5118 202.219 27.2761 200.571 28.8093 198.695L28.2678 198.252C26.7743 200.081 25.0561 201.685 23.1407 203.043L23.5451 203.613ZM32.6097 192.569C33.5772 190.458 34.3266 188.173 34.8369 185.734L34.1525 185.591C33.6525 187.981 32.9189 190.216 31.974 192.278L32.6097 192.569ZM35.6224 178.578C35.6643 176.285 35.5213 173.892 35.1806 171.411L34.4879 171.507C34.824 173.954 34.9646 176.31 34.9233 178.565L35.6224 178.578ZM33.7379 164.382C33.4314 163.25 33.0862 162.103 32.7013 160.942L32.0376 161.162C32.4185 162.311 32.76 163.445 33.063 164.565L33.7379 164.382ZM32.7013 160.942C32.3228 159.801 31.9934 158.684 31.7101 157.591L31.0332 157.766C31.3205 158.875 31.6544 160.007 32.0376 161.162L32.7013 160.942ZM30.4828 150.745C30.2492 148.32 30.2485 146.011 30.4389 143.796L29.7423 143.736C29.5483 145.993 29.5491 148.345 29.7868 150.812L30.4828 150.745ZM31.6626 136.958C32.2767 134.696 33.0719 132.52 33.9923 130.401L33.351 130.123C32.4196 132.267 31.6122 134.475 30.9878 136.775L31.6626 136.958ZM37.0962 124.145C38.2163 122.104 39.4044 120.093 40.6046 118.08L40.004 117.722C38.8036 119.735 37.6099 121.755 36.4832 123.809L37.0962 124.145ZM44.1721 112.027C45.3341 109.99 46.4497 107.923 47.4597 105.799L46.8283 105.498C45.8282 107.602 44.7216 109.653 43.5648 111.681L44.1721 112.027ZM50.104 99.2566C50.8248 97.0539 51.391 94.7697 51.7487 92.3779L51.0572 92.2745C50.7059 94.6236 50.1495 96.8696 49.4395 99.0392L50.104 99.2566ZM52.1597 85.3277C52.0896 83.0901 51.8301 80.7579 51.3483 78.3144L50.6623 78.4497C51.137 80.8568 51.392 83.1511 51.4609 85.3496L52.1597 85.3277ZM49.5032 71.4933C49.1328 70.4066 48.7204 69.2989 48.2635 68.1691L47.6153 68.4312C48.0674 69.5494 48.4753 70.6449 48.8414 71.7188L49.5032 71.4933ZM48.2635 68.1691C47.8386 67.1182 47.3899 66.1101 46.9189 65.1433L46.2904 65.4496C46.7541 66.4014 47.1963 67.3948 47.6153 68.4312L48.2635 68.1691ZM43.5597 59.4315C42.2263 57.5437 40.7835 55.8705 39.2496 54.3907L38.7641 54.8939C40.2659 56.3427 41.6801 57.9824 42.9886 59.8348L43.5597 59.4315ZM34.05 50.2884C32.1607 49.0811 30.1857 48.084 28.1503 47.2673L27.8899 47.9162C29.8877 48.7179 31.8235 49.6954 33.6735 50.8776L34.05 50.2884ZM21.8258 45.3138C19.6759 44.8266 17.4905 44.4919 15.2957 44.2793L15.2283 44.9752C17.3976 45.1854 19.5535 45.5157 21.6713 45.9957L21.8258 45.3138ZM8.69838 43.9765C6.47743 43.9773 4.27212 44.072 2.10934 44.229L2.15995 44.9264C4.30895 44.7704 6.49723 44.6765 8.69864 44.6757L8.69838 43.9765ZM-4.45053 44.8823C-6.72207 45.1618 -8.90841 45.4777 -10.9719 45.7865L-10.8684 46.4779C-8.80704 46.1695 -6.62769 45.8547 -4.36512 45.5762L-4.45053 44.8823ZM-17.4616 46.7467C-18.621 46.9052 -19.7062 47.0387 -20.7075 47.135L-20.6406 47.831C-19.6266 47.7335 -18.5314 47.5986 -17.3669 47.4394L-17.4616 46.7467Z"
        fill="white" fill-opacity="0.3"/>
      <path
        d="M218.969 129.432C218.952 129.239 218.782 129.098 218.589 129.115C218.397 129.133 218.255 129.303 218.273 129.495L218.969 129.432ZM151.22 60.9544C151.027 60.9354 150.856 61.0758 150.837 61.268C150.818 61.4601 150.959 61.6313 151.151 61.6502L151.22 60.9544ZM218.273 129.495C218.29 129.687 218.46 129.829 218.653 129.811C218.845 129.794 218.987 129.624 218.969 129.432L218.273 129.495ZM94.423 -52.4961L94.1244 -52.6779L94.423 -52.4961ZM151.151 61.6502C151.343 61.6692 151.514 61.5288 151.533 61.3366C151.552 61.1445 151.412 60.9733 151.22 60.9544L151.151 61.6502ZM96.5274 -56.623C96.427 -56.4581 96.4792 -56.243 96.6441 -56.1425C96.809 -56.0421 97.0241 -56.0943 97.1245 -56.2592L96.5274 -56.623ZM95.5225 -53.6292C95.623 -53.7941 95.5707 -54.0092 95.4058 -54.1096C95.2409 -54.2101 95.0258 -54.1578 94.9254 -53.9929L95.5225 -53.6292ZM92.3819 -49.6708C92.2888 -49.5016 92.3504 -49.289 92.5196 -49.1959C92.6887 -49.1028 92.9013 -49.1645 92.9944 -49.3336L92.3819 -49.6708ZM89.9603 -43.1872C90.0379 -43.364 89.9575 -43.5702 89.7807 -43.6478C89.6039 -43.7254 89.3977 -43.645 89.3201 -43.4682L89.9603 -43.1872ZM86.8275 -36.9969C86.7665 -36.8137 86.8655 -36.6157 87.0487 -36.5547C87.2319 -36.4937 87.4298 -36.5928 87.4909 -36.7759L86.8275 -36.9969ZM85.6284 -30.1755C85.6721 -30.3635 85.5551 -30.5514 85.367 -30.5951C85.1789 -30.6388 84.991 -30.5218 84.9473 -30.3337L85.6284 -30.1755ZM83.6966 -23.5184C83.6707 -23.327 83.8048 -23.1509 83.9961 -23.125C84.1875 -23.0991 84.3636 -23.2332 84.3895 -23.4245L83.6966 -23.5184ZM83.7884 -16.5895C83.7963 -16.7825 83.6463 -16.9453 83.4534 -16.9532C83.2604 -16.961 83.0976 -16.8111 83.0898 -16.6181L83.7884 -16.5895ZM83.1294 -9.69093C83.1395 -9.49811 83.304 -9.34998 83.4968 -9.36007C83.6896 -9.37015 83.8378 -9.53463 83.8277 -9.72745L83.1294 -9.69093ZM84.5028 -2.89794C84.4749 -3.089 84.2975 -3.22132 84.1064 -3.19349C83.9154 -3.16565 83.783 -2.9882 83.8109 -2.79714L84.5028 -2.89794ZM85.1226 4.00444C85.1678 4.19216 85.3566 4.30769 85.5444 4.2625C85.7321 4.21731 85.8476 4.0285 85.8024 3.84079L85.1226 4.00444ZM87.7107 10.4337C87.6487 10.2509 87.4502 10.153 87.2673 10.215C87.0845 10.277 86.9866 10.4756 87.0486 10.6584L87.7107 10.4337ZM89.5688 17.1105C89.6471 17.2869 89.8536 17.3665 90.0301 17.2882C90.2066 17.2099 90.2862 17.0034 90.2079 16.8269L89.5688 17.1105ZM93.2716 22.969C93.1777 22.8003 92.9648 22.7397 92.7961 22.8336C92.6274 22.9275 92.5667 23.1403 92.6606 23.309L93.2716 22.969ZM96.2988 29.2034C96.4076 29.363 96.625 29.4042 96.7846 29.2954C96.9441 29.1867 96.9853 28.9692 96.8766 28.8096L96.2988 29.2034ZM100.995 34.3C100.873 34.151 100.652 34.1297 100.503 34.2525C100.354 34.3752 100.333 34.5956 100.456 34.7446L100.995 34.3ZM105.1 39.8839C105.236 40.021 105.457 40.0221 105.594 39.8862C105.732 39.7503 105.733 39.529 105.597 39.3918L105.1 39.8839ZM110.646 44.0393C110.498 43.9153 110.278 43.9346 110.154 44.0826C110.03 44.2306 110.049 44.4511 110.197 44.5751L110.646 44.0393ZM115.707 48.7738C115.866 48.8835 116.084 48.8437 116.193 48.6849C116.303 48.526 116.263 48.3083 116.105 48.1985L115.707 48.7738ZM121.926 51.8298C121.758 51.7354 121.545 51.7955 121.45 51.9639C121.356 52.1323 121.416 52.3454 121.584 52.4398L121.926 51.8298ZM127.781 55.5404C127.958 55.6186 128.164 55.5389 128.242 55.3623C128.321 55.1858 128.241 54.9793 128.064 54.9011L127.781 55.5404ZM134.457 57.3837C134.274 57.3223 134.076 57.4208 134.015 57.6039C133.953 57.7869 134.052 57.9851 134.235 58.0465L134.457 57.3837ZM140.904 59.9481C141.092 59.9925 141.28 59.8761 141.324 59.6882C141.369 59.5003 141.252 59.312 141.065 59.2676L140.904 59.9481ZM147.8 60.5412C147.609 60.5138 147.431 60.6465 147.404 60.8377C147.377 61.0288 147.509 61.2059 147.701 61.2333L147.8 60.5412ZM154.819 62.1036C155.01 62.132 155.188 62.0002 155.216 61.8092C155.245 61.6183 155.113 61.4404 154.922 61.412L154.819 62.1036ZM162.235 62.874C162.048 62.8267 161.857 62.9402 161.81 63.1274C161.763 63.3147 161.877 63.5047 162.064 63.5519L162.235 62.874ZM169.127 65.713C169.309 65.7786 169.509 65.6846 169.575 65.503C169.64 65.3214 169.546 65.121 169.365 65.0554L169.127 65.713ZM176.241 67.9351C176.067 67.8518 175.858 67.9254 175.775 68.0996C175.692 68.2737 175.765 68.4825 175.939 68.5658L176.241 67.9351ZM182.436 72.0813C182.601 72.1815 182.816 72.1289 182.917 71.9639C183.017 71.7988 182.964 71.5838 182.799 71.4836L182.436 72.0813ZM188.974 75.6624C188.82 75.5464 188.601 75.5775 188.485 75.7319C188.369 75.8863 188.4 76.1054 188.554 76.2214L188.974 75.6624ZM194.236 80.9428C194.378 81.0734 194.599 81.0639 194.73 80.9216C194.86 80.7794 194.851 80.5582 194.708 80.4277L194.236 80.9428ZM199.948 85.732C199.819 85.5881 199.598 85.5759 199.454 85.7047C199.311 85.8335 199.298 86.0545 199.427 86.1984L199.948 85.732ZM204.079 91.9366C204.193 92.0924 204.412 92.1261 204.568 92.012C204.724 91.8979 204.757 91.6792 204.643 91.5234L204.079 91.9366ZM208.749 97.7473C208.651 97.5811 208.436 97.5261 208.27 97.6243C208.104 97.7226 208.049 97.937 208.147 98.1032L208.749 97.7473ZM211.59 104.639C211.671 104.814 211.879 104.89 212.054 104.809C212.229 104.727 212.305 104.519 212.224 104.344L211.59 104.639ZM215.031 111.251C214.967 111.068 214.768 110.972 214.586 111.036C214.403 111.1 214.307 111.299 214.371 111.482L215.031 111.251ZM216.464 118.566C216.51 118.753 216.699 118.869 216.886 118.823C217.074 118.778 217.189 118.589 217.144 118.401L216.464 118.566ZM218.542 125.726C218.515 125.535 218.338 125.402 218.147 125.428C217.956 125.455 217.822 125.632 217.849 125.823L218.542 125.726ZM218.671 132.993C218.697 133.184 218.873 133.318 219.064 133.292C219.256 133.266 219.39 133.089 219.363 132.898L218.671 132.993ZM220.627 139.757C220.583 139.569 220.395 139.452 220.207 139.496C220.019 139.539 219.902 139.727 219.946 139.915L220.627 139.757ZM221.854 146.69C221.915 146.873 222.113 146.973 222.296 146.912C222.48 146.851 222.579 146.653 222.518 146.47L221.854 146.69ZM225.022 152.978C224.945 152.801 224.738 152.721 224.562 152.798C224.385 152.876 224.305 153.082 224.382 153.259L225.022 152.978ZM227.507 159.565C227.601 159.734 227.813 159.795 227.982 159.701C228.151 159.608 228.212 159.395 228.118 159.226L227.507 159.565ZM231.778 165.162C231.669 165.003 231.452 164.962 231.292 165.07C231.133 165.179 231.092 165.397 231.201 165.556L231.778 165.162ZM235.429 171.182C235.552 171.331 235.773 171.352 235.922 171.229C236.07 171.106 236.091 170.886 235.968 170.737L235.429 171.182ZM240.652 175.904C240.516 175.767 240.295 175.766 240.158 175.902C240.021 176.038 240.02 176.26 240.156 176.397L240.652 175.904ZM245.342 181.156C245.49 181.28 245.71 181.26 245.834 181.112C245.958 180.964 245.938 180.743 245.79 180.62L245.342 181.156ZM251.339 184.844C251.18 184.734 250.962 184.774 250.853 184.933C250.743 185.092 250.783 185.31 250.941 185.419L251.339 184.844ZM256.91 189.149C257.078 189.244 257.291 189.184 257.386 189.016C257.481 188.848 257.421 188.635 257.253 188.54L256.91 189.149ZM263.483 191.673C263.306 191.594 263.1 191.673 263.021 191.85C262.942 192.026 263.022 192.233 263.198 192.311L263.483 191.673ZM269.753 194.875C269.936 194.937 270.134 194.839 270.196 194.656C270.258 194.473 270.16 194.275 269.977 194.213L269.753 194.875ZM276.679 196.136C276.491 196.091 276.303 196.208 276.259 196.396C276.214 196.583 276.33 196.772 276.518 196.816L276.679 196.136ZM283.436 198.117C283.627 198.143 283.804 198.01 283.83 197.819C283.857 197.628 283.724 197.451 283.533 197.424L283.436 198.117ZM290.477 198.068C290.284 198.059 290.121 198.209 290.112 198.401C290.103 198.594 290.252 198.758 290.445 198.767L290.477 198.068ZM296.918 198.848C297.111 198.848 297.268 198.691 297.268 198.498C297.268 198.305 297.111 198.149 296.918 198.149V198.848ZM302.826 198.149C302.633 198.149 302.476 198.305 302.476 198.498C302.476 198.691 302.633 198.848 302.826 198.848V198.149ZM308.733 198.848C308.926 198.848 309.083 198.691 309.083 198.498C309.083 198.305 308.926 198.149 308.733 198.149V198.848ZM314.641 198.149C314.448 198.149 314.291 198.305 314.291 198.498C314.291 198.691 314.448 198.848 314.641 198.848V198.149ZM320.548 198.848C320.741 198.848 320.898 198.691 320.898 198.498C320.898 198.305 320.741 198.149 320.548 198.149V198.848ZM326.456 198.149C326.263 198.149 326.106 198.305 326.106 198.498C326.106 198.691 326.263 198.848 326.456 198.848V198.149ZM97.3284 -57.938L96.5274 -56.623L97.1245 -56.2592L97.9255 -57.5742L97.3284 -57.938ZM94.9254 -53.9929L94.1244 -52.6779L94.7215 -52.3142L95.5225 -53.6292L94.9254 -53.9929ZM94.1244 -52.6779C93.5175 -51.6815 92.9367 -50.6789 92.3819 -49.6708L92.9944 -49.3336C93.5443 -50.3328 94.1199 -51.3265 94.7215 -52.3142L94.1244 -52.6779ZM89.3201 -43.4682C88.3806 -41.3273 87.5507 -39.1683 86.8275 -36.9969L87.4909 -36.7759C88.2073 -38.927 89.0295 -41.066 89.9603 -43.1872L89.3201 -43.4682ZM84.9473 -30.3337C84.4204 -28.0666 84.0045 -25.7926 83.6966 -23.5184L84.3895 -23.4245C84.6945 -25.6773 85.1064 -27.9297 85.6284 -30.1755L84.9473 -30.3337ZM83.0898 -16.6181C82.9949 -14.3002 83.0093 -11.9888 83.1294 -9.69093L83.8277 -9.72745C83.7086 -12.0038 83.6944 -14.2935 83.7884 -16.5895L83.0898 -16.6181ZM83.8109 -2.79714C84.1446 -0.506634 84.583 1.76295 85.1226 4.00444L85.8024 3.84079C85.2677 1.61992 84.8334 -0.628688 84.5028 -2.89794L83.8109 -2.79714ZM87.0486 10.6584C87.7913 12.8471 88.6326 15.0002 89.5688 17.1105L90.2079 16.8269C89.2802 14.7359 88.4466 12.6024 87.7107 10.4337L87.0486 10.6584ZM92.6606 23.309C93.7832 25.3263 94.9972 27.2935 96.2988 29.2034L96.8766 28.8096C95.5868 26.9172 94.384 24.968 93.2716 22.969L92.6606 23.309ZM100.456 34.7446C101.922 36.524 103.471 38.2395 105.1 39.8839L105.597 39.3918C103.983 37.7627 102.448 36.063 100.995 34.3L100.456 34.7446ZM110.197 44.5751C111.961 46.0534 113.798 47.4553 115.707 48.7738L116.105 48.1985C114.214 46.8924 112.393 45.5037 110.646 44.0393L110.197 44.5751ZM121.584 52.4398C123.586 53.5618 125.653 54.5975 127.781 55.5404L128.064 54.9011C125.956 53.9672 123.909 52.9413 121.926 51.8298L121.584 52.4398ZM134.235 58.0465C136.405 58.775 138.629 59.4107 140.904 59.9481L141.065 59.2676C138.81 58.7352 136.607 58.1053 134.457 57.3837L134.235 58.0465ZM147.701 61.2333C148.84 61.3965 149.99 61.5357 151.151 61.6502L151.22 60.9544C150.069 60.8409 148.929 60.7029 147.8 60.5412L147.701 61.2333ZM151.151 61.6502C152.383 61.7717 153.606 61.9231 154.819 62.1036L154.922 61.412C153.697 61.2298 152.463 61.077 151.22 60.9544L151.151 61.6502ZM162.064 63.5519C164.467 64.1581 166.824 64.8805 169.127 65.713L169.365 65.0554C167.039 64.2151 164.661 63.4858 162.235 62.874L162.064 63.5519ZM175.939 68.5658C178.169 69.6326 180.336 70.8067 182.436 72.0813L182.799 71.4836C180.68 70.1971 178.491 69.012 176.241 67.9351L175.939 68.5658ZM188.554 76.2214C190.526 77.7023 192.422 79.2784 194.236 80.9428L194.708 80.4277C192.878 78.7478 190.964 77.157 188.974 75.6624L188.554 76.2214ZM199.427 86.1984C201.069 88.032 202.622 89.9471 204.079 91.9366L204.643 91.5234C203.172 89.5154 201.605 87.5826 199.948 85.732L199.427 86.1984ZM208.147 98.1032C209.397 100.218 210.547 102.399 211.59 104.639L212.224 104.344C211.171 102.083 210.011 99.8814 208.749 97.7473L208.147 98.1032ZM214.371 111.482C215.18 113.794 215.88 116.157 216.464 118.566L217.144 118.401C216.554 115.97 215.848 113.584 215.031 111.251L214.371 111.482ZM217.849 125.823C218.02 127.038 218.161 128.262 218.273 129.495L218.969 129.432C218.856 128.188 218.714 126.952 218.542 125.726L217.849 125.823ZM218.273 129.495C218.379 130.669 218.512 131.835 218.671 132.993L219.363 132.898C219.206 131.751 219.075 130.595 218.969 129.432L218.273 129.495ZM219.946 139.915C220.48 142.217 221.118 144.476 221.854 146.69L222.518 146.47C221.789 144.276 221.156 142.037 220.627 139.757L219.946 139.915ZM224.382 153.259C225.329 155.416 226.373 157.52 227.507 159.565L228.118 159.226C226.995 157.2 225.961 155.115 225.022 152.978L224.382 153.259ZM231.201 165.556C232.525 167.499 233.937 169.376 235.429 171.182L235.968 170.737C234.49 168.947 233.091 167.087 231.778 165.162L231.201 165.556ZM240.156 176.397C241.811 178.062 243.541 179.65 245.342 181.156L245.79 180.62C244.007 179.127 242.292 177.554 240.652 175.904L240.156 176.397ZM250.941 185.419C252.869 186.752 254.861 187.997 256.91 189.149L257.253 188.54C255.222 187.398 253.249 186.164 251.339 184.844L250.941 185.419ZM263.198 192.311C265.334 193.264 267.521 194.12 269.753 194.875L269.977 194.213C267.766 193.465 265.599 192.617 263.483 191.673L263.198 192.311ZM276.518 196.816C278.788 197.354 281.096 197.789 283.436 198.117L283.533 197.424C281.214 197.1 278.928 196.669 276.679 196.136L276.518 196.816ZM290.445 198.767C291.612 198.821 292.785 198.848 293.965 198.848V198.149C292.796 198.149 291.633 198.122 290.477 198.068L290.445 198.767ZM293.965 198.848H296.918V198.149H293.965V198.848ZM302.826 198.848H308.733V198.149H302.826V198.848ZM314.641 198.848H320.548V198.149H314.641V198.848ZM326.456 198.848H329.409V198.149H326.456V198.848Z"
        fill="white" fill-opacity="0.3"/>
      <g filter="url(#filter0_d)">
        <rect x="58.8217" y="536.558" width="153.822" height="44.7484" rx="13.9839" fill="white"/>
      </g>
    </g>
  </g>
  <defs>
    <filter id="filter0_d" x="18.2685" y="504.395" width="229.335" height="120.261" filterUnits="userSpaceOnUse"
            color-interpolation-filters="sRGB">
      <feFlood flood-opacity="0" result="BackgroundImageFix"/>
      <feColorMatrix in="SourceAlpha" type="matrix" values="0 0 0 0 0 0 0 0 0 0 0 0 0 0 0 0 0 0 127 0"
                     result="hardAlpha"/>
      <feMorphology radius="2.79677" operator="dilate" in="SourceAlpha" result="effect1_dropShadow"/>
      <feOffset dx="-2.79677" dy="5.59354"/>
      <feGaussianBlur stdDeviation="17.4798"/>
      <feColorMatrix type="matrix" values="0 0 0 0 0 0 0 0 0 0 0 0 0 0 0 0 0 0 0.1 0"/>
      <feBlend mode="normal" in2="BackgroundImageFix" result="effect1_dropShadow"/>
      <feBlend mode="normal" in="SourceGraphic" in2="effect1_dropShadow" result="shape"/>
    </filter>
    <linearGradient id="paint0_linear" x1="344" y1="-20" x2="93.8569" y2="642.818" gradientUnits="userSpaceOnUse">
      <stop stop-color="#47BFDF"/>
      <stop offset="1" stop-color="#4A91FF"/>
    </linearGradient>
    <clipPath id="clip0">
      <rect width="321" height="516" fill="white"/>
    </clipPath>
    <clipPath id="clip1">
      <rect x="-9" y="-20" width="353" height="624" rx="10.4879" fill="white"/>
    </clipPath>
  </defs>
</svg>
