<svg width="53" height="51" viewBox="0 0 53 51" fill="none" xmlns="http://www.w3.org/2000/svg">
<path d="M52.4239 22.7781H10.2919L35.5092 1.00281C35.9124 0.651826 35.6676 0 35.1347 0H28.762C28.4812 0 28.2147 0.10028 28.0059 0.279353L0.793987 23.7666C0.544757 23.9815 0.344876 24.2472 0.207886 24.5456C0.0708971 24.8441 0 25.1683 0 25.4964C0 25.8245 0.0708971 26.1488 0.207886 26.4472C0.344876 26.7457 0.544757 27.0114 0.793987 27.2263L28.1643 50.8567C28.2724 50.9499 28.402 51 28.5388 51H35.1275C35.6604 51 35.9052 50.341 35.502 49.9972L10.2919 28.2219H52.4239C52.7408 28.2219 53 27.964 53 27.6489V23.3511C53 23.036 52.7408 22.7781 52.4239 22.7781Z" fill="black"/>
</svg>
