<svg width="1185" height="643" viewBox="0 0 1185 643" fill="none" xmlns="http://www.w3.org/2000/svg">
<rect width="1185" height="643" rx="80" fill="#C4C4C4"/>
<path d="M677.842 281.073C676.825 277.446 674.845 274.162 672.111 271.57C669.299 268.899 665.854 266.989 662.099 266.019C648.047 262.315 591.749 262.315 591.749 262.315C568.279 262.048 544.815 263.222 521.489 265.831C517.734 266.873 514.295 268.827 511.477 271.518C508.709 274.182 506.704 277.467 505.656 281.066C503.14 294.622 501.917 308.387 502.005 322.174C501.915 335.95 503.134 349.71 505.656 363.283C506.681 366.867 508.679 370.137 511.455 372.778C514.231 375.419 517.688 377.327 521.489 378.338C535.728 382.034 591.749 382.034 591.749 382.034C615.249 382.301 638.743 381.127 662.099 378.517C665.854 377.547 669.299 375.636 672.111 372.965C674.879 370.324 676.847 367.039 677.835 363.463C680.417 349.911 681.672 336.141 681.584 322.346C681.778 308.493 680.524 294.658 677.842 281.066V281.073ZM573.851 347.794V296.562L620.691 322.182L573.851 347.794Z" fill="black"/>
</svg>
