<svg width="500" height="500" viewBox="0 0 500 500" fill="none" xmlns="http://www.w3.org/2000/svg">
  <path d="M457.485 453.994H427.981V454.329H457.485V453.994Z" fill="#E0E0E0"/>
  <path d="M476.176 453.82H466.206V454.154H476.176V453.82Z" fill="#E0E0E0"/>
  <path d="M349.129 456.074H287.352V456.409H349.129V456.074Z" fill="#E0E0E0"/>
  <path d="M272.773 459.711H263.564V460.046H272.773V459.711Z" fill="#E0E0E0"/>
  <path d="M87.6209 449.095H71.746V449.43H87.6209V449.095Z" fill="#E0E0E0"/>
  <path d="M174.731 449.095H94.2157V449.43H174.731V449.095Z" fill="#E0E0E0"/>
  <path d="M106.098 457.202H50.0844V457.536H106.098V457.202Z" fill="#E0E0E0"/>
  <path
    d="M236.21 379.536H6.77298C4.97558 379.533 3.25288 378.724 1.98304 377.287C0.713198 375.85 -2.75639e-06 373.903 0 371.873V7.59609C0.0156467 5.57766 0.735751 3.64771 2.0039 2.22544C3.27205 0.80317 4.98583 0.00345768 6.77298 0H236.21C238.01 0 239.736 0.80737 241.008 2.2445C242.281 3.68163 242.995 5.63079 242.995 7.66319V371.873C242.995 373.905 242.281 375.855 241.008 377.292C239.736 378.729 238.01 379.536 236.21 379.536V379.536ZM6.77298 0.268414C5.05436 0.271969 3.40722 1.04556 2.19309 2.41938C0.978961 3.7932 0.297057 5.65499 0.29706 7.59609V371.873C0.297057 373.814 0.978961 375.676 2.19309 377.05C3.40722 378.424 5.05436 379.197 6.77298 379.201H236.21C237.93 379.197 239.579 378.424 240.795 377.051C242.011 375.677 242.695 373.815 242.698 371.873V7.59609C242.695 5.65376 242.011 3.792 240.795 2.41856C239.579 1.04512 237.93 0.271962 236.21 0.268414H6.77298Z"
    fill="#E0E0E0"/>
  <path
    d="M493.239 379.536H263.789C261.991 379.533 260.267 378.724 258.995 377.288C257.724 375.851 257.008 373.904 257.005 371.873V7.59609C257.023 5.57643 257.746 3.6465 259.016 2.2246C260.286 0.802701 262.001 0.00341997 263.789 0H493.239C495.024 0.00698478 496.735 0.808258 498 2.23015C499.266 3.65204 499.984 5.57998 500 7.59609V371.873C500 373.901 499.288 375.846 498.021 377.282C496.754 378.719 495.034 379.529 493.239 379.536V379.536ZM263.789 0.268414C262.07 0.271962 260.421 1.04512 259.205 2.41856C257.989 3.792 257.305 5.65376 257.302 7.59609V371.873C257.305 373.815 257.989 375.677 259.205 377.051C260.421 378.424 262.07 379.197 263.789 379.201H493.239C494.959 379.197 496.607 378.424 497.823 377.051C499.039 375.677 499.723 373.815 499.727 371.873V7.59609C499.723 5.65376 499.039 3.792 497.823 2.41856C496.607 1.04512 494.959 0.271962 493.239 0.268414H263.789Z"
    fill="#E0E0E0"/>
  <path d="M360.679 439.392H402.659V353.339H360.679V439.392Z" fill="#E0E0E0"/>
  <path d="M358.362 362.25H402.659V344.32H358.362V362.25Z" fill="#E0E0E0"/>
  <path d="M332.506 318.687H304.285V439.392H332.506V318.687Z" fill="#E0E0E0"/>
  <path d="M327.135 439.392H332.494V424.603H321.514L327.135 439.392Z" fill="#F5F5F5"/>
  <path d="M195.026 324.324V404.714H328.347V324.324H195.026Z" fill="#E0E0E0"/>
  <path d="M328.335 421.704V412.752H195.014V421.704H328.335Z" fill="#E0E0E0"/>
  <path
    d="M309.133 329.128H215.262C213.177 329.13 211.114 328.655 209.197 327.733C207.279 326.81 205.547 325.459 204.104 323.76H320.338C318.892 325.469 317.152 326.827 315.226 327.75C313.299 328.673 311.226 329.142 309.133 329.128Z"
    fill="#F5F5F5"/>
  <g style="mix-blend-mode:multiply" opacity="0.4">
    <path d="M258.264 244.578H226.847V318.687H258.264V244.578Z" fill="#E0E0E0"/>
  </g>
  <path d="M284.655 318.687H231.481L226.479 238.66H279.641L284.655 318.687Z" fill="#E0E0E0"/>
  <path d="M290.703 318.687H232.99L227.988 238.66H285.689L290.703 318.687Z" fill="#F5F5F5"/>
  <path d="M235.664 315.627L231.042 241.719H283.027L287.661 315.627H235.664Z" fill="#FAFAFA"/>
  <path d="M248.247 299.079L245.693 258.267H270.444L272.998 299.079H248.247Z" fill="#F5F5F5"/>
  <path
    d="M143.944 305.548C151.569 305.548 157.751 298.566 157.751 289.953C157.751 281.341 151.569 274.359 143.944 274.359C136.318 274.359 130.136 281.341 130.136 289.953C130.136 298.566 136.318 305.548 143.944 305.548Z"
    fill="#EBEBEB"/>
  <path
    d="M167.59 312.983C175.215 312.983 181.397 306.001 181.397 297.388C181.397 288.776 175.215 281.794 167.59 281.794C159.964 281.794 153.782 288.776 153.782 297.388C153.782 306.001 159.964 312.983 167.59 312.983Z"
    fill="#EBEBEB"/>
  <path
    d="M191.084 300.494C195.787 298.306 198.029 292.227 196.091 286.916C194.154 281.604 188.771 279.073 184.069 281.261C179.366 283.449 177.125 289.528 179.062 294.839C180.999 300.151 186.382 302.682 191.084 300.494Z"
    fill="#EBEBEB"/>
  <path
    d="M166.866 282.192C167.679 276.522 164.268 271.181 159.248 270.262C154.227 269.344 149.498 273.196 148.685 278.866C147.872 284.537 151.282 289.878 156.303 290.797C161.323 291.715 166.053 287.863 166.866 282.192Z"
    fill="#EBEBEB"/>
  <path
    d="M121.866 294.597C121.866 294.597 122.947 318.687 164.381 318.687C205.815 318.687 206.897 294.597 206.897 294.597H121.866Z"
    fill="#E0E0E0"/>
  <path
    d="M83.6047 310.433C83.6047 310.433 70.1063 284.156 88.8329 263.233C88.8329 263.233 93.7166 266.83 93.5859 271.674C93.4552 276.519 88.3458 277.727 89.4508 281.767C90.5559 285.806 95.392 289.819 92.2432 293.107C89.0944 296.395 92.7541 299.401 92.5403 303.495C92.3264 307.588 83.6047 310.433 83.6047 310.433Z"
    fill="#E0E0E0"/>
  <path
    d="M251.658 500C378.897 500 482.046 493.198 482.046 484.808C482.046 476.417 378.897 469.616 251.658 469.616C124.418 469.616 21.2695 476.417 21.2695 484.808C21.2695 493.198 124.418 500 251.658 500Z"
    fill="#F5F5F5"/>
  <path
    d="M149.714 251.799C148.879 251.737 148.096 251.319 147.524 250.629C146.952 249.939 146.633 249.029 146.633 248.084C146.633 247.138 146.952 246.229 147.524 245.539C148.096 244.849 148.879 244.431 149.714 244.369C157.771 244.369 164.561 231.339 164.561 215.906C164.616 214.963 164.986 214.078 165.597 213.432C166.208 212.786 167.013 212.427 167.85 212.427C168.687 212.427 169.493 212.786 170.103 213.432C170.714 214.078 171.084 214.963 171.139 215.906C171.139 236.032 161.758 251.799 149.714 251.799Z"
    fill="#569AFF"/>
  <path
    d="M199.424 251.799C198.589 251.737 197.806 251.319 197.234 250.629C196.662 249.939 196.343 249.029 196.343 248.084C196.343 247.138 196.662 246.229 197.234 245.539C197.806 244.849 198.589 244.431 199.424 244.369C207.482 244.369 214.271 231.339 214.271 215.906C214.326 214.963 214.696 214.078 215.307 213.432C215.918 212.786 216.723 212.427 217.56 212.427C218.397 212.427 219.203 212.786 219.814 213.432C220.424 214.078 220.795 214.963 220.849 215.906C220.92 236.032 211.44 251.799 199.424 251.799Z"
    fill="#569AFF"/>
  <path
    d="M249.092 251.799C248.257 251.737 247.474 251.319 246.902 250.629C246.33 249.939 246.011 249.029 246.011 248.084C246.011 247.138 246.33 246.229 246.902 245.539C247.474 244.849 248.257 244.431 249.092 244.369C257.135 244.369 263.939 231.339 263.939 215.906C263.939 214.923 264.285 213.98 264.9 213.285C265.516 212.59 266.351 212.199 267.221 212.199C268.092 212.199 268.926 212.59 269.542 213.285C270.157 213.98 270.503 214.923 270.503 215.906C270.546 236.032 261.15 251.799 249.092 251.799Z"
    fill="#569AFF"/>
  <path
    d="M298.845 251.799C298.395 251.832 297.944 251.761 297.519 251.589C297.094 251.417 296.705 251.149 296.376 250.801C296.047 250.453 295.785 250.032 295.605 249.564C295.426 249.097 295.333 248.593 295.333 248.084C295.333 247.574 295.426 247.07 295.605 246.603C295.785 246.136 296.047 245.715 296.376 245.367C296.705 245.018 297.094 244.75 297.519 244.579C297.944 244.407 298.395 244.335 298.845 244.369C306.888 244.369 313.692 231.339 313.692 215.906C313.692 214.923 314.038 213.98 314.653 213.285C315.269 212.59 316.103 212.199 316.974 212.199C317.844 212.199 318.679 212.59 319.295 213.285C319.91 213.98 320.256 214.923 320.256 215.906C320.256 236.032 310.846 251.799 298.845 251.799Z"
    fill="#569AFF"/>
  <path
    d="M348.541 251.799C347.706 251.737 346.923 251.319 346.351 250.629C345.779 249.939 345.46 249.029 345.46 248.084C345.46 247.138 345.779 246.229 346.351 245.539C346.923 244.849 347.706 244.431 348.541 244.369C356.599 244.369 363.388 231.339 363.388 215.906C363.443 214.963 363.813 214.078 364.424 213.432C365.035 212.786 365.84 212.427 366.677 212.427C367.514 212.427 368.32 212.786 368.931 213.432C369.541 214.078 369.912 214.963 369.966 215.906C369.966 236.032 360.557 251.799 348.541 251.799Z"
    fill="#569AFF"/>
  <path
    d="M398.251 251.799C397.416 251.737 396.633 251.319 396.061 250.629C395.489 249.939 395.17 249.029 395.17 248.084C395.17 247.138 395.489 246.229 396.061 245.539C396.633 244.849 397.416 244.431 398.251 244.369C406.295 244.369 413.098 231.339 413.098 215.906C413.153 214.963 413.523 214.078 414.134 213.432C414.745 212.786 415.55 212.427 416.387 212.427C417.224 212.427 418.03 212.786 418.641 213.432C419.251 214.078 419.622 214.963 419.676 215.906C419.676 236.032 410.267 251.799 398.251 251.799Z"
    fill="#569AFF"/>
  <g opacity="0.3">
    <path opacity="0.3"
          d="M149.714 251.799C148.879 251.737 148.096 251.319 147.524 250.629C146.952 249.939 146.633 249.029 146.633 248.084C146.633 247.139 146.952 246.229 147.524 245.539C148.096 244.849 148.879 244.431 149.714 244.369C157.771 244.369 164.561 231.339 164.561 215.906C164.616 214.963 164.986 214.079 165.597 213.433C166.208 212.786 167.013 212.427 167.85 212.427C168.687 212.427 169.493 212.786 170.103 213.433C170.714 214.079 171.084 214.963 171.139 215.906C171.139 236.032 161.758 251.799 149.714 251.799Z"
          fill="black"/>
    <path opacity="0.3"
          d="M199.424 251.798C198.589 251.737 197.806 251.318 197.234 250.628C196.662 249.938 196.343 249.029 196.343 248.083C196.343 247.138 196.662 246.228 197.234 245.538C197.806 244.848 198.589 244.43 199.424 244.368C207.481 244.368 214.271 231.338 214.271 215.906C214.326 214.963 214.696 214.078 215.307 213.432C215.918 212.786 216.723 212.426 217.56 212.426C218.397 212.426 219.203 212.786 219.813 213.432C220.424 214.078 220.795 214.963 220.849 215.906C220.92 236.032 211.44 251.798 199.424 251.798Z"
          fill="black"/>
    <path opacity="0.3"
          d="M249.092 251.799C248.257 251.737 247.474 251.319 246.902 250.629C246.33 249.939 246.011 249.029 246.011 248.084C246.011 247.138 246.33 246.229 246.902 245.539C247.474 244.849 248.257 244.431 249.092 244.369C257.135 244.369 263.939 231.339 263.939 215.906C263.939 214.923 264.285 213.98 264.9 213.285C265.516 212.59 266.351 212.199 267.221 212.199C268.092 212.199 268.926 212.59 269.542 213.285C270.157 213.98 270.503 214.923 270.503 215.906C270.546 236.032 261.15 251.799 249.092 251.799Z"
          fill="black"/>
    <path opacity="0.3"
          d="M298.845 251.799C298.395 251.832 297.943 251.761 297.519 251.589C297.094 251.417 296.705 251.149 296.376 250.801C296.047 250.453 295.785 250.032 295.605 249.564C295.426 249.097 295.333 248.593 295.333 248.084C295.333 247.574 295.426 247.07 295.605 246.603C295.785 246.136 296.047 245.715 296.376 245.367C296.705 245.018 297.094 244.75 297.519 244.579C297.943 244.407 298.395 244.335 298.845 244.369C306.888 244.369 313.692 231.339 313.692 215.906C313.692 214.923 314.037 213.98 314.653 213.285C315.269 212.59 316.103 212.199 316.974 212.199C317.844 212.199 318.679 212.59 319.295 213.285C319.91 213.98 320.256 214.923 320.256 215.906C320.256 236.032 310.846 251.799 298.845 251.799Z"
          fill="black"/>
    <path opacity="0.3"
          d="M348.541 251.798C347.706 251.737 346.923 251.318 346.351 250.628C345.779 249.938 345.46 249.029 345.46 248.083C345.46 247.138 345.779 246.228 346.351 245.538C346.923 244.848 347.706 244.43 348.541 244.368C356.599 244.368 363.388 231.338 363.388 215.906C363.443 214.963 363.813 214.078 364.424 213.432C365.035 212.786 365.84 212.426 366.677 212.426C367.514 212.426 368.32 212.786 368.931 213.432C369.541 214.078 369.912 214.963 369.966 215.906C369.966 236.032 360.557 251.798 348.541 251.798Z"
          fill="black"/>
    <path opacity="0.3"
          d="M398.251 251.798C397.416 251.737 396.633 251.318 396.061 250.628C395.489 249.938 395.171 249.029 395.171 248.083C395.171 247.138 395.489 246.228 396.061 245.538C396.633 244.848 397.416 244.43 398.251 244.368C406.295 244.368 413.098 231.338 413.098 215.906C413.153 214.963 413.523 214.078 414.134 213.432C414.745 212.786 415.55 212.426 416.387 212.426C417.224 212.426 418.03 212.786 418.641 213.432C419.252 214.078 419.622 214.963 419.677 215.906C419.677 236.032 410.267 251.798 398.251 251.798Z"
          fill="black"/>
  </g>
  <path
    d="M118.569 219.709H438.58C442.871 219.806 446.983 221.668 450.144 224.946C453.306 228.223 455.3 232.692 455.752 237.512L473.472 463.16C473.688 465.424 473.475 467.714 472.848 469.879C472.222 472.043 471.196 474.033 469.837 475.716C468.479 477.399 466.82 478.737 464.97 479.641C463.119 480.546 461.12 480.996 459.104 480.963H139.079C134.79 480.859 130.681 478.995 127.521 475.718C124.361 472.442 122.366 467.978 121.908 463.16L104.201 237.512C103.983 235.247 104.194 232.956 104.82 230.79C105.446 228.625 106.472 226.634 107.831 224.951C109.189 223.267 110.85 221.929 112.701 221.025C114.552 220.122 116.553 219.673 118.569 219.709Z"
    fill="#569AFF"/>
  <path opacity="0.4"
        d="M118.569 219.709H438.58C442.871 219.806 446.983 221.668 450.144 224.946C453.306 228.223 455.3 232.692 455.752 237.512L473.472 463.16C473.688 465.424 473.475 467.714 472.848 469.879C472.222 472.043 471.196 474.033 469.837 475.716C468.479 477.399 466.82 478.737 464.97 479.641C463.119 480.546 461.12 480.996 459.104 480.963H139.079C134.79 480.859 130.681 478.995 127.521 475.718C124.361 472.442 122.366 467.978 121.908 463.16L104.201 237.512C103.983 235.247 104.194 232.956 104.82 230.79C105.446 228.625 106.472 226.634 107.831 224.951C109.189 223.267 110.85 221.929 112.701 221.025C114.552 220.122 116.553 219.673 118.569 219.709Z"
        fill="#FAFAFA"/>
  <path
    d="M435.918 219.709H115.893C111.66 219.766 107.604 221.635 104.545 224.94C101.485 228.245 99.6508 232.738 99.412 237.512L90.3968 463.16C90.2894 465.459 90.5986 467.758 91.3056 469.917C92.0125 472.076 93.1022 474.05 94.508 475.716C95.9138 477.383 97.6061 478.708 99.4811 479.61C101.356 480.512 103.375 480.973 105.413 480.963H425.466C429.699 480.906 433.755 479.037 436.814 475.732C439.874 472.427 441.708 467.934 441.947 463.16L450.976 237.512C451.082 235.209 450.77 232.907 450.06 230.746C449.349 228.585 448.256 226.61 446.846 224.943C445.436 223.276 443.739 221.952 441.86 221.052C439.981 220.152 437.959 219.695 435.918 219.709V219.709Z"
    fill="#569AFF"/>
  <path opacity="0.2"
        d="M435.918 219.709H115.893C111.66 219.766 107.604 221.635 104.545 224.94C101.485 228.245 99.6508 232.738 99.412 237.512L90.3968 463.16C90.2894 465.459 90.5986 467.758 91.3056 469.917C92.0125 472.076 93.1022 474.05 94.508 475.716C95.9138 477.383 97.6061 478.708 99.4811 479.61C101.356 480.512 103.375 480.973 105.413 480.963H425.466C429.699 480.906 433.755 479.037 436.814 475.732C439.874 472.427 441.708 467.934 441.947 463.16L450.976 237.512C451.082 235.209 450.77 232.907 450.06 230.746C449.349 228.585 448.256 226.61 446.846 224.943C445.436 223.276 443.739 221.952 441.86 221.052C439.981 220.152 437.959 219.695 435.918 219.709V219.709Z"
        fill="#FAFAFA"/>
  <path
    d="M121.767 421.333L129.218 234.982C129.308 233.154 130.01 231.433 131.182 230.168C132.354 228.904 133.908 228.19 135.529 228.173H415.606C416.386 228.167 417.16 228.342 417.879 228.686C418.598 229.03 419.247 229.537 419.786 230.174C420.326 230.812 420.744 231.567 421.016 232.394C421.288 233.221 421.407 234.101 421.367 234.982L413.901 421.333C413.812 423.161 413.11 424.882 411.938 426.147C410.766 427.412 409.212 428.125 407.591 428.143H127.528C126.747 428.148 125.974 427.974 125.255 427.629C124.536 427.285 123.887 426.779 123.347 426.141C122.808 425.504 122.389 424.748 122.118 423.922C121.846 423.095 121.726 422.214 121.767 421.333V421.333Z"
    fill="#569AFF"/>
  <path opacity="0.1"
        d="M121.767 421.333L129.218 234.982C129.308 233.154 130.01 231.433 131.182 230.168C132.354 228.904 133.908 228.19 135.529 228.173H415.606C416.386 228.167 417.16 228.342 417.879 228.686C418.598 229.03 419.247 229.537 419.786 230.174C420.326 230.812 420.744 231.567 421.016 232.394C421.288 233.221 421.407 234.101 421.367 234.982L413.901 421.333C413.812 423.161 413.11 424.882 411.938 426.147C410.766 427.412 409.212 428.125 407.591 428.143H127.528C126.747 428.148 125.974 427.974 125.255 427.629C124.536 427.285 123.887 426.779 123.347 426.141C122.808 425.504 122.389 424.748 122.118 423.922C121.846 423.095 121.726 422.214 121.767 421.333V421.333Z"
        fill="#FAFAFA"/>
  <path opacity="0.1"
        d="M113.865 436.543L121.682 240.853C121.772 238.933 122.507 237.125 123.738 235.797C124.968 234.47 126.601 233.723 128.303 233.709H422.424C423.243 233.701 424.056 233.883 424.811 234.244C425.565 234.604 426.247 235.135 426.813 235.804C427.38 236.474 427.818 237.267 428.103 238.135C428.387 239.003 428.511 239.928 428.467 240.853L420.635 436.543C420.545 438.461 419.813 440.269 418.585 441.599C417.358 442.929 415.729 443.681 414.028 443.702H119.879C119.06 443.708 118.249 443.524 117.495 443.162C116.742 442.8 116.062 442.266 115.498 441.595C114.934 440.924 114.498 440.129 114.217 439.26C113.936 438.391 113.816 437.467 113.865 436.543V436.543Z"
        fill="black"/>
  <path
    d="M106.596 452.326L114.752 248.203C114.861 246.207 115.632 244.331 116.911 242.948C118.19 241.565 119.884 240.777 121.654 240.741H428.466C429.322 240.733 430.171 240.924 430.959 241.3C431.747 241.677 432.459 242.232 433.05 242.931C433.642 243.63 434.1 244.458 434.397 245.365C434.694 246.272 434.823 247.238 434.777 248.203L426.579 452.326C426.469 454.321 425.698 456.198 424.419 457.58C423.14 458.963 421.447 459.751 419.676 459.787H112.906C112.05 459.797 111.201 459.609 110.411 459.233C109.622 458.857 108.909 458.303 108.318 457.603C107.726 456.903 107.268 456.074 106.972 455.166C106.675 454.258 106.547 453.291 106.596 452.326V452.326Z"
    fill="#FAFAFA"/>
  <path
    d="M398.209 252.976C397.632 252.977 397.061 252.845 396.531 252.587C396.001 252.33 395.524 251.952 395.128 251.478C394.732 251.004 394.426 250.444 394.229 249.831C394.032 249.219 393.949 248.567 393.983 247.917C394.037 246.64 394.521 245.435 395.335 244.548C396.149 243.661 397.233 243.158 398.364 243.144C398.941 243.143 399.512 243.275 400.042 243.532C400.572 243.79 401.05 244.167 401.446 244.641C401.841 245.115 402.147 245.676 402.344 246.288C402.541 246.901 402.625 247.553 402.59 248.203V248.203C402.536 249.479 402.053 250.684 401.238 251.572C400.424 252.459 399.34 252.961 398.209 252.976Z"
    fill="#569AFF"/>
  <path
    d="M348.499 252.976C347.922 252.977 347.351 252.845 346.821 252.587C346.291 252.33 345.813 251.952 345.417 251.478C345.021 251.004 344.716 250.444 344.519 249.831C344.322 249.219 344.238 248.567 344.273 247.917C344.327 246.64 344.81 245.435 345.625 244.548C346.439 243.661 347.522 243.158 348.654 243.144V243.144C349.231 243.143 349.802 243.275 350.332 243.532C350.862 243.79 351.339 244.167 351.735 244.641C352.131 245.115 352.437 245.676 352.634 246.288C352.831 246.901 352.914 247.553 352.88 248.203V248.203C352.829 249.481 352.347 250.688 351.532 251.576C350.717 252.464 349.631 252.965 348.499 252.976Z"
    fill="#569AFF"/>
  <path
    d="M298.789 252.976C298.212 252.977 297.641 252.845 297.111 252.587C296.581 252.33 296.103 251.952 295.707 251.478C295.311 251.004 295.005 250.444 294.809 249.831C294.612 249.219 294.528 248.567 294.563 247.917C294.62 246.641 295.104 245.439 295.918 244.552C296.731 243.666 297.813 243.162 298.944 243.144V243.144C299.52 243.143 300.091 243.275 300.621 243.532C301.151 243.79 301.629 244.167 302.025 244.641C302.421 245.115 302.727 245.676 302.923 246.288C303.12 246.901 303.204 247.553 303.169 248.203V248.203C303.119 249.481 302.636 250.688 301.821 251.576C301.006 252.464 299.921 252.965 298.789 252.976V252.976Z"
    fill="#569AFF"/>
  <path
    d="M249.092 252.976C248.515 252.977 247.944 252.845 247.414 252.587C246.884 252.33 246.407 251.952 246.011 251.478C245.615 251.004 245.309 250.444 245.112 249.831C244.915 249.219 244.832 248.567 244.866 247.917C244.927 246.64 245.414 245.437 246.23 244.551C247.046 243.665 248.129 243.162 249.261 243.144V243.144C249.838 243.143 250.409 243.275 250.939 243.532C251.469 243.79 251.947 244.167 252.343 244.641C252.739 245.115 253.044 245.676 253.241 246.288C253.438 246.901 253.522 247.553 253.487 248.203V248.203C253.436 249.483 252.952 250.693 252.134 251.581C251.316 252.47 250.227 252.969 249.092 252.976V252.976Z"
    fill="#569AFF"/>
  <path
    d="M199.382 252.976C198.805 252.977 198.234 252.845 197.704 252.587C197.174 252.33 196.696 251.952 196.301 251.478C195.905 251.004 195.599 250.444 195.402 249.831C195.205 249.219 195.122 248.567 195.156 247.917V247.917C195.21 246.64 195.693 245.435 196.508 244.548C197.322 243.661 198.406 243.158 199.537 243.144V243.144C200.114 243.143 200.685 243.275 201.215 243.532C201.745 243.79 202.223 244.167 202.618 244.641C203.014 245.115 203.32 245.676 203.517 246.288C203.714 246.901 203.797 247.553 203.763 248.203V248.203C203.709 249.479 203.226 250.684 202.411 251.572C201.597 252.459 200.513 252.961 199.382 252.976Z"
    fill="#569AFF"/>
  <path
    d="M149.672 252.976C149.095 252.977 148.524 252.845 147.994 252.587C147.464 252.33 146.986 251.952 146.59 251.478C146.194 251.004 145.889 250.444 145.692 249.831C145.495 249.219 145.411 248.567 145.446 247.917C145.5 246.64 145.983 245.435 146.797 244.548C147.612 243.661 148.695 243.158 149.827 243.144C150.404 243.143 150.975 243.275 151.505 243.532C152.035 243.79 152.512 244.167 152.908 244.641C153.304 245.115 153.61 245.676 153.807 246.288C154.003 246.901 154.087 247.553 154.053 248.203V248.203C154.002 249.481 153.52 250.688 152.705 251.576C151.89 252.464 150.804 252.965 149.672 252.976V252.976Z"
    fill="#569AFF"/>
  <g opacity="0.1">
    <path opacity="0.1"
          d="M398.209 252.976C397.632 252.977 397.061 252.845 396.531 252.587C396.001 252.33 395.524 251.952 395.128 251.478C394.732 251.004 394.426 250.444 394.229 249.831C394.032 249.219 393.949 248.567 393.983 247.917C394.037 246.64 394.521 245.435 395.335 244.548C396.149 243.661 397.233 243.158 398.364 243.144C398.941 243.143 399.512 243.275 400.042 243.532C400.572 243.79 401.05 244.167 401.446 244.641C401.842 245.115 402.147 245.676 402.344 246.288C402.541 246.901 402.625 247.553 402.59 248.203V248.203C402.536 249.479 402.053 250.684 401.238 251.572C400.424 252.459 399.341 252.961 398.209 252.976Z"
          fill="#FAFAFA"/>
    <path opacity="0.1"
          d="M348.499 252.976C347.922 252.977 347.351 252.845 346.821 252.587C346.291 252.33 345.814 251.952 345.418 251.478C345.022 251.004 344.716 250.444 344.519 249.831C344.322 249.219 344.239 248.567 344.273 247.917C344.327 246.64 344.811 245.435 345.625 244.548C346.439 243.661 347.523 243.158 348.654 243.144V243.144C349.231 243.143 349.802 243.275 350.332 243.532C350.862 243.79 351.34 244.167 351.736 244.641C352.131 245.115 352.437 245.676 352.634 246.288C352.831 246.901 352.915 247.553 352.88 248.203V248.203C352.829 249.481 352.347 250.688 351.532 251.576C350.717 252.464 349.631 252.965 348.499 252.976Z"
          fill="#FAFAFA"/>
    <path opacity="0.1"
          d="M298.789 252.976C298.212 252.977 297.641 252.845 297.111 252.587C296.581 252.33 296.103 251.952 295.707 251.478C295.311 251.004 295.005 250.444 294.809 249.831C294.612 249.219 294.528 248.567 294.563 247.917C294.62 246.641 295.104 245.439 295.918 244.552C296.731 243.666 297.813 243.162 298.944 243.144V243.144C299.52 243.143 300.091 243.275 300.621 243.532C301.151 243.79 301.629 244.167 302.025 244.641C302.421 245.115 302.727 245.676 302.923 246.288C303.12 246.901 303.204 247.553 303.169 248.203V248.203C303.119 249.481 302.636 250.688 301.821 251.576C301.006 252.464 299.921 252.965 298.789 252.976V252.976Z"
          fill="#FAFAFA"/>
    <path opacity="0.1"
          d="M249.092 252.976C248.516 252.977 247.944 252.845 247.415 252.587C246.885 252.33 246.407 251.952 246.011 251.478C245.615 251.004 245.309 250.444 245.112 249.831C244.916 249.219 244.832 248.567 244.867 247.917C244.927 246.64 245.415 245.437 246.231 244.551C247.046 243.665 248.13 243.162 249.262 243.144V243.144C249.838 243.143 250.41 243.275 250.939 243.532C251.469 243.79 251.947 244.167 252.343 244.641C252.739 245.115 253.045 245.676 253.242 246.288C253.438 246.901 253.522 247.553 253.487 248.203V248.203C253.437 249.483 252.952 250.693 252.134 251.581C251.316 252.47 250.227 252.969 249.092 252.976V252.976Z"
          fill="#FAFAFA"/>
    <path opacity="0.1"
          d="M199.382 252.976C198.805 252.977 198.234 252.845 197.704 252.587C197.174 252.33 196.697 251.952 196.301 251.478C195.905 251.004 195.599 250.444 195.402 249.831C195.205 249.219 195.122 248.567 195.156 247.917V247.917C195.21 246.64 195.694 245.435 196.508 244.548C197.322 243.661 198.406 243.158 199.537 243.144V243.144C200.114 243.143 200.685 243.275 201.215 243.532C201.745 243.79 202.223 244.167 202.619 244.641C203.015 245.115 203.32 245.676 203.517 246.288C203.714 246.901 203.798 247.553 203.763 248.203V248.203C203.709 249.479 203.226 250.684 202.411 251.572C201.597 252.459 200.514 252.961 199.382 252.976Z"
          fill="#FAFAFA"/>
    <path opacity="0.1"
          d="M149.672 252.976C149.095 252.977 148.524 252.845 147.994 252.587C147.464 252.33 146.986 251.952 146.59 251.478C146.194 251.004 145.889 250.444 145.692 249.831C145.495 249.219 145.411 248.567 145.446 247.917C145.5 246.64 145.983 245.435 146.797 244.548C147.612 243.661 148.695 243.158 149.827 243.144C150.404 243.143 150.975 243.275 151.505 243.532C152.035 243.79 152.512 244.167 152.908 244.641C153.304 245.115 153.61 245.676 153.807 246.288C154.003 246.901 154.087 247.553 154.053 248.203V248.203C154.002 249.481 153.52 250.688 152.705 251.576C151.89 252.464 150.804 252.965 149.672 252.976V252.976Z"
          fill="#FAFAFA"/>
  </g>
  <path
    d="M162.096 270.763H137.093C136.73 270.766 136.371 270.685 136.038 270.523C135.705 270.362 135.405 270.124 135.157 269.825C134.91 269.526 134.72 269.172 134.599 268.786C134.479 268.4 134.431 267.989 134.458 267.581V267.581C134.486 266.747 134.792 265.956 135.315 265.366C135.837 264.776 136.537 264.431 137.276 264.399H162.279C162.641 264.396 163 264.477 163.334 264.639C163.667 264.8 163.967 265.038 164.214 265.337C164.462 265.636 164.652 265.99 164.772 266.376C164.892 266.763 164.94 267.173 164.913 267.581V267.581C164.885 268.415 164.579 269.206 164.057 269.796C163.534 270.386 162.834 270.732 162.096 270.763V270.763Z"
    fill="#569AFF"/>
  <path
    d="M211.806 270.763H186.803C186.44 270.766 186.081 270.685 185.748 270.523C185.415 270.362 185.115 270.124 184.868 269.825C184.62 269.526 184.43 269.172 184.31 268.786C184.19 268.4 184.142 267.989 184.169 267.581V267.581C184.198 266.734 184.513 265.931 185.051 265.339C185.588 264.747 186.306 264.411 187.056 264.399H212.045C212.409 264.396 212.768 264.478 213.102 264.639C213.436 264.8 213.737 265.038 213.985 265.336C214.234 265.635 214.425 265.989 214.547 266.375C214.669 266.761 214.719 267.172 214.694 267.581V267.581C214.665 268.428 214.349 269.231 213.812 269.823C213.275 270.415 212.557 270.751 211.806 270.763V270.763Z"
    fill="#569AFF"/>
  <path
    d="M261.516 270.763H236.513C236.15 270.766 235.79 270.685 235.457 270.523C235.123 270.362 234.822 270.125 234.573 269.826C234.325 269.527 234.134 269.173 234.012 268.787C233.89 268.401 233.84 267.99 233.865 267.581V267.581C233.894 266.734 234.209 265.931 234.747 265.339C235.284 264.747 236.002 264.411 236.753 264.399H261.77C262.132 264.396 262.492 264.477 262.825 264.639C263.158 264.8 263.458 265.038 263.705 265.337C263.953 265.636 264.143 265.99 264.263 266.376C264.383 266.763 264.431 267.173 264.404 267.581V267.581C264.379 268.43 264.064 269.234 263.526 269.827C262.988 270.42 262.268 270.755 261.516 270.763Z"
    fill="#569AFF"/>
  <path
    d="M311.213 270.763H286.21C285.847 270.766 285.488 270.685 285.155 270.523C284.822 270.362 284.522 270.124 284.274 269.825C284.027 269.526 283.837 269.172 283.717 268.786C283.596 268.4 283.548 267.989 283.576 267.581V267.581C283.603 266.747 283.909 265.956 284.432 265.366C284.954 264.776 285.655 264.431 286.393 264.399H311.396C311.758 264.396 312.118 264.477 312.451 264.639C312.784 264.8 313.084 265.038 313.331 265.337C313.579 265.636 313.769 265.99 313.889 266.376C314.009 266.763 314.057 267.173 314.03 267.581V267.581C314.002 268.415 313.696 269.206 313.174 269.796C312.652 270.386 311.951 270.732 311.213 270.763V270.763Z"
    fill="#569AFF"/>
  <path
    d="M360.923 270.763H335.92C335.557 270.766 335.198 270.685 334.865 270.523C334.532 270.362 334.232 270.124 333.984 269.825C333.737 269.526 333.547 269.172 333.427 268.786C333.306 268.4 333.258 267.989 333.286 267.581C333.314 266.734 333.63 265.931 334.167 265.339C334.705 264.747 335.423 264.411 336.173 264.399H361.176C361.539 264.396 361.898 264.477 362.231 264.639C362.564 264.8 362.864 265.038 363.112 265.337C363.359 265.636 363.549 265.99 363.67 266.376C363.79 266.763 363.838 267.173 363.811 267.581V267.581C363.782 268.428 363.466 269.231 362.929 269.823C362.391 270.415 361.673 270.751 360.923 270.763V270.763Z"
    fill="#569AFF"/>
  <path
    d="M410.633 270.763H385.63C385.268 270.766 384.908 270.685 384.575 270.523C384.242 270.362 383.942 270.124 383.695 269.825C383.447 269.526 383.257 269.172 383.137 268.786C383.017 268.4 382.969 267.989 382.996 267.581V267.581C383.025 266.734 383.34 265.931 383.878 265.339C384.415 264.747 385.133 264.411 385.884 264.399H410.873C411.236 264.396 411.595 264.478 411.929 264.639C412.263 264.8 412.564 265.038 412.812 265.336C413.061 265.635 413.252 265.989 413.374 266.375C413.496 266.761 413.546 267.172 413.521 267.581V267.581C413.492 268.428 413.176 269.231 412.639 269.823C412.102 270.415 411.384 270.751 410.633 270.763V270.763Z"
    fill="#569AFF"/>
  <g opacity="0.3">
    <path opacity="0.3"
          d="M162.096 270.763H137.093C136.73 270.766 136.371 270.685 136.038 270.523C135.705 270.362 135.405 270.124 135.157 269.825C134.91 269.526 134.72 269.172 134.599 268.786C134.479 268.4 134.431 267.989 134.458 267.581V267.581C134.486 266.747 134.792 265.956 135.315 265.366C135.837 264.776 136.537 264.431 137.276 264.399H162.279C162.641 264.396 163 264.477 163.334 264.639C163.667 264.8 163.967 265.038 164.214 265.337C164.462 265.636 164.652 265.99 164.772 266.376C164.892 266.763 164.94 267.173 164.913 267.581V267.581C164.885 268.415 164.579 269.206 164.057 269.796C163.534 270.386 162.834 270.732 162.096 270.763V270.763Z"
          fill="black"/>
    <path opacity="0.3"
          d="M211.806 270.763H186.803C186.441 270.766 186.081 270.685 185.748 270.523C185.415 270.362 185.115 270.124 184.868 269.825C184.62 269.526 184.43 269.172 184.31 268.786C184.19 268.4 184.142 267.989 184.169 267.581V267.581C184.198 266.734 184.513 265.932 185.051 265.339C185.588 264.747 186.306 264.411 187.057 264.399H212.046C212.409 264.396 212.768 264.478 213.102 264.639C213.436 264.8 213.737 265.038 213.985 265.337C214.234 265.635 214.425 265.989 214.547 266.375C214.669 266.762 214.719 267.172 214.694 267.581V267.581C214.665 268.428 214.349 269.231 213.812 269.823C213.275 270.415 212.557 270.752 211.806 270.763V270.763Z"
          fill="black"/>
    <path opacity="0.3"
          d="M261.516 270.763H236.513C236.15 270.766 235.791 270.685 235.457 270.523C235.123 270.362 234.822 270.125 234.574 269.826C234.325 269.527 234.134 269.173 234.012 268.787C233.89 268.401 233.84 267.99 233.865 267.581V267.581C233.894 266.734 234.21 265.932 234.747 265.339C235.284 264.747 236.002 264.411 236.753 264.399H261.77C262.132 264.396 262.492 264.477 262.825 264.639C263.158 264.8 263.458 265.038 263.705 265.337C263.953 265.636 264.143 265.99 264.263 266.376C264.383 266.763 264.431 267.173 264.404 267.581V267.581C264.379 268.43 264.064 269.234 263.526 269.827C262.988 270.42 262.268 270.755 261.516 270.763Z"
          fill="black"/>
    <path opacity="0.3"
          d="M311.213 270.763H286.209C285.847 270.766 285.488 270.685 285.155 270.523C284.822 270.362 284.522 270.124 284.274 269.825C284.026 269.526 283.837 269.172 283.716 268.786C283.596 268.4 283.548 267.989 283.575 267.581V267.581C283.603 266.747 283.909 265.956 284.431 265.366C284.954 264.776 285.654 264.431 286.393 264.399H311.396C311.758 264.396 312.117 264.477 312.45 264.639C312.784 264.8 313.083 265.038 313.331 265.337C313.579 265.636 313.768 265.99 313.889 266.376C314.009 266.763 314.057 267.173 314.03 267.581V267.581C314.002 268.415 313.696 269.206 313.174 269.796C312.651 270.386 311.951 270.732 311.213 270.763V270.763Z"
          fill="black"/>
    <path opacity="0.3"
          d="M360.923 270.763H335.92C335.558 270.766 335.198 270.685 334.865 270.523C334.532 270.362 334.232 270.124 333.985 269.825C333.737 269.526 333.547 269.172 333.427 268.786C333.307 268.4 333.259 267.989 333.286 267.581C333.315 266.734 333.63 265.932 334.168 265.339C334.705 264.747 335.423 264.411 336.174 264.399H361.177C361.539 264.396 361.898 264.477 362.231 264.639C362.565 264.8 362.864 265.038 363.112 265.337C363.36 265.636 363.549 265.99 363.67 266.376C363.79 266.763 363.838 267.173 363.811 267.581V267.581C363.782 268.428 363.466 269.231 362.929 269.823C362.392 270.415 361.674 270.752 360.923 270.763V270.763Z"
          fill="black"/>
    <path opacity="0.3"
          d="M410.633 270.763H385.63C385.268 270.766 384.909 270.685 384.575 270.523C384.242 270.362 383.942 270.124 383.695 269.825C383.447 269.526 383.257 269.172 383.137 268.786C383.017 268.4 382.969 267.989 382.996 267.581V267.581C383.025 266.734 383.34 265.932 383.878 265.339C384.415 264.747 385.133 264.411 385.884 264.399H410.873C411.236 264.396 411.596 264.478 411.929 264.639C412.263 264.8 412.564 265.038 412.813 265.337C413.061 265.635 413.252 265.989 413.374 266.375C413.496 266.762 413.546 267.172 413.521 267.581V267.581C413.492 268.428 413.177 269.231 412.639 269.823C412.102 270.415 411.384 270.752 410.633 270.763V270.763Z"
          fill="black"/>
  </g>
  <path
    d="M163.476 330.854H130.909C130.194 330.858 129.487 330.696 128.83 330.38C128.173 330.064 127.579 329.6 127.086 329.016C126.593 328.433 126.211 327.742 125.962 326.985C125.713 326.229 125.604 325.423 125.64 324.618L127.049 287.834C127.134 286.162 127.778 284.589 128.85 283.432C129.921 282.274 131.342 281.619 132.824 281.598H165.392C166.106 281.594 166.813 281.756 167.471 282.072C168.128 282.388 168.721 282.852 169.214 283.435C169.707 284.019 170.09 284.71 170.338 285.467C170.587 286.223 170.696 287.029 170.66 287.834L169.251 324.618C169.163 326.288 168.518 327.859 167.447 329.016C166.376 330.173 164.958 330.829 163.476 330.854Z"
    fill="#569AFF"/>
  <path
    d="M213.186 330.854H180.619C179.904 330.86 179.196 330.7 178.538 330.385C177.88 330.07 177.286 329.606 176.792 329.021C176.299 328.437 175.916 327.745 175.668 326.988C175.42 326.231 175.312 325.424 175.351 324.618L176.759 287.834C176.845 286.162 177.488 284.589 178.56 283.432C179.632 282.274 181.052 281.619 182.535 281.598H215.144C215.859 281.595 216.567 281.756 217.225 282.072C217.883 282.387 218.477 282.851 218.972 283.435C219.466 284.018 219.85 284.709 220.1 285.465C220.35 286.222 220.461 287.028 220.427 287.834L218.948 324.618C218.866 326.288 218.225 327.861 217.156 329.019C216.086 330.177 214.668 330.833 213.186 330.854V330.854Z"
    fill="#569AFF"/>
  <path
    d="M262.883 330.854H230.329C229.615 330.857 228.907 330.696 228.249 330.38C227.591 330.065 226.997 329.601 226.502 329.017C226.008 328.434 225.624 327.743 225.374 326.987C225.124 326.23 225.013 325.424 225.047 324.618L226.456 287.834C226.541 286.162 227.185 284.589 228.256 283.432C229.328 282.275 230.748 281.619 232.231 281.598H264.784C265.499 281.592 266.208 281.752 266.866 282.067C267.524 282.382 268.118 282.846 268.612 283.431C269.105 284.015 269.487 284.707 269.735 285.464C269.983 286.221 270.091 287.028 270.053 287.834L268.644 324.618C268.559 326.287 267.917 327.858 266.849 329.015C265.78 330.172 264.363 330.829 262.883 330.854V330.854Z"
    fill="#569AFF"/>
  <path
    d="M312.593 330.854H280.082C279.366 330.86 278.658 330.7 277.999 330.385C277.34 330.07 276.745 329.606 276.25 329.022C275.756 328.438 275.372 327.746 275.122 326.989C274.873 326.232 274.763 325.425 274.8 324.618L276.208 287.834C276.29 286.164 276.931 284.591 278 283.433C279.069 282.275 280.488 281.619 281.969 281.598H314.537C315.251 281.594 315.958 281.756 316.616 282.072C317.273 282.388 317.866 282.852 318.359 283.435C318.852 284.019 319.235 284.71 319.483 285.467C319.732 286.223 319.841 287.029 319.805 287.834L318.396 324.618C318.311 326.295 317.663 327.873 316.586 329.031C315.508 330.189 314.08 330.841 312.593 330.854V330.854Z"
    fill="#569AFF"/>
  <path
    d="M362.303 330.854H329.736C329.022 330.858 328.314 330.696 327.657 330.38C327 330.064 326.407 329.6 325.914 329.017C325.42 328.433 325.038 327.742 324.789 326.985C324.541 326.229 324.431 325.423 324.468 324.618L325.876 287.834C325.962 286.162 326.605 284.589 327.677 283.432C328.749 282.275 330.169 281.619 331.652 281.598H364.205C364.92 281.592 365.629 281.752 366.288 282.067C366.947 282.382 367.542 282.846 368.037 283.43C368.531 284.014 368.915 284.706 369.165 285.463C369.414 286.22 369.524 287.027 369.487 287.834L368.079 324.618C367.99 326.288 367.346 327.859 366.275 329.016C365.204 330.173 363.785 330.829 362.303 330.854Z"
    fill="#569AFF"/>
  <path
    d="M412 330.854H379.446C378.731 330.86 378.023 330.7 377.365 330.385C376.707 330.07 376.113 329.606 375.619 329.021C375.126 328.437 374.743 327.745 374.495 326.988C374.248 326.231 374.14 325.424 374.178 324.618L375.587 287.834C375.672 286.162 376.316 284.589 377.387 283.432C378.459 282.274 379.879 281.619 381.362 281.598H413.915C414.63 281.595 415.338 281.756 415.996 282.072C416.654 282.387 417.248 282.851 417.742 283.435C418.237 284.018 418.62 284.709 418.871 285.465C419.121 286.222 419.232 287.028 419.198 287.834L417.719 324.618C417.637 326.28 417.003 327.846 415.942 329.003C414.882 330.159 413.473 330.821 412 330.854Z"
    fill="#569AFF"/>
  <g opacity="0.8">
    <path opacity="0.8"
          d="M163.476 330.854H130.909C130.194 330.858 129.487 330.696 128.83 330.38C128.173 330.064 127.579 329.6 127.086 329.017C126.593 328.433 126.211 327.742 125.962 326.985C125.713 326.229 125.604 325.423 125.64 324.618L127.049 287.834C127.134 286.162 127.778 284.589 128.85 283.432C129.921 282.274 131.342 281.619 132.824 281.598H165.392C166.106 281.594 166.813 281.756 167.471 282.072C168.128 282.388 168.721 282.852 169.214 283.436C169.707 284.019 170.09 284.71 170.338 285.467C170.587 286.223 170.696 287.029 170.66 287.834L169.251 324.618C169.163 326.288 168.518 327.859 167.447 329.016C166.376 330.173 164.958 330.829 163.476 330.854Z"
          fill="#FAFAFA"/>
    <path opacity="0.8"
          d="M213.186 330.854H180.619C179.904 330.86 179.196 330.7 178.538 330.385C177.879 330.07 177.285 329.606 176.792 329.022C176.298 328.437 175.916 327.745 175.668 326.988C175.42 326.231 175.312 325.424 175.351 324.618L176.759 287.834C176.845 286.162 177.488 284.589 178.56 283.432C179.632 282.275 181.052 281.619 182.535 281.598H215.144C215.859 281.595 216.567 281.756 217.225 282.072C217.883 282.388 218.477 282.851 218.971 283.435C219.466 284.018 219.849 284.709 220.1 285.466C220.35 286.222 220.461 287.028 220.427 287.834L218.948 324.618C218.866 326.288 218.225 327.861 217.156 329.019C216.086 330.177 214.668 330.833 213.186 330.854V330.854Z"
          fill="#FAFAFA"/>
    <path opacity="0.8"
          d="M262.883 330.854H230.329C229.614 330.857 228.906 330.696 228.248 330.38C227.59 330.065 226.996 329.601 226.502 329.017C226.008 328.434 225.624 327.743 225.374 326.987C225.124 326.23 225.012 325.424 225.047 324.618L226.456 287.834C226.541 286.162 227.184 284.589 228.256 283.432C229.328 282.275 230.748 281.619 232.231 281.598H264.784C265.499 281.592 266.207 281.752 266.865 282.067C267.524 282.382 268.118 282.846 268.611 283.431C269.105 284.015 269.487 284.707 269.735 285.464C269.983 286.221 270.091 287.028 270.052 287.834L268.644 324.618C268.559 326.287 267.917 327.858 266.848 329.015C265.78 330.172 264.363 330.829 262.883 330.854V330.854Z"
          fill="#FAFAFA"/>
    <path opacity="0.8"
          d="M312.593 330.854H280.082C279.366 330.86 278.657 330.7 277.998 330.385C277.34 330.07 276.745 329.606 276.25 329.022C275.755 328.438 275.372 327.747 275.122 326.989C274.873 326.232 274.763 325.425 274.799 324.618L276.208 287.834C276.29 286.164 276.93 284.591 278 283.433C279.069 282.275 280.488 281.619 281.969 281.598H314.537C315.251 281.595 315.958 281.756 316.615 282.072C317.273 282.388 317.866 282.852 318.359 283.436C318.852 284.019 319.235 284.71 319.483 285.467C319.732 286.223 319.841 287.029 319.805 287.834L318.396 324.618C318.31 326.295 317.663 327.873 316.585 329.031C315.508 330.189 314.08 330.841 312.593 330.854V330.854Z"
          fill="#FAFAFA"/>
    <path opacity="0.8"
          d="M362.303 330.854H329.736C329.021 330.858 328.314 330.696 327.657 330.38C327 330.064 326.406 329.6 325.913 329.017C325.42 328.433 325.038 327.742 324.789 326.985C324.541 326.229 324.431 325.423 324.468 324.618L325.876 287.834C325.962 286.162 326.605 284.589 327.677 283.432C328.748 282.275 330.169 281.619 331.651 281.598H364.205C364.92 281.592 365.629 281.752 366.288 282.067C366.947 282.382 367.542 282.846 368.036 283.43C368.531 284.014 368.915 284.706 369.164 285.463C369.414 286.22 369.524 287.027 369.487 287.834L368.078 324.618C367.99 326.288 367.345 327.859 366.274 329.016C365.203 330.173 363.785 330.829 362.303 330.854Z"
          fill="#FAFAFA"/>
    <path opacity="0.8"
          d="M411.999 330.854H379.446C378.731 330.86 378.023 330.7 377.365 330.385C376.707 330.07 376.112 329.606 375.619 329.022C375.125 328.437 374.743 327.745 374.495 326.988C374.247 326.231 374.139 325.424 374.178 324.618L375.586 287.834C375.672 286.162 376.315 284.589 377.387 283.432C378.459 282.275 379.879 281.619 381.362 281.598H413.915C414.63 281.595 415.338 281.756 415.996 282.072C416.654 282.388 417.248 282.851 417.742 283.435C418.236 284.018 418.62 284.709 418.87 285.466C419.121 286.222 419.232 287.028 419.197 287.834L417.718 324.618C417.637 326.28 417.002 327.847 415.942 329.003C414.881 330.16 413.473 330.821 411.999 330.854Z"
          fill="#FAFAFA"/>
  </g>
  <path
    d="M161.194 387.923H128.627C127.912 387.926 127.205 387.765 126.548 387.449C125.891 387.133 125.297 386.669 124.804 386.085C124.311 385.501 123.929 384.81 123.68 384.054C123.431 383.298 123.322 382.492 123.358 381.686L124.767 344.903C124.856 343.232 125.5 341.661 126.571 340.504C127.642 339.348 129.061 338.691 130.542 338.666H163.166C163.88 338.663 164.588 338.824 165.245 339.14C165.902 339.456 166.495 339.92 166.989 340.504C167.482 341.088 167.864 341.779 168.113 342.535C168.361 343.291 168.471 344.097 168.434 344.903L167.026 381.686C166.936 383.368 166.284 384.948 165.201 386.106C164.118 387.264 162.685 387.914 161.194 387.923V387.923Z"
    fill="#569AFF"/>
  <path
    d="M210.905 387.923H178.337C177.623 387.926 176.916 387.765 176.258 387.449C175.601 387.133 175.008 386.669 174.515 386.085C174.022 385.501 173.639 384.81 173.391 384.054C173.142 383.298 173.033 382.492 173.069 381.686L174.478 344.903C174.563 343.231 175.206 341.658 176.278 340.5C177.35 339.343 178.77 338.688 180.253 338.666H212.806C213.527 338.661 214.242 338.822 214.905 339.141C215.569 339.459 216.167 339.929 216.664 340.519C217.161 341.11 217.544 341.809 217.792 342.574C218.039 343.339 218.145 344.154 218.103 344.967L216.694 381.686C216.612 383.362 215.967 384.94 214.892 386.098C213.816 387.257 212.391 387.909 210.905 387.923V387.923Z"
    fill="#569AFF"/>
  <path
    d="M260.601 387.923H228.047C227.333 387.928 226.624 387.769 225.966 387.453C225.308 387.138 224.714 386.674 224.22 386.09C223.727 385.506 223.344 384.814 223.097 384.057C222.849 383.299 222.741 382.493 222.779 381.686L224.188 344.903C224.273 343.231 224.917 341.658 225.988 340.5C227.06 339.343 228.481 338.688 229.963 338.666H262.516C263.231 338.661 263.94 338.82 264.598 339.136C265.256 339.451 265.85 339.915 266.344 340.499C266.837 341.083 267.219 341.775 267.467 342.533C267.715 343.29 267.823 344.097 267.785 344.903L266.376 381.686C266.291 383.358 265.647 384.931 264.575 386.089C263.504 387.246 262.083 387.902 260.601 387.923V387.923Z"
    fill="#569AFF"/>
  <path
    d="M310.311 387.923H277.758C277.043 387.926 276.335 387.764 275.677 387.449C275.019 387.133 274.425 386.669 273.931 386.086C273.437 385.502 273.053 384.811 272.803 384.055C272.552 383.298 272.441 382.492 272.476 381.686L273.884 344.903C273.966 343.232 274.607 341.659 275.676 340.501C276.746 339.343 278.164 338.688 279.645 338.666H312.213C312.938 338.651 313.658 338.806 314.328 339.121C314.997 339.436 315.602 339.904 316.103 340.496C316.605 341.088 316.992 341.791 317.242 342.56C317.491 343.329 317.596 344.149 317.552 344.966L316.143 381.75C316.043 383.421 315.386 384.988 314.303 386.133C313.221 387.279 311.794 387.918 310.311 387.923V387.923Z"
    fill="#569AFF"/>
  <path
    d="M360.021 387.923H327.454C326.74 387.926 326.032 387.765 325.375 387.449C324.718 387.133 324.125 386.669 323.632 386.085C323.139 385.501 322.756 384.81 322.507 384.054C322.259 383.297 322.149 382.492 322.186 381.686L323.594 344.903C323.669 343.218 324.31 341.629 325.385 340.459C326.461 339.288 327.891 338.625 329.384 338.602H361.951C362.665 338.599 363.373 338.761 364.03 339.077C364.687 339.393 365.281 339.857 365.774 340.44C366.267 341.024 366.649 341.715 366.898 342.471C367.146 343.228 367.256 344.033 367.219 344.839L365.811 381.622C365.736 383.307 365.095 384.896 364.02 386.067C362.944 387.237 361.515 387.901 360.021 387.923Z"
    fill="#569AFF"/>
  <path
    d="M409.675 387.923H377.164C376.449 387.928 375.741 387.769 375.083 387.453C374.425 387.138 373.831 386.674 373.337 386.09C372.844 385.506 372.461 384.814 372.213 384.056C371.966 383.299 371.858 382.492 371.896 381.686L373.305 344.903C373.39 343.231 374.034 341.658 375.105 340.5C376.177 339.343 377.597 338.688 379.08 338.666H411.633C412.348 338.663 413.056 338.824 413.714 339.14C414.372 339.456 414.966 339.92 415.46 340.503C415.955 341.087 416.338 341.778 416.589 342.534C416.839 343.29 416.95 344.096 416.916 344.903L415.437 381.686C415.355 383.357 414.714 384.93 413.645 386.088C412.575 387.245 411.157 387.901 409.675 387.923V387.923Z"
    fill="#569AFF"/>
  <g opacity="0.8">
    <path opacity="0.8"
          d="M161.194 387.923H128.627C127.912 387.926 127.205 387.765 126.548 387.449C125.891 387.133 125.297 386.669 124.804 386.085C124.311 385.501 123.929 384.81 123.68 384.054C123.431 383.297 123.322 382.492 123.358 381.686L124.767 344.903C124.856 343.232 125.5 341.661 126.571 340.504C127.642 339.348 129.061 338.691 130.542 338.666H163.166C163.88 338.663 164.588 338.824 165.245 339.14C165.902 339.456 166.495 339.92 166.989 340.504C167.482 341.088 167.864 341.779 168.113 342.535C168.361 343.291 168.471 344.097 168.434 344.903L167.026 381.686C166.936 383.368 166.284 384.948 165.201 386.106C164.118 387.264 162.685 387.914 161.194 387.923V387.923Z"
          fill="#FAFAFA"/>
    <path opacity="0.8"
          d="M210.904 387.923H178.337C177.623 387.926 176.915 387.765 176.258 387.449C175.601 387.133 175.008 386.669 174.515 386.085C174.022 385.501 173.639 384.81 173.39 384.054C173.142 383.297 173.032 382.492 173.069 381.686L174.477 344.903C174.563 343.231 175.206 341.657 176.278 340.5C177.35 339.343 178.77 338.687 180.253 338.666H212.806C213.527 338.66 214.242 338.822 214.905 339.14C215.569 339.459 216.167 339.928 216.664 340.519C217.16 341.11 217.544 341.809 217.792 342.574C218.039 343.339 218.145 344.153 218.103 344.966L216.694 381.686C216.612 383.362 215.967 384.94 214.892 386.098C213.816 387.257 212.391 387.909 210.904 387.923V387.923Z"
          fill="#FAFAFA"/>
    <path opacity="0.8"
          d="M260.601 387.923H228.047C227.332 387.928 226.624 387.768 225.966 387.453C225.308 387.138 224.714 386.674 224.22 386.09C223.727 385.506 223.344 384.814 223.096 384.056C222.849 383.299 222.741 382.492 222.779 381.686L224.188 344.903C224.273 343.231 224.917 341.657 225.988 340.5C227.06 339.343 228.48 338.687 229.963 338.666H262.516C263.231 338.66 263.94 338.82 264.598 339.135C265.256 339.451 265.85 339.915 266.343 340.499C266.837 341.083 267.219 341.775 267.467 342.532C267.715 343.29 267.823 344.096 267.785 344.903L266.376 381.686C266.291 383.358 265.647 384.931 264.575 386.089C263.504 387.246 262.083 387.901 260.601 387.923V387.923Z"
          fill="#FAFAFA"/>
    <path opacity="0.8"
          d="M310.311 387.923H277.758C277.043 387.926 276.335 387.764 275.677 387.449C275.019 387.133 274.425 386.669 273.931 386.086C273.436 385.502 273.052 384.811 272.802 384.055C272.552 383.298 272.441 382.492 272.475 381.686L273.884 344.903C273.966 343.232 274.606 341.659 275.676 340.501C276.745 339.343 278.164 338.688 279.645 338.666H312.212C312.938 338.651 313.658 338.806 314.327 339.121C314.997 339.436 315.601 339.904 316.103 340.496C316.604 341.088 316.992 341.791 317.241 342.56C317.49 343.329 317.596 344.149 317.551 344.966L316.143 381.75C316.043 383.421 315.385 384.988 314.303 386.133C313.221 387.279 311.794 387.918 310.311 387.923V387.923Z"
          fill="#FAFAFA"/>
    <path opacity="0.8"
          d="M360.021 387.923H327.454C326.74 387.926 326.032 387.765 325.375 387.449C324.718 387.133 324.125 386.669 323.632 386.085C323.139 385.501 322.756 384.81 322.507 384.054C322.259 383.297 322.149 382.492 322.186 381.686L323.594 344.903C323.669 343.218 324.31 341.629 325.385 340.459C326.461 339.288 327.891 338.624 329.384 338.602H361.951C362.665 338.599 363.373 338.76 364.03 339.076C364.687 339.392 365.281 339.856 365.774 340.44C366.267 341.024 366.649 341.715 366.898 342.471C367.146 343.228 367.256 344.033 367.219 344.839L365.811 381.622C365.736 383.307 365.095 384.896 364.02 386.066C362.944 387.237 361.515 387.901 360.021 387.923Z"
          fill="#FAFAFA"/>
    <path opacity="0.8"
          d="M409.675 387.923H377.164C376.449 387.928 375.741 387.768 375.083 387.453C374.425 387.138 373.831 386.674 373.337 386.09C372.844 385.506 372.461 384.814 372.213 384.056C371.966 383.299 371.858 382.492 371.896 381.686L373.305 344.903C373.39 343.231 374.034 341.657 375.105 340.5C376.177 339.343 377.597 338.687 379.08 338.666H411.633C412.348 338.663 413.056 338.824 413.714 339.14C414.372 339.456 414.966 339.92 415.46 340.503C415.955 341.086 416.338 341.777 416.589 342.534C416.839 343.29 416.95 344.096 416.916 344.903L415.437 381.686C415.355 383.357 414.714 384.93 413.645 386.087C412.575 387.245 411.157 387.901 409.675 387.923V387.923Z"
          fill="#FAFAFA"/>
  </g>
  <path
    d="M158.94 444.975H126.345C125.63 444.981 124.922 444.821 124.263 444.506C123.605 444.191 123.011 443.727 122.518 443.142C122.024 442.558 121.642 441.866 121.394 441.109C121.146 440.351 121.038 439.545 121.077 438.739L122.485 401.971C122.571 400.299 123.214 398.726 124.286 397.569C125.358 396.411 126.778 395.756 128.261 395.735H160.828C161.543 395.729 162.251 395.889 162.909 396.204C163.567 396.519 164.162 396.983 164.655 397.567C165.148 398.152 165.531 398.844 165.779 399.601C166.027 400.358 166.135 401.165 166.096 401.971L164.688 438.739C164.606 440.406 163.967 441.977 162.901 443.135C161.834 444.292 160.419 444.95 158.94 444.975V444.975Z"
    fill="#569AFF"/>
  <path
    d="M208.623 444.975H176.055C175.34 444.98 174.632 444.821 173.974 444.505C173.316 444.19 172.722 443.726 172.228 443.142C171.735 442.558 171.352 441.866 171.104 441.108C170.856 440.351 170.748 439.545 170.787 438.738L172.196 401.971C172.278 400.298 172.92 398.722 173.993 397.564C175.065 396.406 176.487 395.752 177.971 395.734H210.524C211.24 395.726 211.95 395.885 212.61 396.199C213.27 396.513 213.866 396.977 214.361 397.561C214.856 398.146 215.239 398.838 215.488 399.597C215.737 400.355 215.845 401.163 215.806 401.971L214.398 438.738C214.319 440.413 213.678 441.99 212.604 443.149C211.531 444.308 210.107 444.961 208.623 444.975V444.975Z"
    fill="#569AFF"/>
  <path
    d="M258.319 444.975H225.766C225.051 444.981 224.342 444.821 223.684 444.506C223.026 444.191 222.432 443.727 221.939 443.142C221.445 442.558 221.063 441.866 220.815 441.109C220.567 440.351 220.459 439.545 220.497 438.739L221.906 401.971C221.988 400.298 222.631 398.723 223.703 397.564C224.775 396.406 226.198 395.752 227.681 395.735H260.361C261.077 395.729 261.786 395.889 262.445 396.204C263.103 396.519 263.698 396.983 264.193 397.567C264.688 398.15 265.071 398.842 265.321 399.6C265.57 400.357 265.68 401.164 265.644 401.971L264.165 438.739C264.082 440.426 263.429 442.012 262.342 443.173C261.255 444.333 259.815 444.978 258.319 444.975V444.975Z"
    fill="#569AFF"/>
  <path
    d="M308.029 444.975H275.476C274.76 444.981 274.051 444.821 273.392 444.506C272.734 444.191 272.139 443.727 271.644 443.143C271.149 442.559 270.766 441.867 270.516 441.11C270.267 440.353 270.157 439.546 270.193 438.739L271.602 401.971C271.681 400.299 272.32 398.724 273.39 397.566C274.46 396.407 275.881 395.752 277.363 395.735H309.931C310.645 395.729 311.354 395.889 312.012 396.204C312.67 396.519 313.264 396.983 313.758 397.567C314.251 398.152 314.634 398.844 314.881 399.601C315.129 400.358 315.237 401.165 315.199 401.971L313.79 438.739C313.708 440.409 313.068 441.982 311.998 443.14C310.929 444.298 309.51 444.954 308.029 444.975V444.975Z"
    fill="#569AFF"/>
  <path
    d="M357.739 444.975H325.158C324.443 444.981 323.735 444.821 323.077 444.506C322.419 444.191 321.824 443.727 321.331 443.142C320.837 442.558 320.455 441.866 320.207 441.109C319.959 440.351 319.851 439.545 319.89 438.739L321.298 401.971C321.384 400.299 322.027 398.726 323.099 397.569C324.171 396.411 325.591 395.756 327.074 395.735H359.641C360.356 395.729 361.064 395.889 361.722 396.204C362.381 396.519 362.975 396.983 363.468 397.567C363.962 398.152 364.344 398.844 364.592 399.601C364.84 400.358 364.948 401.165 364.909 401.971L363.501 438.739C363.416 440.408 362.774 441.979 361.705 443.136C360.637 444.293 359.22 444.95 357.739 444.975V444.975Z"
    fill="#569AFF"/>
  <path
    d="M407.45 444.975H374.882C374.168 444.981 373.459 444.821 372.801 444.506C372.143 444.191 371.549 443.727 371.055 443.142C370.562 442.558 370.179 441.866 369.932 441.109C369.684 440.351 369.576 439.545 369.614 438.739L371.023 401.971C371.105 400.298 371.747 398.723 372.82 397.564C373.892 396.406 375.314 395.752 376.798 395.735H409.351C410.067 395.729 410.776 395.889 411.435 396.204C412.094 396.519 412.689 396.983 413.183 397.567C413.678 398.15 414.061 398.842 414.311 399.6C414.56 400.357 414.67 401.164 414.634 401.971L413.155 438.739C413.077 440.4 412.445 441.966 411.387 443.123C410.329 444.28 408.922 444.941 407.45 444.975V444.975Z"
    fill="#569AFF"/>
  <g opacity="0.8">
    <path opacity="0.8"
          d="M158.94 444.975H126.345C125.63 444.98 124.922 444.821 124.263 444.505C123.605 444.19 123.011 443.726 122.518 443.142C122.024 442.558 121.642 441.866 121.394 441.108C121.146 440.351 121.038 439.545 121.077 438.738L122.485 401.971C122.571 400.299 123.214 398.726 124.286 397.568C125.358 396.411 126.778 395.756 128.261 395.734H160.828C161.543 395.729 162.251 395.888 162.909 396.204C163.567 396.519 164.162 396.983 164.655 397.567C165.148 398.151 165.531 398.843 165.779 399.601C166.027 400.358 166.135 401.164 166.096 401.971L164.688 438.738C164.606 440.406 163.967 441.977 162.901 443.134C161.834 444.292 160.419 444.949 158.94 444.975V444.975Z"
          fill="#FAFAFA"/>
    <path opacity="0.8"
          d="M208.622 444.975H176.055C175.34 444.98 174.632 444.821 173.974 444.505C173.316 444.19 172.721 443.726 172.228 443.142C171.734 442.558 171.352 441.866 171.104 441.108C170.856 440.351 170.748 439.545 170.787 438.738L172.195 401.971C172.278 400.298 172.92 398.722 173.992 397.564C175.065 396.406 176.487 395.752 177.971 395.734H210.524C211.24 395.726 211.95 395.885 212.61 396.199C213.27 396.513 213.865 396.977 214.36 397.561C214.855 398.146 215.239 398.838 215.488 399.597C215.736 400.355 215.845 401.163 215.806 401.971L214.398 438.738C214.319 440.413 213.678 441.99 212.604 443.149C211.531 444.308 210.107 444.961 208.622 444.975V444.975Z"
          fill="#FAFAFA"/>
    <path opacity="0.8"
          d="M258.319 444.975H225.765C225.051 444.981 224.342 444.821 223.684 444.506C223.026 444.19 222.432 443.726 221.938 443.142C221.445 442.558 221.062 441.866 220.815 441.109C220.567 440.351 220.459 439.545 220.497 438.738L221.906 401.971C221.988 400.298 222.63 398.722 223.703 397.564C224.775 396.406 226.198 395.752 227.681 395.734H260.361C261.077 395.729 261.786 395.889 262.444 396.204C263.103 396.519 263.698 396.982 264.193 397.566C264.688 398.15 265.071 398.842 265.321 399.6C265.57 400.357 265.68 401.164 265.644 401.971L264.165 438.738C264.082 440.425 263.429 442.012 262.342 443.172C261.254 444.332 259.815 444.978 258.319 444.975V444.975Z"
          fill="#FAFAFA"/>
    <path opacity="0.8"
          d="M308.029 444.975H275.476C274.76 444.98 274.051 444.821 273.392 444.506C272.734 444.191 272.139 443.727 271.644 443.143C271.149 442.559 270.766 441.867 270.516 441.11C270.267 440.352 270.157 439.545 270.193 438.738L271.602 401.971C271.681 400.299 272.32 398.724 273.39 397.565C274.46 396.407 275.881 395.752 277.363 395.734H309.931C310.645 395.729 311.354 395.889 312.012 396.204C312.67 396.519 313.264 396.983 313.758 397.567C314.251 398.151 314.634 398.843 314.881 399.601C315.129 400.358 315.237 401.165 315.199 401.971L313.79 438.738C313.708 440.409 313.068 441.982 311.998 443.14C310.929 444.297 309.51 444.953 308.029 444.975V444.975Z"
          fill="#FAFAFA"/>
    <path opacity="0.8"
          d="M357.739 444.975H325.158C324.443 444.981 323.735 444.821 323.077 444.506C322.418 444.19 321.824 443.726 321.331 443.142C320.837 442.558 320.455 441.866 320.207 441.109C319.959 440.351 319.851 439.545 319.89 438.738L321.298 401.971C321.384 400.299 322.027 398.726 323.099 397.568C324.171 396.411 325.591 395.756 327.074 395.734H359.641C360.356 395.729 361.064 395.889 361.722 396.204C362.38 396.519 362.975 396.983 363.468 397.567C363.962 398.151 364.344 398.843 364.592 399.601C364.84 400.358 364.948 401.165 364.909 401.971L363.501 438.738C363.415 440.408 362.774 441.979 361.705 443.136C360.636 444.292 359.22 444.95 357.739 444.975V444.975Z"
          fill="#FAFAFA"/>
    <path opacity="0.8"
          d="M407.45 444.975H374.882C374.167 444.981 373.459 444.821 372.801 444.506C372.143 444.19 371.549 443.726 371.055 443.142C370.562 442.558 370.179 441.866 369.931 441.109C369.684 440.351 369.576 439.545 369.614 438.738L371.023 401.971C371.105 400.298 371.747 398.722 372.82 397.564C373.892 396.406 375.314 395.752 376.798 395.734H409.351C410.067 395.729 410.776 395.889 411.435 396.204C412.093 396.519 412.688 396.982 413.183 397.566C413.678 398.15 414.061 398.842 414.311 399.6C414.56 400.357 414.67 401.164 414.634 401.971L413.155 438.738C413.077 440.399 412.445 441.966 411.387 443.123C410.329 444.279 408.922 444.941 407.45 444.975V444.975Z"
          fill="#FAFAFA"/>
  </g>
  <path
    d="M149.714 251.799C137.712 251.799 128.303 236.032 128.303 215.906C128.303 195.78 137.712 180.03 149.714 180.03C161.715 180.03 171.139 195.796 171.139 215.906C171.084 216.849 170.714 217.734 170.103 218.38C169.492 219.026 168.687 219.386 167.85 219.386C167.013 219.386 166.207 219.026 165.597 218.38C164.986 217.734 164.615 216.849 164.561 215.906C164.561 200.49 157.771 187.444 149.714 187.444C141.656 187.444 134.867 200.49 134.867 215.906C134.867 231.323 141.671 244.369 149.714 244.369C150.164 244.336 150.615 244.407 151.04 244.579C151.464 244.75 151.853 245.018 152.182 245.367C152.512 245.715 152.774 246.136 152.953 246.603C153.133 247.07 153.225 247.574 153.225 248.084C153.225 248.593 153.133 249.097 152.953 249.564C152.774 250.032 152.512 250.453 152.182 250.801C151.853 251.149 151.464 251.417 151.04 251.589C150.615 251.761 150.164 251.832 149.714 251.799V251.799Z"
    fill="#569AFF"/>
  <path
    d="M199.424 251.799C187.423 251.799 178.013 236.032 178.013 215.906C178.013 195.78 187.423 180.03 199.424 180.03C211.426 180.03 220.92 195.796 220.92 215.906C220.865 216.849 220.495 217.734 219.884 218.38C219.273 219.026 218.468 219.386 217.631 219.386C216.794 219.386 215.988 219.026 215.377 218.38C214.767 217.734 214.396 216.849 214.342 215.906C214.342 200.49 207.552 187.444 199.495 187.444C191.437 187.444 184.648 200.49 184.648 215.906C184.648 231.323 191.451 244.369 199.495 244.369C200.33 244.431 201.113 244.849 201.685 245.539C202.257 246.229 202.576 247.139 202.576 248.084C202.576 249.029 202.257 249.939 201.685 250.629C201.113 251.319 200.33 251.737 199.495 251.799H199.424Z"
    fill="#569AFF"/>
  <path
    d="M249.092 251.799C237.077 251.799 227.667 236.032 227.667 215.906C227.667 195.78 237.077 180.03 249.092 180.03C261.108 180.03 270.504 195.796 270.504 215.906C270.504 216.889 270.158 217.832 269.542 218.527C268.927 219.223 268.092 219.613 267.221 219.613C266.351 219.613 265.516 219.223 264.901 218.527C264.285 217.832 263.939 216.889 263.939 215.906C263.939 200.49 257.136 187.444 249.092 187.444C241.049 187.444 234.246 200.49 234.246 215.906C234.246 231.323 241.049 244.369 249.092 244.369C249.928 244.431 250.711 244.849 251.283 245.539C251.855 246.229 252.173 247.139 252.173 248.084C252.173 249.029 251.855 249.939 251.283 250.629C250.711 251.319 249.928 251.737 249.092 251.799V251.799Z"
    fill="#569AFF"/>
  <path
    d="M298.845 251.799C286.829 251.799 277.42 236.032 277.42 215.906C277.42 195.78 286.829 180.03 298.845 180.03C310.86 180.03 320.256 195.796 320.256 215.906C320.256 216.889 319.91 217.832 319.295 218.527C318.679 219.223 317.844 219.613 316.974 219.613C316.103 219.613 315.268 219.223 314.653 218.527C314.037 217.832 313.692 216.889 313.692 215.906C313.692 200.49 306.888 187.444 298.845 187.444C290.802 187.444 283.998 200.49 283.998 215.906C283.998 231.323 290.787 244.369 298.845 244.369C299.68 244.431 300.463 244.849 301.035 245.539C301.607 246.229 301.926 247.139 301.926 248.084C301.926 249.029 301.607 249.939 301.035 250.629C300.463 251.319 299.68 251.737 298.845 251.799V251.799Z"
    fill="#569AFF"/>
  <path
    d="M348.541 251.799C336.54 251.799 327.13 236.032 327.13 215.906C327.13 195.78 336.54 180.03 348.541 180.03C360.543 180.03 369.966 195.796 369.966 215.906C369.912 216.849 369.541 217.734 368.93 218.38C368.32 219.026 367.514 219.386 366.677 219.386C365.84 219.386 365.035 219.026 364.424 218.38C363.813 217.734 363.443 216.849 363.388 215.906C363.388 200.49 356.598 187.444 348.541 187.444C340.484 187.444 333.694 200.49 333.694 215.906C333.694 231.323 340.498 244.369 348.541 244.369C348.991 244.336 349.442 244.407 349.867 244.579C350.292 244.75 350.681 245.018 351.01 245.367C351.339 245.715 351.601 246.136 351.781 246.603C351.96 247.07 352.053 247.574 352.053 248.084C352.053 248.593 351.96 249.097 351.781 249.564C351.601 250.032 351.339 250.453 351.01 250.801C350.681 251.149 350.292 251.417 349.867 251.589C349.442 251.761 348.991 251.832 348.541 251.799V251.799Z"
    fill="#569AFF"/>
  <path
    d="M398.251 251.799C386.25 251.799 376.84 236.032 376.84 215.906C376.84 195.78 386.25 180.03 398.251 180.03C410.253 180.03 419.677 195.796 419.677 215.906C419.622 216.849 419.252 217.734 418.641 218.38C418.03 219.026 417.224 219.386 416.387 219.386C415.551 219.386 414.745 219.026 414.134 218.38C413.523 217.734 413.153 216.849 413.098 215.906C413.098 200.49 406.295 187.444 398.251 187.444C390.208 187.444 383.405 200.49 383.405 215.906C383.405 231.323 390.208 244.369 398.251 244.369C399.087 244.431 399.87 244.849 400.442 245.539C401.014 246.229 401.332 247.139 401.332 248.084C401.332 249.029 401.014 249.939 400.442 250.629C399.87 251.319 399.087 251.737 398.251 251.799V251.799Z"
    fill="#569AFF"/>
  <g opacity="0.3">
    <path opacity="0.3"
          d="M149.714 251.799C137.712 251.799 128.303 236.032 128.303 215.906C128.303 195.78 137.712 180.03 149.714 180.03C161.715 180.03 171.139 195.796 171.139 215.906C171.084 216.849 170.714 217.734 170.103 218.38C169.492 219.026 168.687 219.386 167.85 219.386C167.013 219.386 166.207 219.026 165.597 218.38C164.986 217.734 164.615 216.849 164.561 215.906C164.561 200.49 157.771 187.444 149.714 187.444C141.656 187.444 134.867 200.49 134.867 215.906C134.867 231.323 141.671 244.369 149.714 244.369C150.164 244.336 150.615 244.407 151.04 244.579C151.464 244.75 151.853 245.018 152.182 245.367C152.512 245.715 152.774 246.136 152.953 246.603C153.133 247.07 153.225 247.574 153.225 248.084C153.225 248.593 153.133 249.097 152.953 249.564C152.774 250.032 152.512 250.453 152.182 250.801C151.853 251.149 151.464 251.417 151.04 251.589C150.615 251.761 150.164 251.832 149.714 251.799V251.799Z"
          fill="black"/>
    <path opacity="0.3"
          d="M199.424 251.799C187.423 251.799 178.013 236.032 178.013 215.906C178.013 195.78 187.423 180.03 199.424 180.03C211.426 180.03 220.92 195.796 220.92 215.906C220.865 216.849 220.495 217.734 219.884 218.38C219.273 219.026 218.468 219.386 217.631 219.386C216.794 219.386 215.988 219.026 215.377 218.38C214.766 217.734 214.396 216.849 214.341 215.906C214.341 200.49 207.552 187.444 199.495 187.444C191.437 187.444 184.648 200.49 184.648 215.906C184.648 231.323 191.451 244.369 199.495 244.369C200.33 244.431 201.113 244.849 201.685 245.539C202.257 246.229 202.575 247.139 202.575 248.084C202.575 249.029 202.257 249.939 201.685 250.629C201.113 251.319 200.33 251.737 199.495 251.799H199.424Z"
          fill="black"/>
    <path opacity="0.3"
          d="M249.092 251.799C237.077 251.799 227.667 236.032 227.667 215.906C227.667 195.78 237.077 180.03 249.092 180.03C261.108 180.03 270.503 195.796 270.503 215.906C270.503 216.889 270.158 217.832 269.542 218.527C268.927 219.223 268.092 219.613 267.221 219.613C266.351 219.613 265.516 219.223 264.9 218.527C264.285 217.832 263.939 216.889 263.939 215.906C263.939 200.49 257.136 187.444 249.092 187.444C241.049 187.444 234.245 200.49 234.245 215.906C234.245 231.323 241.049 244.369 249.092 244.369C249.927 244.431 250.71 244.849 251.283 245.539C251.855 246.229 252.173 247.139 252.173 248.084C252.173 249.029 251.855 249.939 251.283 250.629C250.71 251.319 249.927 251.737 249.092 251.799V251.799Z"
          fill="black"/>
    <path opacity="0.3"
          d="M298.845 251.799C286.829 251.799 277.42 236.032 277.42 215.906C277.42 195.78 286.829 180.03 298.845 180.03C310.86 180.03 320.256 195.796 320.256 215.906C320.256 216.889 319.91 217.832 319.295 218.527C318.679 219.223 317.844 219.613 316.974 219.613C316.103 219.613 315.268 219.223 314.653 218.527C314.037 217.832 313.692 216.889 313.692 215.906C313.692 200.49 306.888 187.444 298.845 187.444C290.802 187.444 283.998 200.49 283.998 215.906C283.998 231.323 290.787 244.369 298.845 244.369C299.68 244.431 300.463 244.849 301.035 245.539C301.607 246.229 301.926 247.139 301.926 248.084C301.926 249.029 301.607 249.939 301.035 250.629C300.463 251.319 299.68 251.737 298.845 251.799V251.799Z"
          fill="black"/>
    <path opacity="0.3"
          d="M348.541 251.799C336.54 251.799 327.13 236.032 327.13 215.906C327.13 195.78 336.54 180.03 348.541 180.03C360.542 180.03 369.966 195.796 369.966 215.906C369.911 216.849 369.541 217.734 368.93 218.38C368.32 219.026 367.514 219.386 366.677 219.386C365.84 219.386 365.034 219.026 364.424 218.38C363.813 217.734 363.443 216.849 363.388 215.906C363.388 200.49 356.598 187.444 348.541 187.444C340.484 187.444 333.694 200.49 333.694 215.906C333.694 231.323 340.498 244.369 348.541 244.369C348.991 244.336 349.442 244.407 349.867 244.579C350.292 244.75 350.68 245.018 351.01 245.367C351.339 245.715 351.601 246.136 351.781 246.603C351.96 247.07 352.053 247.574 352.053 248.084C352.053 248.593 351.96 249.097 351.781 249.564C351.601 250.032 351.339 250.453 351.01 250.801C350.68 251.149 350.292 251.417 349.867 251.589C349.442 251.761 348.991 251.832 348.541 251.799V251.799Z"
          fill="black"/>
    <path opacity="0.3"
          d="M398.251 251.799C386.25 251.799 376.84 236.032 376.84 215.906C376.84 195.78 386.25 180.03 398.251 180.03C410.253 180.03 419.677 195.796 419.677 215.906C419.622 216.849 419.252 217.734 418.641 218.38C418.03 219.026 417.224 219.386 416.387 219.386C415.551 219.386 414.745 219.026 414.134 218.38C413.523 217.734 413.153 216.849 413.098 215.906C413.098 200.49 406.295 187.444 398.251 187.444C390.208 187.444 383.405 200.49 383.405 215.906C383.405 231.323 390.208 244.369 398.251 244.369C399.087 244.431 399.87 244.849 400.442 245.539C401.014 246.229 401.332 247.139 401.332 248.084C401.332 249.029 401.014 249.939 400.442 250.629C399.87 251.319 399.087 251.737 398.251 251.799V251.799Z"
          fill="black"/>
  </g>
  <path
    d="M302.169 332.907C290.675 330.329 277.772 333.336 273.166 347.019C269.461 358.028 274.208 369.961 284.435 372.872C293.45 375.434 309.001 372.299 312.213 360.558C315.889 347.13 300.944 342.771 292.562 341.975C290.041 341.737 290.055 346.191 292.562 346.43C296.38 346.796 300.747 347.035 304.127 349.405C311.17 354.385 308.269 362.372 302.268 366.19C296.267 370.008 287.069 370.963 281.139 366.731C274.659 362.069 274.448 351.823 278.321 345.141C283.406 336.311 292.689 335.325 301.056 337.186C303.536 337.743 304.592 333.448 302.099 332.891L302.169 332.907Z"
    fill="#569AFF"/>
  <path opacity="0.1"
        d="M302.169 332.907C290.675 330.329 277.772 333.336 273.166 347.019C269.461 358.028 274.208 369.961 284.435 372.872C293.45 375.434 309.001 372.299 312.213 360.558C315.889 347.13 300.944 342.771 292.562 341.975C290.041 341.737 290.055 346.191 292.562 346.43C296.38 346.796 300.747 347.035 304.127 349.405C311.17 354.385 308.269 362.372 302.268 366.19C296.267 370.008 287.069 370.963 281.139 366.731C274.659 362.069 274.448 351.823 278.321 345.141C283.406 336.311 292.689 335.325 301.056 337.186C303.536 337.743 304.592 333.448 302.099 332.891L302.169 332.907Z"
        fill="#FAFAFA"/>
  <path
    d="M175.351 281.661C186.343 298.12 198.599 313.453 211.975 327.481C213.835 329.438 216.638 326.288 214.792 324.299C201.645 310.548 189.593 295.519 178.774 279.386C177.267 277.127 173.844 279.386 175.379 281.629L175.351 281.661Z"
    fill="#569AFF"/>
  <path
    d="M179.422 325.62C187.732 308.931 202.284 294.691 216.046 283.793C218.102 282.202 216.144 278.288 214.06 279.943C199.748 291.303 184.704 305.971 176.027 323.361C175.789 323.868 175.733 324.458 175.871 325.01C176.009 325.562 176.33 326.033 176.768 326.324C177.205 326.615 177.725 326.705 178.22 326.573C178.714 326.442 179.145 326.101 179.422 325.62V325.62Z"
    fill="#569AFF"/>
  <g opacity="0.2">
    <path opacity="0.2"
          d="M175.351 281.661C186.343 298.12 198.599 313.453 211.975 327.481C213.835 329.438 216.638 326.288 214.792 324.299C201.645 310.548 189.593 295.519 178.774 279.386C177.267 277.127 173.844 279.386 175.379 281.629L175.351 281.661Z"
          fill="black"/>
    <path opacity="0.2"
          d="M179.422 325.62C187.733 308.931 202.284 294.691 216.046 283.793C218.103 282.202 216.145 278.288 214.06 279.943C199.748 291.303 184.704 305.971 176.027 323.361C175.789 323.868 175.733 324.458 175.871 325.01C176.009 325.562 176.33 326.033 176.768 326.324C177.205 326.615 177.726 326.705 178.22 326.573C178.714 326.442 179.145 326.101 179.422 325.62V325.62Z"
          fill="black"/>
  </g>
  <path
    d="M332.018 295.901H357.725C358.218 295.854 358.677 295.599 359.011 295.188C359.345 294.777 359.531 294.239 359.531 293.681C359.531 293.123 359.345 292.585 359.011 292.174C358.677 291.763 358.218 291.509 357.725 291.462H332.018C331.525 291.509 331.067 291.763 330.732 292.174C330.398 292.585 330.212 293.123 330.212 293.681C330.212 294.239 330.398 294.777 330.732 295.188C331.067 295.599 331.525 295.854 332.018 295.901Z"
    fill="#569AFF"/>
  <path
    d="M331.722 304.158H346.625C347.148 304.158 347.65 303.923 348.02 303.505C348.39 303.088 348.597 302.521 348.597 301.93C348.597 301.34 348.39 300.773 348.02 300.355C347.65 299.938 347.148 299.703 346.625 299.703H331.722C331.199 299.703 330.697 299.938 330.328 300.355C329.958 300.773 329.75 301.34 329.75 301.93C329.75 302.521 329.958 303.088 330.328 303.505C330.697 303.923 331.199 304.158 331.722 304.158V304.158Z"
    fill="#569AFF"/>
  <g opacity="0.1">
    <path opacity="0.1"
          d="M332.018 295.901H357.725C358.218 295.854 358.677 295.599 359.011 295.188C359.345 294.777 359.531 294.239 359.531 293.681C359.531 293.123 359.345 292.585 359.011 292.174C358.677 291.763 358.218 291.509 357.725 291.462H332.018C331.525 291.509 331.067 291.763 330.732 292.174C330.398 292.585 330.212 293.123 330.212 293.681C330.212 294.239 330.398 294.777 330.732 295.188C331.067 295.599 331.525 295.854 332.018 295.901Z"
          fill="#FAFAFA"/>
    <path opacity="0.1"
          d="M331.722 304.158H346.625C347.148 304.158 347.65 303.923 348.02 303.505C348.39 303.088 348.597 302.521 348.597 301.93C348.597 301.34 348.39 300.773 348.02 300.355C347.65 299.938 347.148 299.703 346.625 299.703H331.722C331.199 299.703 330.697 299.938 330.328 300.355C329.958 300.773 329.75 301.34 329.75 301.93C329.75 302.521 329.958 303.088 330.328 303.505C330.697 303.923 331.199 304.158 331.722 304.158V304.158Z"
          fill="#FAFAFA"/>
  </g>
  <path
    d="M178.041 409.878H200.086C200.609 409.878 201.111 409.644 201.481 409.226C201.851 408.808 202.058 408.242 202.058 407.651C202.058 407.06 201.851 406.494 201.481 406.076C201.111 405.658 200.609 405.424 200.086 405.424H178.041C177.518 405.424 177.017 405.658 176.647 406.076C176.277 406.494 176.069 407.06 176.069 407.651C176.069 408.242 176.277 408.808 176.647 409.226C177.017 409.644 177.518 409.878 178.041 409.878Z"
    fill="#569AFF"/>
  <path
    d="M177.253 419.44H205.848C206.371 419.44 206.872 419.205 207.242 418.788C207.612 418.37 207.82 417.803 207.82 417.213C207.82 416.622 207.612 416.055 207.242 415.638C206.872 415.22 206.371 414.985 205.848 414.985H177.253C176.73 414.985 176.228 415.22 175.858 415.638C175.488 416.055 175.281 416.622 175.281 417.213C175.281 417.803 175.488 418.37 175.858 418.788C176.228 419.205 176.73 419.44 177.253 419.44V419.44Z"
    fill="#569AFF"/>
  <path
    d="M177.253 429.288H191.55C192.073 429.288 192.575 429.054 192.945 428.636C193.314 428.218 193.522 427.652 193.522 427.061C193.522 426.47 193.314 425.904 192.945 425.486C192.575 425.068 192.073 424.833 191.55 424.833H177.253C176.73 424.833 176.228 425.068 175.858 425.486C175.488 425.904 175.281 426.47 175.281 427.061C175.281 427.652 175.488 428.218 175.858 428.636C176.228 429.054 176.73 429.288 177.253 429.288V429.288Z"
    fill="#569AFF"/>
  <g opacity="0.1">
    <path opacity="0.1"
          d="M178.041 409.878H200.086C200.609 409.878 201.111 409.644 201.48 409.226C201.85 408.808 202.058 408.242 202.058 407.651C202.058 407.06 201.85 406.494 201.48 406.076C201.111 405.658 200.609 405.424 200.086 405.424H178.041C177.518 405.424 177.016 405.658 176.647 406.076C176.277 406.494 176.069 407.06 176.069 407.651C176.069 408.242 176.277 408.808 176.647 409.226C177.016 409.644 177.518 409.878 178.041 409.878Z"
          fill="#FAFAFA"/>
    <path opacity="0.1"
          d="M177.253 419.44H205.848C206.371 419.44 206.872 419.205 207.242 418.788C207.612 418.37 207.82 417.803 207.82 417.213C207.82 416.622 207.612 416.055 207.242 415.638C206.872 415.22 206.371 414.985 205.848 414.985H177.253C176.73 414.985 176.228 415.22 175.858 415.638C175.488 416.055 175.281 416.622 175.281 417.213C175.281 417.803 175.488 418.37 175.858 418.788C176.228 419.205 176.73 419.44 177.253 419.44V419.44Z"
          fill="#FAFAFA"/>
    <path opacity="0.1"
          d="M177.253 429.288H191.55C192.073 429.288 192.575 429.054 192.945 428.636C193.314 428.218 193.522 427.652 193.522 427.061C193.522 426.47 193.314 425.904 192.945 425.486C192.575 425.068 192.073 424.834 191.55 424.834H177.253C176.73 424.834 176.228 425.068 175.858 425.486C175.488 425.904 175.281 426.47 175.281 427.061C175.281 427.652 175.488 428.218 175.858 428.636C176.228 429.054 176.73 429.288 177.253 429.288V429.288Z"
          fill="#FAFAFA"/>
  </g>
  <path
    d="M22.5716 188.677L29.2344 188.372L26.2199 201.419C23.8421 199.744 21.6751 197.772 19.7684 195.548C19.2186 194.883 18.9457 194.021 19.009 193.15C19.0723 192.279 19.4666 191.468 20.1065 190.895L22.5716 188.677Z"
    fill="#E4897B"/>
  <path d="M36.9677 195.403L33.9814 206.015L26.2198 201.39L29.2343 188.372L36.9677 195.403Z" fill="#E4897B"/>
  <path d="M35.6538 132.406L22.0203 133.705L53.2892 481.253L66.9227 479.954L35.6538 132.406Z" fill="#569AFF"/>
  <path opacity="0.3" d="M35.6538 132.406L22.0203 133.705L53.2892 481.253L66.9227 479.954L35.6538 132.406Z"
        fill="black"/>
  <path d="M62.927 129.801L49.2935 131.1L80.5624 478.647L94.1959 477.348L62.927 129.801Z" fill="#569AFF"/>
  <path opacity="0.3" d="M62.927 129.801L49.2935 131.1L80.5624 478.647L94.1959 477.348L62.927 129.801Z" fill="black"/>
  <path d="M49.2974 131.104L35.6639 132.403L66.9329 479.95L80.5664 478.651L49.2974 131.104Z" fill="#569AFF"/>
  <path opacity="0.1" d="M49.2974 131.104L35.6639 132.403L66.9329 479.95L80.5664 478.651L49.2974 131.104Z"
        fill="black"/>
  <path d="M46.4196 106.8L34.1505 107.974L22.0222 133.705L62.9286 129.806L46.4196 106.8Z" fill="#569AFF"/>
  <g opacity="0.8">
    <path opacity="0.8" d="M46.4196 106.8L34.1505 107.974L22.0222 133.705L62.9286 129.806L46.4196 106.8Z"
          fill="#FAFAFA"/>
  </g>
  <path d="M39.3483 96.9423L34.1505 107.974L46.4196 106.8L39.3483 96.9423Z" fill="#263238"/>
  <path
    d="M142.431 116.585C143.84 118.035 145.009 119.412 146.22 120.934C147.432 122.456 148.587 123.833 149.742 125.283C152.066 128.182 154.236 131.241 156.348 134.358C160.704 140.695 164.379 147.5 167.308 154.653C167.66 155.581 167.984 156.552 168.322 157.552L168.829 159.002C169.108 159.87 169.306 160.763 169.42 161.669C169.726 164.554 169.354 167.473 168.336 170.179C166.816 174.174 164.685 177.893 162.025 181.196C157.322 187.12 151.907 192.405 145.911 196.925L140.6 191.127C144.78 185.749 148.601 180.088 152.038 174.18C153.544 171.656 154.701 168.929 155.475 166.076C155.689 165.376 155.714 164.63 155.546 163.916L155.067 162.844C154.743 162.133 154.461 161.394 154.109 160.698C151.127 154.744 147.639 149.073 143.685 143.752C141.713 140.983 139.628 138.287 137.515 135.59C136.459 134.256 135.388 132.923 134.289 131.618L131.078 127.805L142.431 116.585Z"
    fill="#E4897B"/>
  <path d="M132.078 195.548L138.079 207.769L143.953 202.564L139.135 193.881L132.078 195.548Z" fill="#E4897B"/>
  <path
    d="M86.8751 123.746C83.222 130.908 79.4281 137.987 75.4934 144.984C73.5636 148.507 71.5352 151.971 69.5631 155.465L66.5345 160.684L65.7739 161.988C65.3936 162.612 64.971 163.351 64.5906 163.844C64.2103 164.337 63.83 164.931 63.4637 165.381C63.0975 165.83 62.7031 166.337 62.3368 166.758C59.4913 169.948 56.462 172.959 53.2653 175.775C50.1804 178.485 47.0955 181.124 43.912 183.632C37.6155 188.691 31.1499 193.402 24.4449 197.896L19.6133 191.634L36.3055 174.716C39.0382 171.817 41.7991 169.092 44.4051 166.221C46.9656 163.52 49.378 160.674 51.6313 157.697C51.9036 157.349 52.1431 157.016 52.3497 156.697C52.5892 156.349 52.7582 156.059 52.9272 155.769C53.0729 155.536 53.2046 155.294 53.3216 155.044L53.9696 153.696L56.5756 148.231C58.3645 144.621 60.1112 140.983 61.9283 137.402C65.525 130.183 69.2814 123.046 73.1973 115.991L86.8751 123.746Z"
    fill="#E4897B"/>
  <path
    d="M126.415 74.7769C126.232 75.6177 126.528 76.415 127.049 76.56C127.57 76.705 128.148 76.1251 128.331 75.2843C128.514 74.4435 128.204 73.6462 127.683 73.5012C127.162 73.3563 126.542 73.9361 126.415 74.7769Z"
    fill="#263238"/>
  <path
    d="M126.443 76.4006C126.885 79.2281 127.69 81.9825 128.838 84.5912C128.19 84.8552 127.493 84.97 126.797 84.9274C126.101 84.8849 125.423 84.686 124.809 84.3447L126.443 76.4006Z"
    fill="#DE5753"/>
  <path
    d="M128.57 69.6742C128.47 69.6745 128.372 69.6442 128.289 69.5872C127.768 69.26 127.178 69.0679 126.57 69.0275C125.961 68.9871 125.352 69.0996 124.795 69.3553C124.674 69.4041 124.538 69.4027 124.418 69.3513C124.297 69.3 124.2 69.2028 124.147 69.0798C124.1 68.9546 124.101 68.8154 124.151 68.6912C124.201 68.5669 124.295 68.4673 124.415 68.413C125.127 68.0984 125.902 67.9657 126.675 68.0262C127.448 68.0868 128.195 68.3389 128.852 68.7609C128.906 68.7973 128.951 68.8445 128.987 68.8995C129.022 68.9545 129.047 69.0163 129.059 69.0812C129.07 69.1461 129.069 69.2128 129.056 69.2773C129.042 69.3418 129.016 69.4028 128.979 69.4568C128.933 69.5244 128.872 69.5796 128.801 69.6175C128.73 69.6554 128.65 69.6748 128.57 69.6742V69.6742Z"
    fill="#263238"/>
  <path
    d="M97.9189 77.9807C99.6938 85.7799 101.708 100.045 96.6089 105.249C96.6089 105.249 98.9754 113.149 113.048 113.149C128.542 113.149 120.091 105.249 120.091 105.249C111.568 103.176 111.54 96.7248 112.78 90.6797L97.9189 77.9807Z"
    fill="#E4897B"/>
  <path
    d="M94.693 107.96C93.4816 105.466 92.1575 102.596 94.693 101.697C97.4257 100.711 112.597 99.7111 117.907 101.552C119.322 101.942 120.534 102.883 121.286 104.177C122.038 105.47 122.271 107.014 121.936 108.482L94.693 107.96Z"
    fill="#569AFF"/>
  <path opacity="0.6"
        d="M94.693 107.96C93.4816 105.466 92.1575 102.596 94.693 101.697C97.4257 100.711 112.597 99.7111 117.907 101.552C119.322 101.942 120.534 102.883 121.286 104.177C122.038 105.47 122.271 107.014 121.936 108.482L94.693 107.96Z"
        fill="#FAFAFA"/>
  <path
    d="M74.4229 471.664C73.5136 471.659 72.6072 471.557 71.7183 471.36C71.6727 471.351 71.6306 471.329 71.5979 471.295C71.5651 471.262 71.5432 471.218 71.5352 471.171C71.5259 471.123 71.5302 471.072 71.5476 471.026C71.5651 470.98 71.595 470.94 71.6338 470.91C71.7465 470.823 74.4511 468.823 76.0287 469.171C76.1992 469.201 76.3608 469.271 76.5021 469.373C76.6434 469.476 76.7608 469.61 76.8457 469.765C76.9726 469.938 77.0412 470.15 77.0412 470.367C77.0412 470.584 76.9726 470.795 76.8457 470.968C76.5077 471.534 75.4794 471.664 74.4229 471.664ZM72.4086 470.997C73.9581 471.258 76.071 471.258 76.4936 470.664C76.4936 470.664 76.6626 470.432 76.4231 470.012C76.3716 469.919 76.3005 469.84 76.2151 469.78C76.1298 469.72 76.0324 469.68 75.9301 469.664C74.651 469.749 73.4252 470.223 72.4086 471.026V470.997Z"
    fill="#FAFAFA"/>
  <path
    d="M71.7746 471.403H71.6478C71.6111 471.381 71.581 471.35 71.5611 471.311C71.5411 471.273 71.5321 471.229 71.5351 471.186C71.5351 471.055 71.6619 467.982 72.831 466.967C72.9713 466.838 73.137 466.741 73.3169 466.683C73.4968 466.626 73.6866 466.609 73.8734 466.634C74.0633 466.634 74.2474 466.702 74.3939 466.826C74.5405 466.95 74.6403 467.123 74.6763 467.315C74.9017 468.504 72.9296 470.823 71.8591 471.418L71.7746 471.403ZM73.7044 467.054C73.5019 467.057 73.3069 467.134 73.155 467.272C72.4641 468.246 72.0805 469.415 72.0563 470.62C73.0705 469.794 74.3242 468.04 74.1974 467.344C74.1974 467.272 74.1974 467.098 73.8171 467.054H73.7044Z"
    fill="#FAFAFA"/>
  <path
    d="M136.571 471.664C135.503 471.664 134.438 471.562 133.388 471.359C133.339 471.351 133.293 471.327 133.258 471.291C133.222 471.254 133.199 471.207 133.191 471.156C133.183 471.106 133.189 471.055 133.209 471.009C133.229 470.962 133.262 470.923 133.303 470.896C133.825 470.591 138.417 467.88 139.529 469.75C139.641 469.914 139.701 470.109 139.701 470.308C139.701 470.508 139.641 470.703 139.529 470.867C139.22 471.504 137.895 471.664 136.571 471.664ZM134.163 470.982C136.106 471.272 138.727 471.229 139.177 470.577C139.177 470.577 139.318 470.374 139.107 470.011C138.487 468.982 135.698 470.214 134.163 471.011V470.982Z"
    fill="#FAFAFA"/>
  <path
    d="M133.43 471.403C133.384 471.416 133.335 471.416 133.289 471.403C133.254 471.377 133.226 471.342 133.209 471.301C133.191 471.26 133.185 471.215 133.191 471.171C133.191 471.055 133.36 468.185 134.599 467.069C134.787 466.892 135.011 466.76 135.255 466.685C135.499 466.61 135.756 466.592 136.008 466.634C136.698 466.706 136.895 467.069 136.938 467.358C137.135 468.591 134.782 470.838 133.543 471.417L133.43 471.403ZM135.797 467.054C135.484 467.05 135.181 467.169 134.951 467.387C134.211 468.321 133.781 469.475 133.726 470.678C134.966 469.895 136.543 468.112 136.445 467.373C136.445 467.301 136.445 467.112 135.937 467.054H135.797Z"
    fill="#FAFAFA"/>
  <path d="M122.049 471.142H132.402L132.501 446.484H122.161L122.049 471.142Z" fill="#E4897B"/>
  <path d="M59.9142 471.142H70.2676L74.5498 446.484H64.1964L59.9142 471.142Z" fill="#E4897B"/>
  <path
    d="M70.9577 469.91H59.3365C59.1311 469.907 58.9314 469.98 58.7738 470.116C58.6161 470.251 58.5109 470.44 58.4773 470.649L56.7869 480.115C56.7522 480.35 56.7675 480.59 56.8318 480.818C56.8961 481.046 57.0078 481.257 57.1592 481.437C57.3106 481.616 57.4981 481.759 57.7087 481.856C57.9193 481.954 58.1479 482.003 58.3787 482C62.4355 481.927 64.3935 481.681 69.5068 481.681C72.648 481.681 79.1418 482.029 83.4944 482.029C87.8471 482.029 88.2274 477.68 86.4385 477.202C78.3952 475.404 75.2962 472.925 72.6621 470.577C72.1919 470.148 71.5858 469.911 70.9577 469.91V469.91Z"
    fill="#263238"/>
  <path
    d="M132.289 469.91H121.02C120.815 469.907 120.615 469.98 120.457 470.116C120.3 470.251 120.195 470.44 120.161 470.649L118.471 480.115C118.431 480.348 118.442 480.588 118.503 480.816C118.564 481.044 118.673 481.256 118.822 481.436C118.971 481.616 119.157 481.76 119.367 481.857C119.576 481.955 119.804 482.003 120.034 482C124.105 481.927 129.979 481.681 135.106 481.681C141.107 481.681 146.291 482.029 153.32 482.029C157.546 482.029 158.574 477.68 156.785 477.202C148.615 475.375 141.995 475.186 134.839 470.751C134.082 470.231 133.199 469.94 132.289 469.91V469.91Z"
    fill="#263238"/>
  <path
    d="M76.8739 107.655C67.253 109.946 57.1532 137.156 57.1532 137.156L77.1416 150.898C81.7306 143.738 85.7535 136.209 89.1712 128.385C94.4536 115.933 86.692 105.321 76.8739 107.655Z"
    fill="#569AFF"/>
  <path opacity="0.7"
        d="M76.8739 107.655C67.253 109.946 57.1532 137.156 57.1532 137.156L77.1416 150.898C81.7306 143.738 85.7535 136.209 89.1712 128.385C94.4536 115.933 86.692 105.321 76.8739 107.655Z"
        fill="black"/>
  <path
    d="M84.4664 125.008L76.1978 150.246L77.1415 150.899C77.1415 150.899 80.9167 145.1 84.9312 137.373L84.4664 125.008Z"
    fill="#569AFF"/>
  <path opacity="0.8"
        d="M84.4664 125.008L76.1978 150.246L77.1415 150.899C77.1415 150.899 80.9167 145.1 84.9312 137.373L84.4664 125.008Z"
        fill="black"/>
  <path
    d="M141.431 155.233C141.347 167.12 140.656 181.907 138.938 200.259H83.5791C82.8607 191.561 86.6076 148.854 76.874 107.655C82.9628 106.441 89.1222 105.637 95.3129 105.249C103.148 104.785 111.002 104.785 118.837 105.249C124.24 105.789 129.595 106.759 134.853 108.148C134.853 108.148 139.586 113.425 141.023 138.17C141.304 143.114 141.459 148.738 141.431 155.233Z"
    fill="#569AFF"/>
  <path opacity="0.7"
        d="M141.431 155.233C141.347 167.12 140.656 181.907 138.938 200.259H83.5791C82.8607 191.561 86.6076 148.854 76.874 107.655C82.9628 106.441 89.1222 105.637 95.3129 105.249C103.148 104.785 111.002 104.785 118.837 105.249C124.24 105.789 129.595 106.759 134.853 108.148C134.853 108.148 139.586 113.425 141.023 138.17C141.304 143.114 141.459 148.738 141.431 155.233Z"
        fill="black"/>
  <path
    d="M141.431 155.233C138.079 148.941 131.993 136.315 132.853 129.139L141.023 138.243C141.304 143.114 141.459 148.738 141.431 155.233Z"
    fill="#569AFF"/>
  <path opacity="0.8"
        d="M141.431 155.233C138.079 148.941 131.993 136.315 132.853 129.139L141.023 138.243C141.304 143.114 141.459 148.738 141.431 155.233Z"
        fill="black"/>
  <path
    d="M124.006 117.832C123.133 127.979 145.488 152.392 145.488 152.392L163.405 137.373C158.713 129.223 153.09 121.68 146.657 114.903C136.177 104.48 124.992 106.466 124.006 117.832Z"
    fill="#569AFF"/>
  <path opacity="0.7"
        d="M124.006 117.832C123.133 127.979 145.488 152.392 145.488 152.392L163.405 137.373C158.713 129.223 153.09 121.68 146.657 114.903C136.177 104.48 124.992 106.466 124.006 117.832Z"
        fill="black"/>
  <path d="M132.501 446.498L132.444 459.197H122.105L122.147 446.498H132.501Z" fill="#CE6F64"/>
  <path d="M64.1962 446.498H74.5495L72.338 459.197H61.9846L64.1962 446.498Z" fill="#CE6F64"/>
  <path
    d="M99.7781 65.9776C98.2709 76.4731 96.8763 82.5037 100.792 89.1721C102.037 91.3316 103.832 93.0994 105.984 94.2838C108.135 95.4682 110.561 96.024 112.997 95.8911C115.433 95.7582 117.788 94.9416 119.806 93.5298C121.823 92.118 123.427 90.1648 124.443 87.8819C128.486 79.1839 130.289 63.4697 121.4 56.8302C119.525 55.3399 117.301 54.384 114.953 54.0588C112.604 53.7336 110.214 54.0505 108.022 54.9777C105.831 55.9049 103.915 57.4096 102.468 59.3405C101.021 61.2715 100.093 63.5606 99.7781 65.9776Z"
    fill="#E4897B"/>
  <path
    d="M130.416 61.0053C127.367 62.7187 124.013 63.779 120.555 64.122C117.978 76.2557 111.118 90.2159 100.018 86.2003C95.7919 84.7507 91.566 74.2117 91.1293 64.8614C90.3968 65.7747 89.9038 66.9634 89.5235 67.4562C88.89 63.3008 89.3471 59.0467 90.8476 55.1342C93.9184 46.1753 95.9609 52.1189 99.2993 46.6827C101.455 43.0875 105.286 41.2319 111.977 41C110.103 42.0003 109.751 43.6094 112.526 43.3774C115.301 43.1455 127.148 42.4787 134.05 47.277C129.388 48.3643 132.233 55.975 138.459 51.9159C136.191 55.6995 133.374 59.2947 130.416 61.0053Z"
    fill="#263238"/>
  <path
    d="M112.583 72.472C112.622 75.141 113.491 77.7268 115.062 79.8508C117.161 82.6341 119.569 81.3004 120.147 78.1692C120.654 75.3858 120.147 70.573 117.527 68.8914C114.907 67.2098 112.568 69.2828 112.583 72.472Z"
    fill="#E4897B"/>
  <path
    d="M99.9614 47.8133C98.5556 47.7216 97.193 47.2773 95.9924 46.5193C94.7918 45.7612 93.7896 44.7125 93.0732 43.4644C93.0732 43.4644 92.8901 51.9593 99.9614 47.8133Z"
    fill="#1E2A4C"/>
  <path
    d="M119.288 200.259C119.288 200.259 110.61 281.643 105.3 312.129C99.4965 345.471 77.1275 456.747 77.1275 456.747H58.1111C58.1111 456.747 71.6057 348.211 74.423 315.101C77.4515 279.222 83.6353 200.201 83.6353 200.201L119.288 200.259Z"
    fill="#569AFF"/>
  <path opacity="0.6"
        d="M119.288 200.259C119.288 200.259 110.61 281.643 105.3 312.129C99.4965 345.471 77.1275 456.747 77.1275 456.747H58.1111C58.1111 456.747 71.6057 348.211 74.423 315.101C77.4515 279.222 83.6353 200.201 83.6353 200.201L119.288 200.259Z"
        fill="#FAFAFA"/>
  <path d="M79.818 449.557C79.9025 449.557 78.1417 457.052 78.1417 457.052H56.8292L56.9701 450.369L79.818 449.557Z"
        fill="#569AFF"/>
  <path opacity="0.1"
        d="M79.818 449.557C79.9025 449.557 78.1417 457.052 78.1417 457.052H56.8292L56.9701 450.369L79.818 449.557Z"
        fill="#FAFAFA"/>
  <path
    d="M112.963 229.252C99.4824 231.992 102.877 284.107 105.511 310.912C108.723 291.964 113.09 255.506 116.034 229.629C115.081 229.151 113.999 229.018 112.963 229.252V229.252Z"
    fill="#569AFF"/>
  <path opacity="0.4"
        d="M112.963 229.252C99.4824 231.992 102.877 284.107 105.511 310.912C108.723 291.964 113.09 255.506 116.034 229.629C115.081 229.151 113.999 229.018 112.963 229.252V229.252Z"
        fill="#FAFAFA"/>
  <path
    d="M138.924 200.259C138.924 200.259 143.347 279.874 143.432 312.361C143.53 346.138 136.22 456.747 136.22 456.747H118.682C118.682 456.747 113.963 348.11 111.935 314.942C109.737 278.773 102.539 200.259 102.539 200.259H138.924Z"
    fill="#569AFF"/>
  <path opacity="0.6"
        d="M138.924 200.259C138.924 200.259 143.347 279.874 143.432 312.361C143.53 346.138 136.22 456.747 136.22 456.747H118.682C118.682 456.747 113.963 348.11 111.935 314.942C109.737 278.773 102.539 200.259 102.539 200.259H138.924Z"
        fill="#FAFAFA"/>
  <path
    d="M143.164 190.025L138.248 190.431C137.847 190.465 137.459 190.591 137.112 190.799C136.765 191.008 136.467 191.293 136.24 191.634C136.014 191.976 135.864 192.365 135.802 192.774C135.74 193.182 135.767 193.6 135.881 193.997L137.91 201.028C138.081 201.599 138.384 202.119 138.792 202.544C139.201 202.969 139.703 203.286 140.256 203.468C140.81 203.65 141.398 203.692 141.97 203.591C142.542 203.489 143.082 203.246 143.544 202.883C146.084 200.451 147.905 197.33 148.798 193.881L143.164 190.025Z"
    fill="#E4897B"/>
  <path
    d="M132.064 443.787C132.017 443.78 131.973 443.756 131.942 443.718C131.911 443.681 131.894 443.633 131.895 443.584C133.839 412.982 138.346 338.919 138.262 312.361C138.262 285.18 135.05 224.382 134.036 206.391C134.034 206.367 134.037 206.343 134.045 206.32C134.052 206.298 134.064 206.277 134.08 206.259C134.096 206.241 134.115 206.227 134.137 206.217C134.158 206.208 134.182 206.203 134.205 206.203C134.251 206.203 134.296 206.221 134.33 206.253C134.364 206.285 134.385 206.329 134.388 206.377C135.346 224.367 138.487 285.166 138.614 312.361C138.699 338.934 134.191 412.996 132.247 443.613C132.247 443.637 132.242 443.661 132.233 443.683C132.224 443.705 132.21 443.725 132.193 443.742C132.175 443.758 132.155 443.771 132.133 443.778C132.111 443.786 132.087 443.789 132.064 443.787V443.787Z"
    fill="#569AFF"/>
  <path opacity="0.3"
        d="M132.064 443.787C132.017 443.78 131.973 443.756 131.942 443.718C131.911 443.681 131.894 443.633 131.895 443.584C133.839 412.982 138.346 338.919 138.262 312.361C138.262 285.18 135.05 224.382 134.036 206.391C134.034 206.367 134.037 206.343 134.045 206.32C134.052 206.298 134.064 206.277 134.08 206.259C134.096 206.241 134.115 206.227 134.137 206.217C134.158 206.208 134.182 206.203 134.205 206.203C134.251 206.203 134.296 206.221 134.33 206.253C134.364 206.285 134.385 206.329 134.388 206.377C135.346 224.367 138.487 285.166 138.614 312.361C138.699 338.934 134.191 412.996 132.247 443.613C132.247 443.637 132.242 443.661 132.233 443.683C132.224 443.705 132.21 443.725 132.193 443.742C132.175 443.758 132.155 443.771 132.133 443.778C132.111 443.786 132.087 443.789 132.064 443.787V443.787Z"
        fill="#FAFAFA"/>
  <path d="M139.318 449.557C139.403 449.557 138.614 457.052 138.614 457.052H117.287L116.456 450.369L139.318 449.557Z"
        fill="#569AFF"/>
  <path opacity="0.1"
        d="M139.318 449.557C139.403 449.557 138.614 457.052 138.614 457.052H117.287L116.456 450.369L139.318 449.557Z"
        fill="#FAFAFA"/>
</svg>
