<svg width="515" height="510" viewBox="0 0 715 910" fill="none" xmlns="http://www.w3.org/2000/svg">
  <path fill-rule="evenodd" clip-rule="evenodd"
        d="M356.902 0C161.147 0 0 161.013 0 356.606V910H715V356.606C715 161.013 553.853 0 356.902 0ZM58.4876 357.801V623.748C58.4876 627.331 56.0968 629.72 52.5107 629.72C48.9531 629.72 46.5624 627.331 46.5624 623.748V357.801C46.5624 193.204 180.244 60.8278 343.782 60.8278C347.339 60.8278 349.73 63.2166 349.73 66.7997C349.73 70.3544 347.339 72.7431 343.782 72.7431C187.416 72.7431 58.4876 200.371 58.4876 357.801V357.801ZM472.682 393.575H376V615.416C375.877 620.121 373.952 624.6 370.621 627.929C367.29 631.257 362.807 633.181 358.098 633.303C353.386 633.188 348.899 631.266 345.567 627.936C342.234 624.607 340.311 620.124 340.196 615.416V393.575H242.318C237.604 393.467 233.113 391.547 229.779 388.216C226.445 384.885 224.524 380.398 224.416 375.688C224.416 366.133 232.755 357.801 242.318 357.801H340.196V223.035C340.196 213.48 348.535 205.148 358.098 205.148C367.632 205.148 376 213.48 376 223.035V357.801H472.682C482.245 357.801 490.584 366.133 490.584 375.688C490.476 380.398 488.555 384.885 485.221 388.216C481.887 391.547 477.396 393.467 472.682 393.575"
        fill="white"/>
</svg>
