<svg width="40" height="40" viewBox="0 0 40 40" fill="none" xmlns="http://www.w3.org/2000/svg">
<path d="M0.835812 0.872252C1.37114 0.33662 2.09711 0.0357191 2.85407 0.0357191C3.61103 0.0357191 4.337 0.33662 4.87233 0.872252L19.9822 15.9951L35.092 0.872252C35.3553 0.599366 35.6703 0.381702 36.0186 0.231962C36.3669 0.0822221 36.7415 0.00340449 37.1205 0.000107876C37.4996 -0.00318874 37.8755 0.0691019 38.2263 0.212762C38.5771 0.356421 38.8958 0.568573 39.1639 0.836838C39.4319 1.1051 39.6439 1.42411 39.7874 1.77524C39.931 2.12637 40.0032 2.5026 39.9999 2.88197C39.9966 3.26134 39.9178 3.63625 39.7682 3.98484C39.6186 4.33342 39.4011 4.64869 39.1285 4.91225L24.0187 20.0351L39.1285 35.158C39.6485 35.6968 39.9362 36.4185 39.9297 37.1677C39.9232 37.9168 39.623 38.6334 39.0937 39.1632C38.5644 39.6929 37.8484 39.9934 37.1 39.9999C36.3515 40.0064 35.6304 39.7184 35.092 39.198L19.9822 24.0751L4.87233 39.198C4.33393 39.7184 3.61283 40.0064 2.86434 39.9999C2.11586 39.9934 1.39987 39.6929 0.870586 39.1632C0.341305 38.6334 0.0410815 37.9168 0.0345773 37.1677C0.0280732 36.4185 0.315809 35.6968 0.835812 35.158L15.9456 20.0351L0.835812 4.91225C0.300642 4.37646 0 3.64986 0 2.89225C0 2.13464 0.300642 1.40805 0.835812 0.872252Z" fill="#E67016"/>
</svg>
