<svg width="30" height="30" viewBox="0 0 30 30" fill="none" xmlns="http://www.w3.org/2000/svg">
<path d="M15 21C16.5913 21 18.1174 20.3679 19.2426 19.2426C20.3679 18.1174 21 16.5913 21 15C21 13.4087 20.3679 11.8826 19.2426 10.7574C18.1174 9.63214 16.5913 9 15 9V21Z" fill="black"/>
<path fill-rule="evenodd" clip-rule="evenodd" d="M15 0C6.7155 0 0 6.7155 0 15C0 23.2845 6.7155 30 15 30C23.2845 30 30 23.2845 30 15C30 6.7155 23.2845 0 15 0ZM15 3V9C13.4087 9 11.8826 9.63214 10.7574 10.7574C9.63214 11.8826 9 13.4087 9 15C9 16.5913 9.63214 18.1174 10.7574 19.2426C11.8826 20.3679 13.4087 21 15 21V27C18.1826 27 21.2348 25.7357 23.4853 23.4853C25.7357 21.2348 27 18.1826 27 15C27 11.8174 25.7357 8.76516 23.4853 6.51472C21.2348 4.26428 18.1826 3 15 3V3Z" fill="black"/>
</svg>
