<svg width="32" height="32" viewBox="0 0 32 32" fill="none" xmlns="http://www.w3.org/2000/svg">
<path d="M0.66865 0.697802C1.09691 0.269296 1.67769 0.0285753 2.28326 0.0285753C2.88882 0.0285753 3.4696 0.269296 3.89786 0.697802L15.9857 12.7961L28.0736 0.697802C28.2843 0.479493 28.5363 0.305362 28.8149 0.18557C29.0935 0.0657777 29.3932 0.0027236 29.6964 8.63011e-05C29.9996 -0.00255099 30.3004 0.0552815 30.581 0.170209C30.8617 0.285137 31.1167 0.454858 31.3311 0.66947C31.5455 0.884082 31.7151 1.13929 31.8299 1.42019C31.9448 1.7011 32.0025 2.00208 31.9999 2.30558C31.9973 2.60907 31.9343 2.909 31.8146 3.18787C31.6949 3.46674 31.5209 3.71895 31.3028 3.9298L19.2149 16.0281L31.3028 28.1264C31.7188 28.5575 31.949 29.1348 31.9438 29.7341C31.9386 30.3335 31.6984 30.9067 31.275 31.3305C30.8516 31.7543 30.2788 31.9947 29.68 31.9999C29.0812 32.0051 28.5043 31.7747 28.0736 31.3584L15.9857 19.2601L3.89786 31.3584C3.46715 31.7747 2.89027 32.0051 2.29148 31.9999C1.69269 31.9947 1.11989 31.7543 0.696469 31.3305C0.273044 30.9067 0.0328652 30.3335 0.0276619 29.7341C0.0224585 29.1348 0.252647 28.5575 0.66865 28.1264L12.7565 16.0281L0.66865 3.9298C0.240514 3.50117 0 2.91989 0 2.3138C0 1.70771 0.240514 1.12644 0.66865 0.697802Z" fill="black"/>
</svg>
