<svg width="39" height="75" viewBox="0 0 39 75" fill="none" xmlns="http://www.w3.org/2000/svg">
<path d="M8.85354 12.6506L4.42676 22.5904L11.9523 24.8494L19.4778 18.0723L27.0034 24.8494L34.8211 22.5994L30.9875 12.6506L19.4778 9.03613" fill="#E67016"/>
<path d="M24.79 60.5195L29.2168 71.3855L22.5766 65.512L19.4778 75L16.8218 65.512L10.6243 71.3855L14.0949 60.5421L24.79 60.5195Z" fill="#CC9600"/>
<path d="M19.4778 0L9.29614 10.8434L19.4778 7.68072L30.102 10.8434L19.4778 0Z" fill="#67B93E"/>
<path d="M4.72778 24.9623L5.7548 42.018L19.4778 40.2108L34.0862 42.018L34.9716 24.8494L27.0034 27.1084L19.4778 33.4337L11.9523 27.1084L4.72778 24.9623Z" fill="#DB261D"/>
<path d="M24.7901 58.7349H14.1658L5.75488 43.8253L19.4779 42.0181L34.0863 43.8253" fill="#0071B7"/>
<path d="M6.98547 49.0211L9.59285 53.6476L0 63.7048L1.77072 51.5061L6.98547 49.0211Z" fill="#3BB3C3"/>
<path d="M32.5236 48.9487L29.7568 53.4804L39 63.8719L37.6454 51.6189L32.5236 48.9487Z" fill="#3BB3C3"/>
<path d="M19.5002 20.3008L12.8145 26.1161L19.5002 31.579L25.9073 26.1161L19.5002 20.3008Z" fill="#7A1A66"/>
</svg>
