<svg width="30" height="31" viewBox="0 0 30 31" fill="none" xmlns="http://www.w3.org/2000/svg">
<path d="M15 0.522949C16.9891 0.522949 18.8968 1.31313 20.3033 2.71965C21.7098 4.12617 22.5 6.03383 22.5 8.02295C22.5 10.0121 21.7098 11.9197 20.3033 13.3263C18.8968 14.7328 16.9891 15.5229 15 15.5229C13.0109 15.5229 11.1032 14.7328 9.6967 13.3263C8.29018 11.9197 7.5 10.0121 7.5 8.02295C7.5 6.03383 8.29018 4.12617 9.6967 2.71965C11.1032 1.31313 13.0109 0.522949 15 0.522949V0.522949ZM15 19.2729C23.2875 19.2729 30 22.6292 30 26.7729V30.5229H0V26.7729C0 22.6292 6.7125 19.2729 15 19.2729Z" fill="white"/>
</svg>
