<svg width="347" height="88" viewBox="0 0 347 88" fill="none" xmlns="http://www.w3.org/2000/svg">
<g clip-path="url(#clip0)">
<path d="M10.3625 14.7439L5.18115 26.3285L13.9894 28.9613L22.7977 21.0628L31.606 28.9613L40.7563 26.339L36.2693 14.7439L22.7977 10.5314" fill="#E67016"/>
<path d="M29.0154 70.5339L34.1967 83.1979L26.4247 76.3525L22.7978 87.4105L19.689 76.3525L12.4351 83.1979L16.4972 70.5603L29.0154 70.5339Z" fill="#CC9600"/>
<path d="M22.798 0L10.8809 12.6377L22.798 8.95168L35.2332 12.6377L22.798 0Z" fill="#67B93E"/>
<path d="M5.53369 29.0929L6.73576 48.9709L22.798 46.8647L39.8964 48.9709L40.9327 28.9613L31.6063 31.5942L22.798 38.9661L13.9897 31.5942L5.53369 29.0929Z" fill="#DB261D"/>
<path d="M29.0156 68.454H16.5804L6.73584 51.0772L22.798 48.9709L39.8965 51.0772" fill="#0071B7"/>
<path d="M8.17617 57.1328L11.228 62.5249L0 74.2463L2.07254 60.0289L8.17617 57.1328Z" fill="#3BB3C3"/>
<path d="M38.0674 57.0485L34.8291 62.33L45.6478 74.441L44.0623 60.1605L38.0674 57.0485Z" fill="#3BB3C3"/>
<path d="M22.8239 23.66L14.9985 30.4376L22.8239 36.8045L30.3231 30.4376L22.8239 23.66Z" fill="#7A1A66"/>
</g>
<path d="M55.9565 65.0721V14.7797H60.8696V65.0721H55.9565Z" fill="white"/>
<path d="M69.0027 65.0721V30.05H73.3846V35.8261C76.4386 32.7721 79.1275 30.891 81.4513 30.1828C82.5357 29.8508 83.8967 29.6848 85.5344 29.6848C87.1721 29.6848 88.7434 30.216 90.2483 31.2783C91.7753 32.3405 92.7823 33.945 93.2691 36.0917C96.4781 32.8827 99.2334 30.9242 101.535 30.216C102.619 29.8619 103.77 29.6848 104.987 29.6848C107.532 29.6848 109.624 30.4594 111.262 32.0086C112.899 33.5577 113.718 35.8815 113.718 38.9798V65.0721H109.336V38.9798C109.336 37.32 108.739 35.9811 107.544 34.963C106.371 33.9229 105.098 33.4028 103.726 33.4028C100.473 33.4028 97.0867 35.3171 93.5679 39.1458V65.0721H89.186V38.9798C89.186 37.32 88.5885 35.9811 87.3934 34.963C86.2205 33.9229 84.9479 33.4028 83.5758 33.4028C80.3005 33.4028 76.9034 35.3171 73.3846 39.1458V65.0721H69.0027Z" fill="white"/>
<path d="M121.685 78.6825V30.05H126.067V35.4942C126.598 34.4983 127.472 33.5024 128.69 32.5065C130.991 30.6254 133.392 29.6848 135.893 29.6848C140.541 29.6848 144.082 32.2299 146.516 37.32C147.91 40.2412 148.607 43.4392 148.607 46.9137C148.607 53.0218 147.113 57.8795 144.126 61.4869C141.957 64.1204 139.069 65.4372 135.462 65.4372C133.426 65.4372 131.456 64.8286 129.553 63.6114C127.649 62.3721 126.488 61.3098 126.067 60.4246V78.6825H121.685ZM126.067 56.6402C127.085 58.1008 128.324 59.318 129.785 60.2918C131.246 61.2434 132.629 61.7192 133.935 61.7192C135.262 61.7192 136.369 61.5975 137.254 61.3541C138.162 61.0885 139.047 60.6238 139.91 59.9598C140.795 59.2738 141.548 58.3885 142.167 57.3041C143.539 54.914 144.225 51.4505 144.225 46.9137C144.225 41.381 142.942 37.486 140.375 35.2286C139.003 34.0114 137.276 33.4028 135.196 33.4028C132.408 33.4028 129.973 34.5758 127.893 36.9216C127.362 37.5192 126.753 38.2827 126.067 39.2122V56.6402Z" fill="white"/>
<path d="M155.413 56.1423V30.05H159.794V56.1423C159.794 57.8021 160.381 59.1521 161.554 60.1922C162.749 61.2102 164.033 61.7192 165.405 61.7192C168.68 61.7192 172.077 59.8049 175.596 55.9763V30.05H179.978V65.0721H175.596V59.2959C172.453 62.3721 169.764 64.2532 167.529 64.9393C166.445 65.2712 165.316 65.4372 164.143 65.4372C161.598 65.4372 159.507 64.6626 157.869 63.1135C156.231 61.5643 155.413 59.2406 155.413 56.1423Z" fill="white"/>
<path d="M187.945 65.1384V14.7797H192.327V65.1384H187.945Z" fill="white"/>
<path d="M200.194 58.4328L203.481 56.3082C204.654 58.123 205.959 59.484 207.398 60.3914C208.836 61.2766 210.596 61.7192 212.676 61.7192C214.845 61.7192 216.604 61.1328 217.954 59.9598C219.083 58.9861 219.647 57.791 219.647 56.3746C219.647 54.9583 219.404 53.8296 218.917 52.9886C218.43 52.1476 217.744 51.4616 216.859 50.9304C215.376 50.0895 213.827 49.4809 212.211 49.1046C210.618 48.7063 209.356 48.3522 208.427 48.0424C207.52 47.7104 206.579 47.2678 205.605 46.7145C204.632 46.1612 203.791 45.5416 203.082 44.8555C201.467 43.2842 200.659 41.215 200.659 38.6478C200.659 36.0585 201.688 33.9229 203.746 32.2409C205.827 30.5369 208.471 29.6848 211.68 29.6848C215.465 29.6848 218.663 31.0459 221.274 33.768C221.761 34.277 222.17 34.7749 222.502 35.2618L219.481 37.5192C219.326 37.3642 219.017 37.0433 218.552 36.5565C218.087 36.0475 217.788 35.7266 217.656 35.5938L216.792 34.8967C216.394 34.5426 216.062 34.3102 215.797 34.1995L214.668 33.8012C213.96 33.5356 212.765 33.4028 211.083 33.4028C209.401 33.4028 207.951 33.8897 206.734 34.8635C205.517 35.8151 204.908 36.8663 204.908 38.0171C204.908 39.1679 205.107 40.0974 205.506 40.8056C205.904 41.4916 206.502 42.0892 207.298 42.5982C208.582 43.3949 210.065 44.0478 211.747 44.5568C213.429 45.0658 214.535 45.4088 215.066 45.5858C215.62 45.7629 216.35 46.0395 217.257 46.4158C218.187 46.7698 218.906 47.1129 219.415 47.4448C219.946 47.7768 220.544 48.2194 221.208 48.7727C221.871 49.3038 222.38 49.8682 222.735 50.4657C223.598 51.9706 224.029 53.6083 224.029 55.3787C224.029 58.3221 222.912 60.7344 220.676 62.6155C218.441 64.4967 215.852 65.4372 212.908 65.4372C209.965 65.4372 207.486 64.8839 205.473 63.7774C203.481 62.6487 201.721 60.8672 200.194 58.4328Z" fill="white"/>
<path d="M229.075 56.5406C229.075 54.9472 229.274 53.564 229.673 52.3911C230.071 51.196 230.691 50.1448 231.532 49.2374C232.395 48.3079 233.368 47.4891 234.453 46.7809C235.537 46.0727 236.887 45.4309 238.503 44.8555C241.446 43.8154 245.042 42.8748 249.292 42.0338C249.292 38.5372 248.617 36.2024 247.267 35.0294C246.072 33.9893 244.334 33.4692 242.055 33.4692C239.266 33.4692 236.865 34.5315 234.851 36.6561C233.988 37.5192 233.391 38.2937 233.059 38.9798L229.905 36.8884C232.384 32.1303 236.6 29.7512 242.553 29.7512C247.886 29.7512 251.294 31.7983 252.777 35.8925C253.375 37.5524 253.673 39.5663 253.673 41.9343V60.159C253.673 60.8008 253.795 61.675 254.039 62.7815C254.282 63.8881 254.503 64.6516 254.703 65.0721H250.287C249.624 64.7401 249.292 62.8811 249.292 59.4951C246.171 63.5008 242.73 65.5036 238.968 65.5036C234.807 65.5036 231.919 64.043 230.303 61.1217C229.484 59.6389 229.075 58.1119 229.075 56.5406ZM234.287 52.723C233.734 53.7411 233.457 55.0689 233.457 56.7066C233.457 58.3443 234.032 59.6057 235.183 60.491C236.334 61.3541 237.607 61.7856 239.001 61.7856C240.417 61.7856 241.656 61.5754 242.719 61.1549C243.803 60.7344 244.788 60.1922 245.673 59.5283C247.289 58.3111 248.495 57.2267 249.292 56.275V45.7518C245.087 46.8362 242.597 47.5002 241.822 47.7436C237.927 49.0051 235.416 50.6649 234.287 52.723Z" fill="white"/>
<path d="M261.574 50.2001V14.7797H269.508V48.3079C269.508 53.907 271.312 57.3816 274.919 58.7316C275.849 59.0857 276.889 59.2627 278.04 59.2627C279.19 59.2627 280.23 59.1078 281.16 58.798C282.089 58.4881 282.842 58.1008 283.417 57.6361C283.993 57.1713 284.491 56.5849 284.911 55.8767C285.332 55.1464 285.641 54.4824 285.841 53.8849C286.04 53.2874 286.206 52.5792 286.339 51.7603C286.471 50.6981 286.538 49.5473 286.538 48.3079V14.7797H294.638V50.2001C294.638 55.2681 292.967 59.2848 289.625 62.2504C286.859 64.7069 283.008 65.9352 278.073 65.9352C270.57 65.9352 265.591 63.0913 263.134 57.4037C262.094 55.0578 261.574 52.6567 261.574 50.2001Z" fill="white"/>
<path d="M301.742 65.0721V14.7797H309.676V65.0721H301.742Z" fill="white"/>
<path d="M313.792 52.1919L320.166 50.1005C320.188 50.1005 320.232 50.2665 320.298 50.5985C320.365 50.9304 320.475 51.3731 320.63 51.9263C320.807 52.4575 321.04 53.055 321.327 53.7189C321.637 54.3607 322.08 55.0136 322.655 55.6775C323.231 56.3193 323.906 56.9058 324.68 57.4369C326.406 58.6541 328.553 59.2627 331.12 59.2627C333.688 59.2627 335.569 58.632 336.764 57.3705C337.981 56.1091 338.59 54.6152 338.59 52.889C338.59 51.1407 338.412 49.7354 338.058 48.6731C337.704 47.5887 337.085 46.6481 336.199 45.8514C334.717 44.5236 332.149 43.3285 328.498 42.2662C322.058 40.3851 317.919 37.4749 316.082 33.5356C315.131 31.4774 314.655 29.0541 314.655 26.2656C314.655 23.9198 315.485 21.6292 317.145 19.394C320.044 15.6981 324.16 13.8502 329.494 13.8502C333.721 13.8502 337.184 15.1227 339.884 17.6678C341.81 19.4604 343.248 21.7177 344.2 24.4398L344.83 26.1992C345.03 26.7304 345.162 27.0734 345.229 27.2283L338.756 29.5189C337.295 24.8714 335.015 22.0054 331.917 20.921C331.143 20.6555 330.335 20.5227 329.494 20.5227C324.891 20.5227 322.589 22.8907 322.589 27.6267C322.589 29.7955 323.231 31.4553 324.514 32.6061C325.577 33.602 326.971 34.3876 328.697 34.963L330.29 35.4942C331.198 35.804 331.696 35.97 331.784 35.9921L333.245 36.4901C337.029 37.8179 339.585 38.9909 340.913 40.0089C342.861 41.5138 344.133 42.8969 344.731 44.1584C345.926 46.7477 346.523 49.4809 346.523 52.3579C346.523 54.6152 345.882 56.9058 344.598 59.2295C342.872 62.35 340.139 64.3971 336.399 65.3708C334.96 65.747 333.389 65.9352 331.685 65.9352C329.981 65.9352 328.376 65.7802 326.871 65.4704C325.388 65.1606 324.105 64.7401 323.02 64.209C321.936 63.6778 320.94 63.0692 320.033 62.3832C319.125 61.6971 318.362 60.9778 317.742 60.2254C317.123 59.4508 316.58 58.6873 316.116 57.9349C315.651 57.1603 315.275 56.43 314.987 55.7439C314.721 55.0578 314.5 54.4492 314.323 53.9181C314.146 53.387 314.013 52.9665 313.925 52.6567C313.858 52.3468 313.814 52.1919 313.792 52.1919Z" fill="white"/>
<path d="M305.745 0L294 10.2604L305.745 7.26781L318 10.2604L305.745 0Z" fill="#67B93E"/>
<defs>
<clipPath id="clip0">
<rect width="45.6477" height="87.4105" fill="white"/>
</clipPath>
</defs>
</svg>
