<svg width="656" height="627" viewBox="0 0 656 627" fill="none" xmlns="http://www.w3.org/2000/svg">
<path d="M259.946 545.107H420.993L434.889 609.39H245.34L259.946 545.107Z" fill="#E7E4E4"/>
<path d="M423.77 557.966L420.993 545.107H259.946L256.999 558.084L423.77 557.966Z" fill="#A9A8A8"/>
<path d="M423.79 558.084L421.013 545.2L259.926 545.208L256.969 558.218L423.79 558.084Z" fill="#AAA9A9"/>
<path d="M423.82 558.193L421.032 545.292L259.906 545.309L256.949 558.345L423.82 558.193Z" fill="#ABAAAA"/>
<path d="M423.84 558.311L421.052 545.385L259.886 545.402L256.919 558.471L423.84 558.311Z" fill="#ACABAB"/>
<path d="M423.87 558.421L421.072 545.478L259.856 545.504L256.889 558.598L423.87 558.421Z" fill="#ADACAC"/>
<path d="M423.89 558.539L421.093 545.571L259.836 545.605L256.859 558.725L423.89 558.539Z" fill="#AEADAD"/>
<path d="M423.92 558.657L421.113 545.663L259.817 545.706L256.839 558.85L423.92 558.657Z" fill="#AFAEAE"/>
<path d="M423.94 558.766L421.133 545.756L259.797 545.798L256.81 558.977L423.94 558.766Z" fill="#B0AFAF"/>
<path d="M423.97 558.884L421.153 545.849L259.766 545.899L256.779 559.103L423.97 558.884Z" fill="#B1B0B0"/>
<path d="M423.99 558.994L421.173 545.95L259.747 546.001L256.75 559.23L423.99 558.994Z" fill="#B2B1B1"/>
<path d="M424.02 559.112L421.193 546.043L259.727 546.094L256.729 559.357L424.02 559.112Z" fill="#B3B2B2"/>
<path d="M424.04 559.222L421.213 546.136L259.696 546.195L256.699 559.483L424.04 559.222Z" fill="#B4B3B3"/>
<path d="M424.069 559.34L421.232 546.229L259.676 546.296L256.669 559.61L424.069 559.34Z" fill="#B5B4B4"/>
<path d="M424.09 559.449L421.253 546.321L259.657 546.397L256.64 559.736L424.09 559.449Z" fill="#B6B5B5"/>
<path d="M424.12 559.568L421.272 546.414L259.636 546.49L256.619 559.863L424.12 559.568Z" fill="#B7B6B6"/>
<path d="M424.14 559.677L421.292 546.507L259.606 546.591L256.589 559.989L424.14 559.677Z" fill="#B8B7B7"/>
<path d="M424.159 559.795L421.312 546.6L259.586 546.692L256.559 560.116L424.159 559.795Z" fill="#B9B8B8"/>
<path d="M424.19 559.913L421.333 546.692L259.567 546.793L256.53 560.242L424.19 559.913Z" fill="#BAB9B9"/>
<path d="M424.22 560.023L421.353 546.785L259.547 546.887L256.51 560.369L424.22 560.023Z" fill="#BBBABA"/>
<path d="M424.239 560.141L421.372 546.878L259.516 546.987L256.479 560.495L424.239 560.141Z" fill="#BCBBBB"/>
<path d="M424.261 560.25L421.394 546.97L259.498 547.088L256.451 560.621L424.261 560.25Z" fill="#BDBCBC"/>
<path d="M424.29 560.368L421.413 547.063L259.477 547.181L256.42 560.748L424.29 560.368Z" fill="#BDBDBD"/>
<path d="M424.31 560.478L421.433 547.156L259.457 547.283L256.4 560.874L424.31 560.478Z" fill="#BEBEBE"/>
<path d="M424.34 560.596L421.453 547.249L259.437 547.384L256.37 561.009L424.34 560.596Z" fill="#BFBFBF"/>
<path d="M424.36 560.714L421.473 547.342L259.407 547.485L256.34 561.127L424.36 560.714Z" fill="#C0C0C0"/>
<path d="M424.389 560.824L421.492 547.434L259.387 547.577L256.31 561.262L424.389 560.824Z" fill="#C1C1C1"/>
<path d="M424.409 560.942L421.512 547.527L259.366 547.679L256.289 561.389L424.409 560.942Z" fill="#C2C2C2"/>
<path d="M424.44 561.052L421.532 547.62L259.347 547.78L256.26 561.516L424.44 561.052Z" fill="#C3C3C3"/>
<path d="M424.46 561.17L421.553 547.713L259.318 547.873L256.23 561.642L424.46 561.17Z" fill="#C4C4C4"/>
<path d="M424.489 561.279L421.572 547.805L259.297 547.974L256.2 561.768L424.489 561.279Z" fill="#C5C5C5"/>
<path d="M424.509 561.397L421.592 547.898L259.277 548.075L256.18 561.894L424.509 561.397Z" fill="#C6C6C6"/>
<path d="M424.54 561.515L421.612 547.99L259.257 548.176L256.15 562.021L424.54 561.515Z" fill="#C7C7C7"/>
<path d="M424.559 561.625L421.632 548.083L259.227 548.269L256.12 562.148L424.559 561.625Z" fill="#C8C8C8"/>
<path d="M424.589 561.743L421.651 548.177L259.206 548.371L256.099 562.274L424.589 561.743Z" fill="#C9C9C9"/>
<path d="M424.61 561.853L421.673 548.269L259.188 548.472L256.071 562.401L424.61 561.853Z" fill="#CACACA"/>
<path d="M424.64 561.971L421.693 548.362L259.168 548.573L256.041 562.527L424.64 561.971Z" fill="#CBCBCB"/>
<path d="M424.66 562.08L421.712 548.455L259.137 548.665L256.01 562.654L424.66 562.08Z" fill="#CCCCCC"/>
<path d="M424.68 562.198L421.733 548.547L259.118 548.767L255.981 562.78L424.68 562.198Z" fill="#CDCDCD"/>
<path d="M424.709 562.308L421.752 548.64L259.096 548.868L255.959 562.907L424.709 562.308Z" fill="#CECECE"/>
<path d="M424.73 562.426L421.772 548.733L259.077 548.961L255.93 563.033L424.73 562.426Z" fill="#CFCFCF"/>
<path d="M424.759 562.535L421.792 548.825L259.047 549.062L255.9 563.159L424.759 562.535Z" fill="#D0CFCF"/>
<path d="M424.779 562.653L421.812 548.918L259.027 549.163L255.88 563.286L424.779 562.653Z" fill="#D1D0D0"/>
<path d="M424.809 562.771L421.832 549.011L259.007 549.255L255.85 563.412L424.809 562.771Z" fill="#D2D1D1"/>
<path d="M424.829 562.881L421.852 549.104L258.987 549.357L255.82 563.539L424.829 562.881Z" fill="#D3D2D2"/>
<path d="M424.859 562.999L421.872 549.197L258.957 549.458L255.79 563.666L424.859 562.999Z" fill="#D4D3D3"/>
<path d="M424.879 563.109L421.891 549.29L258.937 549.559L255.76 563.792L424.879 563.109Z" fill="#D5D4D4"/>
<path d="M424.909 563.227L421.911 549.391L258.917 549.652L255.74 563.918L424.909 563.227Z" fill="#D6D5D5"/>
<path d="M424.93 563.337L421.933 549.475L258.898 549.753L255.711 564.053L424.93 563.337Z" fill="#D7D6D6"/>
<path d="M424.958 563.455L421.951 549.568L258.866 549.854L255.679 564.18L424.958 563.455Z" fill="#D8D7D7"/>
<path d="M424.979 563.564L421.972 549.668L258.847 549.955L255.66 564.306L424.979 563.564Z" fill="#D9D8D8"/>
<path d="M425.01 563.682L421.993 549.761L258.828 550.048L255.631 564.432L425.01 563.682Z" fill="#DAD9D9"/>
<path d="M425.028 563.8L422.011 549.854L258.807 550.149L255.6 564.559L425.028 563.8Z" fill="#DBDADA"/>
<path d="M425.059 563.91L422.032 549.947L258.777 550.251L255.57 564.686L425.059 563.91Z" fill="#DCDBDB"/>
<path d="M425.079 564.027L422.052 550.039L258.757 550.343L255.55 564.812L425.079 564.027Z" fill="#DDDCDC"/>
<path d="M425.099 564.137L422.072 550.132L258.737 550.444L255.521 564.938L425.099 564.137Z" fill="#DEDDDD"/>
<path d="M425.129 564.255L422.092 550.225L258.718 550.546L255.491 565.065L425.129 564.255Z" fill="#DFDEDE"/>
<path d="M425.159 564.365L422.112 550.318L258.688 550.647L255.461 565.191L425.159 564.365Z" fill="#E0DFDF"/>
<path d="M425.179 564.483L422.132 550.411L258.668 550.74L255.441 565.318L425.179 564.483Z" fill="#E1E0E0"/>
<path d="M425.199 564.601L422.152 550.504L258.648 550.841L255.411 565.445L425.199 564.601Z" fill="#E2E1E1"/>
<path d="M425.229 564.711L422.172 550.596L258.628 550.942L255.381 565.571L425.229 564.711Z" fill="#E3E2E2"/>
<path d="M425.248 564.829L422.191 550.689L258.597 551.035L255.35 565.698L425.248 564.829Z" fill="#E3E3E3"/>
<path d="M425.278 564.939L422.211 550.782L258.577 551.136L255.33 565.824L425.278 564.939Z" fill="#E4E4E4"/>
<path d="M425.298 565.057L422.231 550.875L258.557 551.237L255.3 565.95L425.298 565.057Z" fill="#E5E5E5"/>
<path d="M425.328 565.166L422.251 550.967L258.537 551.338L255.27 566.077L425.328 565.166Z" fill="#E6E6E6"/>
<path d="M425.349 565.284L422.272 551.059L258.508 551.43L255.241 566.203L425.349 565.284Z" fill="#E7E7E7"/>
<path d="M425.378 565.394L422.291 551.153L258.487 551.532L255.22 566.33L425.378 565.394Z" fill="#E8E8E8"/>
<path d="M425.399 565.512L422.312 551.245L258.468 551.633L255.191 566.456L425.399 565.512Z" fill="#E9E9E9"/>
<path d="M425.428 565.63L422.341 551.338L258.448 551.735L255.161 566.583L425.428 565.63Z" fill="#EAEAEA"/>
<path d="M425.449 565.739L422.352 551.431L258.418 551.827L255.131 566.709L425.449 565.739Z" fill="#EBEBEB"/>
<path d="M425.479 565.857L422.372 551.523L258.398 551.928L255.111 566.835L425.479 565.857Z" fill="#ECECEC"/>
<path d="M425.498 565.967L422.401 551.616L258.377 552.029L255.081 566.962L425.498 565.967Z" fill="#EDEDED"/>
<path d="M425.528 566.085L422.411 551.709L258.358 552.122L255.051 567.097L425.528 566.085Z" fill="#EEEEEE"/>
<path d="M425.548 566.195L422.431 551.802L258.327 552.224L255.02 567.224L425.548 566.195Z" fill="#EFEFEF"/>
<path d="M425.579 566.313L422.462 551.895L258.308 552.325L255.001 567.35L425.579 566.313Z" fill="#F0F0F0"/>
<path d="M425.598 566.422L422.481 551.987L258.288 552.417L254.971 567.476L425.598 566.422Z" fill="#F1F1F1"/>
<path d="M425.618 566.54L422.501 552.08L258.267 552.518L254.94 567.602L425.618 566.54Z" fill="#F2F2F2"/>
<path d="M425.648 566.65L422.521 552.172L258.237 552.619L254.911 567.729L425.648 566.65Z" fill="#F3F3F3"/>
<path d="M425.669 566.768L422.541 552.266L258.218 552.721L254.891 567.856L425.669 566.768Z" fill="#F4F4F4"/>
<path d="M425.698 566.887L422.561 552.359L258.198 552.814L254.861 567.983L425.698 566.887Z" fill="#F5F5F5"/>
<path d="M425.719 566.996L422.582 552.451L258.178 552.915L254.832 568.109L425.719 566.996Z" fill="#F6F6F6"/>
<path d="M425.748 567.114L422.601 552.544L258.158 553.016L254.801 568.236L425.748 567.114Z" fill="#ECECEC"/>
<path d="M247.458 600.09L245.34 609.39H434.889L431.323 599.5L247.458 600.09Z" fill="#C4C4C4"/>
<path d="M247.487 599.972L245.359 609.323L434.869 609.314L431.332 599.407L247.487 599.972Z" fill="#C5C5C5"/>
<path d="M247.509 599.862L245.371 609.255L434.86 609.238L431.333 599.314L247.509 599.862Z" fill="#C6C6C6"/>
<path d="M247.538 599.744L245.39 609.196L434.84 609.162L431.343 599.221L247.538 599.744Z" fill="#C7C7C7"/>
<path d="M247.558 599.635L245.4 609.129L434.82 609.087L431.353 599.129L247.558 599.635Z" fill="#C8C8C8"/>
<path d="M247.588 599.516L245.42 609.061L434.81 609.002L431.353 599.036L247.588 599.516Z" fill="#C9C9C9"/>
<path d="M247.608 599.407L245.43 608.994L434.789 608.935L431.363 598.935L247.608 599.407Z" fill="#CACACA"/>
<path d="M247.639 599.289L245.451 608.935L434.77 608.85L431.374 598.842L247.639 599.289Z" fill="#CBCBCB"/>
<path d="M247.668 599.18L245.46 608.867L434.76 608.775L431.383 598.75L247.668 599.18Z" fill="#CCCCCC"/>
<path d="M247.687 599.062L245.479 608.8L434.739 608.699L431.382 598.657L247.687 599.062Z" fill="#CDCDCD"/>
<path d="M247.718 598.952L245.49 608.732L434.72 608.623L431.393 598.564L247.718 598.952Z" fill="#CECECE"/>
<path d="M247.738 598.791L245.51 608.623L434.71 608.505L431.403 598.42L247.738 598.791Z" fill="#CFCFCF"/>
<path d="M247.767 598.674L245.52 608.556L434.689 608.421L431.402 598.328L247.767 598.674Z" fill="#D0D0D0"/>
<path d="M247.798 598.556L245.54 608.488L434.67 608.345L431.413 598.227L247.798 598.556Z" fill="#D1D1D1"/>
<path d="M247.818 598.437L245.55 608.42L434.66 608.26L431.423 598.125L247.818 598.437Z" fill="#D2D2D2"/>
<path d="M247.848 598.32L245.57 608.345L434.64 608.176L431.433 598.033L247.848 598.32Z" fill="#D3D3D3"/>
<path d="M247.868 598.201L245.581 608.277L434.63 608.1L431.433 597.931L247.868 598.201Z" fill="#D4D4D4"/>
<path d="M247.897 598.083L245.6 608.209L434.61 608.015L431.443 597.83L247.897 598.083Z" fill="#D5D5D5"/>
<path d="M247.927 597.965L245.609 608.134L434.589 607.94L431.452 597.738L247.927 597.965Z" fill="#D6D6D6"/>
<path d="M247.947 597.848L245.629 608.067L434.579 607.856L431.462 597.637L247.947 597.848Z" fill="#D7D7D7"/>
<path d="M247.977 597.729L245.639 607.999L434.559 607.78L431.462 597.535L247.977 597.729Z" fill="#D8D8D8"/>
<path d="M247.998 597.611L245.66 607.932L434.54 607.696L431.473 597.443L247.998 597.611Z" fill="#D9D9D9"/>
<path d="M248.028 597.493L245.67 607.864L434.531 607.62L431.483 597.341L248.028 597.493Z" fill="#DADADA"/>
<path d="M248.047 597.375L245.689 607.788L434.509 607.535L431.482 597.248L248.047 597.375Z" fill="#DBDBDB"/>
<path d="M248.077 597.257L245.7 607.721L434.49 607.459L431.493 597.147L248.077 597.257Z" fill="#DCDCDC"/>
<path d="M248.108 597.139L245.71 607.653L434.48 607.375L431.503 597.046L248.108 597.139Z" fill="#DDDDDD"/>
<path d="M248.128 597.021L245.73 607.586L434.46 607.291L431.513 596.954L248.128 597.021Z" fill="#DDDDDD"/>
<path d="M248.158 596.903L245.74 607.51L434.441 607.215L431.513 596.852L248.158 596.903Z" fill="#DEDEDE"/>
<path d="M248.177 596.785L245.76 607.443L434.43 607.131L431.523 596.751L248.177 596.785Z" fill="#DFDFDF"/>
<path d="M248.207 596.667L245.77 607.375L434.41 607.055L431.533 596.658L248.207 596.667Z" fill="#E0E0E0"/>
<path d="M248.238 596.557L245.79 607.308L434.39 606.979L431.533 596.557H248.238Z" fill="#E1E1E1"/>
<path d="M248.257 596.448L245.8 607.249L434.38 606.903L431.543 596.473L248.257 596.448Z" fill="#E2E2E2"/>
<path d="M248.288 596.338L245.82 607.189L434.361 606.835L431.553 596.38L248.288 596.338Z" fill="#E3E3E3"/>
<path d="M248.307 596.228L245.83 607.13L434.34 606.759L431.553 596.296L248.307 596.228Z" fill="#E4E4E4"/>
<path d="M248.337 596.119L245.85 607.071L434.33 606.692L431.563 596.203L248.337 596.119Z" fill="#E5E5E5"/>
<path d="M248.357 596.017L245.859 607.012L434.31 606.624L431.572 596.118L248.357 596.017Z" fill="#E6E6E6"/>
<path d="M248.387 595.908L245.879 606.953L434.29 606.549L431.582 596.026L248.387 595.908Z" fill="#E7E7E7"/>
<path d="M248.417 595.798L245.89 606.886L434.28 606.481L431.583 595.942L248.417 595.798Z" fill="#E8E8E8"/>
<path d="M248.438 595.689L245.91 606.827L434.261 606.406L431.593 595.849L248.438 595.689Z" fill="#E9E9E9"/>
<path d="M248.467 595.579L245.92 606.768L434.24 606.338L431.603 595.764L248.467 595.579Z" fill="#EAEAEA"/>
<path d="M248.486 595.478L245.938 606.708L434.229 606.27L431.612 595.68L248.486 595.478Z" fill="#EBEBEB"/>
<path d="M248.517 595.368L245.95 606.65L434.21 606.194L431.613 595.587L248.517 595.368Z" fill="#ECECEC"/>
<path d="M248.547 595.259L245.97 606.591L434.2 606.127L431.623 595.495L248.547 595.259Z" fill="#EDEDED"/>
<path d="M248.568 595.149L245.98 606.532L434.181 606.052L431.633 595.411L248.568 595.149Z" fill="#EEEEEE"/>
<path d="M248.598 595.039L246 606.472L434.161 605.983L431.633 595.326L248.598 595.039Z" fill="#EFEFEF"/>
<path d="M248.617 594.972L246.009 606.448L434.15 605.95L431.642 595.276L248.617 594.972Z" fill="#F0F0F0"/>
<path d="M248.647 594.862L246.029 606.388L434.13 605.874L431.652 595.183L248.647 594.862Z" fill="#F1F1F1"/>
<path d="M248.667 594.745L246.039 606.321L434.11 605.798L431.662 595.082L248.667 594.745Z" fill="#F2F2F2"/>
<path d="M248.697 594.635L246.059 606.253L434.1 605.722L431.662 594.989L248.697 594.635Z" fill="#F3F3F3"/>
<path d="M248.727 594.517L246.069 606.195L434.08 605.647L431.673 594.896L248.727 594.517Z" fill="#F4F4F4"/>
<path d="M248.747 594.407L246.089 606.127L434.06 605.57L431.682 594.803L248.747 594.407Z" fill="#F5F5F5"/>
<path d="M248.776 594.289L246.099 606.059L434.05 605.494L431.682 594.71L248.776 594.289Z" fill="#F6F6F6"/>
<path d="M248.797 594.179L246.12 605.992L434.03 605.419L431.693 594.618L248.797 594.179Z" fill="#ECECEC"/>
<path d="M457.899 612.855L434.921 609.39H245.342L222.363 612.855C222.021 612.907 221.711 613.058 221.489 613.284C221.266 613.509 221.144 613.793 221.145 614.086V617.965C221.142 618.204 221.25 618.434 221.446 618.605C221.643 618.777 221.911 618.877 222.194 618.884H458.039C458.328 618.884 458.605 618.787 458.809 618.615C459.013 618.442 459.128 618.209 459.128 617.965V614.086C459.126 613.792 459.002 613.508 458.778 613.283C458.553 613.058 458.242 612.907 457.899 612.855Z" fill="#F6F4F4"/>
<path d="M452.013 611.97L434.89 609.39H245.34L228.227 611.97H452.013Z" fill="#BDBCBC"/>
<path d="M244.95 609.449C244.95 609.449 239.705 610.242 239.705 610.292L228.096 612.105H229.645C229.645 612.105 452.113 612.105 452.133 612.105L440.524 610.292C440.524 610.292 435.299 609.449 435.289 609.449H244.95Z" fill="#BEBDBD"/>
<path d="M244.551 609.508C244.551 609.508 239.386 610.301 239.386 610.351L227.977 612.139C227.977 612.139 229.486 612.139 229.516 612.139C229.546 612.139 452.223 612.139 452.303 612.139L440.904 610.292C440.904 610.292 435.759 609.449 435.729 609.449H244.551V609.508Z" fill="#BFBEBE"/>
<path d="M244.151 609.609C244.151 609.609 239.056 610.401 239.056 610.452L227.857 612.341C227.857 612.341 229.346 612.383 229.375 612.383C229.405 612.383 452.323 612.383 452.383 612.341L441.174 610.452C441.174 610.452 436.118 609.609 436.079 609.609H434.38C434.38 609.609 244.261 609.55 244.151 609.609Z" fill="#C0BFBF"/>
<path d="M243.772 609.61C243.722 609.61 238.777 610.402 238.777 610.453L227.787 612.375C227.787 612.375 229.266 612.434 229.306 612.434C229.346 612.434 452.483 612.434 452.563 612.375L441.573 610.453L436.578 609.61H434.87C434.87 609.61 243.902 609.61 243.772 609.61Z" fill="#C1C0C0"/>
<path d="M243.362 609.685C243.302 609.685 238.367 610.469 238.367 610.528L227.567 612.484C228.068 612.535 228.571 612.563 229.075 612.569C229.075 612.569 452.493 612.568 452.583 612.484L441.793 610.528C441.793 610.469 436.898 609.685 436.798 609.685H435.089C435.089 609.685 243.542 609.66 243.362 609.685Z" fill="#C2C1C1"/>
<path d="M242.962 609.744C242.892 609.744 238.076 610.528 238.076 610.587L227.486 612.577C227.982 612.642 228.483 612.676 228.985 612.678C228.985 612.678 452.632 612.678 452.772 612.577L442.182 610.587C442.182 610.52 437.366 609.744 437.296 609.744H435.578C435.578 609.744 243.181 609.71 242.962 609.744Z" fill="#C3C2C2"/>
<path d="M242.564 609.803C242.484 609.803 237.758 610.588 237.758 610.647L227.368 612.679C227.86 612.747 228.358 612.784 228.857 612.788C228.857 612.788 452.743 612.788 452.873 612.679L442.483 610.647C442.483 610.571 437.748 609.803 437.668 609.803H435.939C435.939 609.803 242.823 609.77 242.564 609.803Z" fill="#C4C3C3"/>
<path d="M242.173 609.871C242.073 609.871 237.428 610.646 237.428 610.714L227.237 612.78C227.728 612.858 228.226 612.901 228.726 612.906C228.726 612.906 452.842 612.906 452.992 612.78L442.802 610.714C442.802 610.629 438.156 609.871 438.066 609.871L436.328 609.82C436.328 609.82 242.463 609.82 242.173 609.871Z" fill="#C5C4C4"/>
<path d="M241.773 609.93C241.663 609.93 237.097 610.697 237.097 610.773L227.107 612.881C227.592 612.975 228.088 613.023 228.586 613.024C228.586 613.024 452.932 613.024 453.102 612.881L443.111 610.773C443.111 610.68 438.546 609.93 438.436 609.93L436.697 609.879C436.697 609.879 242.103 609.879 241.773 609.93Z" fill="#C6C5C5"/>
<path d="M241.374 609.988C241.254 609.988 236.779 610.756 236.779 610.832L226.998 612.982C227.479 613.079 227.972 613.13 228.467 613.133C228.467 613.133 453.053 613.133 453.252 612.982L443.482 610.832C443.482 610.73 438.996 609.988 438.876 609.988L437.128 609.929C437.128 609.929 241.774 609.929 241.374 609.988Z" fill="#C7C6C6"/>
<path d="M240.985 610.048C240.845 610.048 236.449 610.815 236.449 610.891L226.878 613.075C227.354 613.183 227.844 613.239 228.337 613.243C228.337 613.243 453.123 613.243 453.362 613.075L443.781 610.891C443.781 610.781 439.386 610.048 439.256 610.048L437.497 609.989C437.497 609.989 241.384 609.989 240.985 610.048Z" fill="#C8C7C7"/>
<path d="M240.585 610.107C240.435 610.107 236.119 610.874 236.119 610.95L226.788 613.21C227.261 613.332 227.752 613.397 228.247 613.404C228.247 613.404 453.302 613.404 453.522 613.21L444.151 610.992C444.151 610.874 439.835 610.149 439.685 610.149L437.927 610.082C437.927 610.082 241.025 610.04 240.585 610.107Z" fill="#C9C8C8"/>
<path d="M240.186 610.166C238.706 610.397 237.242 610.695 235.8 611.06L226.629 613.311C226.629 613.429 227.938 613.522 228.078 613.522C228.217 613.522 453.363 613.522 453.603 613.311L444.441 611.06C442.996 610.695 441.529 610.397 440.046 610.166L438.277 610.099C438.277 610.099 240.666 610.099 240.186 610.166Z" fill="#CAC9C9"/>
<path d="M239.776 610.225C238.314 610.452 236.869 610.754 235.45 611.127L226.458 613.421C226.458 613.539 227.747 613.64 227.897 613.64C227.897 613.64 453.412 613.64 453.682 613.421L444.691 611.127C443.275 610.755 441.833 610.453 440.375 610.225L438.596 610.149C438.596 610.149 240.305 610.149 239.776 610.225Z" fill="#CBCACA"/>
<path d="M239.396 610.284C237.955 610.508 236.534 610.813 235.14 611.194L226.378 613.521C226.378 613.648 227.657 613.758 227.817 613.758C227.817 613.758 453.602 613.758 453.852 613.521L445.09 611.194C443.699 610.814 442.281 610.509 440.844 610.284L439.046 610.199C439.046 610.199 239.935 610.199 239.396 610.284Z" fill="#CCCACA"/>
<path d="M238.996 610.343C237.566 610.576 236.157 610.894 234.78 611.296L226.218 613.657C226.218 613.8 227.477 613.909 227.647 613.909C227.647 613.909 453.632 613.909 453.931 613.657L445.379 611.296C444.012 610.906 442.613 610.599 441.193 610.377L439.395 610.292C439.395 610.292 239.576 610.259 238.996 610.343Z" fill="#CDCBCB"/>
<path d="M238.595 610.402C237.201 610.623 235.828 610.933 234.489 611.329L226.137 613.724C226.137 613.876 227.376 613.994 227.546 613.994C227.546 613.994 453.78 613.994 454.09 613.724L445.738 611.296C444.4 610.898 443.027 610.588 441.632 610.368L439.824 610.275C439.824 610.275 239.215 610.309 238.595 610.402Z" fill="#CECCCC"/>
<path d="M238.207 610.453C237.988 610.453 234.161 611.203 234.161 611.389L226.019 613.825C226.019 613.977 227.238 614.104 227.418 614.104C227.418 614.104 453.882 614.104 454.202 613.825L446.05 611.389C446.05 611.203 442.233 610.486 442.053 610.453L440.235 610.36C440.235 610.36 238.857 610.368 238.207 610.453Z" fill="#CFCDCD"/>
<path d="M237.777 610.528C237.547 610.528 233.781 611.27 233.781 611.464L225.789 613.935C225.789 614.103 226.997 614.238 227.187 614.238C227.187 614.238 453.882 614.238 454.241 613.935L446.299 611.464C446.299 611.27 442.562 610.562 442.303 610.528L440.584 610.452C440.584 610.452 238.496 610.452 237.777 610.528Z" fill="#D0CECE"/>
<path d="M237.407 610.588C237.167 610.588 233.511 611.321 233.511 611.532L225.768 614.062C225.768 614.239 226.957 614.382 227.157 614.382C227.157 614.382 454.091 614.382 454.46 614.062L446.718 611.532C446.718 611.321 443.071 610.621 442.822 610.588L440.993 610.478C440.993 610.478 238.136 610.453 237.407 610.588Z" fill="#D1CFCF"/>
<path d="M237.018 610.647C236.758 610.647 233.181 611.38 233.181 611.6L225.648 614.129C225.648 614.314 226.807 614.466 227.027 614.466C227.027 614.466 454.191 614.466 454.581 614.129L447.048 611.6C447.048 611.38 443.471 610.68 443.221 610.647L441.383 610.529C441.383 610.529 237.777 610.529 237.018 610.647Z" fill="#D2D0D0"/>
<path d="M236.619 610.705C236.349 610.747 232.862 611.439 232.862 611.666L225.529 614.247C225.529 614.432 226.668 614.592 226.898 614.592C226.898 614.592 454.301 614.592 454.681 614.247L447.348 611.666C447.348 611.439 443.851 610.747 443.582 610.705L441.743 610.579C441.743 610.579 237.418 610.579 236.619 610.705Z" fill="#D3D1D1"/>
<path d="M236.218 610.765C235.938 610.765 232.532 611.498 232.532 611.734L225.398 614.348C225.398 614.551 226.527 614.711 226.767 614.711C226.767 614.711 454.4 614.711 454.83 614.348L447.697 611.734C447.697 611.498 444.29 610.807 444.01 610.765L442.162 610.638C442.162 610.638 237.057 610.638 236.218 610.765Z" fill="#D4D2D2"/>
<path d="M235.779 610.824C235.489 610.824 232.162 611.549 232.162 611.802L225.239 614.449C225.239 614.66 226.348 614.829 226.597 614.829C226.597 614.829 454.46 614.829 454.91 614.449L447.987 611.802C447.987 611.549 444.66 610.866 444.37 610.824L442.512 610.689C442.512 610.689 236.698 610.689 235.779 610.824Z" fill="#D5D3D3"/>
<path d="M235.429 610.882C235.119 610.933 231.882 611.608 231.882 611.869L225.159 614.559C225.159 614.77 226.248 614.947 226.507 614.947C226.507 614.947 454.61 614.947 455.08 614.559L448.356 611.869C448.356 611.608 445.109 610.933 444.809 610.882L442.941 610.748C442.941 610.748 236.338 610.748 235.429 610.882Z" fill="#D6D4D4"/>
<path d="M235.03 610.942C234.711 610.992 231.554 611.667 231.554 611.937L225.03 614.669C225.03 614.896 226.109 615.073 226.378 615.073C226.378 615.073 454.711 615.073 455.161 614.669L448.637 611.945C448.637 611.675 445.48 611.001 445.16 610.95L443.292 610.807C443.292 610.807 235.979 610.798 235.03 610.942Z" fill="#D7D5D5"/>
<path d="M234.63 611.001C234.301 611.052 231.224 611.726 231.224 612.004L224.91 614.761C224.91 614.998 225.969 615.191 226.248 615.191C226.248 615.191 454.821 615.191 455.32 614.761L449.006 612.004C449.006 611.726 445.929 611.052 445.6 611.001L443.721 610.858C443.721 610.858 235.619 610.858 234.63 611.001Z" fill="#D8D6D6"/>
<path d="M234.24 611.06C233.89 611.11 230.903 611.776 230.903 612.071L224.789 614.862C224.789 615.107 225.788 615.309 226.118 615.309C226.118 615.309 454.9 615.309 455.439 614.862L449.335 612.071C449.335 611.776 446.338 611.11 445.998 611.06L444.11 610.908C444.11 610.908 235.259 610.908 234.24 611.06Z" fill="#D9D7D7"/>
<path d="M233.842 611.119C233.482 611.178 230.575 611.836 230.575 612.139L224.67 614.972C224.67 615.225 225.669 615.428 225.989 615.428C225.989 615.428 455.021 615.428 455.57 614.972L449.656 612.139C449.656 611.836 446.749 611.178 446.389 611.119L444.501 610.967C444.501 610.967 234.901 610.967 233.842 611.119Z" fill="#DAD8D8"/>
<path d="M233.441 611.186C233.071 611.237 230.244 611.894 230.244 612.206L224.54 615.073C224.54 615.335 225.539 615.545 225.848 615.545C225.848 615.545 455.13 615.545 455.689 615.073L449.985 612.206C449.985 611.894 447.157 611.237 446.788 611.186L444.89 611.018C444.89 611.018 234.54 611.018 233.441 611.186Z" fill="#DAD9D9"/>
<path d="M233.041 611.245C232.672 611.296 229.924 611.953 229.924 612.274L224.419 615.174C224.419 615.444 225.418 615.663 225.718 615.663C225.718 615.663 455.229 615.663 455.809 615.174L450.314 612.274C450.314 611.953 447.567 611.296 447.187 611.245L445.279 611.068C445.279 611.068 234.17 611.068 233.041 611.245Z" fill="#DBDADA"/>
<path d="M232.652 611.296C232.263 611.355 229.595 611.996 229.595 612.333L224.3 615.267C224.3 615.554 225.299 615.773 225.589 615.773C225.589 615.773 455.37 615.773 455.93 615.267L450.635 612.333C450.635 611.996 447.977 611.355 447.588 611.296L445.669 611.119C445.669 611.119 233.781 611.127 232.652 611.296Z" fill="#DCDBDB"/>
<path d="M232.252 611.363C231.853 611.422 229.255 612.063 229.255 612.409L224.17 615.385C224.17 615.672 225.109 615.9 225.449 615.9C225.449 615.9 455.43 615.9 456.049 615.385L450.954 612.409C450.954 612.063 448.376 611.422 447.957 611.363L446.038 611.178C446.038 611.178 233.451 611.178 232.252 611.363Z" fill="#DDDCDC"/>
<path d="M231.851 611.422C231.442 611.481 228.944 612.122 228.944 612.476L224.049 615.486C224.049 615.781 224.978 616.026 225.328 616.026C225.328 616.026 455.538 616.026 456.178 615.486L451.292 612.476C451.292 612.122 448.795 611.481 448.375 611.422L446.447 611.237C446.447 611.237 233.09 611.237 231.851 611.422Z" fill="#DEDDDD"/>
<path d="M231.464 611.481C231.034 611.549 228.617 612.172 228.617 612.543L223.931 615.587C223.931 615.891 224.84 616.144 225.2 616.144C225.2 616.144 455.651 616.144 456.3 615.587L451.574 612.543C451.574 612.172 449.167 611.549 448.737 611.481L446.799 611.287C446.799 611.287 232.783 611.296 231.464 611.481Z" fill="#DFDEDE"/>
<path d="M231.064 611.541C230.624 611.608 228.286 612.232 228.286 612.612L223.791 615.689C223.791 616.01 224.68 616.263 225.049 616.263C225.049 616.263 455.73 616.263 456.409 615.689L451.923 612.612C451.923 612.232 449.586 611.608 449.146 611.541L447.208 611.347C447.208 611.347 232.372 611.347 231.064 611.541Z" fill="#E0DFDF"/>
<path d="M230.664 611.599C230.215 611.667 227.967 612.291 227.967 612.679L223.691 615.798C223.691 616.119 224.56 616.38 224.94 616.38C224.94 616.38 455.86 616.38 456.549 615.798L452.273 612.679C452.273 612.291 450.015 611.667 449.566 611.599L447.618 611.397C447.618 611.397 232.013 611.397 230.664 611.599Z" fill="#E1E0E0"/>
<path d="M230.265 611.658C229.805 611.734 227.637 612.349 227.637 612.746L223.561 615.899C223.561 616.228 224.42 616.498 224.81 616.498C224.81 616.498 455.96 616.498 456.669 615.899L452.573 612.746C452.573 612.349 450.405 611.734 449.945 611.658L447.947 611.456C447.947 611.456 231.653 611.456 230.265 611.658Z" fill="#E2E1E1"/>
<path d="M229.874 611.717C229.395 611.793 227.307 612.4 227.307 612.813L223.44 616.001C223.44 616.346 224.27 616.616 224.679 616.616C224.679 616.616 456.059 616.616 456.788 616.001L452.922 612.813C452.922 612.4 450.834 611.793 450.364 611.717L448.366 611.507C448.366 611.507 231.293 611.507 229.874 611.717Z" fill="#E3E2E2"/>
<path d="M229.475 611.777C228.985 611.853 226.987 612.46 226.987 612.881L223.321 616.111C223.321 616.456 224.13 616.734 224.55 616.734C224.55 616.734 456.169 616.734 456.918 616.111L453.252 612.881C453.252 612.46 451.254 611.853 450.754 611.777L448.756 611.557C448.756 611.557 230.934 611.557 229.475 611.777Z" fill="#E4E3E3"/>
<path d="M229.076 611.844C228.576 611.911 226.658 612.519 226.658 612.949L223.191 616.212C223.191 616.566 223.991 616.861 224.42 616.861C224.42 616.861 456.269 616.861 457.038 616.212L453.572 612.982C453.572 612.552 451.654 611.945 451.154 611.878L449.156 611.65C449.156 611.65 230.574 611.616 229.076 611.844Z" fill="#E5E4E4"/>
<path d="M228.686 611.902C228.166 611.978 226.328 612.577 226.328 613.015L223.071 616.354C223.071 616.725 223.851 617.02 224.29 617.02C224.29 617.02 456.379 617.02 457.158 616.354L453.901 612.982C453.901 612.543 452.063 611.945 451.554 611.869L449.556 611.633C449.556 611.633 230.214 611.666 228.686 611.902Z" fill="#E6E5E5"/>
<path d="M228.286 611.962C227.757 612.038 226.008 612.628 226.008 613.084L222.951 616.456C222.951 616.836 223.71 617.139 224.16 617.139C224.16 617.139 456.479 617.139 457.278 616.456L454.281 613.084C454.281 612.628 452.522 612.038 451.993 611.962L449.995 611.726C449.995 611.726 229.855 611.726 228.286 611.962Z" fill="#E7E6E6"/>
<path d="M227.888 612.021C227.348 612.097 225.68 612.687 225.68 613.151L222.833 616.524C222.833 616.903 223.572 617.215 224.021 617.215C224.021 617.215 456.58 617.215 457.409 616.524L454.552 613.151C454.552 612.687 452.883 612.097 452.344 612.021L450.346 611.777C450.346 611.777 229.496 611.777 227.888 612.021Z" fill="#E8E6E6"/>
<path d="M227.498 612.08C226.948 612.164 225.35 612.746 225.35 613.218L222.702 616.591C222.702 616.979 223.431 617.299 223.891 617.299C223.891 617.299 456.669 617.299 457.528 616.591L454.881 613.218C454.881 612.746 453.292 612.164 452.743 612.08L450.745 611.835C450.745 611.835 229.136 611.835 227.498 612.08Z" fill="#E9E7E7"/>
<path d="M227.098 612.139C226.538 612.223 225.03 612.805 225.03 613.286L222.582 616.726C222.582 617.13 223.291 617.451 223.761 617.451C223.761 617.451 456.789 617.451 457.648 616.726L455.211 613.286C455.211 612.805 453.702 612.223 453.143 612.139L451.144 611.886C451.144 611.886 228.786 611.886 227.098 612.139Z" fill="#EAE8E8"/>
<path d="M226.698 612.198C226.128 612.283 224.7 612.856 224.7 613.353L222.462 616.827C222.462 617.24 223.151 617.569 223.631 617.569C223.631 617.569 456.899 617.569 457.778 616.827L455.57 613.353C455.57 612.856 454.151 612.283 453.572 612.198L451.574 611.937C451.574 611.937 228.406 611.937 226.698 612.198Z" fill="#EBE9E9"/>
<path d="M226.298 612.257C225.719 612.349 224.37 612.914 224.37 613.42L222.372 616.936C222.372 617.349 223.041 617.695 223.531 617.695C223.531 617.695 457.028 617.695 457.928 616.936L455.93 613.42C455.93 612.914 454.591 612.349 454.001 612.257L452.003 611.995C452.003 611.995 228.047 611.995 226.298 612.257Z" fill="#ECEAEA"/>
<path d="M225.908 612.316C225.309 612.409 224.05 612.974 224.05 613.488L222.212 617.038C222.212 617.468 222.861 617.813 223.371 617.813C223.371 617.813 457.098 617.814 458.017 617.038L456.189 613.488C456.189 612.974 454.93 612.409 454.331 612.316L452.283 612.046C452.283 612.046 227.687 612.046 225.908 612.316Z" fill="#EDEBEB"/>
<path d="M225.509 612.375C224.9 612.468 223.721 613.024 223.721 613.555L222.092 617.139C222.092 617.577 222.722 617.931 223.241 617.931C223.241 617.931 457.208 617.931 458.137 617.139L456.509 613.555C456.509 613.024 455.33 612.468 454.721 612.375L452.723 612.105C452.723 612.105 227.327 612.139 225.509 612.375Z" fill="#EEECEC"/>
<path d="M225.111 612.434C224.491 612.535 223.392 613.083 223.392 613.623L221.974 617.24C222.006 617.475 222.14 617.691 222.351 617.847C222.561 618.003 222.833 618.087 223.113 618.083C223.113 618.083 457.31 618.083 458.269 617.24L456.84 613.623C456.84 613.083 455.741 612.535 455.122 612.434L453.064 612.156C453.064 612.156 226.969 612.139 225.111 612.434Z" fill="#EFEDED"/>
<path d="M224.72 612.501C224.081 612.594 223.072 613.142 223.072 613.69L221.843 617.35C221.873 617.585 222.006 617.802 222.217 617.959C222.428 618.115 222.701 618.198 222.982 618.193C222.982 618.193 457.418 618.193 458.387 617.35L457.169 613.69C457.169 613.142 456.169 612.594 455.52 612.501L453.452 612.215C453.452 612.215 226.608 612.215 224.72 612.501Z" fill="#F0EEEE"/>
<path d="M224.32 612.561C223.67 612.654 222.741 613.202 222.741 613.758L221.742 617.451C221.77 617.686 221.901 617.903 222.111 618.059C222.32 618.216 222.592 618.3 222.871 618.294C222.871 618.294 457.538 618.294 458.527 617.451L457.528 613.758C457.528 613.202 456.599 612.654 455.949 612.561L453.881 612.266C453.881 612.266 226.248 612.266 224.32 612.561Z" fill="#F1EFEF"/>
<path d="M223.921 612.619C223.261 612.712 222.412 613.252 222.412 613.825L221.603 617.552C221.631 617.785 221.761 618.001 221.968 618.157C222.175 618.313 222.444 618.398 222.722 618.395C222.722 618.395 457.618 618.395 458.627 617.552L457.818 613.825C457.818 613.252 456.969 612.712 456.31 612.619L454.232 612.324C454.232 612.324 225.889 612.324 223.921 612.619Z" fill="#F2F0F0"/>
<path d="M223.521 612.679C223.163 612.728 222.833 612.87 222.576 613.087C222.32 613.303 222.151 613.582 222.092 613.884L221.483 617.662C221.51 617.893 221.639 618.108 221.844 618.264C222.049 618.42 222.316 618.506 222.592 618.505C222.592 618.505 457.728 618.505 458.757 617.662L458.147 613.884C458.147 613.311 457.378 612.78 456.709 612.679L454.621 612.375C454.621 612.375 225.529 612.375 223.521 612.679Z" fill="#F3F1F1"/>
<path d="M223.132 612.738C222.778 612.786 222.452 612.931 222.205 613.15C221.958 613.369 221.803 613.651 221.764 613.952L221.354 617.763C221.367 618.003 221.49 618.23 221.697 618.395C221.903 618.56 222.178 618.651 222.463 618.648C222.463 618.648 457.829 618.648 458.878 617.763L458.468 613.952C458.429 613.652 458.276 613.371 458.03 613.152C457.785 612.933 457.462 612.788 457.109 612.738L455.011 612.426C455.011 612.426 225.17 612.426 223.132 612.738Z" fill="#F4F2F2"/>
<path d="M222.732 612.796C222.383 612.846 222.065 612.993 221.829 613.216C221.593 613.438 221.453 613.721 221.433 614.019L221.233 617.864C221.241 618.104 221.359 618.332 221.562 618.5C221.765 618.669 222.038 618.764 222.322 618.766C222.322 618.766 457.938 618.766 458.997 617.864L458.797 614.019C458.777 613.721 458.638 613.438 458.402 613.216C458.166 612.993 457.847 612.846 457.498 612.796L455.4 612.484C455.4 612.484 224.79 612.484 222.732 612.796Z" fill="#F5F3F3"/>
<g filter="url(#filter0_d)">
<path d="M457.898 612.856L455.79 612.535H224.45L222.332 612.856C221.99 612.907 221.68 613.059 221.457 613.284C221.234 613.509 221.113 613.793 221.113 614.087V617.965C221.112 618.086 221.139 618.205 221.193 618.316C221.246 618.428 221.325 618.529 221.426 618.615C221.526 618.7 221.646 618.768 221.777 618.814C221.909 618.861 222.05 618.884 222.192 618.884H458.038C458.326 618.884 458.603 618.788 458.808 618.615C459.012 618.443 459.127 618.209 459.127 617.965V614.087C459.125 613.793 459.001 613.508 458.776 613.283C458.552 613.058 458.241 612.907 457.898 612.856Z" fill="#E7E4E4"/>
</g>
<g filter="url(#filter1_d)">
<path d="M633.48 186.339H22.2326C12.1622 186.339 4 193.81 4 203.017V528.665C4 537.873 12.1622 545.343 22.2326 545.343H633.48C643.541 545.343 651.703 537.873 651.703 528.665V203.017C651.703 193.81 643.541 186.339 633.48 186.339Z" fill="url(#paint0_linear)"/>
</g>
<path d="M630.673 189.215H24.5703C14.5799 189.215 6.49756 196.559 6.49756 205.623V526.026C6.49756 535.09 14.5899 542.443 24.5703 542.443H630.673C640.664 542.443 648.746 535.09 648.746 526.026V205.623C648.746 196.559 640.654 189.215 630.673 189.215Z" fill="#0F0F0F"/>
<path d="M334.695 202.436C337.934 202.436 340.56 200.22 340.56 197.487C340.56 194.753 337.934 192.537 334.695 192.537C331.457 192.537 328.831 194.753 328.831 197.487C328.831 200.22 331.457 202.436 334.695 202.436Z" stroke="#262626" stroke-width="0.07" stroke-miterlimit="10"/>
<path d="M634.239 202.436H20.4937V531.599H634.239V202.436Z" fill="#363637"/>
<path d="M525.502 5.3877L494.602 16.6102L507.439 34.3926L538.999 34.7805L542.476 61.2644L565.334 70.8849L577.023 44.8901L557.722 17.3944" fill="#E67016"/>
<path d="M463.403 125.961L451.195 154.78L447.908 131.618L421.034 144.35L434.511 121.349L407.916 121.593L438.467 106.922L463.403 125.961Z" fill="#CC9600"/>
<path d="M576.454 0L530.278 2.69813L560.529 14.7807L578.702 39.8312L576.454 0Z" fill="#83B74A"/>
<path d="M490.387 21.7114L457.438 56.374L493.124 77.3941L523.385 106.947L561.019 75.4801L537.791 65.6067L507.171 64.3503L502.755 38.7434L490.387 21.7114Z" fill="#DB261D"/>
<path d="M467.099 122.529L442.373 103.566L453.692 59.8566L489.378 80.8683L519.639 110.43" fill="#0071B7"/>
<path d="M445.779 72.0488L442.272 85.6153L399.104 87.8413L428.505 67.5294L445.779 72.0488Z" fill="#3BB3C3"/>
<path d="M505.372 117.495L489.547 121.281L489.527 157.773L511.776 131.779L505.372 117.495Z" fill="#3BB3C3"/>
<path d="M508.74 39.3419L534.255 38.9625L536.253 60.438L510.728 60.809L508.74 39.3419Z" fill="#7A1A66"/>
<path d="M417.226 158.119L407.406 167.773" stroke="#CC9600" stroke-width="5" stroke-miterlimit="10"/>
<path d="M432.212 145.471L422.392 155.126" stroke="#CC9600" stroke-width="5" stroke-miterlimit="10"/>
<path d="M402.719 178.853L393.928 189.198" stroke="#CC9600" stroke-width="5" stroke-miterlimit="10"/>
<path d="M392.481 198.481L386.187 210.041" stroke="#CC9600" stroke-width="5" stroke-miterlimit="10"/>
<path d="M384.077 218.566L378.602 230.42" stroke="#CC9600" stroke-width="5" stroke-miterlimit="10"/>
<path d="M375.516 239.29L373.178 251.862" stroke="#CC9600" stroke-width="5" stroke-miterlimit="10"/>
<path d="M373.518 260.37L371.181 272.942" stroke="#CC9600" stroke-width="5" stroke-miterlimit="10"/>
<path d="M369.981 281.381L370.721 294.088" stroke="#CC9600" stroke-width="5" stroke-miterlimit="10"/>
<path d="M369.981 300.774L370.721 313.481" stroke="#CC9600" stroke-width="5" stroke-miterlimit="10"/>
<path d="M370.981 321.01L371.72 333.717" stroke="#CC9600" stroke-width="5" stroke-miterlimit="10"/>
<path d="M370.842 340.749L365.876 352.764" stroke="#CC9600" stroke-width="5" stroke-miterlimit="10"/>
<path d="M361.849 360.142L356.884 372.157" stroke="#CC9600" stroke-width="5" stroke-miterlimit="10"/>
<path d="M352.858 379.535L347.893 391.55" stroke="#CC9600" stroke-width="5" stroke-miterlimit="10"/>
<path d="M452.583 161.93L446.389 173.532" stroke="#CC9600" stroke-width="5" stroke-miterlimit="10"/>
<path d="M443.811 184.923L437.617 196.525" stroke="#CC9600" stroke-width="5" stroke-miterlimit="10"/>
<path d="M438.366 205.868L434.91 218.262" stroke="#CC9600" stroke-width="5" stroke-miterlimit="10"/>
<path d="M434.849 226.963L432.252 239.501" stroke="#CC9600" stroke-width="5" stroke-miterlimit="10"/>
<path d="M431.303 248.709L431.952 261.424" stroke="#CC9600" stroke-width="5" stroke-miterlimit="10"/>
<path d="M434.279 269.704L434.939 282.419" stroke="#CC9600" stroke-width="5" stroke-miterlimit="10"/>
<path d="M435.739 290.893L439.445 303.228" stroke="#CC9600" stroke-width="5" stroke-miterlimit="10"/>
<path d="M440.274 309.898L443.981 322.233" stroke="#CC9600" stroke-width="5" stroke-miterlimit="10"/>
<path d="M445.999 329.569L449.705 341.904" stroke="#CC9600" stroke-width="5" stroke-miterlimit="10"/>
<path d="M450.484 348.945L448.426 361.55" stroke="#CC9600" stroke-width="5" stroke-miterlimit="10"/>
<path d="M446.209 369.45L444.161 382.064" stroke="#CC9600" stroke-width="5" stroke-miterlimit="10"/>
<path d="M441.942 389.965L439.884 402.57" stroke="#CC9600" stroke-width="5" stroke-miterlimit="10"/>
<path d="M311.717 175.21L302.396 185.21" stroke="#CC9600" stroke-width="5" stroke-miterlimit="10"/>
<path d="M328.082 162.832L318.001 172.293" stroke="#CC9600" stroke-width="5" stroke-miterlimit="10"/>
<path d="M346.514 150.547L335.535 159.274" stroke="#CC9600" stroke-width="5" stroke-miterlimit="10"/>
<path d="M365.826 141.239L352.188 146.669" stroke="#CC9600" stroke-width="5" stroke-miterlimit="10"/>
<path d="M386.805 135.337L373.168 140.767" stroke="#CC9600" stroke-width="5" stroke-miterlimit="10"/>
<path d="M405.787 127.748L392.15 133.178" stroke="#CC9600" stroke-width="5" stroke-miterlimit="10"/>
<path d="M296.652 195.75L287.331 205.758" stroke="#CC9600" stroke-width="5" stroke-miterlimit="10"/>
<path d="M285.401 214.974L278.518 226.297" stroke="#CC9600" stroke-width="5" stroke-miterlimit="10"/>
<path d="M275.971 234.738L269.876 246.382" stroke="#CC9600" stroke-width="5" stroke-miterlimit="10"/>
<path d="M266.341 255.117L263.354 267.596" stroke="#CC9600" stroke-width="5" stroke-miterlimit="10"/>
<path d="M263.253 276.103L260.256 288.582" stroke="#CC9600" stroke-width="5" stroke-miterlimit="10"/>
<path d="M258.628 296.963L258.708 309.695" stroke="#CC9600" stroke-width="5" stroke-miterlimit="10"/>
<path d="M257.618 316.339L257.698 329.062" stroke="#CC9600" stroke-width="5" stroke-miterlimit="10"/>
<path d="M257.568 336.592L257.648 349.316" stroke="#CC9600" stroke-width="5" stroke-miterlimit="10"/>
<path d="M256.399 356.306L250.814 368.127" stroke="#CC9600" stroke-width="5" stroke-miterlimit="10"/>
<path d="M246.408 375.353L240.824 387.174" stroke="#CC9600" stroke-width="5" stroke-miterlimit="10"/>
<path d="M236.418 394.391L230.833 406.212" stroke="#CC9600" stroke-width="5" stroke-miterlimit="10"/>
<path d="M342.868 398.927L337.902 410.942" stroke="#CC9600" stroke-width="5" stroke-miterlimit="10"/>
<g filter="url(#filter2_d)">
<path d="M245.03 451.937H150.12V532.038H245.03V451.937Z" fill="#6FB0C0"/>
</g>
<g filter="url(#filter3_d)">
<path d="M282.874 409.776L210.07 398.931L197.22 460.375L270.024 471.221L282.874 409.776Z" fill="#4070B2"/>
</g>
<g filter="url(#filter4_d)">
<path d="M351.929 451.937H257.019V532.038H351.929V451.937Z" fill="#CB6F25"/>
</g>
<g filter="url(#filter5_d)">
<path d="M377.903 403.034H301.975V467.114H377.903V403.034Z" fill="#BB2A23"/>
</g>
<g filter="url(#filter6_d)">
<path d="M483.802 396.288H407.875V460.369H483.802V396.288Z" fill="#692064"/>
</g>
<g filter="url(#filter7_d)">
<path d="M463.821 451.937H368.912V532.038H463.821V451.937Z" fill="#83B74A"/>
</g>
<defs>
<filter id="filter0_d" x="217.113" y="612.535" width="246.013" height="14.3491" filterUnits="userSpaceOnUse" color-interpolation-filters="sRGB">
<feFlood flood-opacity="0" result="BackgroundImageFix"/>
<feColorMatrix in="SourceAlpha" type="matrix" values="0 0 0 0 0 0 0 0 0 0 0 0 0 0 0 0 0 0 127 0" result="hardAlpha"/>
<feOffset dy="4"/>
<feGaussianBlur stdDeviation="2"/>
<feColorMatrix type="matrix" values="0 0 0 0 0 0 0 0 0 0 0 0 0 0 0 0 0 0 0.25 0"/>
<feBlend mode="normal" in2="BackgroundImageFix" result="effect1_dropShadow"/>
<feBlend mode="normal" in="SourceGraphic" in2="effect1_dropShadow" result="shape"/>
</filter>
<filter id="filter1_d" x="0" y="186.339" width="655.703" height="367.004" filterUnits="userSpaceOnUse" color-interpolation-filters="sRGB">
<feFlood flood-opacity="0" result="BackgroundImageFix"/>
<feColorMatrix in="SourceAlpha" type="matrix" values="0 0 0 0 0 0 0 0 0 0 0 0 0 0 0 0 0 0 127 0" result="hardAlpha"/>
<feOffset dy="4"/>
<feGaussianBlur stdDeviation="2"/>
<feColorMatrix type="matrix" values="0 0 0 0 0 0 0 0 0 0 0 0 0 0 0 0 0 0 0.25 0"/>
<feBlend mode="normal" in2="BackgroundImageFix" result="effect1_dropShadow"/>
<feBlend mode="normal" in="SourceGraphic" in2="effect1_dropShadow" result="shape"/>
</filter>
<filter id="filter2_d" x="146.12" y="451.937" width="102.91" height="88.1008" filterUnits="userSpaceOnUse" color-interpolation-filters="sRGB">
<feFlood flood-opacity="0" result="BackgroundImageFix"/>
<feColorMatrix in="SourceAlpha" type="matrix" values="0 0 0 0 0 0 0 0 0 0 0 0 0 0 0 0 0 0 127 0" result="hardAlpha"/>
<feOffset dy="4"/>
<feGaussianBlur stdDeviation="2"/>
<feColorMatrix type="matrix" values="0 0 0 0 0 0 0 0 0 0 0 0 0 0 0 0 0 0 0.25 0"/>
<feBlend mode="normal" in2="BackgroundImageFix" result="effect1_dropShadow"/>
<feBlend mode="normal" in="SourceGraphic" in2="effect1_dropShadow" result="shape"/>
</filter>
<filter id="filter3_d" x="193.22" y="398.931" width="93.6544" height="80.2899" filterUnits="userSpaceOnUse" color-interpolation-filters="sRGB">
<feFlood flood-opacity="0" result="BackgroundImageFix"/>
<feColorMatrix in="SourceAlpha" type="matrix" values="0 0 0 0 0 0 0 0 0 0 0 0 0 0 0 0 0 0 127 0" result="hardAlpha"/>
<feOffset dy="4"/>
<feGaussianBlur stdDeviation="2"/>
<feColorMatrix type="matrix" values="0 0 0 0 0 0 0 0 0 0 0 0 0 0 0 0 0 0 0.25 0"/>
<feBlend mode="normal" in2="BackgroundImageFix" result="effect1_dropShadow"/>
<feBlend mode="normal" in="SourceGraphic" in2="effect1_dropShadow" result="shape"/>
</filter>
<filter id="filter4_d" x="253.019" y="451.937" width="102.91" height="88.1008" filterUnits="userSpaceOnUse" color-interpolation-filters="sRGB">
<feFlood flood-opacity="0" result="BackgroundImageFix"/>
<feColorMatrix in="SourceAlpha" type="matrix" values="0 0 0 0 0 0 0 0 0 0 0 0 0 0 0 0 0 0 127 0" result="hardAlpha"/>
<feOffset dy="4"/>
<feGaussianBlur stdDeviation="2"/>
<feColorMatrix type="matrix" values="0 0 0 0 0 0 0 0 0 0 0 0 0 0 0 0 0 0 0.25 0"/>
<feBlend mode="normal" in2="BackgroundImageFix" result="effect1_dropShadow"/>
<feBlend mode="normal" in="SourceGraphic" in2="effect1_dropShadow" result="shape"/>
</filter>
<filter id="filter5_d" x="297.975" y="403.034" width="83.9277" height="72.0807" filterUnits="userSpaceOnUse" color-interpolation-filters="sRGB">
<feFlood flood-opacity="0" result="BackgroundImageFix"/>
<feColorMatrix in="SourceAlpha" type="matrix" values="0 0 0 0 0 0 0 0 0 0 0 0 0 0 0 0 0 0 127 0" result="hardAlpha"/>
<feOffset dy="4"/>
<feGaussianBlur stdDeviation="2"/>
<feColorMatrix type="matrix" values="0 0 0 0 0 0 0 0 0 0 0 0 0 0 0 0 0 0 0.25 0"/>
<feBlend mode="normal" in2="BackgroundImageFix" result="effect1_dropShadow"/>
<feBlend mode="normal" in="SourceGraphic" in2="effect1_dropShadow" result="shape"/>
</filter>
<filter id="filter6_d" x="403.875" y="396.288" width="83.9277" height="72.0806" filterUnits="userSpaceOnUse" color-interpolation-filters="sRGB">
<feFlood flood-opacity="0" result="BackgroundImageFix"/>
<feColorMatrix in="SourceAlpha" type="matrix" values="0 0 0 0 0 0 0 0 0 0 0 0 0 0 0 0 0 0 127 0" result="hardAlpha"/>
<feOffset dy="4"/>
<feGaussianBlur stdDeviation="2"/>
<feColorMatrix type="matrix" values="0 0 0 0 0 0 0 0 0 0 0 0 0 0 0 0 0 0 0.25 0"/>
<feBlend mode="normal" in2="BackgroundImageFix" result="effect1_dropShadow"/>
<feBlend mode="normal" in="SourceGraphic" in2="effect1_dropShadow" result="shape"/>
</filter>
<filter id="filter7_d" x="364.912" y="451.937" width="102.91" height="88.1008" filterUnits="userSpaceOnUse" color-interpolation-filters="sRGB">
<feFlood flood-opacity="0" result="BackgroundImageFix"/>
<feColorMatrix in="SourceAlpha" type="matrix" values="0 0 0 0 0 0 0 0 0 0 0 0 0 0 0 0 0 0 127 0" result="hardAlpha"/>
<feOffset dy="4"/>
<feGaussianBlur stdDeviation="2"/>
<feColorMatrix type="matrix" values="0 0 0 0 0 0 0 0 0 0 0 0 0 0 0 0 0 0 0.25 0"/>
<feBlend mode="normal" in2="BackgroundImageFix" result="effect1_dropShadow"/>
<feBlend mode="normal" in="SourceGraphic" in2="effect1_dropShadow" result="shape"/>
</filter>
<linearGradient id="paint0_linear" x1="327.852" y1="545.301" x2="327.852" y2="186.339" gradientUnits="userSpaceOnUse">
<stop stop-color="#727275"/>
<stop offset="0.51" stop-color="#AAAAAE"/>
<stop offset="0.66" stop-color="#C6C6C9"/>
<stop offset="1" stop-color="#5E5E60"/>
</linearGradient>
</defs>
</svg>
