<svg width="422" height="115" viewBox="0 0 422 115" fill="none" xmlns="http://www.w3.org/2000/svg">
<path d="M0 94.3281V21.4096H7.13538V94.3281H0Z" fill="black"/>
<path d="M18.9473 94.3281V43.5499H25.3113V51.9247C29.7468 47.4966 33.652 44.7692 37.0268 43.7424C38.6018 43.2611 40.5785 43.0204 42.9569 43.0204C45.3354 43.0204 47.6174 43.7905 49.803 45.3307C52.0208 46.8709 53.4832 49.1972 54.1903 52.3097C58.8508 47.657 62.8524 44.8173 66.1951 43.7905C67.7701 43.2771 69.4414 43.0204 71.2092 43.0204C74.9054 43.0204 77.9428 44.1435 80.3213 46.3896C82.6997 48.6357 83.8889 52.0049 83.8889 56.4971V94.3281H77.525V56.4971C77.525 54.0906 76.6571 52.1493 74.9215 50.6733C73.218 49.1651 71.3699 48.4111 69.3771 48.4111C64.6523 48.4111 59.7347 51.1867 54.6242 56.7378V94.3281H48.2603V56.4971C48.2603 54.0906 47.3924 52.1493 45.6568 50.6733C43.9533 49.1651 42.1052 48.4111 40.1124 48.4111C35.3555 48.4111 30.4218 51.1867 25.3113 56.7378V94.3281H18.9473Z" fill="black"/>
<path d="M95.4598 114.062V43.5499H101.824V51.4434C102.595 49.9994 103.865 48.5555 105.633 47.1116C108.975 44.3841 112.463 43.0204 116.095 43.0204C122.844 43.0204 127.987 46.7105 131.522 54.0906C133.547 58.3261 134.56 62.9627 134.56 68.0004C134.56 76.8566 132.39 83.8997 128.051 89.13C124.901 92.9484 120.707 94.8576 115.468 94.8576C112.511 94.8576 109.65 93.9752 106.886 92.2104C104.122 90.4135 102.435 88.8733 101.824 87.5898V114.062H95.4598ZM101.824 82.1029C103.302 84.2206 105.102 85.9854 107.224 87.3973C109.345 88.777 111.354 89.4669 113.25 89.4669C115.179 89.4669 116.786 89.2904 118.071 88.9375C119.389 88.5524 120.675 87.8786 121.928 86.916C123.214 85.9213 124.307 84.6378 125.207 83.0655C127.199 79.6 128.196 74.5784 128.196 68.0004C128.196 59.9786 126.332 54.3312 122.603 51.0583C120.61 49.2935 118.103 48.4111 115.082 48.4111C111.032 48.4111 107.497 50.1117 104.475 53.513C103.704 54.3794 102.82 55.4864 101.824 56.834V82.1029Z" fill="black"/>
<path d="M144.443 81.3809V43.5499H150.807V81.3809C150.807 83.7874 151.659 85.7448 153.363 87.2529C155.098 88.7289 156.962 89.4669 158.955 89.4669C163.712 89.4669 168.646 86.6914 173.756 81.1402V43.5499H180.12V94.3281H173.756V85.9533C169.192 90.4135 165.287 93.1409 162.041 94.1356C160.466 94.6169 158.827 94.8576 157.123 94.8576C153.427 94.8576 150.389 93.7345 148.011 91.4884C145.633 89.2423 144.443 85.8731 144.443 81.3809Z" fill="black"/>
<path d="M191.691 94.4244V21.4096H198.055V94.4244H191.691Z" fill="black"/>
<path d="M209.481 84.7019L214.254 81.6215C215.958 84.2527 217.854 86.2261 219.943 87.5417C222.033 88.8252 224.588 89.4669 227.609 89.4669C230.759 89.4669 233.314 88.6166 235.275 86.916C236.914 85.5041 237.734 83.7714 237.734 81.7178C237.734 79.6642 237.38 78.0278 236.673 76.8084C235.966 75.5891 234.969 74.5944 233.684 73.8243C231.53 72.605 229.28 71.7226 226.934 71.1771C224.62 70.5995 222.788 70.0861 221.438 69.6369C220.12 69.1556 218.754 68.5138 217.34 67.7117C215.926 66.9095 214.704 66.011 213.676 65.0163C211.329 62.7381 210.156 59.7379 210.156 56.0158C210.156 52.2616 211.651 49.1651 214.64 46.7265C217.661 44.2558 221.502 43.0204 226.163 43.0204C231.659 43.0204 236.303 44.9938 240.096 48.9405C240.803 49.6785 241.398 50.4005 241.88 51.1064L237.493 54.3793C237.268 54.1547 236.818 53.6895 236.143 52.9836C235.468 52.2455 235.034 51.7803 234.841 51.5877L233.587 50.577C233.009 50.0636 232.527 49.7267 232.141 49.5662L230.502 48.9887C229.473 48.6036 227.738 48.4111 225.295 48.4111C222.852 48.4111 220.747 49.117 218.979 50.5289C217.211 51.9086 216.327 53.4328 216.327 55.1013C216.327 56.7699 216.617 58.1175 217.195 59.1443C217.774 60.139 218.642 61.0054 219.799 61.7434C221.663 62.8986 223.816 63.8451 226.259 64.5831C228.702 65.3211 230.309 65.8185 231.08 66.0752C231.884 66.3319 232.945 66.733 234.262 67.2785C235.612 67.7919 236.657 68.2892 237.396 68.7705C238.167 69.2519 239.035 69.8936 240 70.6958C240.964 71.4659 241.703 72.2841 242.217 73.1505C243.471 75.3324 244.098 77.7069 244.098 80.2739C244.098 84.5415 242.474 88.039 239.228 90.7664C235.982 93.4939 232.221 94.8576 227.947 94.8576C223.672 94.8576 220.072 94.0554 217.147 92.451C214.254 90.8146 211.699 88.2316 209.481 84.7019Z" fill="black"/>
<path d="M251.426 81.9585C251.426 79.6482 251.715 77.6427 252.294 75.9421C252.872 74.2094 253.772 72.6852 254.993 71.3696C256.247 70.022 257.661 68.8347 259.236 67.8079C260.811 66.7811 262.772 65.8506 265.118 65.0163C269.393 63.5082 274.616 62.1445 280.787 60.9252C280.787 55.8554 279.807 52.4701 277.846 50.7695C276.11 49.2614 273.587 48.5074 270.277 48.5074C266.227 48.5074 262.74 50.0476 259.815 53.1279C258.561 54.3794 257.693 55.5024 257.211 56.4971L252.631 53.4649C256.231 46.5661 262.354 43.1167 271 43.1167C278.746 43.1167 283.696 46.0848 285.849 52.0209C286.717 54.4275 287.151 57.3474 287.151 60.7808V87.2048C287.151 88.1353 287.328 89.4027 287.681 91.0071C288.035 92.6115 288.356 93.7185 288.645 94.3281H282.233C281.269 93.8468 280.787 91.1515 280.787 86.2421C276.255 92.0499 271.257 94.9538 265.793 94.9538C259.75 94.9538 255.556 92.8361 253.21 88.6006C252.02 86.4507 251.426 84.2367 251.426 81.9585ZM258.995 76.4234C258.192 77.8994 257.79 79.8246 257.79 82.1991C257.79 84.5736 258.625 86.4026 260.297 87.6861C261.968 88.9375 263.816 89.5632 265.841 89.5632C267.898 89.5632 269.698 89.2583 271.241 88.6487C272.816 88.039 274.246 87.2529 275.532 86.2903C277.878 84.5255 279.63 82.9532 280.787 81.5734V66.3159C274.68 67.8881 271.064 68.8508 269.939 69.2037C264.282 71.0327 260.634 73.4393 258.995 76.4234Z" fill="black"/>
<path d="M298.625 72.7654V21.4096H310.148V70.0219C310.148 78.1401 312.768 83.1778 318.007 85.1351C319.357 85.6485 320.867 85.9052 322.539 85.9052C324.21 85.9052 325.721 85.6806 327.07 85.2314C328.42 84.7822 329.513 84.2206 330.349 83.5468C331.185 82.873 331.908 82.0226 332.518 80.9958C333.129 79.937 333.579 78.9743 333.868 78.108C334.158 77.2416 334.399 76.2148 334.592 75.0276C334.784 73.4874 334.881 71.8188 334.881 70.0219V21.4096H346.645V72.7654C346.645 80.1134 344.218 85.9373 339.365 90.237C335.347 93.7987 329.754 95.5796 322.587 95.5796C311.691 95.5796 304.459 91.4563 300.891 83.2099C299.381 79.8086 298.625 76.3271 298.625 72.7654Z" fill="black"/>
<path d="M356.962 94.3281V21.4096H368.485V94.3281H356.962Z" fill="black"/>
<path d="M374.463 75.6533L383.72 72.621C383.752 72.621 383.816 72.8617 383.913 73.343C384.009 73.8243 384.17 74.4661 384.395 75.2682C384.652 76.0383 384.989 76.9047 385.407 77.8673C385.857 78.7979 386.5 79.7444 387.336 80.7071C388.171 81.6376 389.152 82.4879 390.276 83.258C392.783 85.0228 395.901 85.9052 399.63 85.9052C403.358 85.9052 406.09 84.9907 407.826 83.1617C409.593 81.3328 410.477 79.1669 410.477 76.664C410.477 74.1291 410.22 72.0916 409.706 70.5514C409.192 68.9791 408.292 67.6154 407.006 66.4603C404.853 64.535 401.124 62.8023 395.821 61.2621C386.468 58.5347 380.457 54.3152 377.79 48.6036C376.407 45.6195 375.716 42.1059 375.716 38.0629C375.716 34.6617 376.922 31.3406 379.332 28.0998C383.543 22.7412 389.521 20.0619 397.267 20.0619C403.406 20.0619 408.436 21.9069 412.358 25.597C415.154 28.196 417.243 31.469 418.625 35.4157L419.541 37.9667C419.83 38.7367 420.023 39.2341 420.12 39.4587L410.718 42.7798C408.597 36.0414 405.286 31.8861 400.787 30.3138C399.662 29.9288 398.489 29.7362 397.267 29.7362C390.582 29.7362 387.239 33.1696 387.239 40.0363C387.239 43.1809 388.171 45.5874 390.035 47.256C391.578 48.6999 393.603 49.839 396.11 50.6733L398.424 51.4434C399.742 51.8926 400.465 52.1332 400.594 52.1653L402.715 52.8873C408.211 54.8125 411.924 56.5132 413.852 57.9892C416.681 60.1711 418.529 62.1766 419.397 64.0056C421.132 67.7598 422 71.7226 422 75.8939C422 79.1669 421.068 82.4879 419.204 85.8571C416.697 90.3814 412.727 93.3495 407.295 94.7613C405.206 95.3068 402.924 95.5796 400.449 95.5796C397.974 95.5796 395.644 95.3549 393.458 94.9057C391.305 94.4565 389.441 93.8468 387.866 93.0767C386.291 92.3066 384.845 91.4242 383.527 90.4295C382.209 89.4348 381.1 88.392 380.2 87.301C379.3 86.1779 378.513 85.0709 377.838 83.98C377.163 82.8569 376.616 81.798 376.199 80.8033C375.813 79.8086 375.491 78.9262 375.234 78.1561C374.977 77.386 374.784 76.7764 374.656 76.3271C374.559 75.8779 374.495 75.6533 374.463 75.6533Z" fill="black"/>
<path d="M362.638 0.901367L346 18.4274L362.638 13.3156L380 18.4274L362.638 0.901367Z" fill="#67B93E"/>
</svg>
