<svg width="674" height="170" viewBox="0 0 674 170" fill="none" xmlns="http://www.w3.org/2000/svg">
<path d="M109 126.548V28.8065H118.553V126.548H109Z" fill="black"/>
<path d="M134.368 126.548V58.4839H142.888V69.7097C148.827 63.7742 154.055 60.1183 158.574 58.7419C160.682 58.0968 163.329 57.7742 166.513 57.7742C169.698 57.7742 172.753 58.8065 175.679 60.871C178.649 62.9355 180.607 66.0538 181.553 70.2258C187.793 63.9892 193.151 60.1828 197.626 58.8065C199.735 58.1183 201.973 57.7742 204.339 57.7742C209.288 57.7742 213.355 59.2796 216.539 62.2903C219.724 65.3011 221.316 69.8172 221.316 75.8387V126.548H212.795V75.8387C212.795 72.6129 211.633 70.0108 209.31 68.0323C207.029 66.0108 204.554 65 201.886 65C195.561 65 188.977 68.7204 182.134 76.1613V126.548H173.614V75.8387C173.614 72.6129 172.452 70.0108 170.128 68.0323C167.847 66.0108 165.373 65 162.705 65C156.336 65 149.731 68.7204 142.888 76.1613V126.548H134.368Z" fill="black"/>
<path d="M236.808 153V58.4839H245.328V69.0645C246.361 67.129 248.061 65.1935 250.428 63.2581C254.903 59.6022 259.572 57.7742 264.435 57.7742C273.472 57.7742 280.357 62.7204 285.09 72.6129C287.802 78.2903 289.157 84.5054 289.157 91.2581C289.157 103.129 286.252 112.57 280.443 119.581C276.226 124.699 270.61 127.258 263.596 127.258C259.637 127.258 255.807 126.075 252.106 123.71C248.405 121.301 246.146 119.237 245.328 117.516V153H236.808ZM245.328 110.161C247.308 113 249.717 115.366 252.558 117.258C255.398 119.108 258.087 120.032 260.626 120.032C263.208 120.032 265.36 119.796 267.081 119.323C268.846 118.806 270.567 117.903 272.245 116.613C273.966 115.28 275.43 113.559 276.635 111.452C279.303 106.806 280.637 100.075 280.637 91.2581C280.637 80.5054 278.141 72.9355 273.149 68.5484C270.481 66.1828 267.124 65 263.079 65C257.657 65 252.923 67.2796 248.878 71.8387C247.846 73 246.662 74.4839 245.328 76.2903V110.161Z" fill="black"/>
<path d="M302.39 109.194V58.4839H310.91V109.194C310.91 112.419 312.051 115.043 314.331 117.065C316.655 119.043 319.151 120.032 321.819 120.032C328.188 120.032 334.793 116.312 341.636 108.871V58.4839H350.156V126.548H341.636V115.323C335.525 121.301 330.296 124.957 325.95 126.29C323.842 126.935 321.647 127.258 319.366 127.258C314.417 127.258 310.351 125.753 307.166 122.742C303.982 119.731 302.39 115.215 302.39 109.194Z" fill="black"/>
<path d="M365.648 126.677V28.8065H374.169V126.677H365.648Z" fill="black"/>
<path d="M389.467 113.645L395.857 109.516C398.138 113.043 400.677 115.688 403.474 117.452C406.271 119.172 409.692 120.032 413.737 120.032C417.954 120.032 421.376 118.892 424.001 116.613C426.195 114.72 427.293 112.398 427.293 109.645C427.293 106.892 426.819 104.699 425.873 103.065C424.926 101.43 423.592 100.097 421.87 99.0645C418.987 97.4301 415.975 96.2473 412.834 95.5161C409.735 94.7419 407.282 94.0538 405.475 93.4516C403.711 92.8065 401.882 91.9462 399.988 90.871C398.095 89.7957 396.46 88.5914 395.082 87.2581C391.941 84.2043 390.37 80.1828 390.37 75.1935C390.37 70.1613 392.371 66.0107 396.373 62.7419C400.419 59.4301 405.561 57.7742 411.801 57.7742C419.159 57.7742 425.378 60.4194 430.456 65.7097C431.402 66.6989 432.198 67.6667 432.844 68.6129L426.97 73C426.669 72.6989 426.066 72.0753 425.162 71.129C424.259 70.1398 423.678 69.5161 423.42 69.2581L421.741 67.9032C420.967 67.2151 420.321 66.7634 419.805 66.5484L417.61 65.7742C416.233 65.2581 413.909 65 410.639 65C407.368 65 404.55 65.9462 402.183 67.8387C399.816 69.6882 398.633 71.7312 398.633 73.9677C398.633 76.2043 399.02 78.0108 399.795 79.3871C400.569 80.7204 401.731 81.8817 403.28 82.871C405.776 84.4194 408.659 85.6882 411.93 86.6774C415.2 87.6667 417.352 88.3333 418.385 88.6774C419.461 89.0215 420.881 89.5591 422.645 90.2903C424.452 90.9785 425.851 91.6452 426.841 92.2903C427.874 92.9355 429.035 93.7957 430.326 94.871C431.617 95.9032 432.607 97 433.296 98.1613C434.974 101.086 435.813 104.269 435.813 107.71C435.813 113.43 433.64 118.118 429.294 121.774C424.947 125.43 419.912 127.258 414.189 127.258C408.466 127.258 403.646 126.183 399.73 124.032C395.857 121.839 392.436 118.376 389.467 113.645Z" fill="black"/>
<path d="M445.625 109.968C445.625 106.871 446.012 104.183 446.786 101.903C447.561 99.5806 448.766 97.5376 450.401 95.7742C452.08 93.9677 453.973 92.3763 456.082 91C458.19 89.6237 460.815 88.3763 463.957 87.2581C469.68 85.2366 476.673 83.4086 484.935 81.7742C484.935 74.9785 483.623 70.4409 480.998 68.1613C478.674 66.1398 475.296 65.129 470.863 65.129C465.441 65.129 460.772 67.1935 456.856 71.3226C455.178 73 454.016 74.5054 453.371 75.8387L447.238 71.7742C452.058 62.5269 460.256 57.9032 471.832 57.9032C482.203 57.9032 488.83 61.8817 491.713 69.8387C492.875 73.0645 493.456 76.9785 493.456 81.5806V117C493.456 118.247 493.692 119.946 494.166 122.097C494.639 124.247 495.069 125.731 495.457 126.548H486.872C485.581 125.903 484.935 122.29 484.935 115.71C478.867 123.495 472.176 127.387 464.86 127.387C456.77 127.387 451.154 124.548 448.013 118.871C446.421 115.989 445.625 113.022 445.625 109.968ZM455.759 102.548C454.683 104.527 454.145 107.108 454.145 110.29C454.145 113.473 455.264 115.925 457.502 117.645C459.739 119.323 462.214 120.161 464.925 120.161C467.679 120.161 470.089 119.753 472.154 118.935C474.263 118.118 476.178 117.065 477.899 115.774C481.041 113.409 483.386 111.301 484.935 109.452V89C476.759 91.1075 471.918 92.3978 470.411 92.871C462.838 95.3226 457.953 98.5484 455.759 102.548Z" fill="black"/>
<path d="M508.818 97.6452V28.8065H524.246V93.9677C524.246 104.849 527.753 111.602 534.767 114.226C536.575 114.914 538.597 115.258 540.835 115.258C543.073 115.258 545.095 114.957 546.902 114.355C548.71 113.753 550.173 113 551.292 112.097C552.411 111.194 553.379 110.054 554.197 108.677C555.014 107.258 555.617 105.968 556.004 104.806C556.391 103.645 556.714 102.269 556.972 100.677C557.23 98.6129 557.359 96.3763 557.359 93.9677V28.8065H573.109V97.6452C573.109 107.495 569.86 115.301 563.363 121.065C557.983 125.839 550.496 128.226 540.899 128.226C526.311 128.226 516.629 122.699 511.852 111.645C509.83 107.086 508.818 102.419 508.818 97.6452Z" fill="black"/>
<path d="M586.923 126.548V28.8065H602.35V126.548H586.923Z" fill="black"/>
<path d="M610.354 101.516L622.748 97.4516C622.791 97.4516 622.877 97.7742 623.006 98.4193C623.135 99.0645 623.35 99.9247 623.652 101C623.996 102.032 624.448 103.194 625.007 104.484C625.61 105.731 626.47 107 627.589 108.29C628.708 109.538 630.02 110.677 631.527 111.71C634.883 114.075 639.057 115.258 644.049 115.258C649.041 115.258 652.699 114.032 655.023 111.581C657.389 109.129 658.573 106.226 658.573 102.871C658.573 99.4731 658.228 96.7419 657.54 94.6774C656.851 92.5699 655.646 90.7419 653.925 89.1936C651.042 86.6129 646.05 84.2903 638.95 82.2258C626.427 78.5699 618.38 72.914 614.808 65.2581C612.958 61.2581 612.033 56.5484 612.033 51.129C612.033 46.5699 613.646 42.1183 616.874 37.7742C622.511 30.5914 630.515 27 640.886 27C649.105 27 655.84 29.4731 661.09 34.4194C664.834 37.9032 667.631 42.2903 669.482 47.5806L670.708 51C671.095 52.0323 671.354 52.6989 671.483 53L658.896 57.4516C656.055 48.4194 651.623 42.8495 645.598 40.7419C644.092 40.2258 642.521 39.9677 640.886 39.9677C631.935 39.9677 627.46 44.5699 627.46 53.7742C627.46 57.9892 628.708 61.2151 631.204 63.4516C633.269 65.3871 635.98 66.914 639.337 68.0323L642.435 69.0645C644.2 69.6667 645.168 69.9892 645.34 70.0323L648.18 71C655.539 73.5806 660.509 75.8602 663.091 77.8387C666.878 80.7634 669.352 83.4516 670.514 85.9032C672.838 90.9355 674 96.2473 674 101.839C674 106.226 672.752 110.677 670.256 115.194C666.9 121.258 661.585 125.237 654.312 127.129C651.515 127.86 648.46 128.226 645.146 128.226C641.833 128.226 638.713 127.925 635.787 127.323C632.904 126.72 630.408 125.903 628.299 124.871C626.19 123.839 624.254 122.656 622.49 121.323C620.725 119.989 619.241 118.591 618.036 117.129C616.831 115.624 615.777 114.14 614.873 112.677C613.969 111.172 613.238 109.753 612.678 108.419C612.162 107.086 611.731 105.903 611.387 104.871C611.043 103.839 610.785 103.022 610.613 102.419C610.484 101.817 610.397 101.516 610.354 101.516Z" fill="black"/>
<g clip-path="url(#clip0)">
<path d="M20.2047 28.6747L10.1025 51.2048L27.2762 56.3253L44.4499 40.9639L61.6235 56.3253L79.4639 51.2253L70.7155 28.6747L44.4499 20.4819" fill="#E67016"/>
<path d="M56.572 137.177L66.6742 161.807L51.5209 148.494L44.4494 170L38.3881 148.494L24.2451 161.807L32.1652 137.228L56.572 137.177Z" fill="#CC9600"/>
<path d="M44.4498 0L21.2148 24.5783L44.4498 17.4096L68.695 24.5783L44.4498 0Z" fill="#67B93E"/>
<path d="M10.79 56.5812L13.1337 95.2409L44.4504 91.1445L77.7875 95.2409L79.808 56.3252L61.6241 61.4457L44.4504 75.783L27.2768 61.4457L10.79 56.5812Z" fill="#DB261D"/>
<path d="M56.5711 133.132H32.3259L13.1318 99.3371L44.4485 95.2407L77.7856 99.3371" fill="#0071B7"/>
<path d="M15.9412 111.115L21.8914 121.601L0 144.398L4.04086 116.747L15.9412 111.115Z" fill="#3BB3C3"/>
<path d="M74.2211 110.95L67.9072 121.222L89.0005 144.776L85.9093 117.003L74.2211 110.95Z" fill="#3BB3C3"/>
<path d="M45.2571 43L30 56.1814L45.2571 68.5639L59.8786 56.1814L45.2571 43Z" fill="#7A1A66"/>
</g>
<path d="M595 2L572 23L595 16.875L619 23L595 2Z" fill="#67B93E"/>
<defs>
<clipPath id="clip0">
<rect width="89" height="170" fill="white"/>
</clipPath>
</defs>
</svg>
