<svg width="203" height="388" viewBox="0 0 203 388" fill="none" xmlns="http://www.w3.org/2000/svg">
<path d="M46.085 65.4458L23.043 116.867L62.2144 128.554L101.386 93.494L140.557 128.554L181.249 116.914L161.295 65.4458L101.386 46.7469" fill="#E67016"/>
<path d="M129.037 313.088L152.079 369.301L117.516 338.915L101.387 388L87.5615 338.915L55.3027 369.301L73.3677 313.205L129.037 313.088Z" fill="#CC9600"/>
<path d="M101.385 0L48.3887 56.0964L101.385 39.7349L156.686 56.0964L101.385 0Z" fill="#67B93E"/>
<path d="M24.6074 129.139L29.9532 217.374L101.383 208.024L177.422 217.374L182.03 128.554L140.555 140.241L101.383 172.964L62.212 140.241L24.6074 129.139Z" fill="#DB261D"/>
<path d="M129.038 303.855H73.7368L29.957 226.723L101.387 217.374L177.426 226.723" fill="#0071B7"/>
<path d="M36.3603 253.603L49.932 277.537L0 329.567L9.2168 266.458L36.3603 253.603Z" fill="#3BB3C3"/>
<path d="M169.286 253.228L154.885 276.672L202.996 330.431L195.946 267.042L169.286 253.228Z" fill="#3BB3C3"/>
<path d="M101.497 105.023L66.6973 135.107L101.497 163.369L134.847 135.107L101.497 105.023Z" fill="#7A1A66"/>
</svg>
