<svg width="1439" height="1351" viewBox="0 0 1439 1351" fill="none" xmlns="http://www.w3.org/2000/svg">
<path d="M1355.94 69.6479C1357.66 57.1479 1340.03 46.8666 1326.78 45.8041C1320.53 45.3041 1313.87 46.2416 1308.03 44.1791C1295.06 39.6479 1289.87 22.8979 1277.22 17.5541C1267.84 13.5541 1256.87 17.1166 1247.69 21.7416C1238.5 26.3666 1229.34 32.1479 1219.25 32.7104C1210.34 33.3041 1200.66 29.9916 1192.84 34.3354C1187.03 37.4604 1184 44.2729 1178.66 48.2416C1173.03 51.7407 1166.5 53.5218 1159.87 53.3666C1153.35 53.1975 1146.85 54.2576 1140.72 56.4916C1134.81 59.2104 1129.91 65.4604 1131.16 71.8666L1355.94 69.6479Z" fill="#EAEAEA"/>
<path d="M448.344 84.2103C451.031 64.6478 423.344 48.5853 402.719 46.8978C392.812 46.1166 382.562 47.6166 373.187 44.3666C352.906 37.2728 344.781 11.0541 325 2.71035C310.187 -3.53965 293.156 2.02285 278.812 9.2416C264.469 16.4603 250.281 25.5541 234.219 26.4603C220.281 27.3666 205.156 22.1791 192.937 28.9916C183.844 34.0853 179.094 44.6166 170.719 50.8666C162.344 57.1166 151.969 58.1791 141.656 58.7416C131.344 59.3041 120.937 59.3978 111.687 63.6478C102.437 67.8978 94.7499 77.6791 96.6874 87.6791L448.344 84.2103Z" fill="#F5F5F5"/>
<path d="M1166.13 195.21C1168.75 176.117 1141.81 160.398 1121.56 158.773C1111.91 157.992 1101.91 159.46 1092.75 156.273C1072.94 149.367 1065 123.773 1045.69 115.648C1031.22 109.398 1014.59 114.992 1000.56 121.898C986.531 128.804 972.688 137.835 957.031 138.835C943.438 139.71 928.625 134.679 916.719 141.304C907.844 146.273 903.188 156.492 894.844 162.554C886.5 168.617 876.406 169.71 866.469 170.242C856.531 170.773 846.25 170.867 837.188 175.023C828.125 179.179 820.656 188.742 822.531 198.492L1166.13 195.21Z" fill="#F5F5F5"/>
<path d="M1130.47 1343.3C1064.5 1312.87 1037.56 1239.24 1027.62 1170.49C1025.94 1158.99 1022.53 1147.21 1026.16 1136.12C1029.78 1125.02 1041.22 1116.02 1052.31 1118.99C1061.5 1121.46 1066.97 1130.68 1073.16 1137.96C1081.41 1147.68 1092.24 1154.88 1104.41 1158.71C1112.34 1161.18 1121.75 1161.84 1128.22 1156.62C1137.06 1149.43 1135.78 1135.65 1133.69 1124.3C1129.75 1103.18 1125.82 1082.05 1121.91 1060.93C1119.78 1049.62 1117.69 1038.02 1119.28 1026.55C1120.87 1015.09 1126.87 1003.77 1137.12 998.804C1147.37 993.835 1161.84 997.679 1166.12 1008.37C1167.38 1012.99 1168.33 1017.68 1168.97 1022.43C1170.12 1027.09 1173.25 1031.8 1177.97 1032.4C1182.69 1032.99 1186.69 1028.9 1189.5 1024.96C1199.16 1011.4 1204.44 995.242 1209.25 979.21C1214.06 963.179 1218.62 946.898 1226.94 932.492C1235.25 918.085 1248.22 905.554 1264.44 901.71C1280.66 897.867 1299.62 904.835 1306.59 920.023C1313.56 935.21 1307.16 953.179 1299.34 967.929C1287.72 989.851 1272.98 1009.98 1255.59 1027.68C1252.1 1030.51 1249.6 1034.39 1248.47 1038.74C1247.37 1046.74 1255.87 1052.96 1263.81 1054.12C1272.75 1055.4 1281.78 1052.9 1290.81 1052.34C1299.84 1051.77 1310.12 1053.96 1314.97 1061.71C1321.72 1072.46 1314.19 1086.37 1306.09 1096.09C1289.84 1115.47 1270.37 1131.91 1248.53 1144.68C1240.72 1149.24 1232.44 1153.49 1226.66 1160.55C1220.87 1167.62 1218.75 1178.55 1224.25 1185.8C1229.75 1193.05 1240.66 1193.77 1249.09 1190.59C1257.53 1187.4 1264.53 1181.21 1272.28 1176.62C1286.81 1167.93 1307.16 1165.37 1319.56 1177.05C1327.72 1184.74 1330.5 1196.96 1328.94 1208.12C1327.04 1219.25 1322.91 1229.88 1316.78 1239.37C1297.06 1273.18 1269.31 1302.52 1235.53 1321.55C1201.75 1340.59 1168.72 1349.99 1130.41 1343.43" fill="#EAEAEA"/>
<path d="M1140.44 1297.3C1145.11 1258.05 1152.01 1219.09 1161.12 1180.62C1163.5 1170.37 1165.83 1160.26 1168.13 1150.3C1170.47 1140.37 1172.75 1130.49 1175.59 1120.99C1181.11 1102.75 1187.62 1084.83 1195.09 1067.3C1202.12 1050.52 1209.37 1034.87 1216.28 1020.27C1223.19 1005.68 1229.97 992.148 1236.62 980.21C1247.08 961.176 1259.03 943.003 1272.38 925.867C1277.06 919.804 1280.87 915.242 1283.47 912.148L1286.59 908.679C1286.91 908.268 1287.26 907.891 1287.66 907.554C1287.39 908.006 1287.09 908.434 1286.75 908.835L1283.94 912.429C1281.44 915.554 1277.69 920.242 1273.16 926.398C1260.08 943.665 1248.33 961.894 1238 980.929C1231.44 992.96 1224.81 1006.46 1217.94 1021.05C1211.06 1035.65 1203.91 1051.34 1196.94 1068.09C1189.56 1085.56 1183.12 1103.42 1177.66 1121.59C1174.84 1130.96 1172.56 1140.84 1170.25 1150.8C1167.94 1160.77 1165.62 1170.87 1163.28 1181.09C1154.16 1219.48 1147.2 1258.35 1142.44 1297.52" fill="#E0E0E0"/>
<path d="M1176.19 1120.8C1175.37 1119.32 1174.71 1117.76 1174.22 1116.15C1173.06 1113.02 1171.53 1108.71 1169.72 1103.18C1166.06 1092.18 1161.59 1076.8 1156.69 1059.84C1151.78 1042.87 1147.09 1027.59 1143.31 1016.68C1141.44 1011.21 1139.84 1006.8 1138.75 1003.77C1138.07 1002.23 1137.55 1000.62 1137.22 998.96C1138.14 1000.37 1138.91 1001.88 1139.5 1003.46C1140.84 1006.4 1142.62 1010.74 1144.72 1016.15C1148.87 1026.99 1153.81 1042.24 1158.72 1059.24C1163.63 1076.24 1167.84 1091.15 1171.22 1102.74L1175.09 1115.9C1175.64 1117.49 1176 1119.13 1176.19 1120.8V1120.8Z" fill="#E0E0E0"/>
<path d="M1317.16 1067.37C1315.31 1068.11 1313.41 1068.68 1311.47 1069.09C1307.78 1070.12 1302.44 1071.52 1295.84 1073.49C1282.75 1077.34 1264.84 1083.27 1245.37 1090.71C1225.91 1098.15 1208.56 1105.65 1196.19 1111.43C1189.94 1114.27 1185 1116.71 1181.56 1118.37C1179.83 1119.34 1178.01 1120.16 1176.12 1120.8C1177.72 1119.61 1179.41 1118.57 1181.19 1117.68C1184.53 1115.77 1189.41 1113.12 1195.53 1110.09C1207.78 1103.84 1225.09 1096.21 1244.59 1088.71C1261.24 1082.3 1278.22 1076.75 1295.44 1072.09C1302.06 1070.27 1307.47 1068.96 1311.22 1068.3C1313.16 1067.8 1315.15 1067.48 1317.16 1067.37V1067.37Z" fill="#E0E0E0"/>
<path d="M1141.75 1294.3C1141.24 1293.83 1140.8 1293.3 1140.44 1292.71L1136.97 1287.87C1134 1283.65 1129.88 1277.46 1124.84 1269.74C1114.81 1254.12 1101.63 1232.52 1087.34 1208.3C1073.06 1184.09 1060.19 1162.18 1050.5 1146.55L1038.94 1128.09C1037.69 1126.05 1036.66 1124.4 1035.81 1123.02C1035.39 1122.46 1035.07 1121.84 1034.84 1121.18C1035.35 1121.65 1035.79 1122.19 1036.16 1122.77L1039.59 1127.62C1042.72 1131.8 1046.69 1138.02 1051.72 1145.74C1061.75 1161.18 1074.94 1182.96 1089.22 1207.21C1103.5 1231.46 1116.41 1253.27 1126.13 1268.93L1137.66 1287.4L1140.78 1292.46C1141.19 1293.03 1141.52 1293.65 1141.75 1294.3Z" fill="#E0E0E0"/>
<path d="M1324.37 1197.02C1323.83 1197.48 1323.23 1197.87 1322.59 1198.18L1317.28 1201.05L1297.75 1211.52C1281.25 1220.34 1258.59 1232.8 1233.56 1246.62C1208.53 1260.43 1185.75 1272.68 1169.06 1281.15C1160.72 1285.4 1153.91 1288.77 1149.19 1290.99L1143.72 1293.55C1143.1 1293.89 1142.44 1294.15 1141.75 1294.3C1142.28 1293.83 1142.88 1293.44 1143.53 1293.15L1148.81 1290.27L1168.37 1279.8C1184.87 1270.99 1207.53 1258.52 1232.56 1244.71C1257.59 1230.9 1280.34 1218.65 1297.03 1210.34C1305.41 1206.09 1312.19 1202.71 1316.91 1200.49L1322.37 1197.93C1323 1197.55 1323.68 1197.25 1324.37 1197.02V1197.02Z" fill="#E0E0E0"/>
<path d="M1421.63 558.96L1361.66 509.679L1361.31 536.335L1194.03 534.242L1193.47 578.023L1360.78 580.085L1360.47 605.773L1421.63 558.96Z" fill="#EAEAEA"/>
<path d="M1332.47 629.804L1293.75 598.023L1293.53 615.21L1185.53 613.867L1185.19 642.117L1293.19 643.46L1292.97 660.054L1332.47 629.804Z" fill="#EAEAEA"/>
<path d="M60.2187 232.867C60.2187 232.867 25.3437 243.71 58.2812 318.585C91.2187 393.46 114.844 431.085 114.844 431.085C114.844 431.085 120.437 448.335 106.094 450.148C91.75 451.96 60.7187 445.179 53.375 462.179C45.7812 479.585 57.9062 497.46 83.5937 513.96C109.281 530.46 164.312 568.492 169.25 571.96C174.187 575.429 178.625 583.492 169.25 586.304C159.875 589.117 88.8437 592.398 92.4375 625.898C96.0312 659.398 175.156 693.492 183.719 697.367C192.281 701.242 194.187 705.117 193.094 709.867C192 714.617 168.094 713.492 148.094 715.242C128.094 716.992 104.969 722.585 108.656 741.742C112.344 760.898 157.937 803.335 273.562 821.429L327.719 826.46L359.875 782.21C422.906 683.617 421.344 621.335 409.406 605.898C397.469 590.46 378.156 603.992 363.469 617.898C348.781 631.804 333.844 650.429 329.594 648.023C325.344 645.617 323.75 641.773 326.469 632.648C329.187 623.523 356.156 541.773 333.406 517.023C310.656 492.273 261.312 543.023 252.844 548.273C244.375 553.523 241.344 544.773 242.031 538.898C242.719 533.023 250.594 466.429 255.281 436.273C259.969 406.117 254.719 385.273 236.531 379.273C218.937 373.492 203.469 401.148 192.594 410.773C181.719 420.398 172.375 404.585 172.375 404.585C172.375 404.585 159.875 362.054 125.656 287.804C91.4375 213.554 59.4687 233.117 59.4687 233.117" fill="#EAEAEA"/>
<path d="M329.781 839.242C304.781 784.617 262.094 686.773 224.969 602.96C187.844 519.148 154.188 443.367 129.5 388.617L100.219 323.804L92.2813 306.179C91.4063 304.179 90.7188 302.679 90.25 301.554C89.7813 300.429 89.5938 299.96 89.5938 299.96C89.5938 299.96 89.9063 300.492 90.4063 301.492C90.9063 302.492 91.625 304.085 92.5625 306.023C94.5 310.085 97.25 315.96 100.813 323.523C107.969 338.71 118.125 360.804 130.594 388.117C155.594 442.742 189.406 518.492 226.5 602.273C263.594 686.054 306.188 783.992 330.875 838.742" fill="#E0E0E0"/>
<path d="M96.375 473.335C97.654 473.638 98.8997 474.067 100.094 474.617C102.469 475.523 105.812 476.929 109.969 478.742C118.25 482.335 129.562 487.585 141.937 493.585L173.594 509.21L183.219 513.867C184.436 514.358 185.599 514.976 186.688 515.71C185.397 515.427 184.14 515.008 182.937 514.46C180.594 513.554 177.219 512.117 173.094 510.304C164.844 506.46 153.625 501.085 141.125 495.21L109.375 479.898L99.75 475.304C98.5502 474.785 97.4171 474.124 96.375 473.335Z" fill="#E0E0E0"/>
<path d="M190.594 512.304C190.156 512.117 199.969 488.304 212.469 459.179C224.969 430.054 235.469 406.46 235.906 406.648C236.344 406.835 226.531 430.648 214.031 459.773C201.531 488.898 191.125 512.492 190.594 512.304Z" fill="#E0E0E0"/>
<path d="M241.781 643.554C242.445 642.421 243.243 641.372 244.156 640.429L251.094 631.992C256.938 624.898 264.969 615.023 273.406 603.867C281.844 592.71 289.219 582.273 294.469 574.71L300.719 565.742C301.421 564.618 302.238 563.571 303.156 562.617C302.642 563.865 302.003 565.058 301.25 566.179C299.937 568.398 298.125 571.554 295.469 575.554C290.5 583.304 283.281 593.835 274.781 605.054C266.281 616.273 258.125 626.054 252.031 632.992C248.906 636.46 246.469 639.242 244.688 641.085C243.796 641.995 242.823 642.821 241.781 643.554V643.554Z" fill="#E0E0E0"/>
<path d="M148.812 627.023C150.049 626.949 151.289 627.044 152.5 627.304L162.5 628.679C170.906 629.898 182.531 631.804 195.344 633.835C208.156 635.867 219.75 637.929 228.125 639.46L238.031 641.367C239.261 641.541 240.467 641.855 241.625 642.304C240.412 642.352 239.198 642.279 238 642.085L228.031 640.71C219.594 639.492 207.969 637.585 195.156 635.554C182.344 633.523 170.75 631.429 162.375 629.898L152.5 627.992C151.237 627.815 149.999 627.49 148.812 627.023Z" fill="#E0E0E0"/>
<path d="M179.281 748.617C180.863 748.617 182.442 748.753 184 749.023L196.813 750.742C207.625 752.273 222.531 754.46 238.969 756.992C255.406 759.523 270.219 761.929 281.062 763.742L293.781 765.992C295.356 766.185 296.906 766.541 298.406 767.054C296.825 767.054 295.246 766.918 293.688 766.648L280.875 764.929C270.063 763.429 255.156 761.21 238.719 758.679C222.281 756.148 207.469 753.742 196.625 751.929L183.906 749.679C182.332 749.486 180.782 749.13 179.281 748.617V748.617Z" fill="#E0E0E0"/>
<path d="M295.688 765.835C296.546 764.369 297.529 762.978 298.625 761.679L307.031 750.679C314.094 741.304 323.844 728.523 334.187 714.023C344.531 699.523 353.594 686.179 360.062 676.523L367.719 664.991C368.662 663.544 369.706 662.166 370.844 660.866C370.155 662.43 369.34 663.935 368.406 665.366C366.75 668.179 364.312 672.21 361.187 677.148C354.937 687.054 346.063 700.554 335.688 715.085C325.313 729.616 315.406 742.367 308.094 751.492C304.406 756.023 301.406 759.679 299.25 762.148C298.176 763.482 296.984 764.716 295.688 765.835V765.835Z" fill="#E0E0E0"/>
<path d="M1105.13 1213.96C1108.25 1215.34 1111.07 1217.33 1113.42 1219.82C1115.76 1222.31 1117.57 1225.25 1118.75 1228.46C1121.08 1234.92 1121.9 1241.82 1121.16 1248.65C1120.06 1261.8 1113.03 1275.3 1105.31 1286.15C1093.97 1276.77 1090.91 1260.12 1089.88 1251.52C1088.25 1237.93 1093.59 1212.4 1105.13 1214.02" fill="#447DD7"/>
<path d="M1118.84 1307.15C1117.95 1303.43 1118.06 1299.54 1119.16 1295.88C1120.25 1292.22 1122.3 1288.92 1125.09 1286.3C1127.94 1283.75 1131.26 1281.79 1134.87 1280.53C1138.48 1279.28 1142.31 1278.75 1146.13 1278.99C1147.88 1278.93 1149.62 1279.24 1151.24 1279.92C1152.86 1280.59 1154.31 1281.61 1155.5 1282.9C1156.39 1284.28 1156.9 1285.88 1156.98 1287.53C1157.05 1289.17 1156.69 1290.81 1155.94 1292.27C1154.34 1295.18 1152.01 1297.61 1149.19 1299.34C1139.81 1305.59 1129.56 1310.02 1118.63 1307.12" fill="#447DD7"/>
<path d="M1105.91 1347.8C1105.94 1346.9 1106.04 1346 1106.22 1345.12C1106.5 1343.21 1106.87 1340.74 1107.34 1337.77C1108.32 1329.62 1110.61 1321.69 1114.12 1314.27C1117.79 1306.85 1123.37 1300.54 1130.28 1295.99C1132.39 1294.69 1134.65 1293.64 1137 1292.87C1137.64 1292.64 1138.3 1292.45 1138.97 1292.3C1139.41 1292.3 1139.66 1292.15 1139.66 1292.3C1136.51 1293.49 1133.5 1294.98 1130.66 1296.77C1123.99 1301.4 1118.61 1307.65 1115.03 1314.93C1111.56 1322.27 1109.2 1330.08 1108.03 1338.12C1107.47 1341.24 1107 1343.68 1106.62 1345.4C1106.46 1346.22 1106.22 1347.03 1105.91 1347.8V1347.8Z" fill="#263238"/>
<path d="M1102.78 1233.59C1102.83 1233.98 1102.83 1234.38 1102.78 1234.77C1102.78 1235.65 1102.97 1236.77 1103.09 1238.15C1103.34 1241.09 1103.66 1245.34 1104 1250.65C1104.66 1261.15 1105.38 1275.65 1105.81 1291.74C1106.25 1307.84 1106.28 1322.34 1106.19 1332.87C1106.19 1338.12 1106.19 1342.4 1105.97 1345.37C1105.97 1346.74 1105.97 1347.87 1105.97 1348.74C1106.01 1349.14 1106.01 1349.53 1105.97 1349.93C1105.97 1349.93 1105.97 1349.52 1105.97 1348.74C1105.97 1347.96 1105.97 1346.74 1105.97 1345.37C1105.97 1342.24 1105.97 1338.05 1105.97 1332.87C1105.97 1322.34 1105.75 1307.87 1105.31 1291.77C1104.87 1275.68 1104.28 1261.18 1103.78 1250.68C1103.53 1245.52 1103.34 1241.3 1103.19 1238.18C1103.19 1236.77 1103.19 1235.65 1103.19 1234.77C1103.02 1234.39 1102.88 1233.99 1102.78 1233.59V1233.59Z" fill="#263238"/>
<path d="M1099.97 1315.71C1098.39 1307.8 1094.94 1300.38 1089.92 1294.06C1084.9 1287.75 1078.45 1282.72 1071.09 1279.4C1067.34 1277.74 1062.5 1276.74 1059.53 1279.59C1056.56 1282.43 1057.41 1287.34 1059.03 1291.12C1062.51 1298.93 1068.23 1305.54 1075.46 1310.11C1082.69 1314.68 1091.11 1317.01 1099.66 1316.8" fill="#447DD7"/>
<path d="M1073.28 1291.8C1074.1 1292.04 1074.89 1292.36 1075.66 1292.74C1076.58 1293.14 1077.47 1293.59 1078.34 1294.09C1079.52 1294.69 1080.67 1295.36 1081.78 1296.09C1083 1296.9 1084.37 1297.77 1085.72 1298.87C1087.06 1299.96 1088.5 1301.15 1089.97 1302.46C1093.03 1305.41 1095.74 1308.71 1098.06 1312.27C1100.34 1315.86 1102.18 1319.7 1103.56 1323.71C1104.16 1325.47 1104.65 1327.26 1105.03 1329.09C1105.4 1330.65 1105.67 1332.24 1105.84 1333.84C1106.01 1335.16 1106.12 1336.5 1106.16 1337.84C1106.24 1338.88 1106.24 1339.92 1106.16 1340.96C1106.18 1341.81 1106.11 1342.66 1105.97 1343.49C1105.75 1343.49 1105.97 1339.84 1105.19 1334.12C1104.94 1332.68 1104.72 1330.99 1104.28 1329.46C1103.84 1327.93 1103.34 1326.02 1102.75 1324.21C1101.34 1320.27 1099.49 1316.49 1097.25 1312.96C1094.96 1309.47 1092.31 1306.24 1089.34 1303.3C1088.04 1302.02 1086.68 1300.81 1085.25 1299.68C1083.94 1298.55 1082.59 1297.68 1081.41 1296.84C1076.56 1293.4 1073.19 1292.09 1073.28 1291.8Z" fill="#263238"/>
<path d="M167.531 1270.21C170.406 1259.02 163.063 1247.8 155.031 1239.68C147 1231.55 136.969 1224.3 132.719 1213.59C125.781 1196.21 135.094 1173.74 123.344 1159.24C116.125 1150.84 103.625 1147.99 97.5313 1138.96C94.6825 1133.93 92.7962 1128.4 91.9688 1122.68C85.4069 1093.81 71.2026 1067.24 50.8438 1045.74C49.4749 1071.46 55.0555 1097.08 67 1119.9C71.7813 1129.02 77.6563 1137.9 79.25 1148.02C81.8125 1164.55 72.5938 1181.55 76.6563 1197.77C81.2813 1216.34 102.125 1228.74 103.125 1247.77C103.938 1263.9 89.875 1278.09 90.9375 1294.21C91.781 1301.06 94.2332 1307.61 98.0938 1313.34C110.594 1334.09 128.906 1348.37 156.719 1347.9L190.75 1349.09L167.531 1270.21Z" fill="#447DD7"/>
<g opacity="0.3">
<path opacity="0.3" d="M167.531 1270.21C170.406 1259.02 163.063 1247.8 155.031 1239.68C147 1231.55 136.969 1224.3 132.719 1213.59C125.781 1196.21 135.094 1173.74 123.344 1159.24C116.125 1150.84 103.625 1147.99 97.5313 1138.96C94.6825 1133.93 92.7962 1128.4 91.9688 1122.68C85.4069 1093.81 71.2026 1067.24 50.8438 1045.74C49.4749 1071.46 55.0555 1097.08 67 1119.9C71.7813 1129.02 77.6563 1137.9 79.25 1148.02C81.8125 1164.55 72.5938 1181.55 76.6563 1197.77C81.2813 1216.34 102.125 1228.74 103.125 1247.77C103.938 1263.9 89.875 1278.09 90.9375 1294.21C91.781 1301.06 94.2332 1307.61 98.0938 1313.34C110.594 1334.09 128.906 1348.37 156.719 1347.9L190.75 1349.09L167.531 1270.21Z" fill="black"/>
</g>
<path d="M197.625 1349.99C200.738 1350.47 203.909 1350.4 207 1349.8C210.77 1349.23 214.475 1348.29 218.063 1346.99C223.01 1345.28 227.637 1342.76 231.75 1339.52C234.23 1337.54 236.165 1334.96 237.375 1332.02C238.395 1328.73 238.931 1325.31 238.969 1321.87C239.029 1318.19 239.3 1314.51 239.781 1310.87C240.428 1306.98 241.841 1303.26 243.938 1299.93C247.938 1292.87 254.594 1286.18 256.75 1276.62C258.906 1267.05 257.406 1257.02 255.813 1246.8C254.219 1236.59 252.688 1225.46 256.625 1214.8C260.563 1204.15 267.75 1194.55 271.469 1182.55C275.188 1170.55 273.438 1157.4 274.25 1144.55C274.482 1138.03 275.979 1131.61 278.656 1125.65C281.438 1119.65 285.25 1113.96 288.219 1107.62C294.281 1094.8 295.344 1080.27 297 1066.02C297.792 1058.84 298.604 1051.54 299.438 1044.15C299.939 1036.75 301.206 1029.41 303.219 1022.27C305.515 1015.1 308.228 1008.07 311.344 1001.21C312.964 997.658 314.292 993.979 315.313 990.21C315.875 986.336 316.24 982.435 316.406 978.523C316.775 970.657 316.472 962.774 315.5 954.96C314.563 947.117 313.156 939.335 312.375 931.46C312.375 930.992 312.375 930.523 312.375 930.085L312.188 928.523L310.813 929.21C303.59 932.887 297.312 938.18 292.469 944.679C287.756 951.029 283.969 958.015 281.219 965.429C275.531 980.054 273.5 995.367 270.625 1009.99C267.75 1024.62 264.156 1038.99 256.656 1051.15C252.906 1057.21 248.406 1062.74 244.438 1068.68C240.228 1074.43 237.346 1081.05 236 1088.05C234 1102.46 241.938 1115.12 240.281 1127.84C239.481 1134.11 237.35 1140.14 234.031 1145.52C230.906 1150.96 227.313 1155.99 223.875 1161.15C220.365 1166.07 217.301 1171.3 214.719 1176.77C212.324 1182.17 210.916 1187.94 210.563 1193.84C209.719 1205.3 211.344 1216.18 210.563 1226.46C209.553 1236.32 206.6 1245.88 201.875 1254.59C197.781 1262.96 193.188 1270.55 189.375 1277.9C187.469 1281.55 185.688 1285.15 184.219 1288.74C182.794 1292.2 181.747 1295.81 181.094 1299.49C180.064 1305.92 179.98 1312.47 180.844 1318.93C181.729 1327.92 185.094 1336.49 190.563 1343.68C191.388 1344.8 192.308 1345.84 193.313 1346.8C193.992 1347.51 194.746 1348.14 195.563 1348.68C196.813 1349.62 197.5 1350.05 197.5 1350.05C195.143 1348.09 193.005 1345.88 191.125 1343.46C185.811 1336.27 182.569 1327.77 181.75 1318.87C180.97 1312.49 181.117 1306.04 182.188 1299.71C182.847 1296.11 183.895 1292.59 185.313 1289.21C186.75 1285.71 188.438 1282.15 190.5 1278.52C194.375 1271.24 199 1263.71 203.188 1255.27C207.93 1246.45 210.893 1236.77 211.906 1226.8C212.781 1216.3 211.219 1205.4 212.063 1194.18C212.433 1188.48 213.808 1182.9 216.125 1177.68C218.649 1172.28 221.673 1167.14 225.156 1162.3C228.594 1157.27 232.25 1152.21 235.438 1146.68C238.891 1141.09 241.107 1134.82 241.938 1128.3C243.563 1114.71 235.688 1101.99 237.75 1088.62C239.061 1081.9 241.847 1075.56 245.906 1070.05C249.781 1064.24 254.344 1058.71 258.156 1052.49C265.906 1039.99 269.656 1025.34 272.469 1010.65C275.281 995.96 277.406 980.773 283 966.46C285.673 959.242 289.367 952.444 293.969 946.273C298.59 940.028 304.603 934.945 311.531 931.429L309.938 930.554C309.938 930.992 309.938 931.46 309.938 931.929C310.813 939.898 312.219 947.71 313.063 955.46C314.033 963.159 314.336 970.928 313.969 978.679C313.82 982.475 313.476 986.262 312.938 990.023C311.941 993.647 310.667 997.189 309.125 1000.62C305.96 1007.55 303.215 1014.67 300.906 1021.93C298.867 1029.15 297.579 1036.57 297.063 1044.05C296.25 1051.37 295.469 1058.65 294.656 1065.93C293.031 1080.24 291.969 1094.52 286.156 1106.93C283.281 1113.18 279.469 1118.77 276.781 1124.99C274.021 1131.17 272.472 1137.82 272.219 1144.59C271.469 1157.71 273.188 1170.55 269.625 1182.09C266.063 1193.62 258.688 1203.3 254.938 1214.3C251.188 1225.3 252.594 1236.9 254.219 1247.05C255.844 1257.21 257.5 1267.27 255.313 1276.34C253.125 1285.4 246.875 1291.96 242.813 1299.34C240.683 1302.86 239.26 1306.77 238.625 1310.84C238.179 1314.54 237.939 1318.26 237.906 1321.99C237.904 1325.34 237.409 1328.66 236.438 1331.87C235.285 1334.63 233.472 1337.06 231.156 1338.96C227.166 1342.19 222.667 1344.73 217.844 1346.49C214.307 1347.81 210.656 1348.81 206.938 1349.46C204.646 1349.86 202.326 1350.08 200 1350.12C198.438 1349.96 197.625 1349.99 197.625 1349.99Z" fill="#263238"/>
<path d="M305.156 949.054C305.021 949.388 304.916 949.733 304.844 950.085C304.625 950.898 304.375 951.898 304.094 953.21C303.406 955.898 302.625 959.929 301.344 964.992C300.063 970.054 296.906 975.742 294.281 982.773C291.656 989.804 288.75 997.835 286.188 1006.9C283.625 1015.96 281.281 1026.05 278.875 1036.87C276.82 1048.4 273.148 1059.58 267.969 1070.09C265.188 1075.62 262.063 1081.21 259.563 1087.34C257.114 1093.61 255.465 1100.18 254.656 1106.87C252.97 1120.7 250.54 1134.42 247.375 1147.99L228.156 1226.62C222.094 1250.74 216.625 1272.46 212 1290.77C207.375 1309.09 203.906 1323.65 201.313 1334.05C200.125 1339.02 199.219 1342.99 198.531 1345.84C198.25 1347.09 198.031 1348.12 197.844 1348.96C197.809 1349.31 197.809 1349.67 197.844 1350.02C198.002 1349.7 198.127 1349.37 198.219 1349.02C198.469 1348.21 198.75 1347.21 199.094 1345.9C199.875 1343.05 200.938 1339.15 202.219 1334.21C204.938 1323.84 208.813 1309.21 213.563 1291.09C218.313 1272.96 223.938 1251.12 230.156 1227.05C236.375 1202.99 242.656 1176.3 249.594 1148.4C252.712 1134.77 255.101 1120.99 256.75 1107.12C257.508 1100.59 259.093 1094.18 261.469 1088.05C263.875 1082.09 266.969 1076.52 269.75 1070.93C275.75 1059.84 278.219 1047.93 280.625 1037.18C283.031 1026.43 285.156 1016.3 287.625 1007.24C290.094 998.179 292.75 990.117 295.375 983.148C298 976.179 300.875 970.367 302.125 965.148C303.375 959.929 303.938 955.96 304.5 953.242C304.719 951.96 304.875 950.96 305.031 950.117C305.115 949.769 305.157 949.412 305.156 949.054V949.054Z" fill="#263238"/>
<path d="M203.625 1350.09C225.875 1336.9 232.25 1296.77 222.969 1272.65C213.688 1248.52 197.469 1226.43 194.844 1200.77C192.906 1180.96 199.406 1160.68 194.844 1141.4C188.594 1115.3 163.156 1095.09 163.594 1068.24C163.781 1053.21 172.344 1039.02 171.656 1023.99C170.813 1005.55 156.656 990.929 147.875 974.679C134.469 949.679 133.594 920.398 129.125 892.523C124.656 864.648 113.906 834.742 89.1876 821.054C85.5313 844.71 79.3126 860.929 81.2501 892.929C81.9688 904.429 95.3438 926.492 97.1563 951.742C98.2501 966.835 99.0001 981.929 99.9376 997.023C100.875 1012.12 101.781 1026.68 107.063 1040.43C111.094 1050.96 117.563 1060.55 120.563 1071.43C126.219 1091.87 118.781 1114.05 123.344 1134.77C127.219 1152.34 139.375 1167.46 141.844 1185.27C145.344 1210.27 129.125 1236.27 137.438 1260.27C141.531 1272.12 151.281 1281.62 154.063 1293.87C156.188 1303.24 153.844 1313.4 155.813 1322.93C158.938 1338.27 188.219 1350.21 203.875 1349.24" fill="#447DD7"/>
<path d="M95.0938 844.429C95.0521 844.876 95.0521 845.326 95.0938 845.773C95.0938 846.773 95.4063 848.054 95.5938 849.648C96.1251 853.085 96.6876 858.085 97.8438 864.585C99.0001 871.085 102.438 878.46 105.125 887.335C107.813 896.21 110.781 906.367 113.281 917.773C115.781 929.179 117.938 941.804 120.188 955.273C122.438 968.742 124.844 983.648 131.563 997.804C134.688 1004.9 138.188 1012.02 140.938 1019.68C143.501 1027.46 145.076 1035.54 145.625 1043.71C146.866 1061.08 149.047 1078.36 152.156 1095.49C158.938 1130.55 165.438 1163.99 171.344 1194.4L188 1274.99C192.781 1297.8 196.656 1316.3 199.344 1329.27C200.719 1335.52 201.781 1340.49 202.469 1343.99C202.844 1345.59 203.125 1346.84 203.375 1347.8C203.625 1348.77 203.688 1349.12 203.75 1349.09C203.732 1348.64 203.68 1348.21 203.594 1347.77C203.406 1346.77 203.188 1345.49 202.906 1343.9C202.25 1340.37 201.313 1335.4 200.125 1329.09C197.563 1316.09 193.875 1297.55 189.469 1274.68C185.063 1251.8 179.438 1224.37 173.375 1194.02C167.313 1163.68 161 1130.21 154.281 1095.21C151.173 1078.13 148.983 1060.9 147.719 1043.59C147.132 1035.25 145.505 1027.02 142.875 1019.09C140.156 1011.37 136.625 1004.21 133.5 997.21C126.813 983.273 124.438 968.71 122.063 955.179C119.688 941.648 117.531 928.96 114.875 917.523C112.559 907.229 109.722 897.06 106.375 887.054C103.563 878.148 100.125 870.867 98.7501 864.492C97.3751 858.117 96.7813 853.054 96.1251 849.679C95.8438 848.085 95.5938 846.804 95.4063 845.835C95.3619 845.355 95.2569 844.883 95.0938 844.429V844.429Z" fill="#263238"/>
<path d="M784.875 1349.05H349.969C297.406 1348.84 253.094 1304.02 253.094 1251.46L257.719 156.117C257.772 143.59 260.297 131.197 265.149 119.648C270.002 108.099 277.086 97.6219 285.996 88.8165C294.906 80.0111 305.466 73.051 317.071 68.3352C328.677 63.6194 341.099 61.2407 353.625 61.3354L790.531 63.3666C803.026 63.4198 815.388 65.9341 826.91 70.7658C838.433 75.5975 848.891 82.6519 857.687 91.5261C866.483 100.4 873.444 110.921 878.174 122.486C882.903 134.051 885.308 146.434 885.25 158.929L880.625 1254.3C880.572 1266.82 878.052 1279.19 873.209 1290.73C868.366 1302.27 861.295 1312.74 852.401 1321.54C843.507 1330.34 832.965 1337.3 821.378 1342.02C809.791 1346.74 797.387 1349.13 784.875 1349.05V1349.05Z" fill="#263238"/>
<path d="M790.719 104.992L706 104.585C700.425 104.692 695.119 107.006 691.247 111.018C687.375 115.031 685.252 120.416 685.344 125.992V141.367C685.436 146.942 683.313 152.327 679.441 156.34C675.569 160.353 670.263 162.666 664.687 162.773L499.562 162.023C496.8 161.95 494.08 161.334 491.556 160.209C489.032 159.084 486.755 157.473 484.854 155.467C482.953 153.462 481.466 151.102 480.477 148.521C479.489 145.941 479.019 143.191 479.094 140.429V125.054C479.237 119.473 477.157 114.063 473.313 110.014C469.469 105.965 464.175 103.608 458.594 103.46H428.813L354.656 103.117C345.903 103.08 337.228 104.767 329.127 108.083C321.025 111.398 313.656 116.277 307.441 122.441C301.225 128.604 296.284 135.932 292.9 144.005C289.516 152.078 287.756 160.738 287.719 169.492L283.188 1238.65C283.146 1247.4 284.83 1256.07 288.142 1264.18C291.454 1272.28 296.33 1279.65 302.491 1285.86C308.652 1292.08 315.978 1297.02 324.049 1300.4C332.12 1303.79 340.779 1305.55 349.531 1305.59L785.563 1307.59C794.32 1307.63 803 1305.95 811.107 1302.64C819.213 1299.32 826.588 1294.45 832.807 1288.28C839.027 1282.12 843.971 1274.79 847.355 1266.71C850.74 1258.63 852.498 1249.97 852.531 1241.21L857.063 171.929C857.137 154.256 850.19 137.277 837.749 124.724C825.308 112.172 808.392 105.074 790.719 104.992V104.992Z" fill="#F5F5F5"/>
<path d="M605.656 1105.4C605.156 1118.3 604.687 1130.4 604.281 1140.49H666.781L659.125 1102.02L605.656 1105.4Z" fill="#F5F5F5"/>
<path d="M351.094 1121.49L351.625 1140.49H598.031C598.438 1129.84 598.906 1117.99 599.375 1105.8L351.094 1121.49Z" fill="#F5F5F5"/>
<path d="M662.406 1101.8L670.094 1140.49H785.594L784.188 1094.12L662.406 1101.8Z" fill="#F5F5F5"/>
<path d="M611.906 561.21L633.75 434.617L576.562 430.367V561.21H611.906Z" fill="#F5F5F5"/>
<path d="M345.937 1051.21L283.875 1075.52L283.688 1119.49L347.781 1115.46L345.937 1051.21Z" fill="#F5F5F5"/>
<path d="M345.656 1041.34L342.25 923.429H342.219V881.867L284.656 887.96L283.906 1065.46L345.625 1041.27L345.656 1041.34Z" fill="#F5F5F5"/>
<path d="M342.219 789.023L285.125 781.492L284.719 878.523L342.219 872.429V789.023Z" fill="#F5F5F5"/>
<path d="M767.813 883.617L765.406 917.398L697.969 924.679L703.187 951.398L779.719 945.617L778.594 907.304L784.688 881.898L767.813 883.617Z" fill="#F5F5F5"/>
<path d="M646.25 955.679L700.031 951.648L688.313 891.617L641.375 896.367L646.25 955.679Z" fill="#F5F5F5"/>
<path d="M646.781 961.929L650.875 1011.96L658.188 1080.62L661.156 1095.62L784 1087.87L779.906 951.898L646.781 961.929Z" fill="#F5F5F5"/>
<path d="M435.344 725.648L440.063 733.773L345.344 788.96V920.21L445.344 913.148L638 893.554L630.969 807.71L446.875 783.648L448.094 774.273L630.188 798.054L618.25 652.648L438 670.023L437.406 663.773L617.719 646.429L611.469 570.554H438L285.906 598.335L285.156 772.054L342.813 779.585L435.344 725.648ZM355.031 907.71C355.031 907.71 355.75 799.617 355.031 795.585L432.344 754.46L442.375 902.179L355.031 907.71Z" fill="#F5F5F5"/>
<path d="M761.469 884.242L691.438 891.304L696.75 918.523L759.531 911.742L761.469 884.242Z" fill="#F5F5F5"/>
<path d="M606.531 1082.24C606.312 1087.93 606.094 1093.59 605.906 1099.12L658.031 1095.84L655.344 1082.37L606.531 1082.24Z" fill="#F5F5F5"/>
<path d="M494.25 561.21L503.438 519.585H573.438V430.148L354.594 413.929V497.898L286.25 513.367L285.938 588.773L437.281 561.21H494.25Z" fill="#F5F5F5"/>
<path d="M640.281 312.367L638.406 304.71L721.969 271.648L667.625 162.523C666.592 162.69 665.547 162.774 664.5 162.773L572.375 162.335L574.875 315.054L640.281 312.367Z" fill="#F5F5F5"/>
<path d="M766.906 253.867V104.867L706 104.585C700.425 104.692 695.119 107.006 691.247 111.018C687.375 115.031 685.252 120.416 685.344 125.992V141.367C685.342 144.8 684.531 148.184 682.979 151.246C681.426 154.308 679.175 156.961 676.406 158.992L730.781 268.179L766.906 253.867Z" fill="#F5F5F5"/>
<path d="M452.781 260.242L445.719 103.398H428.812L362.719 103.085L334.594 243.367L452.781 260.242ZM437.719 119.273L439.969 247.023L352.125 234.179L371.344 119.273H437.719Z" fill="#F5F5F5"/>
<path d="M455.969 260.835V262.179C455.969 274.398 456.344 296.554 456.531 319.992L571.625 315.304L569.25 162.335L499.594 162.023C496.832 161.95 494.111 161.333 491.587 160.209C489.063 159.084 486.786 157.473 484.885 155.467C482.984 153.462 481.497 151.102 480.509 148.521C479.52 145.941 479.05 143.191 479.125 140.429V125.054C479.268 119.473 477.189 114.063 473.345 110.014C469.501 105.965 464.206 103.608 458.625 103.46H448.906L455.938 260.835H455.969Z" fill="#F5F5F5"/>
<path d="M325.281 242.085L353.156 103.21C335.747 103.504 319.146 110.608 306.913 122.999C294.681 135.39 287.79 152.08 287.719 169.492L287.406 238.742L287.719 236.71L325.281 242.085Z" fill="#F5F5F5"/>
<path d="M345.219 413.242L286.688 408.898L286.281 503.742L345.219 490.429V413.242Z" fill="#F5F5F5"/>
<path d="M324.656 245.023L287.406 239.679L286.75 393.242L294.781 393.835L324.656 245.023Z" fill="#F5F5F5"/>
<path d="M442.875 1039.55L443.875 916.242L345.375 923.21L348.875 1043.99L442.875 1039.55Z" fill="#F5F5F5"/>
<path d="M461 1011.09L600.5 1077.9C602.187 1034.15 603.625 993.523 603.625 990.804H606.75L608.25 987.867C610.219 988.867 610.219 988.867 609.187 1018.62C608.594 1035.21 607.781 1057.3 606.937 1079.43H654.875L647.781 1012.43L638.406 896.804L456.188 915.179L461 1011.09Z" fill="#F5F5F5"/>
<path d="M802.844 806.46L801.25 790.21L634.094 807.585L641.125 893.242L785.469 878.679L802.844 806.46Z" fill="#F5F5F5"/>
<path d="M573.437 528.96H510.969L503.844 561.21H573.437V528.96Z" fill="#F5F5F5"/>
<path d="M777.031 539.835L620.625 529.023L614.375 565.96L620.969 646.148L785.906 630.304L777.031 539.835ZM626.375 565.898L634.781 542.585L770.625 551.179L778.625 617.867L631.125 635.367L626.375 565.898Z" fill="#F5F5F5"/>
<path d="M793.25 707.429L786.375 636.523L621.344 652.398L627.563 727.867L793.25 707.429Z" fill="#F5F5F5"/>
<path d="M347.969 1121.71L283.938 1125.74L283.688 1121.59L283.594 1140.49H348.5L347.969 1121.71Z" fill="#F5F5F5"/>
<path d="M855.906 218.648L856.844 221.023L857.063 171.929C857.137 154.256 850.19 137.277 837.749 124.724C825.308 112.172 808.392 105.074 790.719 104.992H769.938V252.71L855.906 218.648Z" fill="#F5F5F5"/>
<path d="M600.313 1081.3L457.969 1013.12L452.937 915.367L447 915.992L445.969 1042.52L348.938 1047.12V1049.96L350.813 1115.18L599.531 1099.55C599.844 1093.46 600.094 1087.37 600.313 1081.3ZM355.031 1055.18L490.844 1045.65L579.187 1086.65L355.031 1098.77V1055.18Z" fill="#F5F5F5"/>
<path d="M815.437 382.71L821.281 348.335C770.219 330.117 766.688 276.867 766.844 260.835L733.5 274.023L783.687 374.742L815.437 382.71Z" fill="#F5F5F5"/>
<path d="M633.313 798.242L702.719 791.023L689.063 729.71L628.312 737.21L633.313 798.242Z" fill="#F5F5F5"/>
<path d="M777.25 435.679L647.625 435.648L636.875 434.835L622.219 519.742L776.094 530.367L772.531 493.46L787.687 438.96L777.25 435.679Z" fill="#F5F5F5"/>
<path d="M774.094 420.21L775.719 379.585L724.781 277.304L645.781 308.554L672.937 420.21H774.094ZM721.687 289.867L768.375 378.679L761.625 406.335L681.75 403.21L661.781 319.21L721.687 289.867Z" fill="#F5F5F5"/>
<path d="M794.25 908.929L796.656 988.492L852.812 985.335L853 988.46L796.75 991.617L799.594 1086.87L852.719 1083.52L853.094 1089.74L799.781 1093.12L801.219 1140.49H852.969L854.094 874.898L801.156 880.242L794.25 908.929Z" fill="#F5F5F5"/>
<path d="M452.875 263.429L333.937 246.335L304.188 394.523L453.406 405.585C454 382.71 453.625 312.804 452.875 263.429Z" fill="#F5F5F5"/>
<path d="M648.5 420.054H666.5L641.031 315.46L574.844 318.179L576.438 414.71L648.5 420.054Z" fill="#F5F5F5"/>
<path d="M456.438 405.804L573.281 414.46L571.719 318.304L456.75 322.992C456.75 355.523 456.937 390.21 456.438 405.804Z" fill="#F5F5F5"/>
<path d="M794.156 716.773L692.156 729.335L705.875 790.71L800.344 780.867L794.156 716.773Z" fill="#F5F5F5"/>
<path d="M821.813 345.21L828.344 306.429L856.469 308.617L856.844 225.148L770 259.523C768.219 318.085 805.125 338.742 821.813 345.21Z" fill="#F5F5F5"/>
<path d="M788.375 494.867L791.906 531.46L855.531 535.867L855.844 460.492L802.594 443.648L788.375 494.867Z" fill="#F5F5F5"/>
<path d="M818.625 807.71L801.938 877.179L854.094 871.898L854.406 799.085C838.406 794.867 824.438 791.429 816.906 789.96L818.625 807.71Z" fill="#F5F5F5"/>
<path d="M783.438 421.21L855.906 444.117L856.094 402.898L784.906 384.492L783.438 421.21Z" fill="#F5F5F5"/>
<path d="M816.125 780.273C821.969 781.148 833.031 783.398 854.562 789.179L855.25 629.804L802.125 634.929L816.125 780.273Z" fill="#F5F5F5"/>
<path d="M801.344 628.804L855.156 623.617L855.469 545.273L792.812 540.929L801.344 628.804Z" fill="#F5F5F5"/>
<path d="M827.812 347.023C838 350.106 847.49 352.523 856.281 354.273V314.742L833.375 312.96L827.812 347.023Z" fill="#F5F5F5"/>
<path d="M821.531 384.273L856.125 393.242L856.281 357.492C847.312 355.71 837.531 353.273 827.281 350.117L821.531 384.273Z" fill="#F5F5F5"/>
<path d="M853.094 1089.74L852.719 1083.49L799.594 1086.84L796.75 991.585L853 988.46L852.812 985.335L796.562 988.46L794.25 908.929L801.156 880.242L854.094 874.898V871.773L801.937 877.054L818.625 807.71L816.906 789.96C824.438 791.429 838.406 794.867 854.406 799.085V789.335C832.875 783.679 821.813 781.304 815.969 780.429L801.906 635.179L855.031 630.054V623.804L801.219 628.992L792.688 541.117L855.188 545.46V536.085L791.563 531.679L788.031 495.085L802.25 443.867L855.375 460.71V444.335L782.906 421.46L784.375 384.71L855.563 403.117V393.46L820.969 384.492L826.719 350.335C837.094 353.46 846.75 355.929 855.719 357.71V354.585C846.927 352.835 837.438 350.419 827.25 347.335L832.969 313.273L855.875 315.054V308.804L827.75 306.617L821.813 345.21C805.125 338.96 768.219 318.242 770 259.523L856.844 225.148V221.179L855.906 218.804L770.031 252.773V105.054H766.906V254.054L730.719 268.367L676.344 159.179C673.763 161.039 670.773 162.25 667.625 162.71L721.969 271.835L638.406 304.585L640.281 312.242L574.656 314.929L572.375 162.335H569.25L571.75 315.179L456.656 319.867C456.469 296.304 456.219 274.273 456.094 262.054V260.835L449.031 103.523H445.906L452.969 260.367L334.75 243.398L362.875 103.117H354.813C354.313 103.117 353.812 103.117 353.312 103.117L325.281 242.085L287.781 236.71L287.469 238.742V239.835L324.719 245.179L294.844 393.992L286.813 393.398V409.023L345.344 413.367V490.554L286.406 503.867V513.492L354.75 498.023V413.96L573.5 430.179V519.585H503.5L494.25 561.21H437.281L285.937 588.742V598.335L438 570.585H611.375L617.625 646.46L437.406 663.96L438 670.21L618.25 652.867L630.187 798.273L448.094 774.492L446.875 783.867L630.969 807.929L638 893.554L445.281 913.023L345.281 920.085V788.96L440 733.71L435.281 725.585L342.812 779.585L285.156 771.96V781.335L342.219 788.96V872.367L284.719 878.617V887.992L342.281 881.742V923.335L345.688 1041.24L283.969 1065.43V1075.49L346.031 1051.18L347.875 1115.43L283.781 1119.46V1121.55L284.031 1125.71L348.062 1121.68L348.594 1140.43H351.719L351.187 1121.43L599.469 1105.8C599 1117.99 598.531 1129.84 598.125 1140.49H604.375C604.781 1130.43 605.25 1118.3 605.75 1105.4L659.344 1102.02L667 1140.49H670.125L662.438 1101.8L784.313 1094.12L785.719 1140.49H801.344L853.094 1089.74ZM606.031 1099.12C606.219 1093.59 606.437 1087.93 606.656 1082.24H655.469L658.156 1095.71L606.031 1099.12ZM661.281 1095.62L658.156 1080.62L650.875 1011.87L646.781 961.867L779.906 951.835L784 1087.8L661.281 1095.62ZM691.562 891.304L761.625 884.242L759.656 911.742L696.875 918.523L691.562 891.304ZM688.437 891.617L700.156 951.648L646.375 955.679L641.5 896.304L688.437 891.617ZM779.844 945.648L703.187 951.46L697.969 924.742L765.406 917.46L767.781 883.679L784.688 881.96L778.625 907.304L779.844 945.648ZM689.219 729.71L702.875 791.023L633.312 798.335L628.312 737.304L689.219 729.71ZM706.031 790.71L692.313 729.335L794.312 716.835L800.562 780.929L706.031 790.71ZM776.25 530.367L622.375 519.742L637.031 434.835L647.781 435.648H777.438L787.688 438.96L772.531 493.46L776.25 530.367ZM766.875 260.617C766.719 276.71 770.25 329.96 821.313 348.117L815.438 382.71L783.688 374.523L733.5 273.804L766.875 260.617ZM724.813 277.242L775.719 379.585L774.094 420.21H672.937L645.781 308.679L724.813 277.242ZM641.125 315.46L666.5 420.21H648.5L576.438 414.867L574.844 318.335L641.125 315.46ZM571.813 318.304L573.375 414.46L456.531 405.804C457.031 390.179 456.937 355.523 456.531 322.992L571.813 318.304ZM334.031 246.429L452.969 263.523C453.562 312.898 454.094 382.867 453.5 405.679L304.281 394.617L334.031 246.429ZM633.844 434.71L611.969 561.304H576.562V430.367L633.844 434.71ZM510.969 528.96H573.469V561.21H503.844L510.969 528.96ZM614.25 565.96L620.5 529.023L776.906 539.835L785.656 630.304L620.719 646.148L614.25 565.96ZM786.375 636.523L793.25 707.429L627.625 727.867L621.375 652.398L786.375 636.523ZM634.094 807.71L801.25 790.335L802.844 806.585L785.469 878.804L641.125 893.242L634.094 807.71ZM647.781 1012.4L654.875 1079.4H606.75C607.594 1057.27 608.406 1035.18 609 1018.59C610.031 988.835 610.031 988.835 608.062 987.835L606.563 990.773H603.438C603.438 993.367 602.094 1034.21 600.313 1077.87L460.875 1011.05L455.938 915.023L638.156 896.648L647.781 1012.4ZM443.844 916.367L442.875 1039.68L348.875 1044.12L345.375 923.335L443.844 916.367ZM349.031 1050.15V1047.3L446.063 1042.71L447.094 916.179L453.031 915.554L458.062 1013.3L600.406 1081.49C600.187 1087.55 599.937 1093.65 599.719 1099.71L351 1115.34L349.031 1050.15Z" fill="white"/>
<path d="M490.844 1045.65L355.031 1055.18V1098.77L579.219 1086.62L490.844 1045.65Z" fill="#EBEBEB"/>
<path d="M770.625 551.179L634.781 542.585L626.375 565.898L630.969 635.367L778.469 617.867L770.625 551.179Z" fill="#EBEBEB"/>
<path d="M283.594 1099.12L283.281 1216.55V1240.49C283.712 1257.81 290.871 1274.27 303.239 1286.39C315.607 1298.52 332.212 1305.34 349.531 1305.43L785.563 1307.43C794.32 1307.47 803 1305.79 811.107 1302.48C819.213 1299.17 826.588 1294.29 832.807 1288.13C839.027 1281.96 843.971 1274.63 847.355 1266.55C850.74 1258.48 852.499 1249.81 852.531 1241.05L852.969 1099.12H283.594Z" fill="#EBEBEB"/>
<path d="M439.969 247.023L437.719 119.273H371.375L352.125 234.179L439.969 247.023Z" fill="#EBEBEB"/>
<path d="M761.625 406.179L768.375 378.523L721.687 289.71L661.781 319.179L681.75 403.179L761.625 406.179Z" fill="#EBEBEB"/>
<path d="M355.031 795.46C355.75 799.492 355.031 907.585 355.031 907.585L442.531 902.054L432.5 754.335L355.031 795.46Z" fill="#EBEBEB"/>
<path d="M646.281 883.242L641.656 816.242L791.438 796.992V808.554L773.312 870.148L646.281 883.242Z" fill="#EBEBEB"/>
<path d="M785.906 1053.87L784.031 1010.12L652.375 1016.37C648.924 1016.53 645.489 1015.8 642.406 1014.24L455.688 920.21C453.561 919.135 451.755 917.516 450.455 915.519C449.154 913.521 448.404 911.216 448.281 908.835L422.875 415.929C422.821 414.772 423.013 413.617 423.439 412.539C423.864 411.462 424.514 410.487 425.344 409.679C426.169 408.882 427.15 408.264 428.226 407.866C429.302 407.468 430.449 407.298 431.594 407.367L511.594 413.304V325.804H520.969V414.492C520.974 415.629 520.744 416.755 520.292 417.798C519.84 418.842 519.177 419.78 518.344 420.554C517.507 421.327 516.521 421.921 515.446 422.297C514.371 422.673 513.23 422.825 512.094 422.742L432.125 416.804L457.5 908.46C457.538 909.189 457.765 909.896 458.16 910.51C458.554 911.124 459.102 911.624 459.75 911.96L646.5 1006.24C648.118 1007.08 649.931 1007.47 651.75 1007.37L784.5 1000.93C785.594 1000.87 786.689 1001.03 787.719 1001.4C788.75 1001.77 789.696 1002.34 790.5 1003.09C791.305 1003.82 791.958 1004.7 792.419 1005.69C792.88 1006.68 793.141 1007.75 793.188 1008.84L795.094 1053.62L785.906 1053.87Z" fill="white"/>
<path d="M747.375 272.085C747.375 275.695 746.305 279.223 744.299 282.224C742.294 285.226 739.444 287.565 736.109 288.946C732.774 290.327 729.105 290.689 725.565 289.985C722.024 289.281 718.773 287.542 716.22 284.99C713.668 282.438 711.93 279.186 711.226 275.646C710.522 272.106 710.883 268.436 712.264 265.101C713.645 261.767 715.985 258.916 718.986 256.911C721.987 254.906 725.515 253.835 729.125 253.835C731.523 253.831 733.898 254.3 736.114 255.216C738.33 256.132 740.343 257.476 742.039 259.171C743.734 260.867 745.078 262.88 745.994 265.097C746.91 267.313 747.379 269.688 747.375 272.085V272.085Z" fill="#447DD7"/>
<g opacity="0.6">
<path opacity="0.6" d="M738.539 287.621C747.12 282.334 749.79 271.091 744.502 262.51C739.215 253.929 727.972 251.259 719.391 256.546C710.81 261.834 708.14 273.076 713.428 281.657C718.715 290.238 729.957 292.908 738.539 287.621Z" fill="white"/>
</g>
<path d="M741.125 271.46C741.131 273.866 740.423 276.219 739.092 278.222C737.76 280.226 735.863 281.789 733.642 282.714C731.422 283.638 728.977 283.884 726.616 283.418C724.256 282.953 722.087 281.797 720.384 280.098C718.681 278.4 717.52 276.234 717.048 273.875C716.577 271.516 716.816 269.07 717.735 266.847C718.654 264.624 720.212 262.723 722.212 261.386C724.212 260.049 726.563 259.335 728.969 259.335C732.187 259.335 735.275 260.612 737.553 262.885C739.832 265.158 741.117 268.242 741.125 271.46V271.46Z" fill="#447DD7"/>
<path d="M789.844 1060.55L787.594 1009.37C787.578 1009 787.49 1008.64 787.335 1008.31C787.18 1007.98 786.962 1007.68 786.692 1007.44C786.422 1007.19 786.106 1007 785.762 1006.87C785.418 1006.75 785.053 1006.69 784.688 1006.71L647.375 1013.96L630.844 805.71L609.875 565.835V565.617L633.344 437.492C633.768 435.155 634.997 433.04 636.818 431.516C638.64 429.992 640.937 429.154 643.312 429.148L767.469 428.742C769.723 428.738 771.891 427.877 773.534 426.333C775.176 424.79 776.17 422.679 776.313 420.429L778.438 386.054C778.709 381.66 777.848 377.27 775.938 373.304L727.437 272.117L730.281 270.773L778.781 371.96C780.915 376.416 781.872 381.343 781.563 386.273L779.438 420.648C779.232 423.685 777.883 426.532 775.662 428.613C773.441 430.695 770.513 431.858 767.469 431.867L643.312 432.273C641.665 432.27 640.069 432.848 638.806 433.905C637.543 434.963 636.693 436.432 636.406 438.054L613 565.96L633.656 805.335L649.969 1010.59L784.344 1003.62C785.117 1003.56 785.893 1003.67 786.625 1003.93C787.356 1004.18 788.026 1004.59 788.594 1005.12C789.176 1005.63 789.647 1006.26 789.98 1006.97C790.313 1007.67 790.5 1008.43 790.531 1009.21L792.781 1060.43L789.844 1060.55Z" fill="#447DD7"/>
<path d="M798.375 1056.4C798.381 1057.95 797.927 1059.46 797.071 1060.75C796.215 1062.04 794.995 1063.05 793.567 1063.64C792.138 1064.24 790.564 1064.39 789.046 1064.09C787.528 1063.79 786.133 1063.05 785.038 1061.95C783.944 1060.86 783.199 1059.46 782.899 1057.95C782.598 1056.43 782.755 1054.85 783.351 1053.42C783.946 1052 784.952 1050.78 786.242 1049.92C787.531 1049.06 789.046 1048.61 790.594 1048.62C791.615 1048.62 792.627 1048.82 793.571 1049.21C794.515 1049.6 795.373 1050.17 796.096 1050.9C796.818 1051.62 797.392 1052.48 797.783 1053.42C798.174 1054.36 798.375 1055.38 798.375 1056.4V1056.4Z" fill="#447DD7"/>
<path d="M648 912.242C648.095 913.683 647.761 915.121 647.04 916.373C646.319 917.625 645.243 918.635 643.948 919.276C642.654 919.918 641.198 920.161 639.765 919.975C638.332 919.79 636.986 919.184 635.897 918.235C634.808 917.285 634.025 916.034 633.647 914.64C633.268 913.246 633.311 911.77 633.77 910.401C634.229 909.031 635.083 907.827 636.225 906.942C637.368 906.058 638.746 905.531 640.187 905.429C641.148 905.361 642.113 905.484 643.026 905.79C643.94 906.096 644.783 906.579 645.509 907.212C646.235 907.845 646.829 908.615 647.256 909.478C647.684 910.342 647.937 911.281 648 912.242V912.242Z" fill="#447DD7"/>
<path d="M641.375 918.429C637.877 918.669 634.619 920.289 632.315 922.933C630.012 925.576 628.853 929.025 629.094 932.523L655.469 930.71C655.228 927.213 653.608 923.954 650.965 921.651C648.322 919.348 644.872 918.189 641.375 918.429V918.429Z" fill="#447DD7"/>
<path d="M745.5 834.585H680.625C677.998 834.585 675.478 835.629 673.62 837.487C671.762 839.345 670.719 841.864 670.719 844.492V885.117C670.719 886.416 670.975 887.703 671.473 888.903C671.972 890.103 672.702 891.193 673.622 892.11C674.542 893.028 675.635 893.755 676.836 894.249C678.038 894.743 679.326 894.996 680.625 894.992H681.937V904.71L693.188 894.992H745.5C746.799 894.996 748.087 894.743 749.289 894.249C750.49 893.755 751.583 893.028 752.503 892.11C753.423 891.193 754.153 890.103 754.652 888.903C755.15 887.703 755.406 886.416 755.406 885.117V844.492C755.406 841.864 754.363 839.345 752.505 837.487C750.647 835.629 748.127 834.585 745.5 834.585V834.585Z" fill="#447DD7"/>
<g opacity="0.4">
<path opacity="0.4" d="M745.5 834.585H680.625C677.998 834.585 675.478 835.629 673.62 837.487C671.762 839.345 670.719 841.864 670.719 844.492V885.117C670.719 886.416 670.975 887.703 671.473 888.903C671.972 890.103 672.702 891.193 673.622 892.11C674.542 893.028 675.635 893.755 676.836 894.249C678.038 894.743 679.326 894.996 680.625 894.992H681.937V904.71L693.188 894.992H745.5C746.799 894.996 748.087 894.743 749.289 894.249C750.49 893.755 751.583 893.028 752.503 892.11C753.423 891.193 754.153 890.103 754.652 888.903C755.15 887.703 755.406 886.416 755.406 885.117V844.492C755.406 841.864 754.363 839.345 752.505 837.487C750.647 835.629 748.127 834.585 745.5 834.585V834.585Z" fill="white"/>
</g>
<path d="M701.219 866.523V871.835H699.031V866.46L692.781 856.429H695.156L700.094 864.554L705.031 856.429H707.219L701.219 866.523Z" fill="white"/>
<path d="M706.75 865.992C706.725 864.781 707.061 863.591 707.716 862.573C708.37 861.554 709.313 860.754 710.424 860.273C711.535 859.793 712.764 859.654 713.954 859.875C715.144 860.096 716.242 860.666 717.107 861.513C717.971 862.36 718.564 863.446 718.81 864.631C719.055 865.817 718.942 867.048 718.485 868.169C718.027 869.29 717.247 870.249 716.242 870.924C715.237 871.599 714.054 871.96 712.844 871.96C712.044 872 711.244 871.873 710.496 871.588C709.747 871.304 709.065 870.868 708.493 870.307C707.921 869.747 707.471 869.074 707.171 868.332C706.871 867.589 706.728 866.792 706.75 865.992V865.992ZM716.75 865.992C716.694 865.22 716.412 864.481 715.938 863.869C715.465 863.256 714.821 862.797 714.088 862.548C713.355 862.299 712.565 862.272 711.816 862.47C711.068 862.668 710.394 863.082 709.88 863.661C709.366 864.24 709.033 864.957 708.925 865.724C708.816 866.49 708.935 867.271 709.268 867.97C709.601 868.669 710.133 869.255 710.796 869.653C711.46 870.051 712.227 870.245 713 870.21C713.539 870.218 714.074 870.111 714.569 869.896C715.064 869.682 715.508 869.365 715.871 868.966C716.235 868.567 716.509 868.096 716.677 867.583C716.844 867.071 716.901 866.528 716.844 865.992H716.75Z" fill="white"/>
<path d="M732.781 860.179V871.835H730.781V870.21C730.323 870.823 729.722 871.314 729.03 871.641C728.338 871.968 727.577 872.121 726.812 872.085C726.133 872.155 725.447 872.072 724.804 871.841C724.161 871.611 723.578 871.239 723.099 870.753C722.619 870.267 722.254 869.68 722.031 869.034C721.809 868.389 721.734 867.701 721.812 867.023V860.304H723.906V866.773C723.906 869.054 725.062 870.21 727.031 870.21C727.537 870.242 728.044 870.162 728.516 869.975C728.987 869.788 729.411 869.498 729.758 869.128C730.104 868.758 730.365 868.315 730.52 867.832C730.675 867.35 730.722 866.838 730.656 866.335V860.304L732.781 860.179Z" fill="white"/>
<path d="M360.844 1159.49C361.292 1159.49 361.656 1157.39 361.656 1154.8C361.656 1152.22 361.292 1150.12 360.844 1150.12C360.395 1150.12 360.031 1152.22 360.031 1154.8C360.031 1157.39 360.395 1159.49 360.844 1159.49Z" fill="#263238"/>
<path d="M360.844 1178.24C361.292 1178.24 361.656 1176.14 361.656 1173.55C361.656 1170.97 361.292 1168.87 360.844 1168.87C360.395 1168.87 360.031 1170.97 360.031 1173.55C360.031 1176.14 360.395 1178.24 360.844 1178.24Z" fill="#263238"/>
<path d="M360.844 1196.99C361.292 1196.99 361.656 1194.89 361.656 1192.3C361.656 1189.72 361.292 1187.62 360.844 1187.62C360.395 1187.62 360.031 1189.72 360.031 1192.3C360.031 1194.89 360.395 1196.99 360.844 1196.99Z" fill="#263238"/>
<path d="M360.844 1215.74C361.292 1215.74 361.656 1213.64 361.656 1211.05C361.656 1208.47 361.292 1206.37 360.844 1206.37C360.395 1206.37 360.031 1208.47 360.031 1211.05C360.031 1213.64 360.395 1215.74 360.844 1215.74Z" fill="#263238"/>
<path d="M360.844 1231.87C361.292 1231.87 361.656 1230.36 361.656 1228.49C361.656 1226.63 361.292 1225.12 360.844 1225.12C360.395 1225.12 360.031 1226.63 360.031 1228.49C360.031 1230.36 360.395 1231.87 360.844 1231.87Z" fill="#263238"/>
<path d="M374.125 1247.93C374.13 1245.89 373.663 1243.87 372.761 1242.03C371.858 1240.2 370.545 1238.6 368.923 1237.36C367.3 1236.11 365.413 1235.26 363.408 1234.87C361.402 1234.47 359.333 1234.54 357.36 1235.08C355.388 1235.62 353.566 1236.6 352.036 1237.96C350.506 1239.31 349.31 1241 348.54 1242.9C347.77 1244.79 347.448 1246.83 347.598 1248.87C347.749 1250.91 348.367 1252.89 349.406 1254.65V1254.65C349.906 1255.52 350.562 1256.12 351.187 1257.02L358.906 1267.24C359.13 1267.54 359.421 1267.78 359.754 1267.95C360.088 1268.11 360.455 1268.2 360.828 1268.2C361.201 1268.2 361.568 1268.11 361.902 1267.95C362.235 1267.78 362.526 1267.54 362.75 1267.24L370.312 1257.21C371.046 1256.37 371.735 1255.5 372.375 1254.59V1254.59C373.534 1252.56 374.138 1250.26 374.125 1247.93V1247.93ZM360.844 1253.71C359.688 1253.71 358.558 1253.37 357.597 1252.73C356.636 1252.08 355.887 1251.17 355.445 1250.1C355.003 1249.04 354.887 1247.86 355.112 1246.73C355.338 1245.59 355.894 1244.55 356.712 1243.73C357.529 1242.92 358.57 1242.36 359.704 1242.14C360.837 1241.91 362.012 1242.03 363.08 1242.47C364.148 1242.91 365.061 1243.66 365.703 1244.62C366.345 1245.58 366.687 1246.71 366.687 1247.87C366.687 1249.42 366.072 1250.9 364.976 1252C363.88 1253.09 362.394 1253.71 360.844 1253.71Z" fill="#455A64"/>
<path d="M697.969 1253.71C697.969 1254.15 630.594 1254.52 547.531 1254.52C464.469 1254.52 397.094 1254.15 397.094 1253.71C397.094 1253.27 464.437 1252.9 547.531 1252.9C630.625 1252.9 697.969 1253.27 697.969 1253.71Z" fill="#263238"/>
<path d="M579.187 1240.52C579.187 1240.96 538.375 1241.34 488.062 1241.34C437.75 1241.34 396.906 1240.96 396.906 1240.52C396.906 1240.09 437.687 1239.71 488.062 1239.71C538.437 1239.71 579.187 1240.05 579.187 1240.52Z" fill="#447DD7"/>
<path d="M446.25 1268.65C438.246 1269.45 430.197 1269.72 422.156 1269.46C414.105 1269.72 406.046 1269.45 398.031 1268.65C406.045 1267.83 414.105 1267.55 422.156 1267.84C430.197 1267.55 438.247 1267.82 446.25 1268.65Z" fill="#263238"/>
<path d="M374.125 1144.34C374.13 1142.29 373.663 1140.27 372.761 1138.44C371.858 1136.61 370.545 1135.01 368.923 1133.76C367.3 1132.52 365.413 1131.67 363.408 1131.27C361.402 1130.88 359.333 1130.95 357.36 1131.49C355.388 1132.02 353.566 1133.01 352.036 1134.36C350.506 1135.72 349.31 1137.41 348.54 1139.3C347.77 1141.2 347.448 1143.24 347.598 1145.28C347.749 1147.32 348.367 1149.29 349.406 1151.05V1151.05C349.906 1151.9 350.562 1152.52 351.187 1153.43L358.906 1163.62C359.13 1163.91 359.421 1164.16 359.754 1164.32C360.088 1164.49 360.455 1164.57 360.828 1164.57C361.201 1164.57 361.568 1164.49 361.902 1164.32C362.235 1164.16 362.526 1163.91 362.75 1163.62L370.312 1153.59C371.002 1152.76 371.649 1151.91 372.25 1151.02C373.461 1149 374.109 1146.69 374.125 1144.34V1144.34ZM360.844 1150.12C359.688 1150.12 358.558 1149.77 357.597 1149.13C356.636 1148.49 355.887 1147.58 355.445 1146.51C355.003 1145.44 354.887 1144.27 355.112 1143.13C355.338 1142 355.894 1140.96 356.712 1140.14C357.529 1139.32 358.57 1138.77 359.704 1138.54C360.837 1138.32 362.012 1138.43 363.08 1138.87C364.148 1139.32 365.061 1140.07 365.703 1141.03C366.345 1141.99 366.687 1143.12 366.687 1144.27C366.687 1145.82 366.072 1147.31 364.976 1148.4C363.88 1149.5 362.394 1150.12 360.844 1150.12Z" fill="#447DD7"/>
<path d="M761.5 1150.12C761.5 1150.59 679.906 1150.93 579.281 1150.93C478.656 1150.93 397.094 1150.59 397.094 1150.12C397.094 1149.65 478.656 1149.3 579.281 1149.3C679.906 1149.3 761.5 1149.68 761.5 1150.12Z" fill="#263238"/>
<path d="M654.875 1136.93C654.875 1137.4 597.125 1137.74 525.906 1137.74C454.687 1137.74 396.906 1137.4 396.906 1136.93C396.906 1136.46 454.656 1136.12 525.906 1136.12C597.156 1136.12 654.875 1136.49 654.875 1136.93Z" fill="#447DD7"/>
<path d="M539.406 1165.05C539.406 1165.49 507.781 1165.87 468.75 1165.87C429.719 1165.87 398.031 1165.49 398.031 1165.05C398.031 1164.62 429.687 1164.24 468.75 1164.24C507.812 1164.24 539.406 1164.62 539.406 1165.05Z" fill="#263238"/>
<path d="M1283.16 399.648L1268.91 367.929C1248.78 366.288 1229.99 357.178 1216.24 342.389C1202.48 327.601 1194.76 308.204 1194.58 288.009C1194.4 267.815 1201.78 248.283 1215.27 233.253C1228.76 218.223 1247.38 208.78 1267.47 206.781C1287.57 204.783 1307.69 210.372 1323.87 222.451C1340.06 234.53 1351.14 252.225 1354.94 272.06C1358.74 291.894 1354.99 312.433 1344.42 329.64C1333.85 346.848 1317.22 359.48 1297.81 365.054V365.054L1283.16 399.648Z" fill="white"/>
<path d="M1283.16 399.648C1284.22 397.023 1288.53 386.585 1297.47 364.898L1297.84 365.46H1294.72L1297.84 364.585C1311.43 360.638 1323.74 353.179 1333.53 342.96C1336.46 339.909 1339.12 336.604 1341.47 333.085C1342.66 331.273 1343.91 329.429 1345.09 327.523L1348.22 321.46C1352.87 311.604 1355.46 300.902 1355.83 290.009C1356.19 279.116 1354.33 268.263 1350.35 258.117C1346.37 247.97 1340.36 238.745 1332.68 231.006C1325.01 223.268 1315.83 217.18 1305.72 213.117C1294.1 208.422 1281.54 206.569 1269.06 207.71C1256.36 208.727 1244.08 212.755 1233.25 219.46C1222.94 225.965 1214.21 234.687 1207.69 244.992C1201.5 254.715 1197.53 265.684 1196.06 277.117C1193.44 297.712 1198.82 318.529 1211.09 335.273C1216.39 342.276 1222.71 348.44 1229.84 353.554C1241.4 361.589 1254.85 366.449 1268.88 367.648H1269.25V367.867C1277.91 387.804 1282.03 397.242 1283.13 399.742C1281.97 397.273 1277.66 387.929 1268.53 368.179L1268.84 368.398C1254.64 367.335 1240.98 362.514 1229.25 354.429C1221.93 349.31 1215.45 343.091 1210.03 335.992C1197.47 319.015 1191.93 297.852 1194.56 276.898C1196.04 265.238 1200.06 254.046 1206.34 244.117C1213.06 233.326 1222.21 224.261 1233.07 217.651C1243.92 211.04 1256.18 207.068 1268.84 206.054C1281.53 204.978 1294.29 206.938 1306.06 211.773C1317.35 216.366 1327.49 223.398 1335.75 232.367C1343.53 240.903 1349.39 251.004 1352.94 261.992C1359.38 281.807 1358.02 303.335 1349.13 322.179C1348.06 324.242 1346.97 326.273 1346 328.429C1345.03 330.585 1343.53 332.21 1342.31 334.054C1339.92 337.621 1337.2 340.958 1334.19 344.023C1324.23 354.324 1311.71 361.787 1297.91 365.648V364.867H1298.59L1298.34 365.46C1288.81 386.679 1284.28 397.054 1283.16 399.648Z" fill="#263238"/>
<path d="M1309.88 284.273C1309.89 279.589 1308.82 274.965 1306.75 270.761C1304.69 266.557 1301.68 262.887 1297.96 260.036C1294.25 257.186 1289.92 255.231 1285.33 254.325C1280.73 253.419 1275.99 253.586 1271.47 254.813C1266.95 256.04 1262.77 258.293 1259.26 261.398C1255.75 264.503 1253.01 268.375 1251.25 272.714C1249.48 277.053 1248.74 281.74 1249.08 286.412C1249.42 291.083 1250.84 295.613 1253.22 299.648V299.648C1254.38 301.617 1255.84 303.023 1257.31 305.085L1274.97 328.492C1275.48 329.171 1276.14 329.722 1276.91 330.102C1277.67 330.482 1278.51 330.679 1279.36 330.679C1280.21 330.679 1281.05 330.482 1281.81 330.102C1282.57 329.722 1283.24 329.171 1283.75 328.492L1301.13 305.46C1302.7 303.597 1304.17 301.646 1305.53 299.617V299.617C1308.33 294.985 1309.83 289.685 1309.88 284.273V284.273ZM1279.47 297.523C1276.81 297.529 1274.22 296.747 1272.01 295.277C1269.8 293.806 1268.08 291.712 1267.06 289.261C1266.04 286.81 1265.77 284.112 1266.29 281.509C1266.8 278.905 1268.08 276.514 1269.96 274.637C1271.83 272.76 1274.23 271.483 1276.83 270.966C1279.43 270.45 1282.13 270.718 1284.58 271.737C1287.03 272.755 1289.13 274.479 1290.6 276.688C1292.07 278.897 1292.85 281.494 1292.84 284.148C1292.84 285.911 1292.49 287.656 1291.81 289.283C1291.13 290.91 1290.14 292.387 1288.88 293.629C1287.63 294.872 1286.15 295.855 1284.52 296.523C1282.89 297.191 1281.14 297.531 1279.38 297.523H1279.47Z" fill="#447DD7"/>
<path d="M1055.13 251.46C1057.94 241.054 1065.78 235.835 1076 232.429C1081.14 230.731 1086.61 230.299 1091.96 231.169C1097.3 232.04 1102.35 234.187 1106.69 237.429C1112.44 241.773 1116.94 248.148 1123.75 250.523C1134.97 254.429 1148.12 246.023 1158.91 251.054C1162.14 252.549 1164.75 255.122 1166.28 258.332C1167.82 261.542 1168.2 265.188 1167.34 268.642C1166.48 272.097 1164.44 275.145 1161.58 277.262C1158.72 279.378 1155.21 280.432 1151.66 280.242C1158.97 282.929 1161.25 293.367 1156.97 299.898C1152.69 306.429 1143.91 308.867 1136.22 307.429C1128.62 305.573 1121.67 301.671 1116.12 296.148C1110.34 290.929 1105.12 285.023 1098.94 280.304C1092.92 275.222 1085.31 272.422 1077.44 272.398C1066.87 272.96 1057.84 280.929 1053.12 290.367C1048.41 299.804 1047.34 310.648 1046.87 321.179C1046.41 331.71 1046.09 342.429 1042.97 352.429C1042.59 353.617 1042.03 354.929 1040.84 355.304C1039.16 355.835 1037.72 354.023 1036.84 352.429C1027.23 334.574 1021.21 315.007 1019.12 294.835C1017.94 283.148 1018.25 272.085 1024.66 262.242C1031.06 252.398 1047.31 245.179 1055.28 251.367" fill="#263238"/>
<path d="M1034.87 300.398L1029.47 418.679C1028.56 438.804 1031.31 468.679 1063.19 468.679C1090.84 466.617 1099 440.773 1099.84 421.992C1100.25 413.085 1100.59 405.648 1100.69 404.742C1100.69 404.742 1130.94 403.304 1134.47 373.492C1136.19 359.148 1137.28 329.273 1137.97 302.273C1138.33 288.242 1133.39 274.59 1124.13 264.045C1114.86 253.501 1101.96 246.841 1088 245.398L1085.12 245.085C1054.03 243.617 1035.37 269.242 1034.87 300.398Z" fill="#FFBE9D"/>
<path d="M1100.66 404.179C1086.87 402.967 1073.76 397.668 1063 388.96C1063 388.96 1069.88 411.335 1099.84 411.835L1100.66 404.179Z" fill="#EB996E"/>
<path d="M1130.19 324.335C1130.08 325.447 1129.55 326.473 1128.69 327.192C1127.84 327.911 1126.74 328.266 1125.63 328.179C1125.08 328.163 1124.55 328.039 1124.05 327.814C1123.56 327.59 1123.11 327.269 1122.74 326.87C1122.37 326.472 1122.09 326.004 1121.9 325.493C1121.71 324.983 1121.63 324.441 1121.66 323.898C1121.77 322.787 1122.3 321.762 1123.16 321.04C1124.01 320.317 1125.1 319.953 1126.22 320.023C1126.76 320.039 1127.3 320.164 1127.8 320.39C1128.3 320.617 1128.74 320.941 1129.11 321.343C1129.48 321.745 1129.77 322.216 1129.95 322.73C1130.14 323.244 1130.22 323.79 1130.19 324.335V324.335Z" fill="#263238"/>
<path d="M1129.91 316.117C1129.31 316.617 1126.37 313.898 1121.78 313.429C1117.19 312.96 1113.62 314.867 1113.19 314.273C1112.75 313.679 1113.62 313.054 1115.19 312.148C1117.31 310.983 1119.75 310.503 1122.16 310.773C1124.49 311.038 1126.67 312.033 1128.41 313.617C1129.81 314.835 1130.19 315.898 1129.91 316.117Z" fill="#263238"/>
<path d="M1085.19 321.117C1085.08 322.222 1084.55 323.244 1083.71 323.962C1082.86 324.68 1081.76 325.039 1080.66 324.96C1080.11 324.949 1079.58 324.827 1079.08 324.604C1078.58 324.381 1078.14 324.06 1077.76 323.661C1077.39 323.261 1077.11 322.791 1076.92 322.279C1076.74 321.767 1076.66 321.223 1076.69 320.679C1076.78 319.568 1077.31 318.539 1078.16 317.814C1079.01 317.089 1080.11 316.726 1081.22 316.804C1081.76 316.82 1082.3 316.945 1082.8 317.172C1083.3 317.398 1083.74 317.722 1084.11 318.124C1084.48 318.526 1084.77 318.998 1084.95 319.512C1085.14 320.026 1085.22 320.571 1085.19 321.117V321.117Z" fill="#263238"/>
<path d="M1084.87 312.179C1084.31 312.679 1081.34 309.96 1076.78 309.492C1072.22 309.023 1068.59 310.96 1068.16 310.335C1067.72 309.71 1068.59 309.117 1070.16 308.21C1072.28 307.046 1074.72 306.566 1077.12 306.835C1079.45 307.115 1081.64 308.108 1083.37 309.679C1084.87 310.835 1085.19 311.96 1084.87 312.179Z" fill="#263238"/>
<path d="M1097.88 347.867C1100.36 347.345 1102.9 347.155 1105.44 347.304C1106.62 347.304 1107.75 347.304 1108.03 346.429C1108.25 345.227 1108.11 343.989 1107.62 342.867C1106.81 339.929 1106 336.867 1105.13 333.492C1101.66 320.335 1099.31 309.554 1099.84 309.429C1100.38 309.304 1103.59 319.867 1107.03 333.023C1107.84 336.148 1108.66 339.273 1109.37 342.398C1109.93 343.901 1109.93 345.551 1109.37 347.054C1109.16 347.448 1108.87 347.789 1108.5 348.049C1108.14 348.309 1107.72 348.482 1107.28 348.554C1106.62 348.645 1105.94 348.645 1105.28 348.554C1102.79 348.618 1100.31 348.387 1097.88 347.867V347.867Z" fill="#263238"/>
<path d="M1088 294.398C1087.44 295.585 1082.94 294.398 1077.5 294.617C1072.06 294.835 1067.56 295.679 1066.97 294.617C1066.72 294.054 1067.59 292.96 1069.47 291.929C1071.95 290.695 1074.69 290.053 1077.47 290.054C1080.25 290.02 1083 290.641 1085.5 291.867C1087.34 292.742 1088.22 293.835 1088 294.398Z" fill="#263238"/>
<path d="M1129.62 302.71C1128.72 303.679 1125.69 302.242 1121.91 301.804C1118.12 301.367 1114.84 301.804 1114.22 300.585C1113.94 300.023 1114.56 299.054 1116.06 298.21C1118.06 297.204 1120.32 296.844 1122.53 297.179C1124.76 297.444 1126.85 298.406 1128.5 299.929C1129.72 301.117 1130.03 302.242 1129.62 302.71Z" fill="#263238"/>
<path d="M1034.87 322.679C1034.41 322.398 1015.09 314.46 1013.59 334.867C1012.09 355.273 1032.87 352.585 1032.94 351.992C1033 351.398 1034.87 322.679 1034.87 322.679Z" fill="#FFBE9D"/>
<path d="M1027.22 343.804C1027.22 343.804 1026.84 344.023 1026.22 344.242C1025.8 344.416 1025.35 344.506 1024.89 344.506C1024.43 344.506 1023.98 344.416 1023.56 344.242C1022.31 343.309 1021.32 342.059 1020.72 340.619C1020.11 339.18 1019.89 337.604 1020.09 336.054C1020.15 334.293 1020.63 332.57 1021.47 331.023C1021.71 330.399 1022.09 329.841 1022.59 329.4C1023.09 328.959 1023.69 328.647 1024.34 328.492C1024.76 328.413 1025.18 328.483 1025.55 328.689C1025.91 328.895 1026.2 329.223 1026.34 329.617C1026.59 330.21 1026.34 330.617 1026.53 330.648C1026.72 330.679 1027 330.367 1026.91 329.492C1026.81 328.98 1026.56 328.51 1026.19 328.148C1025.92 327.916 1025.62 327.738 1025.28 327.626C1024.95 327.513 1024.6 327.468 1024.25 327.492C1023.4 327.601 1022.6 327.921 1021.91 328.424C1021.22 328.926 1020.67 329.595 1020.31 330.367C1019.31 332.078 1018.74 334.009 1018.66 335.992C1018.44 337.798 1018.75 339.628 1019.56 341.259C1020.36 342.89 1021.62 344.252 1023.19 345.179C1023.72 345.376 1024.3 345.45 1024.86 345.396C1025.43 345.342 1025.98 345.161 1026.47 344.867C1027.16 344.304 1027.28 343.835 1027.22 343.804Z" fill="#EB996E"/>
<path d="M1144.81 296.71C1138.06 297.713 1131.16 297.103 1124.69 294.931C1118.21 292.758 1112.35 289.085 1107.56 284.21C1100.97 277.304 1096.34 267.867 1087.56 264.117C1084.56 262.962 1081.35 262.418 1078.13 262.514C1074.91 262.611 1071.74 263.347 1068.81 264.679C1062.97 267.383 1057.73 271.254 1053.44 276.054C1057.59 291.679 1051.94 308.242 1046.34 323.523C1045.9 325.279 1044.89 326.84 1043.47 327.96C1040.87 329.554 1037.44 327.742 1035.56 325.304C1032.88 321.186 1031.46 316.375 1031.47 311.46C1030.49 300.345 1031.75 289.147 1035.16 278.523C1038.62 267.851 1045.14 258.43 1053.91 251.429C1065.2 243.02 1079.32 239.332 1093.28 241.148C1107.17 243.051 1120.1 249.296 1130.22 258.992C1135.11 263.212 1138.88 268.581 1141.19 274.617" fill="#263238"/>
<path d="M1099.28 360.835C1098.65 362.669 1097.77 364.405 1096.66 365.992C1096.09 366.785 1095.37 367.449 1094.53 367.939C1093.68 368.43 1092.75 368.735 1091.78 368.835C1090.74 368.832 1089.72 368.57 1088.81 368.073C1087.9 367.577 1087.13 366.862 1086.56 365.992C1085.48 364.22 1084.98 362.156 1085.12 360.085C1085.12 358.21 1086.06 355.992 1087.91 355.773C1088.69 355.737 1089.46 355.909 1090.16 356.273L1099.91 360.21" fill="#EB996E"/>
<path d="M1095.37 368.804C1093.62 368.91 1091.86 368.687 1090.19 368.148C1088.49 367.468 1087.1 366.204 1086.25 364.585C1085.83 363.598 1085.61 362.535 1085.61 361.46C1085.61 360.386 1085.83 359.322 1086.25 358.335C1086.49 357.814 1086.78 357.322 1087.12 356.867C1087.5 356.46 1087.44 356.492 1087.84 356.554C1088.25 356.617 1088.87 356.96 1089.41 357.148C1089.94 357.335 1090.5 357.617 1091 357.804C1093.09 358.648 1094.97 359.398 1096.56 359.992C1098.24 360.792 1100.03 361.329 1101.87 361.585C1100.42 360.43 1098.8 359.512 1097.06 358.867C1095.53 358.117 1093.69 357.273 1091.62 356.335L1090.06 355.648C1089.49 355.359 1088.89 355.108 1088.28 354.898C1087.81 354.759 1087.31 354.759 1086.84 354.898C1086.41 355.086 1086.03 355.389 1085.75 355.773C1085.3 356.334 1084.93 356.954 1084.66 357.617C1084.13 358.856 1083.88 360.197 1083.94 361.542C1083.99 362.888 1084.34 364.205 1084.97 365.398C1085.48 366.359 1086.19 367.208 1087.04 367.894C1087.88 368.581 1088.86 369.092 1089.91 369.398C1091.29 369.782 1092.74 369.782 1094.12 369.398C1094.97 369.21 1095.44 368.898 1095.37 368.804Z" fill="#263238"/>
<path d="M1278.81 1210.15L1301.59 1276.21C1301.59 1276.21 1376.37 1275.27 1381.78 1287.05L1255.25 1335.84L1215.56 1234.34L1278.81 1210.15Z" fill="#447DD7"/>
<path d="M1260.34 1285.84C1259.27 1286.68 1258.54 1287.89 1258.31 1289.23C1258.07 1290.57 1258.34 1291.96 1259.06 1293.12C1259.86 1294.22 1261.05 1294.97 1262.39 1295.22C1263.73 1295.47 1265.11 1295.2 1266.25 1294.46C1267.38 1293.56 1268.15 1292.28 1268.4 1290.86C1268.64 1289.43 1268.36 1287.97 1267.59 1286.74C1266.64 1285.68 1265.31 1285.02 1263.88 1284.92C1262.45 1284.81 1261.04 1285.26 1259.94 1286.18" fill="#E0E0E0"/>
<g opacity="0.6">
<path opacity="0.6" d="M1255.25 1335.84L1251.66 1325.46L1374.31 1282.71C1374.31 1282.71 1380.91 1282.99 1381.78 1287.21L1255.25 1335.84Z" fill="white"/>
</g>
<path d="M1303.38 1274.77C1303.59 1275.4 1300.63 1276.87 1298.34 1280.02C1296.06 1283.18 1295.47 1286.27 1294.78 1286.27C1294.09 1286.27 1293.69 1282.34 1296.5 1278.55C1299.31 1274.77 1303.31 1274.15 1303.38 1274.77Z" fill="#263238"/>
<path d="M1318.78 1275.15C1319.16 1275.71 1316.88 1277.77 1315.66 1281.21C1314.44 1284.65 1315.03 1287.62 1314.41 1287.84C1313.78 1288.05 1312.03 1284.71 1313.47 1280.46C1314.91 1276.21 1318.53 1274.55 1318.78 1275.15Z" fill="#263238"/>
<path d="M1332.44 1288.12C1331.91 1288.49 1329.87 1285.71 1330.16 1281.87C1330.44 1278.02 1332.81 1275.4 1333.28 1275.8C1333.75 1276.21 1332.62 1278.71 1332.44 1282.05C1332.25 1285.4 1333.03 1287.84 1332.44 1288.12Z" fill="#263238"/>
<path d="M1296.53 1260.3C1296.53 1260.96 1293.41 1261.21 1289.94 1262.77C1286.47 1264.34 1284.22 1266.52 1283.69 1266.12C1283.16 1265.71 1284.94 1262.49 1288.97 1260.68C1293 1258.87 1296.66 1259.68 1296.53 1260.3Z" fill="#263238"/>
<path d="M814.625 1201.46L813.219 1203.3L785.812 1238.96L751.906 1262.21L797.312 1349.71H847.312C847.312 1349.71 843.719 1337.68 819.656 1331.46L818.062 1283.46L861.25 1236.02" fill="#447DD7"/>
<g opacity="0.6">
<path opacity="0.6" d="M751.906 1262.3L797.312 1349.77L847.312 1349.84L841.687 1342.3L801.031 1340.05L759.125 1257.37L751.906 1262.3Z" fill="white"/>
</g>
<path d="M819.25 1309.59C818.875 1310.12 816.125 1308.46 812.125 1308.59C808.125 1308.71 805.437 1310.27 805.031 1309.77C804.625 1309.27 807.406 1306.43 812.094 1306.37C816.781 1306.3 819.812 1309.21 819.25 1309.59Z" fill="#263238"/>
<path d="M818.562 1297.68C818.062 1298.05 815.812 1295.09 811.844 1294.3C807.875 1293.52 804.656 1295.34 804.344 1294.84C804.031 1294.34 804.75 1293.77 806.156 1292.99C808.043 1292.03 810.202 1291.73 812.279 1292.15C814.356 1292.57 816.229 1293.68 817.594 1295.3C818.594 1296.55 818.781 1297.55 818.562 1297.68Z" fill="#263238"/>
<path d="M818.875 1282.4C818.344 1282.68 816.625 1279.77 813.156 1278.59C809.687 1277.4 806.531 1278.59 806.281 1277.93C806.031 1277.27 806.781 1276.99 808.187 1276.46C810.028 1275.81 812.034 1275.81 813.875 1276.46C815.721 1277.11 817.295 1278.37 818.344 1280.02C819.25 1281.34 819.25 1282.27 818.875 1282.4Z" fill="#263238"/>
<path d="M832.281 1270.55C831.688 1270.74 830.281 1267.9 827.188 1265.9C824.094 1263.9 820.938 1263.59 820.938 1262.96C820.938 1262.34 824.625 1261.52 828.406 1264.05C832.187 1266.59 832.875 1270.46 832.281 1270.55Z" fill="#263238"/>
<g opacity="0.6">
<path opacity="0.6" d="M791.812 1260.84C791.812 1262.01 791.464 1263.16 790.812 1264.13C790.159 1265.11 789.232 1265.87 788.147 1266.32C787.062 1266.77 785.868 1266.89 784.717 1266.66C783.565 1266.43 782.507 1265.86 781.677 1265.03C780.846 1264.2 780.281 1263.15 780.052 1261.99C779.822 1260.84 779.94 1259.65 780.389 1258.56C780.839 1257.48 781.6 1256.55 782.576 1255.9C783.553 1255.25 784.701 1254.9 785.875 1254.9C787.45 1254.9 788.96 1255.52 790.073 1256.64C791.187 1257.75 791.812 1259.26 791.812 1260.84Z" fill="white"/>
</g>
<path d="M981.125 841.46L1135.72 1068.02L1219.28 1266.15L1290.06 1228.3L1218.5 1029.9L1113.38 821.492L981.125 841.46Z" fill="#263238"/>
<path d="M917.281 821.492L891.5 1003.87L785.969 1233.99L848.812 1270.55L983.031 1042.46L1057.53 821.492H917.281Z" fill="#263238"/>
<path d="M848.812 1270.55C848.955 1270.17 849.144 1269.8 849.375 1269.46C849.781 1268.68 850.375 1267.62 851.125 1266.34C852.719 1263.49 855.031 1259.43 857.969 1254.27C864.031 1243.74 872.719 1228.65 883.469 1210.05L968.094 1064.52L983.875 1037.46V1037.62L1030.28 897.898C1036.16 880.398 1040.91 866.304 1044.22 856.492L1048.03 845.335L1049.06 842.46C1049.17 842.125 1049.3 841.8 1049.47 841.492C1049.4 841.839 1049.32 842.184 1049.22 842.523L1048.31 845.429L1044.75 856.679L1031.31 898.242C1019.72 933.554 1003.59 982.617 985.406 1038.15L969.625 1065.21C936.438 1121.93 906.375 1173.24 884.594 1210.52C873.656 1228.99 864.812 1243.99 858.656 1254.46C855.531 1259.55 853.187 1263.55 851.531 1266.37L849.625 1269.49C849.381 1269.87 849.109 1270.22 848.812 1270.55V1270.55Z" fill="#455A64"/>
<path d="M1123.19 722.742L1117.97 644.46L1098.16 459.898L1105.19 421.429L1027.06 390.179L1017.69 408.929C970.812 415.992 951.031 508.585 951.031 508.585L949.406 696.867L897.375 824.492L910.875 836.398C932.219 849.21 1131.06 841.148 1131.06 841.148L1123.19 722.742Z" fill="#447DD7"/>
<g opacity="0.3">
<path opacity="0.3" d="M917.281 775.523C930.912 792.77 946.781 808.124 964.469 821.179C974.188 828.46 985.688 835.366 997.656 833.46C1009.63 831.554 1017.84 822.054 1025.44 813.085L1068.16 762.71C1070.84 760.065 1072.75 756.737 1073.69 753.085C1073.9 750.677 1073.46 748.255 1072.4 746.081C1071.34 743.906 1069.71 742.06 1067.69 740.742C1063.61 738.13 1058.93 736.593 1054.09 736.273C1024.09 732.71 994.719 747.617 964.563 747.867C954.25 747.867 937.438 745.898 927.688 749.304L917.281 775.523Z" fill="black"/>
</g>
<path d="M1078.31 652.679C1086.05 660.269 1090.87 670.341 1091.93 681.128C1092.98 691.916 1090.21 702.731 1084.09 711.679L1057.38 750.773L1018.59 801.46C1015.96 804.885 1012.63 807.711 1008.83 809.751C1005.02 811.792 1000.83 813 996.517 813.295C992.209 813.591 987.887 812.967 983.838 811.465C979.789 809.964 976.105 807.619 973.031 804.585L796.187 668.335C790.768 664.162 787.177 658.05 786.168 651.285C785.16 644.519 786.814 637.626 790.781 632.054L862.656 530.867C864.667 528.025 867.218 525.609 870.165 523.756C873.112 521.903 876.395 520.651 879.827 520.07C883.259 519.489 886.772 519.592 890.164 520.372C893.556 521.152 896.76 522.595 899.594 524.617L1078.31 652.679Z" fill="#455A64"/>
<path d="M986.719 812.242C986.825 811.907 986.983 811.59 987.187 811.304L988.75 808.648C990.156 806.335 992.281 802.96 995 798.648C1000.59 790.054 1008.87 777.679 1019.12 762.46C1029.37 747.242 1041.72 729.21 1055.09 708.96C1058.59 703.874 1061.72 698.548 1064.47 693.023C1065.81 690.235 1066.49 687.178 1066.47 684.085C1066.23 680.957 1065.05 677.973 1063.09 675.523C1059.16 670.46 1053.25 666.96 1047.78 663.023L1030.87 651.023L914.062 567.71L878.906 542.085L869.25 535.242L866.781 533.398C866.25 532.96 865.969 532.742 866 532.71C866.305 532.877 866.597 533.065 866.875 533.273L869.437 534.96L879.156 541.71L914.75 566.71L1031.84 649.617L1048.75 661.648C1054.19 665.679 1060.16 669.148 1064.37 674.585C1066.51 677.272 1067.78 680.539 1068.03 683.96C1068.07 687.309 1067.34 690.622 1065.91 693.648C1063.08 699.225 1059.87 704.603 1056.31 709.742C1042.87 729.992 1030.41 747.929 1020.06 763.085C999.312 793.335 986.719 812.242 986.719 812.242Z" fill="#263238"/>
<path d="M1053.84 415.21C1053.84 415.21 1003.63 388.648 927.781 508.96L941.219 524.585C941.219 524.585 1004.56 413.21 1046.41 426.679C1088.25 440.148 1026.81 615.71 1026.81 615.71C1026.81 615.71 1118.87 440.71 1053.84 415.21Z" fill="#263238"/>
<path d="M886.063 550.585C875.639 561.101 869.094 574.844 867.498 589.565C865.903 604.286 869.352 619.112 877.281 631.617C877.875 632.523 878.438 633.367 879.031 634.179L947.375 740.242L1004.56 704.992L949.094 604.585C949.094 604.585 974.844 578.023 1002.84 548.148C1040.56 507.867 1080.72 458.46 1051.94 430.085C1051.94 430.085 1032.34 414.46 1002.19 437.867C980.375 454.585 918.594 517.242 886.063 550.585Z" fill="#447DD7"/>
<path d="M1245.91 475.179L1275.69 467.773C1275.69 467.773 1283.72 474.992 1279.56 482.46C1275.41 489.929 1268.41 508.773 1268.41 508.773L1245.37 516.21L1238.87 534.96L1199.25 518.054L1209.87 482.898L1232.09 455.398L1248.84 452.835L1260.12 462.398C1260.12 462.398 1250.75 469.242 1244.5 461.867L1236.81 464.835L1237.5 469.46C1237.65 470.402 1237.99 471.303 1238.5 472.108C1239.01 472.913 1239.68 473.604 1240.46 474.14C1241.25 474.676 1242.14 475.045 1243.08 475.224C1244.01 475.402 1244.98 475.387 1245.91 475.179Z" fill="#FFBE9D"/>
<path d="M1275.5 468.992L1294.97 459.617C1296.21 459.23 1297.54 459.156 1298.82 459.401C1300.1 459.646 1301.3 460.203 1302.31 461.023L1303.28 463.054L1279.97 478.304L1275.5 468.992Z" fill="#FFBE9D"/>
<path d="M1234.56 499.335C1235 497.607 1235.68 495.946 1236.56 494.398C1238.45 490.665 1239.47 486.55 1239.53 482.367C1239.46 480.117 1238.88 477.913 1237.81 475.929C1237.28 475 1236.83 474.028 1236.47 473.023C1236.17 472.105 1236.05 471.142 1236.09 470.179C1235.99 468.363 1236.22 466.543 1236.75 464.804C1237.12 466.55 1237.29 468.332 1237.25 470.117C1237.38 471.958 1238.03 473.726 1239.12 475.21C1240.39 477.365 1241.09 479.806 1241.16 482.304C1241.1 486.713 1239.87 491.028 1237.59 494.804C1236.86 496.485 1235.84 498.02 1234.56 499.335V499.335Z" fill="#EB996E"/>
<path d="M1322.69 428.273C1322.97 428.835 1327 434.835 1327 434.835L1238.19 500.21L1232.62 493.117L1322.69 428.273Z" fill="#263238"/>
<path d="M1267.97 507.46C1268.34 506.917 1268.59 506.304 1268.72 505.66C1268.84 505.015 1268.84 504.352 1268.7 503.71C1268.56 503.068 1268.3 502.46 1267.92 501.923C1267.54 501.386 1267.06 500.931 1266.5 500.585C1264.17 499.265 1261.51 498.656 1258.84 498.835C1254.5 498.573 1250.13 498.814 1245.84 499.554C1244.41 499.751 1243.06 500.311 1241.91 501.179C1241.34 501.615 1240.92 502.213 1240.69 502.893C1240.47 503.573 1240.46 504.304 1240.66 504.992C1241.28 506.648 1243.25 507.242 1244.94 507.585C1249.55 508.495 1254.24 508.862 1258.94 508.679" fill="#FFBE9D"/>
<path d="M1258.94 508.679C1256.2 509.285 1253.37 509.391 1250.59 508.992C1249.28 508.992 1247.87 508.773 1246.37 508.523C1244.66 508.407 1242.99 507.928 1241.47 507.117C1241.01 506.823 1240.62 506.433 1240.32 505.975C1240.02 505.517 1239.83 505 1239.75 504.46C1239.63 503.34 1239.96 502.219 1240.66 501.335C1242.1 499.778 1244.07 498.819 1246.19 498.648C1249.88 498.028 1253.64 497.829 1257.37 498.054C1260.5 497.831 1263.64 498.457 1266.44 499.867C1267.38 500.448 1268.14 501.286 1268.62 502.283C1269.1 503.279 1269.29 504.392 1269.16 505.491C1268.87 507.054 1268 507.523 1267.97 507.46C1267.94 507.398 1268.47 506.773 1268.53 505.429C1268.53 504.495 1268.28 503.578 1267.8 502.771C1267.33 501.965 1266.66 501.297 1265.84 500.835C1263.16 499.703 1260.24 499.262 1257.34 499.554C1253.72 499.436 1250.08 499.666 1246.5 500.242C1244.78 500.373 1243.17 501.103 1241.94 502.304C1241.7 502.548 1241.51 502.842 1241.4 503.165C1241.28 503.489 1241.24 503.833 1241.28 504.174C1241.32 504.515 1241.43 504.844 1241.61 505.137C1241.78 505.429 1242.03 505.679 1242.31 505.867C1243.64 506.578 1245.1 507.034 1246.59 507.21C1248.06 507.492 1249.44 507.71 1250.69 507.867C1255.75 508.492 1258.94 508.429 1258.94 508.679Z" fill="#EB996E"/>
<path d="M1275.5 489.273C1268.41 487.554 1263.34 486.835 1256.25 485.085C1254 484.275 1251.54 484.21 1249.25 484.898C1247.03 485.804 1245.66 488.898 1247.28 490.648C1247.89 491.233 1248.63 491.671 1249.44 491.929L1270.62 500.242" fill="#FFBE9D"/>
<path d="M1270.56 500.242C1267.73 499.618 1264.96 498.74 1262.28 497.617L1253.62 494.335L1248.41 492.304C1247.84 492.098 1247.32 491.762 1246.9 491.322C1246.49 490.883 1246.18 490.352 1246 489.773C1245.86 489.173 1245.84 488.55 1245.95 487.942C1246.05 487.335 1246.28 486.756 1246.62 486.242C1247.24 485.216 1248.19 484.433 1249.31 484.023C1250.32 483.689 1251.38 483.551 1252.44 483.617C1254.32 483.849 1256.18 484.225 1258 484.742L1267.16 486.867C1270.02 487.366 1272.81 488.172 1275.5 489.273C1272.61 489.061 1269.73 488.633 1266.91 487.992C1264.28 487.523 1261.12 486.992 1257.53 486.21C1255.79 485.739 1254.01 485.404 1252.22 485.21C1251.37 485.077 1250.51 485.186 1249.72 485.523C1248.94 485.86 1248.27 486.413 1247.78 487.117C1247.36 487.784 1247.2 488.588 1247.34 489.367C1247.47 489.717 1247.67 490.034 1247.94 490.294C1248.2 490.554 1248.52 490.75 1248.87 490.867L1253.97 492.929L1262.66 496.523C1265.41 497.499 1268.06 498.745 1270.56 500.242V500.242Z" fill="#EB996E"/>
<path d="M1280 478.21L1260.81 474.742C1258.5 474.071 1256.04 474.159 1253.78 474.992C1251.66 476.054 1250.5 479.21 1252.22 480.867C1252.87 481.399 1253.62 481.783 1254.44 481.992L1276.12 488.96" fill="#FFBE9D"/>
<path d="M1276.12 488.96C1273.26 488.541 1270.45 487.85 1267.72 486.898L1258.75 484.21L1253.44 482.554C1252.85 482.391 1252.32 482.098 1251.86 481.697C1251.41 481.297 1251.05 480.8 1250.81 480.242C1250.62 479.658 1250.55 479.041 1250.6 478.428C1250.66 477.816 1250.83 477.221 1251.12 476.679C1251.65 475.599 1252.53 474.736 1253.62 474.242C1254.6 473.79 1255.67 473.566 1256.75 473.585C1258.65 473.641 1260.53 473.892 1262.37 474.335L1271.56 476.179C1274.42 476.617 1277.24 477.318 1279.97 478.273C1277.08 478.227 1274.2 477.902 1271.37 477.304L1262 475.804C1260.24 475.425 1258.45 475.216 1256.66 475.179C1255.81 475.101 1254.97 475.27 1254.22 475.664C1253.47 476.057 1252.85 476.66 1252.44 477.398C1250.34 481.21 1256.09 481.492 1259.06 482.773L1267.94 485.898C1270.75 486.667 1273.49 487.692 1276.12 488.96V488.96Z" fill="#EB996E"/>
<path d="M1241.12 532.242L1183.31 655.742C1180.62 661.516 1176.5 666.514 1171.36 670.273C1166.21 674.032 1160.2 676.429 1153.87 677.242C1145.77 678.276 1137.54 676.655 1130.43 672.621C1123.32 668.587 1117.71 662.358 1114.44 654.867L1071.31 556.117L1095.81 449.554L1153.62 573.835L1201 506.71L1241.12 532.242Z" fill="#447DD7"/>
<path d="M1136.75 615.523C1138.69 608.056 1141.19 600.744 1144.22 593.648C1146.71 586.396 1149.71 579.327 1153.19 572.492C1151.24 579.957 1148.74 587.268 1145.72 594.367C1143.22 601.619 1140.23 608.688 1136.75 615.523V615.523Z" fill="#263238"/>
<path d="M1123.94 721.429C1123.77 720.563 1123.65 719.686 1123.59 718.804C1123.44 716.929 1123.19 714.367 1122.91 711.179C1122.31 704.367 1121.5 694.804 1120.5 683.054C1118.44 659.179 1115.59 626.46 1112.47 590.335C1109.34 554.21 1105.94 521.367 1103.31 497.679C1101.97 485.96 1100.87 476.429 1100.19 469.554C1099.81 466.429 1099.5 463.804 1099.28 461.929C1099.13 461.041 1099.07 460.141 1099.09 459.242C1099.09 459.242 1099.31 460.148 1099.62 461.867C1099.94 463.585 1100.31 466.273 1100.81 469.46C1101.78 476.054 1103.09 485.617 1104.53 497.429C1107.44 521.085 1110.78 553.835 1114.16 590.054C1117.53 626.273 1120 659.085 1121.72 682.835C1122.5 694.617 1123.16 704.21 1123.59 710.96C1123.78 714.085 1123.91 716.742 1124 718.648C1124.07 719.575 1124.05 720.507 1123.94 721.429V721.429Z" fill="#263238"/>
<path d="M992.531 712.085L1000.06 727.71C1000.06 727.71 1015 729.492 1021.19 732.367C1027.37 735.242 1049.59 754.585 1049.59 754.585C1048.85 756.123 1047.6 757.354 1046.05 758.067C1044.49 758.78 1042.74 758.93 1041.09 758.492C1036.18 755.716 1031.48 752.583 1027.03 749.117V749.117C1025.8 749.326 1024.64 749.838 1023.66 750.609C1022.68 751.379 1021.9 752.382 1021.41 753.527C1020.91 754.672 1020.71 755.923 1020.82 757.167C1020.92 758.41 1021.34 759.607 1022.03 760.648C1026.47 767.273 1031.56 774.992 1032.06 776.273C1032.56 777.554 1042.38 781.648 1049.75 784.585C1050.7 785 1051.5 785.702 1052.03 786.593C1052.56 787.484 1052.8 788.519 1052.72 789.552C1052.63 790.586 1052.22 791.567 1051.55 792.358C1050.88 793.148 1049.98 793.709 1048.97 793.96C1048.54 794.089 1048.08 794.089 1047.66 793.96C1047.66 793.96 1051.22 801.46 1038.28 799.304C1038.28 799.304 1029.72 805.148 1023.06 801.554C1023.06 801.554 1010.84 804.304 1005.44 802.492C1000.03 800.679 977.625 769.085 977.625 769.085L958.125 733.773L992.531 712.085Z" fill="#FFBE9D"/>
<path d="M1012.78 768.742C1013.33 770.938 1014.19 773.044 1015.34 774.992C1017.65 780.075 1021.13 784.541 1025.5 788.023C1030.12 791.059 1035.45 792.836 1040.97 793.179C1043.18 793.526 1045.44 793.526 1047.66 793.179C1045.53 792.559 1043.34 792.191 1041.13 792.085C1035.92 791.386 1030.94 789.551 1026.53 786.71C1022.39 783.38 1018.96 779.258 1016.44 774.585C1015.45 772.502 1014.22 770.541 1012.78 768.742V768.742Z" fill="#EB996E"/>
<path d="M1006.41 776.023C1006.6 778.126 1007.3 780.152 1008.44 781.929C1009.46 783.946 1010.64 785.879 1011.97 787.71C1013.56 790.05 1015.6 792.048 1017.97 793.585C1020.42 794.838 1023.01 795.803 1025.69 796.46L1031.94 798.117C1033.87 798.783 1035.89 799.172 1037.94 799.273C1036.19 798.213 1034.29 797.423 1032.31 796.929C1030.53 796.304 1028.41 795.585 1026.06 794.867C1023.53 794.169 1021.08 793.216 1018.75 792.023C1016.58 790.607 1014.69 788.794 1013.19 786.679C1011.83 784.965 1010.58 783.17 1009.44 781.304C1007.5 778.117 1006.75 775.96 1006.41 776.023Z" fill="#EB996E"/>
<path d="M999.687 785.023C999.125 785.429 1003.09 791.085 1008.31 797.523C1009.05 798.412 1010.01 799.092 1011.09 799.492C1011.98 799.893 1012.89 800.237 1013.81 800.523C1015.36 801.016 1016.95 801.371 1018.56 801.585C1021.31 801.929 1023.06 801.585 1023.03 801.367C1023 801.148 1021.38 800.992 1018.78 800.335C1017.27 799.972 1015.79 799.513 1014.34 798.96C1013.48 798.671 1012.63 798.326 1011.81 797.929C1010.99 797.605 1010.27 797.091 1009.69 796.429C1007.06 793.117 1004.59 790.179 1002.78 788.21C1000.97 786.242 999.875 784.929 999.687 785.023Z" fill="#EB996E"/>
<path d="M1091.12 416.554C1090.76 421.742 1089.99 426.893 1088.81 431.96C1088.16 437.137 1087.12 442.256 1085.69 447.273C1085.47 442.025 1085.94 436.772 1087.09 431.648C1087.77 426.463 1089.13 421.388 1091.12 416.554V416.554Z" fill="#263238"/>
<path d="M1067.09 426.023C1067.2 423.003 1067.86 420.028 1069.03 417.242C1069.71 414.293 1070.9 411.489 1072.56 408.96C1072.41 411.979 1071.75 414.949 1070.59 417.742C1069.94 420.691 1068.75 423.497 1067.09 426.023V426.023Z" fill="#263238"/>
<path d="M1049.41 417.335C1049.94 414.564 1051 411.922 1052.53 409.554C1053.57 406.936 1055.11 404.546 1057.06 402.523C1056.54 405.297 1055.48 407.941 1053.94 410.304C1052.88 412.913 1051.35 415.299 1049.41 417.335Z" fill="#263238"/>
<path d="M1026.19 414.648C1027.83 411.249 1029.93 408.094 1032.44 405.273C1034.52 402.121 1037.03 399.281 1039.91 396.835C1038.29 400.247 1036.18 403.405 1033.66 406.21C1031.58 409.362 1029.06 412.202 1026.19 414.648V414.648Z" fill="#263238"/>
<path d="M949.406 605.585C947.61 604.419 945.878 603.157 944.219 601.804C935.812 595.904 925.7 592.929 915.438 593.335C913.364 593.588 911.276 593.702 909.188 593.679C911.162 592.803 913.28 592.295 915.438 592.179C920.692 591.665 925.996 592.164 931.062 593.648C936.123 595.142 940.846 597.604 944.969 600.898C946.725 602.173 948.229 603.762 949.406 605.585V605.585Z" fill="#263238"/>
<path d="M932.625 565.648C934.525 566.841 936.215 568.34 937.625 570.085C944.945 578.199 949.525 588.411 950.719 599.273C951.108 601.485 951.108 603.748 950.719 605.96C949.296 590.902 942.948 576.733 932.656 565.648H932.625Z" fill="#263238"/>
<path d="M1004.78 704.242C1004.32 703.652 1003.92 703.025 1003.56 702.367L1000.28 696.773L988.375 675.898C978.344 657.992 964.469 633.242 948.781 605.304L948.5 604.773L948.906 604.335L961.031 591.585L1025.19 524.429L1044.75 504.179L1050.12 498.742C1050.74 498.093 1051.4 497.487 1052.09 496.929C1051.57 497.654 1050.99 498.343 1050.37 498.992L1045.22 504.617L1026 525.21C1009.59 542.585 987.094 566.398 962.219 592.679L950.062 605.46V604.523C965.687 632.648 979.281 657.398 989.187 675.367C994 684.242 997.906 691.398 1000.69 696.492L1003.81 702.21C1004.2 702.853 1004.53 703.534 1004.78 704.242V704.242Z" fill="#263238"/>
<g opacity="0.3">
<path opacity="0.3" d="M974.844 578.21L997.156 594.21C1000.33 592.54 1003.09 590.193 1005.25 587.335C1022.02 563.888 1034.27 537.521 1041.37 509.585L974.844 578.21Z" fill="black"/>
</g>
<path d="M1007.06 543.085C1006.66 538.924 1005.43 534.886 1003.44 531.21C1001.17 527.32 998.17 523.912 994.594 521.179C990.149 517.868 985.257 515.205 980.062 513.273C974.562 511.054 969.094 509.523 964.219 507.554C959.794 505.967 955.802 503.366 952.562 499.96C950.385 497.625 948.911 494.722 948.312 491.585C948.016 490.459 948.016 489.274 948.312 488.148C948.312 488.148 948.312 489.398 948.906 491.46C949.725 494.367 951.261 497.022 953.375 499.179C956.597 502.332 960.484 504.723 964.75 506.179C969.5 508.023 975.031 509.492 980.625 511.742C985.962 513.746 990.974 516.526 995.5 519.992C999.183 522.892 1002.22 526.533 1004.41 530.679C1005.88 533.468 1006.81 536.511 1007.16 539.648C1007.34 540.79 1007.31 541.955 1007.06 543.085Z" fill="#F5F5F5"/>
<path d="M1109.25 557.023C1107.85 557.016 1106.45 556.922 1105.06 556.742C1101.31 556.461 1097.54 556.461 1093.78 556.742C1089 557.085 1083.37 557.898 1077.09 558.867C1070.26 560.037 1063.34 560.706 1056.41 560.867C1049.37 561.046 1042.39 559.681 1035.94 556.867C1030.71 554.403 1026.23 550.609 1022.94 545.867C1020.72 542.666 1019.34 538.958 1018.94 535.085C1018.83 534.047 1018.83 532.999 1018.94 531.96C1018.94 531.242 1018.94 530.898 1019.12 530.898C1019.31 530.898 1019.12 532.398 1019.56 535.023C1020.2 538.711 1021.68 542.2 1023.91 545.21C1027.18 549.672 1031.55 553.213 1036.59 555.492C1042.85 558.144 1049.61 559.412 1056.41 559.21C1063.26 559.076 1070.1 558.46 1076.87 557.367C1083.12 556.492 1088.87 555.773 1093.72 555.585C1097.53 555.393 1101.35 555.55 1105.12 556.054C1106.54 556.184 1107.93 556.51 1109.25 557.023V557.023Z" fill="#F5F5F5"/>
<path d="M1130.22 527.898C1127.88 532.152 1124.65 535.85 1120.75 538.741C1116.85 541.632 1112.37 543.647 1107.62 544.648C1107.63 544.179 1113.56 542.085 1119.78 537.429C1126 532.773 1129.81 527.617 1130.22 527.898Z" fill="#F5F5F5"/>
<path d="M1139.12 548.96C1135.87 554.195 1131.61 558.728 1126.58 562.291C1121.55 565.855 1115.86 568.377 1109.84 569.71C1115.25 567.09 1120.48 564.125 1125.5 560.835C1130.3 557.181 1134.85 553.214 1139.12 548.96V548.96Z" fill="#F5F5F5"/>
<path d="M1113.31 592.085C1107.71 588.983 1101.53 587.059 1095.16 586.429C1088.22 585.867 1081.25 585.867 1074.31 586.429C1065.74 587.144 1057.12 587.082 1048.56 586.242C1032.96 584.524 1017.87 579.632 1004.22 571.867C1000.11 569.518 996.165 566.898 992.406 564.023C990.992 563.011 989.674 561.871 988.469 560.617C989.977 561.476 991.419 562.448 992.781 563.523C996.656 566.17 1000.66 568.621 1004.78 570.867C1018.4 578.246 1033.32 582.926 1048.72 584.648C1057.21 585.455 1065.75 585.549 1074.25 584.929C1081.26 584.414 1088.29 584.508 1095.28 585.21C1100.03 585.754 1104.65 587.107 1108.94 589.21C1110.09 589.773 1111.2 590.431 1112.25 591.179C1113 591.679 1113.34 592.085 1113.31 592.085Z" fill="#F5F5F5"/>
<path d="M994.25 553.773C994.109 554.517 993.878 555.241 993.562 555.929L993.344 556.523L993.094 555.929C990.962 551.447 987.415 547.791 983 545.523C979.603 543.698 976.006 542.271 972.281 541.273C968.25 540.054 963.781 539.023 959.281 537.398C949.691 533.892 941.166 527.972 934.531 520.21C932.541 517.885 930.763 515.385 929.219 512.742C928.568 511.784 928.072 510.729 927.75 509.617C928 509.429 930.25 513.71 935.406 519.367C942.132 526.73 950.522 532.376 959.875 535.835C964.25 537.429 968.688 538.492 972.781 539.773C976.595 540.84 980.26 542.383 983.687 544.367C988.262 546.814 991.785 550.848 993.594 555.71H993.125C993.813 554.367 994.25 553.742 994.25 553.773Z" fill="#F5F5F5"/>
<path d="M1438.19 1349.84C1438.19 1350.27 1116.31 1350.65 719.125 1350.65C321.938 1350.65 0 1350.27 0 1349.84C0 1349.4 321.875 1349.02 719.125 1349.02C1116.38 1349.02 1438.19 1349.4 1438.19 1349.84Z" fill="#263238"/>
</svg>
